M48
; DRILL file {KiCad 8.0.0} date 2024-03-13T01:24:11+0530
; FORMAT={-:-/ absolute / metric / decimal}
; #@! TF.CreationDate,2024-03-13T01:24:11+05:30
; #@! TF.GenerationSoftware,Kicad,Pcbnew,8.0.0
; #@! TF.FileFunction,Plated,1,2,PTH
FMAT,2
METRIC
; #@! TA.AperFunction,Plated,PTH,ViaDrill
T1C0.300
; #@! TA.AperFunction,Plated,PTH,ComponentDrill
T2C0.800
; #@! TA.AperFunction,Plated,PTH,ComponentDrill
T3C1.000
; #@! TA.AperFunction,Plated,PTH,ComponentDrill
T4C1.500
; #@! TA.AperFunction,Plated,PTH,ComponentDrill
T5C3.050
%
G90
G05
T1
X143.053Y-104.038
X143.866Y-99.999
X144.602Y-120.014
X147.676Y-111.023
X150.241Y-106.197
X152.298Y-94.64
X156.439Y-93.09
X158.75Y-101.904
X160.604Y-100.304
T2
X106.645Y-88.173
X106.645Y-95.793
X106.645Y-107.173
X106.645Y-114.793
X106.645Y-126.173
X106.645Y-133.793
X125.645Y-88.173
X125.645Y-95.793
X125.645Y-107.173
X125.645Y-114.793
X125.645Y-126.173
X125.645Y-133.793
X143.126Y-87.313
X143.126Y-94.933
X143.126Y-106.313
X143.126Y-113.933
X143.126Y-124.123
X143.126Y-131.743
T3
X147.395Y-131.483
X147.395Y-133.983
X147.395Y-136.483
X148.025Y-87.887
X148.025Y-90.427
X148.025Y-92.967
X148.025Y-95.507
X148.025Y-98.047
X148.025Y-100.587
X148.025Y-103.127
X148.025Y-105.667
X148.025Y-108.207
X150.565Y-108.207
X151.825Y-123.383
X153.105Y-108.207
X154.365Y-123.383
X155.645Y-108.207
X156.905Y-123.383
X158.185Y-108.207
X159.445Y-123.383
X160.725Y-108.207
X161.895Y-131.483
X161.895Y-136.483
X163.265Y-87.887
X163.265Y-90.427
X163.265Y-92.967
X163.265Y-95.507
X163.265Y-98.047
X163.265Y-100.587
X163.265Y-103.127
X163.265Y-105.667
X163.265Y-108.207
T5
X94.105Y-101.063
X94.105Y-120.063
X94.105Y-139.113
X100.455Y-98.523
X100.455Y-117.523
X100.455Y-136.573
X113.105Y-101.063
X113.105Y-120.063
X113.105Y-139.113
X119.455Y-98.523
X119.455Y-117.523
X119.455Y-136.573
X132.105Y-101.063
X132.105Y-120.063
X132.105Y-139.113
X138.455Y-98.523
X138.455Y-117.523
X138.455Y-136.573
T4
X154.245Y-128.383G85X155.545Y-128.383
G05
X154.245Y-139.583G85X155.545Y-139.583
G05
M30
