G04 #@! TF.GenerationSoftware,KiCad,Pcbnew,8.0.0*
G04 #@! TF.CreationDate,2024-03-13T01:44:58+05:30*
G04 #@! TF.ProjectId,CoryDora,436f7279-446f-4726-912e-6b696361645f,rev?*
G04 #@! TF.SameCoordinates,Original*
G04 #@! TF.FileFunction,Copper,L2,Bot*
G04 #@! TF.FilePolarity,Positive*
%FSLAX46Y46*%
G04 Gerber Fmt 4.6, Leading zero omitted, Abs format (unit mm)*
G04 Created by KiCad (PCBNEW 8.0.0) date 2024-03-13 01:44:58*
%MOMM*%
%LPD*%
G01*
G04 APERTURE LIST*
G04 Aperture macros list*
%AMRoundRect*
0 Rectangle with rounded corners*
0 $1 Rounding radius*
0 $2 $3 $4 $5 $6 $7 $8 $9 X,Y pos of 4 corners*
0 Add a 4 corners polygon primitive as box body*
4,1,4,$2,$3,$4,$5,$6,$7,$8,$9,$2,$3,0*
0 Add four circle primitives for the rounded corners*
1,1,$1+$1,$2,$3*
1,1,$1+$1,$4,$5*
1,1,$1+$1,$6,$7*
1,1,$1+$1,$8,$9*
0 Add four rect primitives between the rounded corners*
20,1,$1+$1,$2,$3,$4,$5,0*
20,1,$1+$1,$4,$5,$6,$7,0*
20,1,$1+$1,$6,$7,$8,$9,0*
20,1,$1+$1,$8,$9,$2,$3,0*%
G04 Aperture macros list end*
G04 #@! TA.AperFunction,SMDPad,CuDef*
%ADD10RoundRect,0.250000X1.525000X1.000000X-1.525000X1.000000X-1.525000X-1.000000X1.525000X-1.000000X0*%
G04 #@! TD*
G04 #@! TA.AperFunction,ComponentPad*
%ADD11C,3.600000*%
G04 #@! TD*
G04 #@! TA.AperFunction,ComponentPad*
%ADD12R,2.000000X2.000000*%
G04 #@! TD*
G04 #@! TA.AperFunction,ComponentPad*
%ADD13C,2.000000*%
G04 #@! TD*
G04 #@! TA.AperFunction,ComponentPad*
%ADD14R,3.200000X2.000000*%
G04 #@! TD*
G04 #@! TA.AperFunction,ComponentPad*
%ADD15R,1.700000X1.700000*%
G04 #@! TD*
G04 #@! TA.AperFunction,ComponentPad*
%ADD16O,1.700000X1.700000*%
G04 #@! TD*
G04 #@! TA.AperFunction,ComponentPad*
%ADD17R,1.600000X1.600000*%
G04 #@! TD*
G04 #@! TA.AperFunction,ComponentPad*
%ADD18O,1.600000X1.600000*%
G04 #@! TD*
G04 #@! TA.AperFunction,ComponentPad*
%ADD19O,2.500000X1.500000*%
G04 #@! TD*
G04 #@! TA.AperFunction,ComponentPad*
%ADD20O,1.500000X2.500000*%
G04 #@! TD*
G04 #@! TA.AperFunction,ViaPad*
%ADD21C,0.600000*%
G04 #@! TD*
G04 #@! TA.AperFunction,Conductor*
%ADD22C,0.200000*%
G04 #@! TD*
G04 APERTURE END LIST*
D10*
X122230000Y-98523262D03*
D11*
X119455000Y-98523262D03*
X113105000Y-101063262D03*
D10*
X110325000Y-101063262D03*
X141230000Y-98523262D03*
D11*
X138455000Y-98523262D03*
X132105000Y-101063262D03*
D10*
X129325000Y-101063262D03*
D12*
X147395000Y-131483262D03*
D13*
X147395000Y-136483262D03*
X147395000Y-133983262D03*
D14*
X154895000Y-128383262D03*
X154895000Y-139583262D03*
D13*
X161895000Y-136483262D03*
X161895000Y-131483262D03*
D10*
X103230000Y-98523262D03*
D11*
X100455000Y-98523262D03*
X94105000Y-101063262D03*
D10*
X91325000Y-101063262D03*
X122230000Y-136573262D03*
D11*
X119455000Y-136573262D03*
X113105000Y-139113262D03*
D10*
X110325000Y-139113262D03*
X103230000Y-117523262D03*
D11*
X100455000Y-117523262D03*
X94105000Y-120063262D03*
D10*
X91325000Y-120063262D03*
X103230000Y-136573262D03*
D11*
X100455000Y-136573262D03*
X94105000Y-139113262D03*
D10*
X91325000Y-139113262D03*
X141230000Y-117523262D03*
D11*
X138455000Y-117523262D03*
X132105000Y-120063262D03*
D10*
X129325000Y-120063262D03*
X141230000Y-136573262D03*
D11*
X138455000Y-136573262D03*
X132105000Y-139113262D03*
D10*
X129325000Y-139113262D03*
D15*
X159445000Y-123383262D03*
D16*
X156905000Y-123383262D03*
X154365000Y-123383262D03*
X151825000Y-123383262D03*
D10*
X122230000Y-117523262D03*
D11*
X119455000Y-117523262D03*
X113105000Y-120063262D03*
D10*
X110325000Y-120063262D03*
D17*
X125645000Y-107173262D03*
D18*
X125645000Y-114793262D03*
D17*
X143125932Y-87312816D03*
D18*
X143125932Y-94932816D03*
D17*
X106645000Y-107173262D03*
D18*
X106645000Y-114793262D03*
D17*
X143125932Y-124122816D03*
D18*
X143125932Y-131742816D03*
D17*
X106645000Y-88173262D03*
D18*
X106645000Y-95793262D03*
D17*
X125645000Y-126173262D03*
D18*
X125645000Y-133793262D03*
D17*
X125645000Y-88173262D03*
D18*
X125645000Y-95793262D03*
D17*
X143125932Y-106312816D03*
D18*
X143125932Y-113932816D03*
D19*
X147525000Y-87887153D03*
X147525000Y-90427153D03*
X147525000Y-92967153D03*
X147525000Y-95507153D03*
X147525000Y-98047153D03*
X147525000Y-100587153D03*
X147525000Y-103127153D03*
X147525000Y-105667153D03*
X147525000Y-108207153D03*
D20*
X150565000Y-108707153D03*
X153105000Y-108707153D03*
X155645000Y-108707153D03*
X158185000Y-108707153D03*
X160725000Y-108707153D03*
D19*
X163765000Y-108207153D03*
X163765000Y-105667153D03*
X163765000Y-103127153D03*
X163765000Y-100587153D03*
X163765000Y-98047153D03*
X163765000Y-95507153D03*
X163765000Y-92967153D03*
X163765000Y-90427153D03*
X163765000Y-87887153D03*
D17*
X106645000Y-126173262D03*
D18*
X106645000Y-133793262D03*
D21*
X143052800Y-104037862D03*
X144602200Y-120014462D03*
X143865600Y-99999262D03*
X147675600Y-111022862D03*
X152298400Y-94639862D03*
X156438600Y-93090462D03*
X158750000Y-101904262D03*
X160604200Y-100304062D03*
X150241000Y-106196862D03*
D22*
X142265486Y-107173262D02*
X143125932Y-106312816D01*
X143510000Y-104495062D02*
X162092909Y-104495062D01*
X143052800Y-104037862D02*
X143510000Y-104495062D01*
X162092909Y-104495062D02*
X163265000Y-105667153D01*
X144602200Y-120014462D02*
X146322615Y-120014462D01*
X157899509Y-106717153D02*
X164699924Y-106717153D01*
X156695000Y-109642077D02*
X156695000Y-107921662D01*
X146322615Y-120014462D02*
X156695000Y-109642077D01*
X165315000Y-105177153D02*
X163265000Y-103127153D01*
X165315000Y-106102077D02*
X165315000Y-105177153D01*
X164699924Y-106717153D02*
X165315000Y-106102077D01*
X156695000Y-107921662D02*
X157899509Y-106717153D01*
X147675600Y-111022862D02*
X146837400Y-110184662D01*
X142420000Y-101495662D02*
X143865600Y-100050062D01*
X143865600Y-100050062D02*
X143865600Y-99999262D01*
X143061471Y-104895062D02*
X142420000Y-104253591D01*
X142420000Y-104253591D02*
X142420000Y-101495662D01*
X146837400Y-109829062D02*
X144225932Y-107217594D01*
X144225932Y-107217594D02*
X144225932Y-105212816D01*
X144225932Y-105212816D02*
X143908178Y-104895062D01*
X146837400Y-110184662D02*
X146837400Y-109829062D01*
X143908178Y-104895062D02*
X143061471Y-104895062D01*
X152298400Y-94639862D02*
X153847800Y-93090462D01*
X153847800Y-93090462D02*
X156438600Y-93090462D01*
X159445000Y-123383262D02*
X159445000Y-129033262D01*
X161895000Y-131483262D02*
X149895000Y-131483262D01*
X162204400Y-101904262D02*
X160604200Y-100304062D01*
X158750000Y-101904262D02*
X162204400Y-101904262D01*
X149895000Y-131483262D02*
X147395000Y-133983262D01*
X159445000Y-129033262D02*
X161895000Y-131483262D01*
X141230000Y-98523262D02*
X141230000Y-117523262D01*
X141230000Y-117523262D02*
X141230000Y-136573262D01*
X141230000Y-98523262D02*
X141803891Y-99097153D01*
X141803891Y-99097153D02*
X161775000Y-99097153D01*
X161775000Y-99097153D02*
X163265000Y-100587153D01*
X122230000Y-117523262D02*
X122230000Y-98523262D01*
X148509314Y-94017153D02*
X152539314Y-98047153D01*
X122230000Y-98523262D02*
X122230000Y-97273262D01*
X146590076Y-94017153D02*
X148509314Y-94017153D01*
X126101185Y-93402077D02*
X145975000Y-93402077D01*
X122230000Y-97273262D02*
X126101185Y-93402077D01*
X122230000Y-136573262D02*
X122230000Y-117523262D01*
X152539314Y-98047153D02*
X163265000Y-98047153D01*
X145975000Y-93402077D02*
X146590076Y-94017153D01*
X114203309Y-91917153D02*
X159675000Y-91917153D01*
X159675000Y-91917153D02*
X163265000Y-95507153D01*
X112064800Y-94055662D02*
X114203309Y-91917153D01*
X109857800Y-98523262D02*
X110871000Y-97510062D01*
X103230000Y-117523262D02*
X103230000Y-136573262D01*
X110871000Y-97510062D02*
X112064800Y-97510062D01*
X103230000Y-98523262D02*
X109857800Y-98523262D01*
X112064800Y-97510062D02*
X112064800Y-94055662D01*
X103230000Y-98523262D02*
X103230000Y-117523262D01*
X149504400Y-110042591D02*
X149504400Y-106933462D01*
X149504400Y-106933462D02*
X150241000Y-106196862D01*
X147395000Y-136483262D02*
X146095000Y-135183262D01*
X144002200Y-120262991D02*
X144002200Y-115544791D01*
X147395000Y-136483262D02*
X145975000Y-135063262D01*
X146095000Y-135183262D02*
X146095000Y-122355791D01*
X146095000Y-122355791D02*
X144002200Y-120262991D01*
X144002200Y-115544791D02*
X149504400Y-110042591D01*
M02*
