G04 #@! TF.GenerationSoftware,KiCad,Pcbnew,8.0.4*
G04 #@! TF.CreationDate,2024-08-26T00:37:18+05:30*
G04 #@! TF.ProjectId,CoryDora,436f7279-446f-4726-912e-6b696361645f,rev?*
G04 #@! TF.SameCoordinates,Original*
G04 #@! TF.FileFunction,Copper,L2,Bot*
G04 #@! TF.FilePolarity,Positive*
%FSLAX46Y46*%
G04 Gerber Fmt 4.6, Leading zero omitted, Abs format (unit mm)*
G04 Created by KiCad (PCBNEW 8.0.4) date 2024-08-26 00:37:18*
%MOMM*%
%LPD*%
G01*
G04 APERTURE LIST*
G04 Aperture macros list*
%AMRoundRect*
0 Rectangle with rounded corners*
0 $1 Rounding radius*
0 $2 $3 $4 $5 $6 $7 $8 $9 X,Y pos of 4 corners*
0 Add a 4 corners polygon primitive as box body*
4,1,4,$2,$3,$4,$5,$6,$7,$8,$9,$2,$3,0*
0 Add four circle primitives for the rounded corners*
1,1,$1+$1,$2,$3*
1,1,$1+$1,$4,$5*
1,1,$1+$1,$6,$7*
1,1,$1+$1,$8,$9*
0 Add four rect primitives between the rounded corners*
20,1,$1+$1,$2,$3,$4,$5,0*
20,1,$1+$1,$4,$5,$6,$7,0*
20,1,$1+$1,$6,$7,$8,$9,0*
20,1,$1+$1,$8,$9,$2,$3,0*%
G04 Aperture macros list end*
G04 #@! TA.AperFunction,SMDPad,CuDef*
%ADD10RoundRect,0.250000X1.525000X1.000000X-1.525000X1.000000X-1.525000X-1.000000X1.525000X-1.000000X0*%
G04 #@! TD*
G04 #@! TA.AperFunction,ComponentPad*
%ADD11C,3.600000*%
G04 #@! TD*
G04 #@! TA.AperFunction,ComponentPad*
%ADD12R,2.000000X2.000000*%
G04 #@! TD*
G04 #@! TA.AperFunction,ComponentPad*
%ADD13C,2.000000*%
G04 #@! TD*
G04 #@! TA.AperFunction,ComponentPad*
%ADD14R,3.200000X2.000000*%
G04 #@! TD*
G04 #@! TA.AperFunction,ComponentPad*
%ADD15R,1.700000X1.700000*%
G04 #@! TD*
G04 #@! TA.AperFunction,ComponentPad*
%ADD16O,1.700000X1.700000*%
G04 #@! TD*
G04 #@! TA.AperFunction,ComponentPad*
%ADD17R,1.600000X1.600000*%
G04 #@! TD*
G04 #@! TA.AperFunction,ComponentPad*
%ADD18O,1.600000X1.600000*%
G04 #@! TD*
G04 #@! TA.AperFunction,ComponentPad*
%ADD19O,2.500000X1.500000*%
G04 #@! TD*
G04 #@! TA.AperFunction,ComponentPad*
%ADD20O,1.500000X2.500000*%
G04 #@! TD*
G04 #@! TA.AperFunction,ViaPad*
%ADD21C,0.600000*%
G04 #@! TD*
G04 #@! TA.AperFunction,Conductor*
%ADD22C,0.200000*%
G04 #@! TD*
G04 APERTURE END LIST*
D10*
X122230000Y-98523262D03*
D11*
X119455000Y-98523262D03*
X113105000Y-101063262D03*
D10*
X110325000Y-101063262D03*
X141230000Y-98523262D03*
D11*
X138455000Y-98523262D03*
X132105000Y-101063262D03*
D10*
X129325000Y-101063262D03*
D12*
X147293400Y-133083462D03*
D13*
X147293400Y-138083462D03*
X147293400Y-135583462D03*
D14*
X154793400Y-129983462D03*
X154793400Y-141183462D03*
D13*
X161793400Y-138083462D03*
X161793400Y-133083462D03*
D10*
X103230000Y-98523262D03*
D11*
X100455000Y-98523262D03*
X94105000Y-101063262D03*
D10*
X91325000Y-101063262D03*
X122230000Y-136573262D03*
D11*
X119455000Y-136573262D03*
X113105000Y-139113262D03*
D10*
X110325000Y-139113262D03*
X103230000Y-117523262D03*
D11*
X100455000Y-117523262D03*
X94105000Y-120063262D03*
D10*
X91325000Y-120063262D03*
X103230000Y-136573262D03*
D11*
X100455000Y-136573262D03*
X94105000Y-139113262D03*
D10*
X91325000Y-139113262D03*
X141230000Y-117523262D03*
D11*
X138455000Y-117523262D03*
X132105000Y-120063262D03*
D10*
X129325000Y-120063262D03*
X141230000Y-136573262D03*
D11*
X138455000Y-136573262D03*
X132105000Y-139113262D03*
D10*
X129325000Y-139113262D03*
D15*
X159445000Y-123383262D03*
D16*
X156905000Y-123383262D03*
X154365000Y-123383262D03*
X151825000Y-123383262D03*
D10*
X122230000Y-117523262D03*
D11*
X119455000Y-117523262D03*
X113105000Y-120063262D03*
D10*
X110325000Y-120063262D03*
D17*
X125645000Y-107173262D03*
D18*
X125645000Y-114793262D03*
D17*
X143125932Y-87312816D03*
D18*
X143125932Y-94932816D03*
D17*
X106645000Y-107173262D03*
D18*
X106645000Y-114793262D03*
D17*
X143125932Y-124122816D03*
D18*
X143125932Y-131742816D03*
D17*
X106645000Y-88173262D03*
D18*
X106645000Y-95793262D03*
D17*
X125645000Y-126173262D03*
D18*
X125645000Y-133793262D03*
D17*
X125645000Y-88173262D03*
D18*
X125645000Y-95793262D03*
D17*
X143125932Y-106312816D03*
D18*
X143125932Y-113932816D03*
D19*
X147525000Y-87887153D03*
X147525000Y-90427153D03*
X147525000Y-92967153D03*
X147525000Y-95507153D03*
X147525000Y-98047153D03*
X147525000Y-100587153D03*
X147525000Y-103127153D03*
X147525000Y-105667153D03*
X147525000Y-108207153D03*
D20*
X150565000Y-108707153D03*
X153105000Y-108707153D03*
X155645000Y-108707153D03*
X158185000Y-108707153D03*
X160725000Y-108707153D03*
D19*
X163765000Y-108207153D03*
X163765000Y-105667153D03*
X163765000Y-103127153D03*
X163765000Y-100587153D03*
X163765000Y-98047153D03*
X163765000Y-95507153D03*
X163765000Y-92967153D03*
X163765000Y-90427153D03*
X163765000Y-87887153D03*
D17*
X106645000Y-126173262D03*
D18*
X106645000Y-133793262D03*
D21*
X143052800Y-104037862D03*
X144602200Y-120014462D03*
X143865600Y-99999262D03*
X147675600Y-111022862D03*
X152298400Y-94639862D03*
X156438600Y-93090462D03*
X158750000Y-101904262D03*
X160604200Y-100304062D03*
X150241000Y-106196862D03*
D22*
X142265486Y-107173262D02*
X143125932Y-106312816D01*
X143510000Y-104495062D02*
X162092909Y-104495062D01*
X143052800Y-104037862D02*
X143510000Y-104495062D01*
X162092909Y-104495062D02*
X163265000Y-105667153D01*
X144602200Y-120014462D02*
X146322615Y-120014462D01*
X157899509Y-106717153D02*
X164699924Y-106717153D01*
X156695000Y-109642077D02*
X156695000Y-107921662D01*
X146322615Y-120014462D02*
X156695000Y-109642077D01*
X165315000Y-105177153D02*
X163265000Y-103127153D01*
X165315000Y-106102077D02*
X165315000Y-105177153D01*
X164699924Y-106717153D02*
X165315000Y-106102077D01*
X156695000Y-107921662D02*
X157899509Y-106717153D01*
X147675600Y-111022862D02*
X146837400Y-110184662D01*
X142420000Y-101495662D02*
X143865600Y-100050062D01*
X143865600Y-100050062D02*
X143865600Y-99999262D01*
X143061471Y-104895062D02*
X142420000Y-104253591D01*
X142420000Y-104253591D02*
X142420000Y-101495662D01*
X146837400Y-109829062D02*
X144225932Y-107217594D01*
X144225932Y-107217594D02*
X144225932Y-105212816D01*
X144225932Y-105212816D02*
X143908178Y-104895062D01*
X146837400Y-110184662D02*
X146837400Y-109829062D01*
X143908178Y-104895062D02*
X143061471Y-104895062D01*
X152298400Y-94639862D02*
X153847800Y-93090462D01*
X153847800Y-93090462D02*
X156438600Y-93090462D01*
X159445000Y-123383262D02*
X159445000Y-130735062D01*
X160604200Y-100304062D02*
X160350200Y-100304062D01*
X159445000Y-130735062D02*
X161793400Y-133083462D01*
X151802400Y-133083462D02*
X149352000Y-135533862D01*
X149199600Y-135533862D02*
X149150000Y-135583462D01*
X161793400Y-133083462D02*
X151802400Y-133083462D01*
X149352000Y-135533862D02*
X149199600Y-135533862D01*
X160350200Y-100304062D02*
X158750000Y-101904262D01*
X149150000Y-135583462D02*
X147293400Y-135583462D01*
X141230000Y-98523262D02*
X141230000Y-117523262D01*
X141230000Y-117523262D02*
X141230000Y-136573262D01*
X141230000Y-98523262D02*
X141803891Y-99097153D01*
X141803891Y-99097153D02*
X161775000Y-99097153D01*
X161775000Y-99097153D02*
X163265000Y-100587153D01*
X122230000Y-117523262D02*
X122230000Y-98523262D01*
X148509314Y-94017153D02*
X152539314Y-98047153D01*
X122230000Y-98523262D02*
X122230000Y-97273262D01*
X146590076Y-94017153D02*
X148509314Y-94017153D01*
X126101185Y-93402077D02*
X145975000Y-93402077D01*
X122230000Y-97273262D02*
X126101185Y-93402077D01*
X122230000Y-136573262D02*
X122230000Y-117523262D01*
X152539314Y-98047153D02*
X163265000Y-98047153D01*
X145975000Y-93402077D02*
X146590076Y-94017153D01*
X112369600Y-93750862D02*
X112369600Y-96519462D01*
X103230000Y-117523262D02*
X103230000Y-136573262D01*
X103230000Y-98523262D02*
X109857800Y-98523262D01*
X114203309Y-91917153D02*
X159675000Y-91917153D01*
X109857800Y-98523262D02*
X110871000Y-97510062D01*
X112369600Y-96519462D02*
X111379000Y-97510062D01*
X159675000Y-91917153D02*
X163265000Y-95507153D01*
X110871000Y-97510062D02*
X111379000Y-97510062D01*
X112369600Y-93750862D02*
X114203309Y-91917153D01*
X103230000Y-98523262D02*
X103230000Y-117523262D01*
X149504400Y-110042591D02*
X149504400Y-106933462D01*
X149504400Y-106933462D02*
X150241000Y-106196862D01*
X147293400Y-138083462D02*
X145993400Y-136783462D01*
X145313400Y-136524462D02*
X145313400Y-132073662D01*
X144002200Y-120262991D02*
X144002200Y-115544791D01*
X146095000Y-122355791D02*
X144002200Y-120262991D01*
X145313400Y-132073662D02*
X146095000Y-131292062D01*
X144002200Y-115544791D02*
X149504400Y-110042591D01*
X146095000Y-131292062D02*
X146095000Y-122355791D01*
X145993400Y-136783462D02*
X145572400Y-136783462D01*
X145572400Y-136783462D02*
X145313400Y-136524462D01*
G04 #@! TA.AperFunction,NonConductor*
G36*
X141825455Y-86143047D02*
G01*
X141871210Y-86195851D01*
X141881154Y-86265009D01*
X141874598Y-86290695D01*
X141831840Y-86405333D01*
X141825433Y-86464932D01*
X141825433Y-86464939D01*
X141825432Y-86464951D01*
X141825432Y-88160686D01*
X141825433Y-88160692D01*
X141831840Y-88220299D01*
X141882134Y-88355144D01*
X141882138Y-88355151D01*
X141968384Y-88470360D01*
X141968387Y-88470363D01*
X142083596Y-88556609D01*
X142083603Y-88556613D01*
X142218449Y-88606907D01*
X142218448Y-88606907D01*
X142225376Y-88607651D01*
X142278059Y-88613316D01*
X143973804Y-88613315D01*
X144033415Y-88606907D01*
X144168263Y-88556612D01*
X144283478Y-88470362D01*
X144369728Y-88355147D01*
X144420023Y-88220299D01*
X144426432Y-88160689D01*
X144426431Y-86464944D01*
X144420023Y-86405333D01*
X144377266Y-86290695D01*
X144372282Y-86221003D01*
X144405767Y-86159680D01*
X144467090Y-86126196D01*
X144493448Y-86123362D01*
X170292100Y-86123362D01*
X170359139Y-86143047D01*
X170404894Y-86195851D01*
X170416100Y-86247362D01*
X170416100Y-145094762D01*
X170396415Y-145161801D01*
X170343611Y-145207556D01*
X170292100Y-145218762D01*
X81929900Y-145218762D01*
X81862861Y-145199077D01*
X81817106Y-145146273D01*
X81805900Y-145094762D01*
X81805900Y-142742775D01*
X82799700Y-142742775D01*
X82799700Y-142955348D01*
X82832953Y-143165301D01*
X82898644Y-143367476D01*
X82995151Y-143556882D01*
X83120090Y-143728848D01*
X83270413Y-143879171D01*
X83442379Y-144004110D01*
X83442381Y-144004111D01*
X83442384Y-144004113D01*
X83631788Y-144100619D01*
X83833957Y-144166308D01*
X84043913Y-144199562D01*
X84043914Y-144199562D01*
X84256486Y-144199562D01*
X84256487Y-144199562D01*
X84466443Y-144166308D01*
X84668612Y-144100619D01*
X84858016Y-144004113D01*
X84879989Y-143988148D01*
X85029986Y-143879171D01*
X85029988Y-143879168D01*
X85029992Y-143879166D01*
X85180304Y-143728854D01*
X85180306Y-143728850D01*
X85180309Y-143728848D01*
X85305248Y-143556882D01*
X85305247Y-143556882D01*
X85305251Y-143556878D01*
X85401757Y-143367474D01*
X85467446Y-143165305D01*
X85500700Y-142955349D01*
X85500700Y-142742775D01*
X85467446Y-142532819D01*
X85401757Y-142330650D01*
X85305251Y-142141246D01*
X85305249Y-142141243D01*
X85305248Y-142141241D01*
X85180309Y-141969275D01*
X85029986Y-141818952D01*
X84858020Y-141694013D01*
X84668614Y-141597506D01*
X84668613Y-141597505D01*
X84668612Y-141597505D01*
X84466443Y-141531816D01*
X84466441Y-141531815D01*
X84466440Y-141531815D01*
X84305157Y-141506270D01*
X84256487Y-141498562D01*
X84043913Y-141498562D01*
X83995242Y-141506270D01*
X83833960Y-141531815D01*
X83631785Y-141597506D01*
X83442379Y-141694013D01*
X83270413Y-141818952D01*
X83120090Y-141969275D01*
X82995151Y-142141241D01*
X82898644Y-142330647D01*
X82832953Y-142532822D01*
X82799700Y-142742775D01*
X81805900Y-142742775D01*
X81805900Y-138063245D01*
X89049500Y-138063245D01*
X89049500Y-140163263D01*
X89049501Y-140163280D01*
X89060000Y-140266058D01*
X89060001Y-140266061D01*
X89115185Y-140432593D01*
X89115186Y-140432596D01*
X89207288Y-140581918D01*
X89331344Y-140705974D01*
X89480666Y-140798076D01*
X89647203Y-140853261D01*
X89749991Y-140863762D01*
X92565326Y-140863761D01*
X92632365Y-140883446D01*
X92647085Y-140894533D01*
X92701540Y-140942288D01*
X92952279Y-141109826D01*
X92952286Y-141109830D01*
X93222731Y-141243199D01*
X93222736Y-141243201D01*
X93222748Y-141243207D01*
X93508309Y-141340142D01*
X93708251Y-141379913D01*
X93804069Y-141398973D01*
X93804070Y-141398973D01*
X93804080Y-141398975D01*
X94105000Y-141418698D01*
X94405920Y-141398975D01*
X94701691Y-141340142D01*
X94987252Y-141243207D01*
X95257718Y-141109828D01*
X95508461Y-140942287D01*
X95735189Y-140743451D01*
X95934025Y-140516723D01*
X96101566Y-140265980D01*
X96234945Y-139995514D01*
X96331880Y-139709953D01*
X96390713Y-139414182D01*
X96410436Y-139113262D01*
X96390713Y-138812342D01*
X96388286Y-138800143D01*
X96369005Y-138703208D01*
X96331880Y-138516571D01*
X96234945Y-138231010D01*
X96221354Y-138203451D01*
X96101568Y-137960548D01*
X96101564Y-137960541D01*
X95934026Y-137709802D01*
X95735189Y-137483072D01*
X95508459Y-137284235D01*
X95257720Y-137116697D01*
X95257713Y-137116693D01*
X94987268Y-136983324D01*
X94987247Y-136983315D01*
X94701698Y-136886384D01*
X94701692Y-136886382D01*
X94701691Y-136886382D01*
X94701689Y-136886381D01*
X94701683Y-136886380D01*
X94405930Y-136827550D01*
X94405921Y-136827549D01*
X94405920Y-136827549D01*
X94105000Y-136807826D01*
X93804080Y-136827549D01*
X93804079Y-136827549D01*
X93804069Y-136827550D01*
X93508316Y-136886380D01*
X93508301Y-136886384D01*
X93222752Y-136983315D01*
X93222731Y-136983324D01*
X92952286Y-137116693D01*
X92952279Y-137116697D01*
X92701540Y-137284235D01*
X92647085Y-137331991D01*
X92583703Y-137361393D01*
X92565327Y-137362762D01*
X89749998Y-137362762D01*
X89749981Y-137362763D01*
X89647203Y-137373262D01*
X89647200Y-137373263D01*
X89480668Y-137428447D01*
X89480663Y-137428449D01*
X89331342Y-137520551D01*
X89207289Y-137644604D01*
X89115187Y-137793925D01*
X89115185Y-137793930D01*
X89101361Y-137835649D01*
X89060001Y-137960465D01*
X89060001Y-137960466D01*
X89060000Y-137960466D01*
X89049500Y-138063245D01*
X81805900Y-138063245D01*
X81805900Y-133944683D01*
X90439500Y-133944683D01*
X90439500Y-134121840D01*
X90467214Y-134296818D01*
X90521956Y-134465301D01*
X90521957Y-134465304D01*
X90602386Y-134623152D01*
X90706517Y-134766476D01*
X90831786Y-134891745D01*
X90975110Y-134995876D01*
X91022456Y-135020000D01*
X91132957Y-135076304D01*
X91132960Y-135076305D01*
X91201979Y-135098730D01*
X91301445Y-135131048D01*
X91476421Y-135158762D01*
X91476422Y-135158762D01*
X91653578Y-135158762D01*
X91653579Y-135158762D01*
X91828555Y-135131048D01*
X91997042Y-135076304D01*
X92154890Y-134995876D01*
X92298214Y-134891745D01*
X92423483Y-134766476D01*
X92527614Y-134623152D01*
X92608042Y-134465304D01*
X92662786Y-134296817D01*
X92690500Y-134121841D01*
X92690500Y-133944683D01*
X92662786Y-133769707D01*
X92608042Y-133601220D01*
X92608042Y-133601219D01*
X92527613Y-133443371D01*
X92423483Y-133300048D01*
X92298214Y-133174779D01*
X92154890Y-133070648D01*
X92125871Y-133055862D01*
X91997042Y-132990219D01*
X91997039Y-132990218D01*
X91828556Y-132935476D01*
X91741067Y-132921619D01*
X91653579Y-132907762D01*
X91476421Y-132907762D01*
X91418095Y-132917000D01*
X91301443Y-132935476D01*
X91132960Y-132990218D01*
X91132957Y-132990219D01*
X90975109Y-133070648D01*
X90903190Y-133122901D01*
X90831786Y-133174779D01*
X90831784Y-133174781D01*
X90831783Y-133174781D01*
X90706519Y-133300045D01*
X90706519Y-133300046D01*
X90706517Y-133300048D01*
X90672569Y-133346773D01*
X90602386Y-133443371D01*
X90521957Y-133601219D01*
X90521956Y-133601222D01*
X90467214Y-133769705D01*
X90439500Y-133944683D01*
X81805900Y-133944683D01*
X81805900Y-119013245D01*
X89049500Y-119013245D01*
X89049500Y-121113263D01*
X89049501Y-121113280D01*
X89060000Y-121216058D01*
X89060001Y-121216061D01*
X89115185Y-121382593D01*
X89115186Y-121382596D01*
X89207288Y-121531918D01*
X89331344Y-121655974D01*
X89480666Y-121748076D01*
X89647203Y-121803261D01*
X89749991Y-121813762D01*
X92565326Y-121813761D01*
X92632365Y-121833446D01*
X92647085Y-121844533D01*
X92701540Y-121892288D01*
X92952279Y-122059826D01*
X92952286Y-122059830D01*
X93222731Y-122193199D01*
X93222736Y-122193201D01*
X93222748Y-122193207D01*
X93508309Y-122290142D01*
X93708251Y-122329913D01*
X93804069Y-122348973D01*
X93804070Y-122348973D01*
X93804080Y-122348975D01*
X94105000Y-122368698D01*
X94405920Y-122348975D01*
X94701691Y-122290142D01*
X94987252Y-122193207D01*
X95257718Y-122059828D01*
X95508461Y-121892287D01*
X95735189Y-121693451D01*
X95934025Y-121466723D01*
X96101566Y-121215980D01*
X96234945Y-120945514D01*
X96331880Y-120659953D01*
X96390713Y-120364182D01*
X96410436Y-120063262D01*
X96390713Y-119762342D01*
X96388286Y-119750143D01*
X96369005Y-119653208D01*
X96331880Y-119466571D01*
X96234945Y-119181010D01*
X96233911Y-119178914D01*
X96101568Y-118910548D01*
X96101564Y-118910541D01*
X95934026Y-118659802D01*
X95735189Y-118433072D01*
X95508459Y-118234235D01*
X95257720Y-118066697D01*
X95257713Y-118066693D01*
X94987268Y-117933324D01*
X94987247Y-117933315D01*
X94701698Y-117836384D01*
X94701692Y-117836382D01*
X94701691Y-117836382D01*
X94701689Y-117836381D01*
X94701683Y-117836380D01*
X94405930Y-117777550D01*
X94405921Y-117777549D01*
X94405920Y-117777549D01*
X94105000Y-117757826D01*
X93804080Y-117777549D01*
X93804079Y-117777549D01*
X93804069Y-117777550D01*
X93508316Y-117836380D01*
X93508301Y-117836384D01*
X93222752Y-117933315D01*
X93222731Y-117933324D01*
X92952286Y-118066693D01*
X92952279Y-118066697D01*
X92701540Y-118234235D01*
X92647085Y-118281991D01*
X92583703Y-118311393D01*
X92565327Y-118312762D01*
X89749998Y-118312762D01*
X89749981Y-118312763D01*
X89647203Y-118323262D01*
X89647200Y-118323263D01*
X89480668Y-118378447D01*
X89480663Y-118378449D01*
X89331342Y-118470551D01*
X89207289Y-118594604D01*
X89115187Y-118743925D01*
X89115186Y-118743928D01*
X89060001Y-118910465D01*
X89060001Y-118910466D01*
X89060000Y-118910466D01*
X89049500Y-119013245D01*
X81805900Y-119013245D01*
X81805900Y-114894683D01*
X90439500Y-114894683D01*
X90439500Y-115071840D01*
X90467214Y-115246818D01*
X90521956Y-115415301D01*
X90521957Y-115415304D01*
X90578714Y-115526693D01*
X90602386Y-115573152D01*
X90706517Y-115716476D01*
X90831786Y-115841745D01*
X90975110Y-115945876D01*
X91043577Y-115980762D01*
X91132957Y-116026304D01*
X91132960Y-116026305D01*
X91217201Y-116053676D01*
X91301445Y-116081048D01*
X91476421Y-116108762D01*
X91476422Y-116108762D01*
X91653578Y-116108762D01*
X91653579Y-116108762D01*
X91828555Y-116081048D01*
X91997042Y-116026304D01*
X92154890Y-115945876D01*
X92298214Y-115841745D01*
X92423483Y-115716476D01*
X92527614Y-115573152D01*
X92608042Y-115415304D01*
X92662786Y-115246817D01*
X92690500Y-115071841D01*
X92690500Y-114894683D01*
X92662786Y-114719707D01*
X92630598Y-114620640D01*
X92608043Y-114551222D01*
X92608042Y-114551219D01*
X92527613Y-114393371D01*
X92423483Y-114250048D01*
X92298214Y-114124779D01*
X92154890Y-114020648D01*
X92125871Y-114005862D01*
X91997042Y-113940219D01*
X91997039Y-113940218D01*
X91828556Y-113885476D01*
X91741067Y-113871619D01*
X91653579Y-113857762D01*
X91476421Y-113857762D01*
X91418095Y-113867000D01*
X91301443Y-113885476D01*
X91132960Y-113940218D01*
X91132957Y-113940219D01*
X90975109Y-114020648D01*
X90903190Y-114072901D01*
X90831786Y-114124779D01*
X90831784Y-114124781D01*
X90831783Y-114124781D01*
X90706519Y-114250045D01*
X90706519Y-114250046D01*
X90706517Y-114250048D01*
X90661796Y-114311600D01*
X90602386Y-114393371D01*
X90521957Y-114551219D01*
X90521956Y-114551222D01*
X90467214Y-114719705D01*
X90439500Y-114894683D01*
X81805900Y-114894683D01*
X81805900Y-100013245D01*
X89049500Y-100013245D01*
X89049500Y-102113263D01*
X89049501Y-102113280D01*
X89060000Y-102216058D01*
X89060001Y-102216061D01*
X89115185Y-102382593D01*
X89115186Y-102382596D01*
X89207288Y-102531918D01*
X89331344Y-102655974D01*
X89480666Y-102748076D01*
X89647203Y-102803261D01*
X89749991Y-102813762D01*
X92565326Y-102813761D01*
X92632365Y-102833446D01*
X92647085Y-102844533D01*
X92701540Y-102892288D01*
X92952279Y-103059826D01*
X92952286Y-103059830D01*
X93222731Y-103193199D01*
X93222736Y-103193201D01*
X93222748Y-103193207D01*
X93508309Y-103290142D01*
X93708251Y-103329913D01*
X93804069Y-103348973D01*
X93804070Y-103348973D01*
X93804080Y-103348975D01*
X94105000Y-103368698D01*
X94405920Y-103348975D01*
X94701691Y-103290142D01*
X94987252Y-103193207D01*
X95257718Y-103059828D01*
X95508461Y-102892287D01*
X95735189Y-102693451D01*
X95934025Y-102466723D01*
X96101566Y-102215980D01*
X96234945Y-101945514D01*
X96331880Y-101659953D01*
X96390713Y-101364182D01*
X96410436Y-101063262D01*
X96390713Y-100762342D01*
X96388286Y-100750143D01*
X96369080Y-100653585D01*
X96331880Y-100466571D01*
X96234945Y-100181010D01*
X96221354Y-100153451D01*
X96101568Y-99910548D01*
X96101564Y-99910541D01*
X95934026Y-99659802D01*
X95735189Y-99433072D01*
X95508459Y-99234235D01*
X95257720Y-99066697D01*
X95257713Y-99066693D01*
X94987268Y-98933324D01*
X94987247Y-98933315D01*
X94701698Y-98836384D01*
X94701692Y-98836382D01*
X94701691Y-98836382D01*
X94701689Y-98836381D01*
X94701683Y-98836380D01*
X94405930Y-98777550D01*
X94405921Y-98777549D01*
X94405920Y-98777549D01*
X94105000Y-98757826D01*
X93804080Y-98777549D01*
X93804079Y-98777549D01*
X93804069Y-98777550D01*
X93508316Y-98836380D01*
X93508301Y-98836384D01*
X93222752Y-98933315D01*
X93222731Y-98933324D01*
X92952286Y-99066693D01*
X92952279Y-99066697D01*
X92701540Y-99234235D01*
X92647085Y-99281991D01*
X92583703Y-99311393D01*
X92565327Y-99312762D01*
X89749998Y-99312762D01*
X89749981Y-99312763D01*
X89647203Y-99323262D01*
X89647200Y-99323263D01*
X89480668Y-99378447D01*
X89480663Y-99378449D01*
X89331342Y-99470551D01*
X89207289Y-99594604D01*
X89115187Y-99743925D01*
X89115185Y-99743930D01*
X89105716Y-99772507D01*
X89060001Y-99910465D01*
X89060001Y-99910466D01*
X89060000Y-99910466D01*
X89049500Y-100013245D01*
X81805900Y-100013245D01*
X81805900Y-95894683D01*
X90439500Y-95894683D01*
X90439500Y-96071840D01*
X90467214Y-96246818D01*
X90521956Y-96415301D01*
X90521957Y-96415304D01*
X90578714Y-96526693D01*
X90602386Y-96573152D01*
X90706517Y-96716476D01*
X90831786Y-96841745D01*
X90975110Y-96945876D01*
X91043577Y-96980762D01*
X91132957Y-97026304D01*
X91132960Y-97026305D01*
X91217201Y-97053676D01*
X91301445Y-97081048D01*
X91476421Y-97108762D01*
X91476422Y-97108762D01*
X91653578Y-97108762D01*
X91653579Y-97108762D01*
X91828555Y-97081048D01*
X91997042Y-97026304D01*
X92154890Y-96945876D01*
X92298214Y-96841745D01*
X92423483Y-96716476D01*
X92527614Y-96573152D01*
X92608042Y-96415304D01*
X92662786Y-96246817D01*
X92690500Y-96071841D01*
X92690500Y-95894683D01*
X92681165Y-95835748D01*
X94394500Y-95835748D01*
X94394500Y-96130775D01*
X94416304Y-96296384D01*
X94433007Y-96423255D01*
X94508606Y-96705397D01*
X94509361Y-96708213D01*
X94509364Y-96708223D01*
X94622254Y-96980762D01*
X94622258Y-96980772D01*
X94769761Y-97236255D01*
X94949352Y-97470302D01*
X94949358Y-97470309D01*
X95157952Y-97678903D01*
X95157959Y-97678909D01*
X95392006Y-97858500D01*
X95647489Y-98006003D01*
X95647490Y-98006003D01*
X95647493Y-98006005D01*
X95731257Y-98040701D01*
X95906757Y-98113396D01*
X95920048Y-98118901D01*
X96205007Y-98195255D01*
X96497494Y-98233762D01*
X96497501Y-98233762D01*
X96792499Y-98233762D01*
X96792506Y-98233762D01*
X97084993Y-98195255D01*
X97369952Y-98118901D01*
X97642507Y-98006005D01*
X97897994Y-97858500D01*
X98051339Y-97740833D01*
X98116507Y-97715639D01*
X98184952Y-97729677D01*
X98234942Y-97778491D01*
X98250606Y-97846582D01*
X98244245Y-97879066D01*
X98228121Y-97926566D01*
X98228118Y-97926578D01*
X98169288Y-98222331D01*
X98169287Y-98222341D01*
X98169287Y-98222342D01*
X98149564Y-98523262D01*
X98161315Y-98702558D01*
X98169287Y-98824180D01*
X98169288Y-98824192D01*
X98228118Y-99119945D01*
X98228122Y-99119960D01*
X98325053Y-99405509D01*
X98325062Y-99405530D01*
X98458431Y-99675975D01*
X98458435Y-99675982D01*
X98625973Y-99926721D01*
X98824810Y-100153451D01*
X99051540Y-100352288D01*
X99302279Y-100519826D01*
X99302286Y-100519830D01*
X99572731Y-100653199D01*
X99572736Y-100653201D01*
X99572748Y-100653207D01*
X99858309Y-100750142D01*
X100048492Y-100787972D01*
X100154069Y-100808973D01*
X100154070Y-100808973D01*
X100154080Y-100808975D01*
X100455000Y-100828698D01*
X100755920Y-100808975D01*
X101051691Y-100750142D01*
X101337252Y-100653207D01*
X101607718Y-100519828D01*
X101858461Y-100352287D01*
X101912912Y-100304534D01*
X101976294Y-100275131D01*
X101994672Y-100273761D01*
X102505500Y-100273761D01*
X102572539Y-100293446D01*
X102618294Y-100346250D01*
X102629500Y-100397761D01*
X102629500Y-114005862D01*
X102609815Y-114072901D01*
X102557011Y-114118656D01*
X102487853Y-114128600D01*
X102432615Y-114106180D01*
X102314890Y-114020648D01*
X102285871Y-114005862D01*
X102157042Y-113940219D01*
X102157039Y-113940218D01*
X101988556Y-113885476D01*
X101901067Y-113871619D01*
X101813579Y-113857762D01*
X101636421Y-113857762D01*
X101578095Y-113867000D01*
X101461443Y-113885476D01*
X101292960Y-113940218D01*
X101292957Y-113940219D01*
X101135109Y-114020648D01*
X101063190Y-114072901D01*
X100991786Y-114124779D01*
X100991784Y-114124781D01*
X100991783Y-114124781D01*
X100866519Y-114250045D01*
X100866519Y-114250046D01*
X100866517Y-114250048D01*
X100821796Y-114311600D01*
X100762386Y-114393371D01*
X100681957Y-114551219D01*
X100681956Y-114551222D01*
X100627214Y-114719705D01*
X100599500Y-114894683D01*
X100599500Y-115071838D01*
X100600104Y-115075654D01*
X100591144Y-115144947D01*
X100546144Y-115198395D01*
X100479391Y-115219030D01*
X100469529Y-115218778D01*
X100455000Y-115217826D01*
X100154080Y-115237549D01*
X100154079Y-115237549D01*
X100154069Y-115237550D01*
X99858316Y-115296380D01*
X99858301Y-115296384D01*
X99572752Y-115393315D01*
X99572731Y-115393324D01*
X99302286Y-115526693D01*
X99302279Y-115526697D01*
X99051540Y-115694235D01*
X99009654Y-115730968D01*
X98946272Y-115760370D01*
X98877055Y-115750837D01*
X98823981Y-115705397D01*
X98803898Y-115638476D01*
X98808120Y-115605651D01*
X98856993Y-115423255D01*
X98895500Y-115130768D01*
X98895500Y-114835756D01*
X98856993Y-114543269D01*
X98780639Y-114258310D01*
X98667743Y-113985755D01*
X98649480Y-113954123D01*
X98520238Y-113730268D01*
X98340647Y-113496221D01*
X98340641Y-113496214D01*
X98132047Y-113287620D01*
X98132040Y-113287614D01*
X97897993Y-113108023D01*
X97642510Y-112960520D01*
X97642500Y-112960516D01*
X97369961Y-112847626D01*
X97369954Y-112847624D01*
X97369952Y-112847623D01*
X97084993Y-112771269D01*
X97036113Y-112764833D01*
X96792513Y-112732762D01*
X96792506Y-112732762D01*
X96497494Y-112732762D01*
X96497486Y-112732762D01*
X96219085Y-112769415D01*
X96205007Y-112771269D01*
X96089395Y-112802247D01*
X95920048Y-112847623D01*
X95920038Y-112847626D01*
X95647499Y-112960516D01*
X95647489Y-112960520D01*
X95392006Y-113108023D01*
X95157959Y-113287614D01*
X95157952Y-113287620D01*
X94949358Y-113496214D01*
X94949352Y-113496221D01*
X94769761Y-113730268D01*
X94622258Y-113985751D01*
X94622254Y-113985761D01*
X94509364Y-114258300D01*
X94509361Y-114258310D01*
X94473172Y-114393372D01*
X94433008Y-114543266D01*
X94433006Y-114543277D01*
X94394500Y-114835748D01*
X94394500Y-115130775D01*
X94416304Y-115296384D01*
X94433007Y-115423255D01*
X94508606Y-115705397D01*
X94509361Y-115708213D01*
X94509364Y-115708223D01*
X94622254Y-115980762D01*
X94622258Y-115980772D01*
X94769761Y-116236255D01*
X94949352Y-116470302D01*
X94949358Y-116470309D01*
X95157952Y-116678903D01*
X95157959Y-116678909D01*
X95392006Y-116858500D01*
X95647489Y-117006003D01*
X95647490Y-117006003D01*
X95647493Y-117006005D01*
X95920048Y-117118901D01*
X96205007Y-117195255D01*
X96497494Y-117233762D01*
X96497501Y-117233762D01*
X96792499Y-117233762D01*
X96792506Y-117233762D01*
X97084993Y-117195255D01*
X97369952Y-117118901D01*
X97642507Y-117006005D01*
X97897994Y-116858500D01*
X98051339Y-116740833D01*
X98116507Y-116715639D01*
X98184952Y-116729677D01*
X98234942Y-116778491D01*
X98250606Y-116846582D01*
X98244245Y-116879066D01*
X98228121Y-116926566D01*
X98228118Y-116926578D01*
X98169288Y-117222331D01*
X98169287Y-117222343D01*
X98149564Y-117523262D01*
X98169287Y-117824180D01*
X98169288Y-117824192D01*
X98228118Y-118119945D01*
X98228122Y-118119960D01*
X98325053Y-118405509D01*
X98325062Y-118405530D01*
X98458431Y-118675975D01*
X98458435Y-118675982D01*
X98625973Y-118926721D01*
X98824810Y-119153451D01*
X99051540Y-119352288D01*
X99302279Y-119519826D01*
X99302286Y-119519830D01*
X99572731Y-119653199D01*
X99572736Y-119653201D01*
X99572748Y-119653207D01*
X99858309Y-119750142D01*
X100058251Y-119789913D01*
X100154069Y-119808973D01*
X100154070Y-119808973D01*
X100154080Y-119808975D01*
X100455000Y-119828698D01*
X100755920Y-119808975D01*
X101051691Y-119750142D01*
X101337252Y-119653207D01*
X101607718Y-119519828D01*
X101858461Y-119352287D01*
X101912912Y-119304534D01*
X101976294Y-119275131D01*
X101994672Y-119273761D01*
X102505500Y-119273761D01*
X102572539Y-119293446D01*
X102618294Y-119346250D01*
X102629500Y-119397761D01*
X102629500Y-133055862D01*
X102609815Y-133122901D01*
X102557011Y-133168656D01*
X102487853Y-133178600D01*
X102432615Y-133156180D01*
X102314890Y-133070648D01*
X102285871Y-133055862D01*
X102157042Y-132990219D01*
X102157039Y-132990218D01*
X101988556Y-132935476D01*
X101901067Y-132921619D01*
X101813579Y-132907762D01*
X101636421Y-132907762D01*
X101578095Y-132917000D01*
X101461443Y-132935476D01*
X101292960Y-132990218D01*
X101292957Y-132990219D01*
X101135109Y-133070648D01*
X101063190Y-133122901D01*
X100991786Y-133174779D01*
X100991784Y-133174781D01*
X100991783Y-133174781D01*
X100866519Y-133300045D01*
X100866519Y-133300046D01*
X100866517Y-133300048D01*
X100832569Y-133346773D01*
X100762386Y-133443371D01*
X100681957Y-133601219D01*
X100681956Y-133601222D01*
X100627214Y-133769705D01*
X100599500Y-133944683D01*
X100599500Y-134121838D01*
X100600104Y-134125654D01*
X100591144Y-134194947D01*
X100546144Y-134248395D01*
X100479391Y-134269030D01*
X100469529Y-134268778D01*
X100455000Y-134267826D01*
X100154080Y-134287549D01*
X100154079Y-134287549D01*
X100154069Y-134287550D01*
X99858316Y-134346380D01*
X99858301Y-134346384D01*
X99572752Y-134443315D01*
X99572731Y-134443324D01*
X99302286Y-134576693D01*
X99302279Y-134576697D01*
X99051540Y-134744235D01*
X99009654Y-134780968D01*
X98946272Y-134810370D01*
X98877055Y-134800837D01*
X98823981Y-134755397D01*
X98803898Y-134688476D01*
X98808120Y-134655651D01*
X98856993Y-134473255D01*
X98895500Y-134180768D01*
X98895500Y-133885756D01*
X98856993Y-133593269D01*
X98780639Y-133308310D01*
X98667743Y-133035755D01*
X98641453Y-132990220D01*
X98520238Y-132780268D01*
X98340647Y-132546221D01*
X98340641Y-132546214D01*
X98132047Y-132337620D01*
X98132040Y-132337614D01*
X97897993Y-132158023D01*
X97642510Y-132010520D01*
X97642500Y-132010516D01*
X97369961Y-131897626D01*
X97369954Y-131897624D01*
X97369952Y-131897623D01*
X97084993Y-131821269D01*
X97036113Y-131814833D01*
X96792513Y-131782762D01*
X96792506Y-131782762D01*
X96497494Y-131782762D01*
X96497486Y-131782762D01*
X96219085Y-131819415D01*
X96205007Y-131821269D01*
X95920048Y-131897623D01*
X95920038Y-131897626D01*
X95647499Y-132010516D01*
X95647489Y-132010520D01*
X95392006Y-132158023D01*
X95157959Y-132337614D01*
X95157952Y-132337620D01*
X94949358Y-132546214D01*
X94949352Y-132546221D01*
X94769761Y-132780268D01*
X94622258Y-133035751D01*
X94622254Y-133035761D01*
X94509364Y-133308300D01*
X94509361Y-133308310D01*
X94473172Y-133443372D01*
X94433008Y-133593266D01*
X94433006Y-133593277D01*
X94394500Y-133885748D01*
X94394500Y-134180775D01*
X94416304Y-134346384D01*
X94433007Y-134473255D01*
X94508606Y-134755397D01*
X94509361Y-134758213D01*
X94509364Y-134758223D01*
X94622254Y-135030762D01*
X94622258Y-135030772D01*
X94769761Y-135286255D01*
X94949352Y-135520302D01*
X94949358Y-135520309D01*
X95157952Y-135728903D01*
X95157959Y-135728909D01*
X95392006Y-135908500D01*
X95647489Y-136056003D01*
X95647490Y-136056003D01*
X95647493Y-136056005D01*
X95920048Y-136168901D01*
X96205007Y-136245255D01*
X96497494Y-136283762D01*
X96497501Y-136283762D01*
X96792499Y-136283762D01*
X96792506Y-136283762D01*
X97084993Y-136245255D01*
X97369952Y-136168901D01*
X97642507Y-136056005D01*
X97897994Y-135908500D01*
X98051339Y-135790833D01*
X98116507Y-135765639D01*
X98184952Y-135779677D01*
X98234942Y-135828491D01*
X98250606Y-135896582D01*
X98244245Y-135929066D01*
X98228121Y-135976566D01*
X98228118Y-135976578D01*
X98169288Y-136272331D01*
X98169287Y-136272341D01*
X98169287Y-136272342D01*
X98149564Y-136573262D01*
X98165931Y-136822986D01*
X98169287Y-136874180D01*
X98169288Y-136874192D01*
X98228118Y-137169945D01*
X98228122Y-137169960D01*
X98325053Y-137455509D01*
X98325062Y-137455530D01*
X98458431Y-137725975D01*
X98458435Y-137725982D01*
X98625973Y-137976721D01*
X98824810Y-138203451D01*
X99051540Y-138402288D01*
X99302279Y-138569826D01*
X99302286Y-138569830D01*
X99572731Y-138703199D01*
X99572736Y-138703201D01*
X99572748Y-138703207D01*
X99858309Y-138800142D01*
X100058251Y-138839913D01*
X100154069Y-138858973D01*
X100154070Y-138858973D01*
X100154080Y-138858975D01*
X100455000Y-138878698D01*
X100755920Y-138858975D01*
X101051691Y-138800142D01*
X101337252Y-138703207D01*
X101607718Y-138569828D01*
X101858461Y-138402287D01*
X101912912Y-138354534D01*
X101976294Y-138325131D01*
X101994672Y-138323761D01*
X104805002Y-138323761D01*
X104805008Y-138323761D01*
X104907797Y-138313261D01*
X105074334Y-138258076D01*
X105223656Y-138165974D01*
X105326385Y-138063245D01*
X108049500Y-138063245D01*
X108049500Y-140163263D01*
X108049501Y-140163280D01*
X108060000Y-140266058D01*
X108060001Y-140266061D01*
X108115185Y-140432593D01*
X108115186Y-140432596D01*
X108207288Y-140581918D01*
X108331344Y-140705974D01*
X108480666Y-140798076D01*
X108647203Y-140853261D01*
X108749991Y-140863762D01*
X111565326Y-140863761D01*
X111632365Y-140883446D01*
X111647085Y-140894533D01*
X111701540Y-140942288D01*
X111952279Y-141109826D01*
X111952286Y-141109830D01*
X112222731Y-141243199D01*
X112222736Y-141243201D01*
X112222748Y-141243207D01*
X112508309Y-141340142D01*
X112708251Y-141379913D01*
X112804069Y-141398973D01*
X112804070Y-141398973D01*
X112804080Y-141398975D01*
X113105000Y-141418698D01*
X113405920Y-141398975D01*
X113701691Y-141340142D01*
X113987252Y-141243207D01*
X114257718Y-141109828D01*
X114508461Y-140942287D01*
X114735189Y-140743451D01*
X114934025Y-140516723D01*
X115101566Y-140265980D01*
X115234945Y-139995514D01*
X115331880Y-139709953D01*
X115390713Y-139414182D01*
X115410436Y-139113262D01*
X115390713Y-138812342D01*
X115388286Y-138800143D01*
X115369005Y-138703208D01*
X115331880Y-138516571D01*
X115234945Y-138231010D01*
X115221354Y-138203451D01*
X115101568Y-137960548D01*
X115101564Y-137960541D01*
X114934026Y-137709802D01*
X114735189Y-137483072D01*
X114508459Y-137284235D01*
X114257720Y-137116697D01*
X114257713Y-137116693D01*
X113987268Y-136983324D01*
X113987247Y-136983315D01*
X113701698Y-136886384D01*
X113701692Y-136886382D01*
X113701691Y-136886382D01*
X113701689Y-136886381D01*
X113701683Y-136886380D01*
X113405930Y-136827550D01*
X113405921Y-136827549D01*
X113405920Y-136827549D01*
X113105000Y-136807826D01*
X112804080Y-136827549D01*
X112804079Y-136827549D01*
X112804069Y-136827550D01*
X112508316Y-136886380D01*
X112508301Y-136886384D01*
X112222752Y-136983315D01*
X112222731Y-136983324D01*
X111952286Y-137116693D01*
X111952279Y-137116697D01*
X111701540Y-137284235D01*
X111647085Y-137331991D01*
X111583703Y-137361393D01*
X111565327Y-137362762D01*
X108749998Y-137362762D01*
X108749981Y-137362763D01*
X108647203Y-137373262D01*
X108647200Y-137373263D01*
X108480668Y-137428447D01*
X108480663Y-137428449D01*
X108331342Y-137520551D01*
X108207289Y-137644604D01*
X108115187Y-137793925D01*
X108115185Y-137793930D01*
X108101361Y-137835649D01*
X108060001Y-137960465D01*
X108060001Y-137960466D01*
X108060000Y-137960466D01*
X108049500Y-138063245D01*
X105326385Y-138063245D01*
X105347712Y-138041918D01*
X105439814Y-137892596D01*
X105494999Y-137726059D01*
X105505500Y-137623271D01*
X105505499Y-135523254D01*
X105505197Y-135520302D01*
X105494999Y-135420465D01*
X105494998Y-135420462D01*
X105450526Y-135286255D01*
X105439814Y-135253928D01*
X105347712Y-135104606D01*
X105223656Y-134980550D01*
X105119311Y-134916190D01*
X105074336Y-134888449D01*
X105074331Y-134888447D01*
X105072862Y-134887960D01*
X104907797Y-134833263D01*
X104907795Y-134833262D01*
X104805016Y-134822762D01*
X104805009Y-134822762D01*
X103954500Y-134822762D01*
X103887461Y-134803077D01*
X103841706Y-134750273D01*
X103830500Y-134698762D01*
X103830500Y-133793260D01*
X105339532Y-133793260D01*
X105339532Y-133793263D01*
X105359364Y-134019948D01*
X105359366Y-134019959D01*
X105418258Y-134239750D01*
X105418261Y-134239759D01*
X105514431Y-134445994D01*
X105514432Y-134445996D01*
X105644954Y-134632403D01*
X105805858Y-134793307D01*
X105805861Y-134793309D01*
X105992266Y-134923830D01*
X106198504Y-135020001D01*
X106418308Y-135078897D01*
X106580230Y-135093063D01*
X106644998Y-135098730D01*
X106645000Y-135098730D01*
X106645002Y-135098730D01*
X106701673Y-135093771D01*
X106871692Y-135078897D01*
X107091496Y-135020001D01*
X107297734Y-134923830D01*
X107484139Y-134793309D01*
X107645047Y-134632401D01*
X107775568Y-134445996D01*
X107871739Y-134239758D01*
X107930635Y-134019954D01*
X107937220Y-133944683D01*
X109439500Y-133944683D01*
X109439500Y-134121840D01*
X109467214Y-134296818D01*
X109521956Y-134465301D01*
X109521957Y-134465304D01*
X109602386Y-134623152D01*
X109706517Y-134766476D01*
X109831786Y-134891745D01*
X109975110Y-134995876D01*
X110022456Y-135020000D01*
X110132957Y-135076304D01*
X110132960Y-135076305D01*
X110201979Y-135098730D01*
X110301445Y-135131048D01*
X110476421Y-135158762D01*
X110476422Y-135158762D01*
X110653578Y-135158762D01*
X110653579Y-135158762D01*
X110828555Y-135131048D01*
X110997042Y-135076304D01*
X111154890Y-134995876D01*
X111298214Y-134891745D01*
X111423483Y-134766476D01*
X111527614Y-134623152D01*
X111608042Y-134465304D01*
X111662786Y-134296817D01*
X111690500Y-134121841D01*
X111690500Y-133944683D01*
X111662786Y-133769707D01*
X111608042Y-133601220D01*
X111608042Y-133601219D01*
X111527613Y-133443371D01*
X111423483Y-133300048D01*
X111298214Y-133174779D01*
X111154890Y-133070648D01*
X111125871Y-133055862D01*
X110997042Y-132990219D01*
X110997039Y-132990218D01*
X110828556Y-132935476D01*
X110741067Y-132921619D01*
X110653579Y-132907762D01*
X110476421Y-132907762D01*
X110418095Y-132917000D01*
X110301443Y-132935476D01*
X110132960Y-132990218D01*
X110132957Y-132990219D01*
X109975109Y-133070648D01*
X109903190Y-133122901D01*
X109831786Y-133174779D01*
X109831784Y-133174781D01*
X109831783Y-133174781D01*
X109706519Y-133300045D01*
X109706519Y-133300046D01*
X109706517Y-133300048D01*
X109672569Y-133346773D01*
X109602386Y-133443371D01*
X109521957Y-133601219D01*
X109521956Y-133601222D01*
X109467214Y-133769705D01*
X109439500Y-133944683D01*
X107937220Y-133944683D01*
X107949872Y-133800070D01*
X107950468Y-133793263D01*
X107950468Y-133793260D01*
X107940905Y-133683962D01*
X107930635Y-133566570D01*
X107871739Y-133346766D01*
X107775568Y-133140528D01*
X107645047Y-132954123D01*
X107645045Y-132954120D01*
X107484141Y-132793216D01*
X107297734Y-132662694D01*
X107297732Y-132662693D01*
X107091497Y-132566523D01*
X107091488Y-132566520D01*
X106871697Y-132507628D01*
X106871693Y-132507627D01*
X106871692Y-132507627D01*
X106871691Y-132507626D01*
X106871686Y-132507626D01*
X106645002Y-132487794D01*
X106644998Y-132487794D01*
X106418313Y-132507626D01*
X106418302Y-132507628D01*
X106198511Y-132566520D01*
X106198502Y-132566523D01*
X105992267Y-132662693D01*
X105992265Y-132662694D01*
X105805858Y-132793216D01*
X105644954Y-132954120D01*
X105514432Y-133140527D01*
X105514431Y-133140529D01*
X105418261Y-133346764D01*
X105418258Y-133346773D01*
X105359366Y-133566564D01*
X105359364Y-133566575D01*
X105339532Y-133793260D01*
X103830500Y-133793260D01*
X103830500Y-125325397D01*
X105344500Y-125325397D01*
X105344500Y-127021132D01*
X105344501Y-127021138D01*
X105350908Y-127080745D01*
X105401202Y-127215590D01*
X105401206Y-127215597D01*
X105487452Y-127330806D01*
X105487455Y-127330809D01*
X105602664Y-127417055D01*
X105602671Y-127417059D01*
X105737517Y-127467353D01*
X105737516Y-127467353D01*
X105744444Y-127468097D01*
X105797127Y-127473762D01*
X107492872Y-127473761D01*
X107552483Y-127467353D01*
X107687331Y-127417058D01*
X107802546Y-127330808D01*
X107888796Y-127215593D01*
X107939091Y-127080745D01*
X107945500Y-127021135D01*
X107945499Y-125325390D01*
X107939091Y-125265779D01*
X107901559Y-125165151D01*
X107888797Y-125130933D01*
X107888793Y-125130926D01*
X107802547Y-125015717D01*
X107802544Y-125015714D01*
X107687335Y-124929468D01*
X107687328Y-124929464D01*
X107552482Y-124879170D01*
X107552483Y-124879170D01*
X107492883Y-124872763D01*
X107492881Y-124872762D01*
X107492873Y-124872762D01*
X107492864Y-124872762D01*
X105797129Y-124872762D01*
X105797123Y-124872763D01*
X105737516Y-124879170D01*
X105602671Y-124929464D01*
X105602664Y-124929468D01*
X105487455Y-125015714D01*
X105487452Y-125015717D01*
X105401206Y-125130926D01*
X105401202Y-125130933D01*
X105350908Y-125265779D01*
X105347001Y-125302124D01*
X105344501Y-125325385D01*
X105344500Y-125325397D01*
X103830500Y-125325397D01*
X103830500Y-119397761D01*
X103850185Y-119330722D01*
X103902989Y-119284967D01*
X103954500Y-119273761D01*
X104805002Y-119273761D01*
X104805008Y-119273761D01*
X104907797Y-119263261D01*
X105074334Y-119208076D01*
X105223656Y-119115974D01*
X105326385Y-119013245D01*
X108049500Y-119013245D01*
X108049500Y-121113263D01*
X108049501Y-121113280D01*
X108060000Y-121216058D01*
X108060001Y-121216061D01*
X108115185Y-121382593D01*
X108115186Y-121382596D01*
X108207288Y-121531918D01*
X108331344Y-121655974D01*
X108480666Y-121748076D01*
X108647203Y-121803261D01*
X108749991Y-121813762D01*
X111565326Y-121813761D01*
X111632365Y-121833446D01*
X111647085Y-121844533D01*
X111701540Y-121892288D01*
X111952279Y-122059826D01*
X111952286Y-122059830D01*
X112222731Y-122193199D01*
X112222736Y-122193201D01*
X112222748Y-122193207D01*
X112508309Y-122290142D01*
X112708251Y-122329913D01*
X112804069Y-122348973D01*
X112804070Y-122348973D01*
X112804080Y-122348975D01*
X113105000Y-122368698D01*
X113405920Y-122348975D01*
X113701691Y-122290142D01*
X113987252Y-122193207D01*
X114257718Y-122059828D01*
X114508461Y-121892287D01*
X114735189Y-121693451D01*
X114934025Y-121466723D01*
X115101566Y-121215980D01*
X115234945Y-120945514D01*
X115331880Y-120659953D01*
X115390713Y-120364182D01*
X115410436Y-120063262D01*
X115390713Y-119762342D01*
X115388286Y-119750143D01*
X115369005Y-119653208D01*
X115331880Y-119466571D01*
X115234945Y-119181010D01*
X115233911Y-119178914D01*
X115101568Y-118910548D01*
X115101564Y-118910541D01*
X114934026Y-118659802D01*
X114735189Y-118433072D01*
X114508459Y-118234235D01*
X114257720Y-118066697D01*
X114257713Y-118066693D01*
X113987268Y-117933324D01*
X113987247Y-117933315D01*
X113701698Y-117836384D01*
X113701692Y-117836382D01*
X113701691Y-117836382D01*
X113701689Y-117836381D01*
X113701683Y-117836380D01*
X113405930Y-117777550D01*
X113405921Y-117777549D01*
X113405920Y-117777549D01*
X113105000Y-117757826D01*
X112804080Y-117777549D01*
X112804079Y-117777549D01*
X112804069Y-117777550D01*
X112508316Y-117836380D01*
X112508301Y-117836384D01*
X112222752Y-117933315D01*
X112222731Y-117933324D01*
X111952286Y-118066693D01*
X111952279Y-118066697D01*
X111701540Y-118234235D01*
X111647085Y-118281991D01*
X111583703Y-118311393D01*
X111565327Y-118312762D01*
X108749998Y-118312762D01*
X108749981Y-118312763D01*
X108647203Y-118323262D01*
X108647200Y-118323263D01*
X108480668Y-118378447D01*
X108480663Y-118378449D01*
X108331342Y-118470551D01*
X108207289Y-118594604D01*
X108115187Y-118743925D01*
X108115186Y-118743928D01*
X108060001Y-118910465D01*
X108060001Y-118910466D01*
X108060000Y-118910466D01*
X108049500Y-119013245D01*
X105326385Y-119013245D01*
X105347712Y-118991918D01*
X105439814Y-118842596D01*
X105494999Y-118676059D01*
X105505500Y-118573271D01*
X105505499Y-116473254D01*
X105505197Y-116470302D01*
X105494999Y-116370465D01*
X105494998Y-116370462D01*
X105450526Y-116236255D01*
X105439814Y-116203928D01*
X105347712Y-116054606D01*
X105223656Y-115930550D01*
X105130888Y-115873331D01*
X105074336Y-115838449D01*
X105074331Y-115838447D01*
X105072862Y-115837960D01*
X104907797Y-115783263D01*
X104907795Y-115783262D01*
X104805016Y-115772762D01*
X104805009Y-115772762D01*
X103954500Y-115772762D01*
X103887461Y-115753077D01*
X103841706Y-115700273D01*
X103830500Y-115648762D01*
X103830500Y-114793260D01*
X105339532Y-114793260D01*
X105339532Y-114793263D01*
X105359364Y-115019948D01*
X105359366Y-115019959D01*
X105418258Y-115239750D01*
X105418261Y-115239759D01*
X105514431Y-115445994D01*
X105514432Y-115445996D01*
X105644954Y-115632403D01*
X105805858Y-115793307D01*
X105805861Y-115793309D01*
X105992266Y-115923830D01*
X106198504Y-116020001D01*
X106418308Y-116078897D01*
X106580230Y-116093063D01*
X106644998Y-116098730D01*
X106645000Y-116098730D01*
X106645002Y-116098730D01*
X106701673Y-116093771D01*
X106871692Y-116078897D01*
X107091496Y-116020001D01*
X107297734Y-115923830D01*
X107484139Y-115793309D01*
X107645047Y-115632401D01*
X107775568Y-115445996D01*
X107871739Y-115239758D01*
X107930635Y-115019954D01*
X107941595Y-114894683D01*
X109439500Y-114894683D01*
X109439500Y-115071840D01*
X109467214Y-115246818D01*
X109521956Y-115415301D01*
X109521957Y-115415304D01*
X109578714Y-115526693D01*
X109602386Y-115573152D01*
X109706517Y-115716476D01*
X109831786Y-115841745D01*
X109975110Y-115945876D01*
X110043577Y-115980762D01*
X110132957Y-116026304D01*
X110132960Y-116026305D01*
X110217201Y-116053676D01*
X110301445Y-116081048D01*
X110476421Y-116108762D01*
X110476422Y-116108762D01*
X110653578Y-116108762D01*
X110653579Y-116108762D01*
X110828555Y-116081048D01*
X110997042Y-116026304D01*
X111154890Y-115945876D01*
X111298214Y-115841745D01*
X111423483Y-115716476D01*
X111527614Y-115573152D01*
X111608042Y-115415304D01*
X111662786Y-115246817D01*
X111690500Y-115071841D01*
X111690500Y-114894683D01*
X111662786Y-114719707D01*
X111630598Y-114620640D01*
X111608043Y-114551222D01*
X111608042Y-114551219D01*
X111527613Y-114393371D01*
X111423483Y-114250048D01*
X111298214Y-114124779D01*
X111154890Y-114020648D01*
X111125871Y-114005862D01*
X110997042Y-113940219D01*
X110997039Y-113940218D01*
X110828556Y-113885476D01*
X110741067Y-113871619D01*
X110653579Y-113857762D01*
X110476421Y-113857762D01*
X110418095Y-113867000D01*
X110301443Y-113885476D01*
X110132960Y-113940218D01*
X110132957Y-113940219D01*
X109975109Y-114020648D01*
X109903190Y-114072901D01*
X109831786Y-114124779D01*
X109831784Y-114124781D01*
X109831783Y-114124781D01*
X109706519Y-114250045D01*
X109706519Y-114250046D01*
X109706517Y-114250048D01*
X109661796Y-114311600D01*
X109602386Y-114393371D01*
X109521957Y-114551219D01*
X109521956Y-114551222D01*
X109467214Y-114719705D01*
X109439500Y-114894683D01*
X107941595Y-114894683D01*
X107950468Y-114793262D01*
X107930635Y-114566570D01*
X107871739Y-114346766D01*
X107775568Y-114140528D01*
X107645047Y-113954123D01*
X107645045Y-113954120D01*
X107484141Y-113793216D01*
X107297734Y-113662694D01*
X107297732Y-113662693D01*
X107091497Y-113566523D01*
X107091488Y-113566520D01*
X106871697Y-113507628D01*
X106871693Y-113507627D01*
X106871692Y-113507627D01*
X106871691Y-113507626D01*
X106871686Y-113507626D01*
X106645002Y-113487794D01*
X106644998Y-113487794D01*
X106418313Y-113507626D01*
X106418302Y-113507628D01*
X106198511Y-113566520D01*
X106198502Y-113566523D01*
X105992267Y-113662693D01*
X105992265Y-113662694D01*
X105805858Y-113793216D01*
X105644954Y-113954120D01*
X105514432Y-114140527D01*
X105514431Y-114140529D01*
X105418261Y-114346764D01*
X105418258Y-114346773D01*
X105359366Y-114566564D01*
X105359364Y-114566575D01*
X105339532Y-114793260D01*
X103830500Y-114793260D01*
X103830500Y-106325397D01*
X105344500Y-106325397D01*
X105344500Y-108021132D01*
X105344501Y-108021138D01*
X105350908Y-108080745D01*
X105401202Y-108215590D01*
X105401206Y-108215597D01*
X105487452Y-108330806D01*
X105487455Y-108330809D01*
X105602664Y-108417055D01*
X105602671Y-108417059D01*
X105737517Y-108467353D01*
X105737516Y-108467353D01*
X105744444Y-108468097D01*
X105797127Y-108473762D01*
X107492872Y-108473761D01*
X107552483Y-108467353D01*
X107687331Y-108417058D01*
X107802546Y-108330808D01*
X107888796Y-108215593D01*
X107939091Y-108080745D01*
X107945500Y-108021135D01*
X107945499Y-106325390D01*
X107939091Y-106265779D01*
X107928220Y-106236633D01*
X107888797Y-106130933D01*
X107888793Y-106130926D01*
X107802547Y-106015717D01*
X107802544Y-106015714D01*
X107687335Y-105929468D01*
X107687328Y-105929464D01*
X107552482Y-105879170D01*
X107552483Y-105879170D01*
X107492883Y-105872763D01*
X107492881Y-105872762D01*
X107492873Y-105872762D01*
X107492864Y-105872762D01*
X105797129Y-105872762D01*
X105797123Y-105872763D01*
X105737516Y-105879170D01*
X105602671Y-105929464D01*
X105602664Y-105929468D01*
X105487455Y-106015714D01*
X105487452Y-106015717D01*
X105401206Y-106130926D01*
X105401202Y-106130933D01*
X105350908Y-106265779D01*
X105344804Y-106322558D01*
X105344501Y-106325385D01*
X105344500Y-106325397D01*
X103830500Y-106325397D01*
X103830500Y-100397761D01*
X103850185Y-100330722D01*
X103902989Y-100284967D01*
X103954500Y-100273761D01*
X104805002Y-100273761D01*
X104805008Y-100273761D01*
X104907797Y-100263261D01*
X105074334Y-100208076D01*
X105223656Y-100115974D01*
X105347712Y-99991918D01*
X105439814Y-99842596D01*
X105494999Y-99676059D01*
X105505500Y-99573271D01*
X105505500Y-99247762D01*
X105525185Y-99180723D01*
X105577989Y-99134968D01*
X105629500Y-99123762D01*
X108480834Y-99123762D01*
X108547873Y-99143447D01*
X108593628Y-99196251D01*
X108603572Y-99265409D01*
X108574547Y-99328965D01*
X108519839Y-99365467D01*
X108500184Y-99371980D01*
X108480668Y-99378447D01*
X108480663Y-99378449D01*
X108331342Y-99470551D01*
X108207289Y-99594604D01*
X108115187Y-99743925D01*
X108115185Y-99743930D01*
X108105716Y-99772507D01*
X108060001Y-99910465D01*
X108060001Y-99910466D01*
X108060000Y-99910466D01*
X108049500Y-100013245D01*
X108049500Y-102113263D01*
X108049501Y-102113280D01*
X108060000Y-102216058D01*
X108060001Y-102216061D01*
X108115185Y-102382593D01*
X108115186Y-102382596D01*
X108207288Y-102531918D01*
X108331344Y-102655974D01*
X108480666Y-102748076D01*
X108647203Y-102803261D01*
X108749991Y-102813762D01*
X111565326Y-102813761D01*
X111632365Y-102833446D01*
X111647085Y-102844533D01*
X111701540Y-102892288D01*
X111952279Y-103059826D01*
X111952286Y-103059830D01*
X112222731Y-103193199D01*
X112222736Y-103193201D01*
X112222748Y-103193207D01*
X112508309Y-103290142D01*
X112708251Y-103329913D01*
X112804069Y-103348973D01*
X112804070Y-103348973D01*
X112804080Y-103348975D01*
X113105000Y-103368698D01*
X113405920Y-103348975D01*
X113701691Y-103290142D01*
X113987252Y-103193207D01*
X114257718Y-103059828D01*
X114508461Y-102892287D01*
X114735189Y-102693451D01*
X114934025Y-102466723D01*
X115101566Y-102215980D01*
X115234945Y-101945514D01*
X115331880Y-101659953D01*
X115390713Y-101364182D01*
X115410436Y-101063262D01*
X115390713Y-100762342D01*
X115388286Y-100750143D01*
X115369080Y-100653585D01*
X115331880Y-100466571D01*
X115234945Y-100181010D01*
X115221354Y-100153451D01*
X115101568Y-99910548D01*
X115101564Y-99910541D01*
X114934026Y-99659802D01*
X114735189Y-99433072D01*
X114508459Y-99234235D01*
X114257720Y-99066697D01*
X114257713Y-99066693D01*
X113987268Y-98933324D01*
X113987247Y-98933315D01*
X113701698Y-98836384D01*
X113701692Y-98836382D01*
X113701691Y-98836382D01*
X113701689Y-98836381D01*
X113701683Y-98836380D01*
X113405930Y-98777550D01*
X113405921Y-98777549D01*
X113405920Y-98777549D01*
X113105000Y-98757826D01*
X112804080Y-98777549D01*
X112804079Y-98777549D01*
X112804069Y-98777550D01*
X112508316Y-98836380D01*
X112508301Y-98836384D01*
X112222752Y-98933315D01*
X112222731Y-98933324D01*
X111952286Y-99066693D01*
X111952279Y-99066697D01*
X111701540Y-99234235D01*
X111647085Y-99281991D01*
X111583703Y-99311393D01*
X111565327Y-99312762D01*
X110154120Y-99312762D01*
X110087081Y-99293077D01*
X110041326Y-99240273D01*
X110031382Y-99171115D01*
X110060407Y-99107559D01*
X110092112Y-99081379D01*
X110139704Y-99053901D01*
X110226516Y-99003782D01*
X110338320Y-98891978D01*
X110338320Y-98891976D01*
X110348528Y-98881769D01*
X110348529Y-98881766D01*
X111083416Y-98146881D01*
X111144739Y-98113396D01*
X111171097Y-98110562D01*
X111292331Y-98110562D01*
X111292347Y-98110563D01*
X111299943Y-98110563D01*
X111458054Y-98110563D01*
X111458057Y-98110563D01*
X111610785Y-98069639D01*
X111660904Y-98040701D01*
X111747716Y-97990582D01*
X111859520Y-97878778D01*
X111859520Y-97878776D01*
X111869728Y-97868569D01*
X111869730Y-97868566D01*
X112738313Y-96999983D01*
X112738316Y-96999982D01*
X112850120Y-96888178D01*
X112900239Y-96801366D01*
X112929177Y-96751247D01*
X112970101Y-96598519D01*
X112970101Y-96440405D01*
X112970101Y-96432810D01*
X112970100Y-96432792D01*
X112970100Y-94050959D01*
X112989785Y-93983920D01*
X113006419Y-93963278D01*
X114415725Y-92553972D01*
X114477048Y-92520487D01*
X114503406Y-92517653D01*
X145685612Y-92517653D01*
X145752651Y-92537338D01*
X145798406Y-92590142D01*
X145808350Y-92659300D01*
X145806186Y-92670600D01*
X145805292Y-92674320D01*
X145805291Y-92674326D01*
X145805291Y-92674327D01*
X145801703Y-92696976D01*
X145771776Y-92760109D01*
X145712464Y-92797041D01*
X145679231Y-92801577D01*
X126022125Y-92801577D01*
X125981204Y-92812541D01*
X125981204Y-92812542D01*
X125943936Y-92822528D01*
X125869399Y-92842500D01*
X125869394Y-92842503D01*
X125732475Y-92921552D01*
X125732467Y-92921558D01*
X121917583Y-96736443D01*
X121856260Y-96769928D01*
X121829902Y-96772762D01*
X121785953Y-96772762D01*
X121718914Y-96753077D01*
X121673159Y-96700273D01*
X121663215Y-96631115D01*
X121685634Y-96575878D01*
X121686630Y-96574505D01*
X121687614Y-96573152D01*
X121768042Y-96415304D01*
X121822786Y-96246817D01*
X121850500Y-96071841D01*
X121850500Y-95894683D01*
X121822786Y-95719707D01*
X121785701Y-95605570D01*
X121768043Y-95551222D01*
X121768042Y-95551219D01*
X121703847Y-95425231D01*
X121687614Y-95393372D01*
X121583483Y-95250048D01*
X121458214Y-95124779D01*
X121314890Y-95020648D01*
X121157042Y-94940219D01*
X121157039Y-94940218D01*
X120988556Y-94885476D01*
X120901067Y-94871619D01*
X120813579Y-94857762D01*
X120636421Y-94857762D01*
X120578095Y-94867000D01*
X120461443Y-94885476D01*
X120292960Y-94940218D01*
X120292957Y-94940219D01*
X120135109Y-95020648D01*
X120053338Y-95080058D01*
X119991786Y-95124779D01*
X119991784Y-95124781D01*
X119991783Y-95124781D01*
X119866519Y-95250045D01*
X119866519Y-95250046D01*
X119866517Y-95250048D01*
X119852256Y-95269677D01*
X119762386Y-95393371D01*
X119681957Y-95551219D01*
X119681956Y-95551222D01*
X119627214Y-95719705D01*
X119599500Y-95894683D01*
X119599500Y-96071838D01*
X119600104Y-96075654D01*
X119591144Y-96144947D01*
X119546144Y-96198395D01*
X119479391Y-96219030D01*
X119469529Y-96218778D01*
X119455000Y-96217826D01*
X119154080Y-96237549D01*
X119154079Y-96237549D01*
X119154069Y-96237550D01*
X118858316Y-96296380D01*
X118858301Y-96296384D01*
X118572752Y-96393315D01*
X118572731Y-96393324D01*
X118302286Y-96526693D01*
X118302279Y-96526697D01*
X118051540Y-96694235D01*
X118009654Y-96730968D01*
X117946272Y-96760370D01*
X117877055Y-96750837D01*
X117823981Y-96705397D01*
X117803898Y-96638476D01*
X117808120Y-96605651D01*
X117856993Y-96423255D01*
X117895500Y-96130768D01*
X117895500Y-95835756D01*
X117856993Y-95543269D01*
X117780639Y-95258310D01*
X117667743Y-94985755D01*
X117649480Y-94954123D01*
X117520238Y-94730268D01*
X117340647Y-94496221D01*
X117340641Y-94496214D01*
X117132047Y-94287620D01*
X117132040Y-94287614D01*
X116897993Y-94108023D01*
X116642510Y-93960520D01*
X116642500Y-93960516D01*
X116369961Y-93847626D01*
X116369954Y-93847624D01*
X116369952Y-93847623D01*
X116084993Y-93771269D01*
X116036113Y-93764833D01*
X115792513Y-93732762D01*
X115792506Y-93732762D01*
X115497494Y-93732762D01*
X115497486Y-93732762D01*
X115219085Y-93769415D01*
X115205007Y-93771269D01*
X114938626Y-93842645D01*
X114920048Y-93847623D01*
X114920038Y-93847626D01*
X114647499Y-93960516D01*
X114647489Y-93960520D01*
X114392006Y-94108023D01*
X114157959Y-94287614D01*
X114157952Y-94287620D01*
X113949358Y-94496214D01*
X113949352Y-94496221D01*
X113769761Y-94730268D01*
X113622258Y-94985751D01*
X113622254Y-94985761D01*
X113509364Y-95258300D01*
X113509361Y-95258310D01*
X113473172Y-95393372D01*
X113433008Y-95543266D01*
X113433006Y-95543277D01*
X113394500Y-95835748D01*
X113394500Y-96130775D01*
X113416304Y-96296384D01*
X113433007Y-96423255D01*
X113508606Y-96705397D01*
X113509361Y-96708213D01*
X113509364Y-96708223D01*
X113622254Y-96980762D01*
X113622258Y-96980772D01*
X113769761Y-97236255D01*
X113949352Y-97470302D01*
X113949358Y-97470309D01*
X114157952Y-97678903D01*
X114157959Y-97678909D01*
X114392006Y-97858500D01*
X114647489Y-98006003D01*
X114647490Y-98006003D01*
X114647493Y-98006005D01*
X114731257Y-98040701D01*
X114906757Y-98113396D01*
X114920048Y-98118901D01*
X115205007Y-98195255D01*
X115497494Y-98233762D01*
X115497501Y-98233762D01*
X115792499Y-98233762D01*
X115792506Y-98233762D01*
X116084993Y-98195255D01*
X116369952Y-98118901D01*
X116642507Y-98006005D01*
X116897994Y-97858500D01*
X117051339Y-97740833D01*
X117116507Y-97715639D01*
X117184952Y-97729677D01*
X117234942Y-97778491D01*
X117250606Y-97846582D01*
X117244245Y-97879066D01*
X117228121Y-97926566D01*
X117228118Y-97926578D01*
X117169288Y-98222331D01*
X117169287Y-98222341D01*
X117169287Y-98222342D01*
X117149564Y-98523262D01*
X117161315Y-98702558D01*
X117169287Y-98824180D01*
X117169288Y-98824192D01*
X117228118Y-99119945D01*
X117228122Y-99119960D01*
X117325053Y-99405509D01*
X117325062Y-99405530D01*
X117458431Y-99675975D01*
X117458435Y-99675982D01*
X117625973Y-99926721D01*
X117824810Y-100153451D01*
X118051540Y-100352288D01*
X118302279Y-100519826D01*
X118302286Y-100519830D01*
X118572731Y-100653199D01*
X118572736Y-100653201D01*
X118572748Y-100653207D01*
X118858309Y-100750142D01*
X119048492Y-100787972D01*
X119154069Y-100808973D01*
X119154070Y-100808973D01*
X119154080Y-100808975D01*
X119455000Y-100828698D01*
X119755920Y-100808975D01*
X120051691Y-100750142D01*
X120337252Y-100653207D01*
X120607718Y-100519828D01*
X120858461Y-100352287D01*
X120912912Y-100304534D01*
X120976294Y-100275131D01*
X120994672Y-100273761D01*
X121505500Y-100273761D01*
X121572539Y-100293446D01*
X121618294Y-100346250D01*
X121629500Y-100397761D01*
X121629500Y-114005862D01*
X121609815Y-114072901D01*
X121557011Y-114118656D01*
X121487853Y-114128600D01*
X121432615Y-114106180D01*
X121314890Y-114020648D01*
X121285871Y-114005862D01*
X121157042Y-113940219D01*
X121157039Y-113940218D01*
X120988556Y-113885476D01*
X120901067Y-113871619D01*
X120813579Y-113857762D01*
X120636421Y-113857762D01*
X120578095Y-113867000D01*
X120461443Y-113885476D01*
X120292960Y-113940218D01*
X120292957Y-113940219D01*
X120135109Y-114020648D01*
X120063190Y-114072901D01*
X119991786Y-114124779D01*
X119991784Y-114124781D01*
X119991783Y-114124781D01*
X119866519Y-114250045D01*
X119866519Y-114250046D01*
X119866517Y-114250048D01*
X119821796Y-114311600D01*
X119762386Y-114393371D01*
X119681957Y-114551219D01*
X119681956Y-114551222D01*
X119627214Y-114719705D01*
X119599500Y-114894683D01*
X119599500Y-115071838D01*
X119600104Y-115075654D01*
X119591144Y-115144947D01*
X119546144Y-115198395D01*
X119479391Y-115219030D01*
X119469529Y-115218778D01*
X119455000Y-115217826D01*
X119154080Y-115237549D01*
X119154079Y-115237549D01*
X119154069Y-115237550D01*
X118858316Y-115296380D01*
X118858301Y-115296384D01*
X118572752Y-115393315D01*
X118572731Y-115393324D01*
X118302286Y-115526693D01*
X118302279Y-115526697D01*
X118051540Y-115694235D01*
X118009654Y-115730968D01*
X117946272Y-115760370D01*
X117877055Y-115750837D01*
X117823981Y-115705397D01*
X117803898Y-115638476D01*
X117808120Y-115605651D01*
X117856993Y-115423255D01*
X117895500Y-115130768D01*
X117895500Y-114835756D01*
X117856993Y-114543269D01*
X117780639Y-114258310D01*
X117667743Y-113985755D01*
X117649480Y-113954123D01*
X117520238Y-113730268D01*
X117340647Y-113496221D01*
X117340641Y-113496214D01*
X117132047Y-113287620D01*
X117132040Y-113287614D01*
X116897993Y-113108023D01*
X116642510Y-112960520D01*
X116642500Y-112960516D01*
X116369961Y-112847626D01*
X116369954Y-112847624D01*
X116369952Y-112847623D01*
X116084993Y-112771269D01*
X116036113Y-112764833D01*
X115792513Y-112732762D01*
X115792506Y-112732762D01*
X115497494Y-112732762D01*
X115497486Y-112732762D01*
X115219085Y-112769415D01*
X115205007Y-112771269D01*
X115089395Y-112802247D01*
X114920048Y-112847623D01*
X114920038Y-112847626D01*
X114647499Y-112960516D01*
X114647489Y-112960520D01*
X114392006Y-113108023D01*
X114157959Y-113287614D01*
X114157952Y-113287620D01*
X113949358Y-113496214D01*
X113949352Y-113496221D01*
X113769761Y-113730268D01*
X113622258Y-113985751D01*
X113622254Y-113985761D01*
X113509364Y-114258300D01*
X113509361Y-114258310D01*
X113473172Y-114393372D01*
X113433008Y-114543266D01*
X113433006Y-114543277D01*
X113394500Y-114835748D01*
X113394500Y-115130775D01*
X113416304Y-115296384D01*
X113433007Y-115423255D01*
X113508606Y-115705397D01*
X113509361Y-115708213D01*
X113509364Y-115708223D01*
X113622254Y-115980762D01*
X113622258Y-115980772D01*
X113769761Y-116236255D01*
X113949352Y-116470302D01*
X113949358Y-116470309D01*
X114157952Y-116678903D01*
X114157959Y-116678909D01*
X114392006Y-116858500D01*
X114647489Y-117006003D01*
X114647490Y-117006003D01*
X114647493Y-117006005D01*
X114920048Y-117118901D01*
X115205007Y-117195255D01*
X115497494Y-117233762D01*
X115497501Y-117233762D01*
X115792499Y-117233762D01*
X115792506Y-117233762D01*
X116084993Y-117195255D01*
X116369952Y-117118901D01*
X116642507Y-117006005D01*
X116897994Y-116858500D01*
X117051339Y-116740833D01*
X117116507Y-116715639D01*
X117184952Y-116729677D01*
X117234942Y-116778491D01*
X117250606Y-116846582D01*
X117244245Y-116879066D01*
X117228121Y-116926566D01*
X117228118Y-116926578D01*
X117169288Y-117222331D01*
X117169287Y-117222343D01*
X117149564Y-117523262D01*
X117169287Y-117824180D01*
X117169288Y-117824192D01*
X117228118Y-118119945D01*
X117228122Y-118119960D01*
X117325053Y-118405509D01*
X117325062Y-118405530D01*
X117458431Y-118675975D01*
X117458435Y-118675982D01*
X117625973Y-118926721D01*
X117824810Y-119153451D01*
X118051540Y-119352288D01*
X118302279Y-119519826D01*
X118302286Y-119519830D01*
X118572731Y-119653199D01*
X118572736Y-119653201D01*
X118572748Y-119653207D01*
X118858309Y-119750142D01*
X119058251Y-119789913D01*
X119154069Y-119808973D01*
X119154070Y-119808973D01*
X119154080Y-119808975D01*
X119455000Y-119828698D01*
X119755920Y-119808975D01*
X120051691Y-119750142D01*
X120337252Y-119653207D01*
X120607718Y-119519828D01*
X120858461Y-119352287D01*
X120912912Y-119304534D01*
X120976294Y-119275131D01*
X120994672Y-119273761D01*
X121505500Y-119273761D01*
X121572539Y-119293446D01*
X121618294Y-119346250D01*
X121629500Y-119397761D01*
X121629500Y-133055862D01*
X121609815Y-133122901D01*
X121557011Y-133168656D01*
X121487853Y-133178600D01*
X121432615Y-133156180D01*
X121314890Y-133070648D01*
X121285871Y-133055862D01*
X121157042Y-132990219D01*
X121157039Y-132990218D01*
X120988556Y-132935476D01*
X120901067Y-132921619D01*
X120813579Y-132907762D01*
X120636421Y-132907762D01*
X120578095Y-132917000D01*
X120461443Y-132935476D01*
X120292960Y-132990218D01*
X120292957Y-132990219D01*
X120135109Y-133070648D01*
X120063190Y-133122901D01*
X119991786Y-133174779D01*
X119991784Y-133174781D01*
X119991783Y-133174781D01*
X119866519Y-133300045D01*
X119866519Y-133300046D01*
X119866517Y-133300048D01*
X119832569Y-133346773D01*
X119762386Y-133443371D01*
X119681957Y-133601219D01*
X119681956Y-133601222D01*
X119627214Y-133769705D01*
X119599500Y-133944683D01*
X119599500Y-134121838D01*
X119600104Y-134125654D01*
X119591144Y-134194947D01*
X119546144Y-134248395D01*
X119479391Y-134269030D01*
X119469529Y-134268778D01*
X119455000Y-134267826D01*
X119154080Y-134287549D01*
X119154079Y-134287549D01*
X119154069Y-134287550D01*
X118858316Y-134346380D01*
X118858301Y-134346384D01*
X118572752Y-134443315D01*
X118572731Y-134443324D01*
X118302286Y-134576693D01*
X118302279Y-134576697D01*
X118051540Y-134744235D01*
X118009654Y-134780968D01*
X117946272Y-134810370D01*
X117877055Y-134800837D01*
X117823981Y-134755397D01*
X117803898Y-134688476D01*
X117808120Y-134655651D01*
X117856993Y-134473255D01*
X117895500Y-134180768D01*
X117895500Y-133885756D01*
X117856993Y-133593269D01*
X117780639Y-133308310D01*
X117667743Y-133035755D01*
X117641453Y-132990220D01*
X117520238Y-132780268D01*
X117340647Y-132546221D01*
X117340641Y-132546214D01*
X117132047Y-132337620D01*
X117132040Y-132337614D01*
X116897993Y-132158023D01*
X116642510Y-132010520D01*
X116642500Y-132010516D01*
X116369961Y-131897626D01*
X116369954Y-131897624D01*
X116369952Y-131897623D01*
X116084993Y-131821269D01*
X116036113Y-131814833D01*
X115792513Y-131782762D01*
X115792506Y-131782762D01*
X115497494Y-131782762D01*
X115497486Y-131782762D01*
X115219085Y-131819415D01*
X115205007Y-131821269D01*
X114920048Y-131897623D01*
X114920038Y-131897626D01*
X114647499Y-132010516D01*
X114647489Y-132010520D01*
X114392006Y-132158023D01*
X114157959Y-132337614D01*
X114157952Y-132337620D01*
X113949358Y-132546214D01*
X113949352Y-132546221D01*
X113769761Y-132780268D01*
X113622258Y-133035751D01*
X113622254Y-133035761D01*
X113509364Y-133308300D01*
X113509361Y-133308310D01*
X113473172Y-133443372D01*
X113433008Y-133593266D01*
X113433006Y-133593277D01*
X113394500Y-133885748D01*
X113394500Y-134180775D01*
X113416304Y-134346384D01*
X113433007Y-134473255D01*
X113508606Y-134755397D01*
X113509361Y-134758213D01*
X113509364Y-134758223D01*
X113622254Y-135030762D01*
X113622258Y-135030772D01*
X113769761Y-135286255D01*
X113949352Y-135520302D01*
X113949358Y-135520309D01*
X114157952Y-135728903D01*
X114157959Y-135728909D01*
X114392006Y-135908500D01*
X114647489Y-136056003D01*
X114647490Y-136056003D01*
X114647493Y-136056005D01*
X114920048Y-136168901D01*
X115205007Y-136245255D01*
X115497494Y-136283762D01*
X115497501Y-136283762D01*
X115792499Y-136283762D01*
X115792506Y-136283762D01*
X116084993Y-136245255D01*
X116369952Y-136168901D01*
X116642507Y-136056005D01*
X116897994Y-135908500D01*
X117051339Y-135790833D01*
X117116507Y-135765639D01*
X117184952Y-135779677D01*
X117234942Y-135828491D01*
X117250606Y-135896582D01*
X117244245Y-135929066D01*
X117228121Y-135976566D01*
X117228118Y-135976578D01*
X117169288Y-136272331D01*
X117169287Y-136272341D01*
X117169287Y-136272342D01*
X117149564Y-136573262D01*
X117165931Y-136822986D01*
X117169287Y-136874180D01*
X117169288Y-136874192D01*
X117228118Y-137169945D01*
X117228122Y-137169960D01*
X117325053Y-137455509D01*
X117325062Y-137455530D01*
X117458431Y-137725975D01*
X117458435Y-137725982D01*
X117625973Y-137976721D01*
X117824810Y-138203451D01*
X118051540Y-138402288D01*
X118302279Y-138569826D01*
X118302286Y-138569830D01*
X118572731Y-138703199D01*
X118572736Y-138703201D01*
X118572748Y-138703207D01*
X118858309Y-138800142D01*
X119058251Y-138839913D01*
X119154069Y-138858973D01*
X119154070Y-138858973D01*
X119154080Y-138858975D01*
X119455000Y-138878698D01*
X119755920Y-138858975D01*
X120051691Y-138800142D01*
X120337252Y-138703207D01*
X120607718Y-138569828D01*
X120858461Y-138402287D01*
X120912912Y-138354534D01*
X120976294Y-138325131D01*
X120994672Y-138323761D01*
X123805002Y-138323761D01*
X123805008Y-138323761D01*
X123907797Y-138313261D01*
X124074334Y-138258076D01*
X124223656Y-138165974D01*
X124326385Y-138063245D01*
X127049500Y-138063245D01*
X127049500Y-140163263D01*
X127049501Y-140163280D01*
X127060000Y-140266058D01*
X127060001Y-140266061D01*
X127115185Y-140432593D01*
X127115186Y-140432596D01*
X127207288Y-140581918D01*
X127331344Y-140705974D01*
X127480666Y-140798076D01*
X127647203Y-140853261D01*
X127749991Y-140863762D01*
X130565326Y-140863761D01*
X130632365Y-140883446D01*
X130647085Y-140894533D01*
X130701540Y-140942288D01*
X130952279Y-141109826D01*
X130952286Y-141109830D01*
X131222731Y-141243199D01*
X131222736Y-141243201D01*
X131222748Y-141243207D01*
X131508309Y-141340142D01*
X131708251Y-141379913D01*
X131804069Y-141398973D01*
X131804070Y-141398973D01*
X131804080Y-141398975D01*
X132105000Y-141418698D01*
X132405920Y-141398975D01*
X132701691Y-141340142D01*
X132987252Y-141243207D01*
X133257718Y-141109828D01*
X133508461Y-140942287D01*
X133735189Y-140743451D01*
X133934025Y-140516723D01*
X134101566Y-140265980D01*
X134165864Y-140135597D01*
X152692900Y-140135597D01*
X152692900Y-142231332D01*
X152692901Y-142231338D01*
X152699308Y-142290945D01*
X152749602Y-142425790D01*
X152749606Y-142425797D01*
X152835852Y-142541006D01*
X152835855Y-142541009D01*
X152951064Y-142627255D01*
X152951071Y-142627259D01*
X153085917Y-142677553D01*
X153085916Y-142677553D01*
X153092844Y-142678297D01*
X153145527Y-142683962D01*
X156441272Y-142683961D01*
X156500883Y-142677553D01*
X156635731Y-142627258D01*
X156750946Y-142541008D01*
X156837196Y-142425793D01*
X156880020Y-142310975D01*
X165044900Y-142310975D01*
X165044900Y-142523549D01*
X165054934Y-142586906D01*
X165078153Y-142733501D01*
X165143844Y-142935676D01*
X165240351Y-143125082D01*
X165365290Y-143297048D01*
X165515613Y-143447371D01*
X165687579Y-143572310D01*
X165687581Y-143572311D01*
X165687584Y-143572313D01*
X165876988Y-143668819D01*
X166079157Y-143734508D01*
X166289113Y-143767762D01*
X166289114Y-143767762D01*
X166501686Y-143767762D01*
X166501687Y-143767762D01*
X166711643Y-143734508D01*
X166913812Y-143668819D01*
X167103216Y-143572313D01*
X167125189Y-143556348D01*
X167275186Y-143447371D01*
X167275188Y-143447368D01*
X167275192Y-143447366D01*
X167425504Y-143297054D01*
X167425506Y-143297050D01*
X167425509Y-143297048D01*
X167550448Y-143125082D01*
X167550447Y-143125082D01*
X167550451Y-143125078D01*
X167646957Y-142935674D01*
X167712646Y-142733505D01*
X167745900Y-142523549D01*
X167745900Y-142310975D01*
X167712646Y-142101019D01*
X167646957Y-141898850D01*
X167550451Y-141709446D01*
X167550449Y-141709443D01*
X167550448Y-141709441D01*
X167425509Y-141537475D01*
X167275186Y-141387152D01*
X167103220Y-141262213D01*
X166913814Y-141165706D01*
X166913813Y-141165705D01*
X166913812Y-141165705D01*
X166711643Y-141100016D01*
X166711641Y-141100015D01*
X166711640Y-141100015D01*
X166550357Y-141074470D01*
X166501687Y-141066762D01*
X166289113Y-141066762D01*
X166240442Y-141074470D01*
X166079160Y-141100015D01*
X165876985Y-141165706D01*
X165687579Y-141262213D01*
X165515613Y-141387152D01*
X165365290Y-141537475D01*
X165240351Y-141709441D01*
X165143844Y-141898847D01*
X165078153Y-142101022D01*
X165057515Y-142231326D01*
X165044900Y-142310975D01*
X156880020Y-142310975D01*
X156887491Y-142290945D01*
X156893900Y-142231335D01*
X156893899Y-140135590D01*
X156887491Y-140075979D01*
X156857485Y-139995530D01*
X156837197Y-139941133D01*
X156837193Y-139941126D01*
X156750947Y-139825917D01*
X156750944Y-139825914D01*
X156635735Y-139739668D01*
X156635728Y-139739664D01*
X156500882Y-139689370D01*
X156500883Y-139689370D01*
X156441283Y-139682963D01*
X156441281Y-139682962D01*
X156441273Y-139682962D01*
X156441264Y-139682962D01*
X153145529Y-139682962D01*
X153145523Y-139682963D01*
X153085916Y-139689370D01*
X152951071Y-139739664D01*
X152951064Y-139739668D01*
X152835855Y-139825914D01*
X152835852Y-139825917D01*
X152749606Y-139941126D01*
X152749602Y-139941133D01*
X152699308Y-140075979D01*
X152692901Y-140135578D01*
X152692901Y-140135585D01*
X152692900Y-140135597D01*
X134165864Y-140135597D01*
X134234945Y-139995514D01*
X134331880Y-139709953D01*
X134390713Y-139414182D01*
X134410436Y-139113262D01*
X134390713Y-138812342D01*
X134388286Y-138800143D01*
X134369005Y-138703208D01*
X134331880Y-138516571D01*
X134234945Y-138231010D01*
X134221354Y-138203451D01*
X134101568Y-137960548D01*
X134101564Y-137960541D01*
X133934026Y-137709802D01*
X133735189Y-137483072D01*
X133508459Y-137284235D01*
X133257720Y-137116697D01*
X133257713Y-137116693D01*
X132987268Y-136983324D01*
X132987247Y-136983315D01*
X132701698Y-136886384D01*
X132701692Y-136886382D01*
X132701691Y-136886382D01*
X132701689Y-136886381D01*
X132701683Y-136886380D01*
X132405930Y-136827550D01*
X132405921Y-136827549D01*
X132405920Y-136827549D01*
X132105000Y-136807826D01*
X131804080Y-136827549D01*
X131804079Y-136827549D01*
X131804069Y-136827550D01*
X131508316Y-136886380D01*
X131508301Y-136886384D01*
X131222752Y-136983315D01*
X131222731Y-136983324D01*
X130952286Y-137116693D01*
X130952279Y-137116697D01*
X130701540Y-137284235D01*
X130647085Y-137331991D01*
X130583703Y-137361393D01*
X130565327Y-137362762D01*
X127749998Y-137362762D01*
X127749981Y-137362763D01*
X127647203Y-137373262D01*
X127647200Y-137373263D01*
X127480668Y-137428447D01*
X127480663Y-137428449D01*
X127331342Y-137520551D01*
X127207289Y-137644604D01*
X127115187Y-137793925D01*
X127115185Y-137793930D01*
X127101361Y-137835649D01*
X127060001Y-137960465D01*
X127060001Y-137960466D01*
X127060000Y-137960466D01*
X127049500Y-138063245D01*
X124326385Y-138063245D01*
X124347712Y-138041918D01*
X124439814Y-137892596D01*
X124494999Y-137726059D01*
X124505500Y-137623271D01*
X124505499Y-135523254D01*
X124505197Y-135520302D01*
X124494999Y-135420465D01*
X124494998Y-135420462D01*
X124450526Y-135286255D01*
X124439814Y-135253928D01*
X124347712Y-135104606D01*
X124223656Y-134980550D01*
X124119311Y-134916190D01*
X124074336Y-134888449D01*
X124074331Y-134888447D01*
X124072862Y-134887960D01*
X123907797Y-134833263D01*
X123907795Y-134833262D01*
X123805016Y-134822762D01*
X123805009Y-134822762D01*
X122954500Y-134822762D01*
X122887461Y-134803077D01*
X122841706Y-134750273D01*
X122830500Y-134698762D01*
X122830500Y-133793260D01*
X124339532Y-133793260D01*
X124339532Y-133793263D01*
X124359364Y-134019948D01*
X124359366Y-134019959D01*
X124418258Y-134239750D01*
X124418261Y-134239759D01*
X124514431Y-134445994D01*
X124514432Y-134445996D01*
X124644954Y-134632403D01*
X124805858Y-134793307D01*
X124805861Y-134793309D01*
X124992266Y-134923830D01*
X125198504Y-135020001D01*
X125418308Y-135078897D01*
X125580230Y-135093063D01*
X125644998Y-135098730D01*
X125645000Y-135098730D01*
X125645002Y-135098730D01*
X125701673Y-135093771D01*
X125871692Y-135078897D01*
X126091496Y-135020001D01*
X126297734Y-134923830D01*
X126484139Y-134793309D01*
X126645047Y-134632401D01*
X126775568Y-134445996D01*
X126871739Y-134239758D01*
X126930635Y-134019954D01*
X126937220Y-133944683D01*
X128439500Y-133944683D01*
X128439500Y-134121840D01*
X128467214Y-134296818D01*
X128521956Y-134465301D01*
X128521957Y-134465304D01*
X128602386Y-134623152D01*
X128706517Y-134766476D01*
X128831786Y-134891745D01*
X128975110Y-134995876D01*
X129022456Y-135020000D01*
X129132957Y-135076304D01*
X129132960Y-135076305D01*
X129201979Y-135098730D01*
X129301445Y-135131048D01*
X129476421Y-135158762D01*
X129476422Y-135158762D01*
X129653578Y-135158762D01*
X129653579Y-135158762D01*
X129828555Y-135131048D01*
X129997042Y-135076304D01*
X130154890Y-134995876D01*
X130298214Y-134891745D01*
X130423483Y-134766476D01*
X130527614Y-134623152D01*
X130608042Y-134465304D01*
X130662786Y-134296817D01*
X130690500Y-134121841D01*
X130690500Y-133944683D01*
X130662786Y-133769707D01*
X130608042Y-133601220D01*
X130608042Y-133601219D01*
X130527613Y-133443371D01*
X130423483Y-133300048D01*
X130298214Y-133174779D01*
X130154890Y-133070648D01*
X130125871Y-133055862D01*
X129997042Y-132990219D01*
X129997039Y-132990218D01*
X129828556Y-132935476D01*
X129741067Y-132921619D01*
X129653579Y-132907762D01*
X129476421Y-132907762D01*
X129418095Y-132917000D01*
X129301443Y-132935476D01*
X129132960Y-132990218D01*
X129132957Y-132990219D01*
X128975109Y-133070648D01*
X128903190Y-133122901D01*
X128831786Y-133174779D01*
X128831784Y-133174781D01*
X128831783Y-133174781D01*
X128706519Y-133300045D01*
X128706519Y-133300046D01*
X128706517Y-133300048D01*
X128672569Y-133346773D01*
X128602386Y-133443371D01*
X128521957Y-133601219D01*
X128521956Y-133601222D01*
X128467214Y-133769705D01*
X128439500Y-133944683D01*
X126937220Y-133944683D01*
X126949872Y-133800070D01*
X126950468Y-133793263D01*
X126950468Y-133793260D01*
X126940905Y-133683962D01*
X126930635Y-133566570D01*
X126871739Y-133346766D01*
X126775568Y-133140528D01*
X126645047Y-132954123D01*
X126645045Y-132954120D01*
X126484141Y-132793216D01*
X126297734Y-132662694D01*
X126297732Y-132662693D01*
X126091497Y-132566523D01*
X126091488Y-132566520D01*
X125871697Y-132507628D01*
X125871693Y-132507627D01*
X125871692Y-132507627D01*
X125871691Y-132507626D01*
X125871686Y-132507626D01*
X125645002Y-132487794D01*
X125644998Y-132487794D01*
X125418313Y-132507626D01*
X125418302Y-132507628D01*
X125198511Y-132566520D01*
X125198502Y-132566523D01*
X124992267Y-132662693D01*
X124992265Y-132662694D01*
X124805858Y-132793216D01*
X124644954Y-132954120D01*
X124514432Y-133140527D01*
X124514431Y-133140529D01*
X124418261Y-133346764D01*
X124418258Y-133346773D01*
X124359366Y-133566564D01*
X124359364Y-133566575D01*
X124339532Y-133793260D01*
X122830500Y-133793260D01*
X122830500Y-125325397D01*
X124344500Y-125325397D01*
X124344500Y-127021132D01*
X124344501Y-127021138D01*
X124350908Y-127080745D01*
X124401202Y-127215590D01*
X124401206Y-127215597D01*
X124487452Y-127330806D01*
X124487455Y-127330809D01*
X124602664Y-127417055D01*
X124602671Y-127417059D01*
X124737517Y-127467353D01*
X124737516Y-127467353D01*
X124744444Y-127468097D01*
X124797127Y-127473762D01*
X126492872Y-127473761D01*
X126552483Y-127467353D01*
X126687331Y-127417058D01*
X126802546Y-127330808D01*
X126888796Y-127215593D01*
X126939091Y-127080745D01*
X126945500Y-127021135D01*
X126945499Y-125325390D01*
X126939091Y-125265779D01*
X126901559Y-125165151D01*
X126888797Y-125130933D01*
X126888793Y-125130926D01*
X126802547Y-125015717D01*
X126802544Y-125015714D01*
X126687335Y-124929468D01*
X126687328Y-124929464D01*
X126552482Y-124879170D01*
X126552483Y-124879170D01*
X126492883Y-124872763D01*
X126492881Y-124872762D01*
X126492873Y-124872762D01*
X126492864Y-124872762D01*
X124797129Y-124872762D01*
X124797123Y-124872763D01*
X124737516Y-124879170D01*
X124602671Y-124929464D01*
X124602664Y-124929468D01*
X124487455Y-125015714D01*
X124487452Y-125015717D01*
X124401206Y-125130926D01*
X124401202Y-125130933D01*
X124350908Y-125265779D01*
X124347001Y-125302124D01*
X124344501Y-125325385D01*
X124344500Y-125325397D01*
X122830500Y-125325397D01*
X122830500Y-119397761D01*
X122850185Y-119330722D01*
X122902989Y-119284967D01*
X122954500Y-119273761D01*
X123805002Y-119273761D01*
X123805008Y-119273761D01*
X123907797Y-119263261D01*
X124074334Y-119208076D01*
X124223656Y-119115974D01*
X124326385Y-119013245D01*
X127049500Y-119013245D01*
X127049500Y-121113263D01*
X127049501Y-121113280D01*
X127060000Y-121216058D01*
X127060001Y-121216061D01*
X127115185Y-121382593D01*
X127115186Y-121382596D01*
X127207288Y-121531918D01*
X127331344Y-121655974D01*
X127480666Y-121748076D01*
X127647203Y-121803261D01*
X127749991Y-121813762D01*
X130565326Y-121813761D01*
X130632365Y-121833446D01*
X130647085Y-121844533D01*
X130701540Y-121892288D01*
X130952279Y-122059826D01*
X130952286Y-122059830D01*
X131222731Y-122193199D01*
X131222736Y-122193201D01*
X131222748Y-122193207D01*
X131508309Y-122290142D01*
X131708251Y-122329913D01*
X131804069Y-122348973D01*
X131804070Y-122348973D01*
X131804080Y-122348975D01*
X132105000Y-122368698D01*
X132405920Y-122348975D01*
X132701691Y-122290142D01*
X132987252Y-122193207D01*
X133257718Y-122059828D01*
X133508461Y-121892287D01*
X133735189Y-121693451D01*
X133934025Y-121466723D01*
X134101566Y-121215980D01*
X134234945Y-120945514D01*
X134331880Y-120659953D01*
X134390713Y-120364182D01*
X134410436Y-120063262D01*
X134390713Y-119762342D01*
X134388286Y-119750143D01*
X134369005Y-119653208D01*
X134331880Y-119466571D01*
X134234945Y-119181010D01*
X134233911Y-119178914D01*
X134101568Y-118910548D01*
X134101564Y-118910541D01*
X133934026Y-118659802D01*
X133735189Y-118433072D01*
X133508459Y-118234235D01*
X133257720Y-118066697D01*
X133257713Y-118066693D01*
X132987268Y-117933324D01*
X132987247Y-117933315D01*
X132701698Y-117836384D01*
X132701692Y-117836382D01*
X132701691Y-117836382D01*
X132701689Y-117836381D01*
X132701683Y-117836380D01*
X132405930Y-117777550D01*
X132405921Y-117777549D01*
X132405920Y-117777549D01*
X132105000Y-117757826D01*
X131804080Y-117777549D01*
X131804079Y-117777549D01*
X131804069Y-117777550D01*
X131508316Y-117836380D01*
X131508301Y-117836384D01*
X131222752Y-117933315D01*
X131222731Y-117933324D01*
X130952286Y-118066693D01*
X130952279Y-118066697D01*
X130701540Y-118234235D01*
X130647085Y-118281991D01*
X130583703Y-118311393D01*
X130565327Y-118312762D01*
X127749998Y-118312762D01*
X127749981Y-118312763D01*
X127647203Y-118323262D01*
X127647200Y-118323263D01*
X127480668Y-118378447D01*
X127480663Y-118378449D01*
X127331342Y-118470551D01*
X127207289Y-118594604D01*
X127115187Y-118743925D01*
X127115186Y-118743928D01*
X127060001Y-118910465D01*
X127060001Y-118910466D01*
X127060000Y-118910466D01*
X127049500Y-119013245D01*
X124326385Y-119013245D01*
X124347712Y-118991918D01*
X124439814Y-118842596D01*
X124494999Y-118676059D01*
X124505500Y-118573271D01*
X124505499Y-116473254D01*
X124505197Y-116470302D01*
X124494999Y-116370465D01*
X124494998Y-116370462D01*
X124450526Y-116236255D01*
X124439814Y-116203928D01*
X124347712Y-116054606D01*
X124223656Y-115930550D01*
X124130888Y-115873331D01*
X124074336Y-115838449D01*
X124074331Y-115838447D01*
X124072862Y-115837960D01*
X123907797Y-115783263D01*
X123907795Y-115783262D01*
X123805016Y-115772762D01*
X123805009Y-115772762D01*
X122954500Y-115772762D01*
X122887461Y-115753077D01*
X122841706Y-115700273D01*
X122830500Y-115648762D01*
X122830500Y-114793260D01*
X124339532Y-114793260D01*
X124339532Y-114793263D01*
X124359364Y-115019948D01*
X124359366Y-115019959D01*
X124418258Y-115239750D01*
X124418261Y-115239759D01*
X124514431Y-115445994D01*
X124514432Y-115445996D01*
X124644954Y-115632403D01*
X124805858Y-115793307D01*
X124805861Y-115793309D01*
X124992266Y-115923830D01*
X125198504Y-116020001D01*
X125418308Y-116078897D01*
X125580230Y-116093063D01*
X125644998Y-116098730D01*
X125645000Y-116098730D01*
X125645002Y-116098730D01*
X125701673Y-116093771D01*
X125871692Y-116078897D01*
X126091496Y-116020001D01*
X126297734Y-115923830D01*
X126484139Y-115793309D01*
X126645047Y-115632401D01*
X126775568Y-115445996D01*
X126871739Y-115239758D01*
X126930635Y-115019954D01*
X126941595Y-114894683D01*
X128439500Y-114894683D01*
X128439500Y-115071840D01*
X128467214Y-115246818D01*
X128521956Y-115415301D01*
X128521957Y-115415304D01*
X128578714Y-115526693D01*
X128602386Y-115573152D01*
X128706517Y-115716476D01*
X128831786Y-115841745D01*
X128975110Y-115945876D01*
X129043577Y-115980762D01*
X129132957Y-116026304D01*
X129132960Y-116026305D01*
X129217201Y-116053676D01*
X129301445Y-116081048D01*
X129476421Y-116108762D01*
X129476422Y-116108762D01*
X129653578Y-116108762D01*
X129653579Y-116108762D01*
X129828555Y-116081048D01*
X129997042Y-116026304D01*
X130154890Y-115945876D01*
X130298214Y-115841745D01*
X130423483Y-115716476D01*
X130527614Y-115573152D01*
X130608042Y-115415304D01*
X130662786Y-115246817D01*
X130690500Y-115071841D01*
X130690500Y-114894683D01*
X130662786Y-114719707D01*
X130630598Y-114620640D01*
X130608043Y-114551222D01*
X130608042Y-114551219D01*
X130527613Y-114393371D01*
X130423483Y-114250048D01*
X130298214Y-114124779D01*
X130154890Y-114020648D01*
X130125871Y-114005862D01*
X129997042Y-113940219D01*
X129997039Y-113940218D01*
X129828556Y-113885476D01*
X129741067Y-113871619D01*
X129653579Y-113857762D01*
X129476421Y-113857762D01*
X129418095Y-113867000D01*
X129301443Y-113885476D01*
X129132960Y-113940218D01*
X129132957Y-113940219D01*
X128975109Y-114020648D01*
X128903190Y-114072901D01*
X128831786Y-114124779D01*
X128831784Y-114124781D01*
X128831783Y-114124781D01*
X128706519Y-114250045D01*
X128706519Y-114250046D01*
X128706517Y-114250048D01*
X128661796Y-114311600D01*
X128602386Y-114393371D01*
X128521957Y-114551219D01*
X128521956Y-114551222D01*
X128467214Y-114719705D01*
X128439500Y-114894683D01*
X126941595Y-114894683D01*
X126950468Y-114793262D01*
X126930635Y-114566570D01*
X126871739Y-114346766D01*
X126775568Y-114140528D01*
X126645047Y-113954123D01*
X126645045Y-113954120D01*
X126484141Y-113793216D01*
X126297734Y-113662694D01*
X126297732Y-113662693D01*
X126091497Y-113566523D01*
X126091488Y-113566520D01*
X125871697Y-113507628D01*
X125871693Y-113507627D01*
X125871692Y-113507627D01*
X125871691Y-113507626D01*
X125871686Y-113507626D01*
X125645002Y-113487794D01*
X125644998Y-113487794D01*
X125418313Y-113507626D01*
X125418302Y-113507628D01*
X125198511Y-113566520D01*
X125198502Y-113566523D01*
X124992267Y-113662693D01*
X124992265Y-113662694D01*
X124805858Y-113793216D01*
X124644954Y-113954120D01*
X124514432Y-114140527D01*
X124514431Y-114140529D01*
X124418261Y-114346764D01*
X124418258Y-114346773D01*
X124359366Y-114566564D01*
X124359364Y-114566575D01*
X124339532Y-114793260D01*
X122830500Y-114793260D01*
X122830500Y-106325397D01*
X124344500Y-106325397D01*
X124344500Y-108021132D01*
X124344501Y-108021138D01*
X124350908Y-108080745D01*
X124401202Y-108215590D01*
X124401206Y-108215597D01*
X124487452Y-108330806D01*
X124487455Y-108330809D01*
X124602664Y-108417055D01*
X124602671Y-108417059D01*
X124737517Y-108467353D01*
X124737516Y-108467353D01*
X124744444Y-108468097D01*
X124797127Y-108473762D01*
X126492872Y-108473761D01*
X126552483Y-108467353D01*
X126687331Y-108417058D01*
X126802546Y-108330808D01*
X126888796Y-108215593D01*
X126939091Y-108080745D01*
X126945500Y-108021135D01*
X126945499Y-106325390D01*
X126939091Y-106265779D01*
X126928220Y-106236633D01*
X126888797Y-106130933D01*
X126888793Y-106130926D01*
X126802547Y-106015717D01*
X126802544Y-106015714D01*
X126687335Y-105929468D01*
X126687328Y-105929464D01*
X126552482Y-105879170D01*
X126552483Y-105879170D01*
X126492883Y-105872763D01*
X126492881Y-105872762D01*
X126492873Y-105872762D01*
X126492864Y-105872762D01*
X124797129Y-105872762D01*
X124797123Y-105872763D01*
X124737516Y-105879170D01*
X124602671Y-105929464D01*
X124602664Y-105929468D01*
X124487455Y-106015714D01*
X124487452Y-106015717D01*
X124401206Y-106130926D01*
X124401202Y-106130933D01*
X124350908Y-106265779D01*
X124344804Y-106322558D01*
X124344501Y-106325385D01*
X124344500Y-106325397D01*
X122830500Y-106325397D01*
X122830500Y-100397761D01*
X122850185Y-100330722D01*
X122902989Y-100284967D01*
X122954500Y-100273761D01*
X123805002Y-100273761D01*
X123805008Y-100273761D01*
X123907797Y-100263261D01*
X124074334Y-100208076D01*
X124223656Y-100115974D01*
X124326385Y-100013245D01*
X127049500Y-100013245D01*
X127049500Y-102113263D01*
X127049501Y-102113280D01*
X127060000Y-102216058D01*
X127060001Y-102216061D01*
X127115185Y-102382593D01*
X127115186Y-102382596D01*
X127207288Y-102531918D01*
X127331344Y-102655974D01*
X127480666Y-102748076D01*
X127647203Y-102803261D01*
X127749991Y-102813762D01*
X130565326Y-102813761D01*
X130632365Y-102833446D01*
X130647085Y-102844533D01*
X130701540Y-102892288D01*
X130952279Y-103059826D01*
X130952286Y-103059830D01*
X131222731Y-103193199D01*
X131222736Y-103193201D01*
X131222748Y-103193207D01*
X131508309Y-103290142D01*
X131708251Y-103329913D01*
X131804069Y-103348973D01*
X131804070Y-103348973D01*
X131804080Y-103348975D01*
X132105000Y-103368698D01*
X132405920Y-103348975D01*
X132701691Y-103290142D01*
X132987252Y-103193207D01*
X133257718Y-103059828D01*
X133508461Y-102892287D01*
X133735189Y-102693451D01*
X133934025Y-102466723D01*
X134101566Y-102215980D01*
X134234945Y-101945514D01*
X134331880Y-101659953D01*
X134390713Y-101364182D01*
X134410436Y-101063262D01*
X134390713Y-100762342D01*
X134388286Y-100750143D01*
X134369080Y-100653585D01*
X134331880Y-100466571D01*
X134234945Y-100181010D01*
X134221354Y-100153451D01*
X134101568Y-99910548D01*
X134101564Y-99910541D01*
X133934026Y-99659802D01*
X133735189Y-99433072D01*
X133508459Y-99234235D01*
X133257720Y-99066697D01*
X133257713Y-99066693D01*
X132987268Y-98933324D01*
X132987247Y-98933315D01*
X132701698Y-98836384D01*
X132701692Y-98836382D01*
X132701691Y-98836382D01*
X132701689Y-98836381D01*
X132701683Y-98836380D01*
X132405930Y-98777550D01*
X132405921Y-98777549D01*
X132405920Y-98777549D01*
X132105000Y-98757826D01*
X131804080Y-98777549D01*
X131804079Y-98777549D01*
X131804069Y-98777550D01*
X131508316Y-98836380D01*
X131508301Y-98836384D01*
X131222752Y-98933315D01*
X131222731Y-98933324D01*
X130952286Y-99066693D01*
X130952279Y-99066697D01*
X130701540Y-99234235D01*
X130647085Y-99281991D01*
X130583703Y-99311393D01*
X130565327Y-99312762D01*
X127749998Y-99312762D01*
X127749981Y-99312763D01*
X127647203Y-99323262D01*
X127647200Y-99323263D01*
X127480668Y-99378447D01*
X127480663Y-99378449D01*
X127331342Y-99470551D01*
X127207289Y-99594604D01*
X127115187Y-99743925D01*
X127115185Y-99743930D01*
X127105716Y-99772507D01*
X127060001Y-99910465D01*
X127060001Y-99910466D01*
X127060000Y-99910466D01*
X127049500Y-100013245D01*
X124326385Y-100013245D01*
X124347712Y-99991918D01*
X124439814Y-99842596D01*
X124494999Y-99676059D01*
X124505500Y-99573271D01*
X124505499Y-97473254D01*
X124505197Y-97470302D01*
X124494999Y-97370465D01*
X124494998Y-97370462D01*
X124449283Y-97232504D01*
X124439814Y-97203928D01*
X124347712Y-97054606D01*
X124223656Y-96930550D01*
X124090790Y-96848598D01*
X124074336Y-96838449D01*
X124074331Y-96838447D01*
X124041126Y-96827444D01*
X123907797Y-96783263D01*
X123907795Y-96783262D01*
X123860210Y-96778401D01*
X123795519Y-96752004D01*
X123755368Y-96694823D01*
X123752506Y-96625012D01*
X123785131Y-96567364D01*
X124201829Y-96150666D01*
X124263150Y-96117183D01*
X124332842Y-96122167D01*
X124388775Y-96164039D01*
X124409282Y-96206253D01*
X124418257Y-96239747D01*
X124418261Y-96239759D01*
X124514431Y-96445994D01*
X124514432Y-96445996D01*
X124644954Y-96632403D01*
X124805858Y-96793307D01*
X124805861Y-96793309D01*
X124992266Y-96923830D01*
X125198504Y-97020001D01*
X125418308Y-97078897D01*
X125580230Y-97093063D01*
X125644998Y-97098730D01*
X125645000Y-97098730D01*
X125645002Y-97098730D01*
X125701673Y-97093771D01*
X125871692Y-97078897D01*
X126091496Y-97020001D01*
X126297734Y-96923830D01*
X126484139Y-96793309D01*
X126645047Y-96632401D01*
X126775568Y-96445996D01*
X126871739Y-96239758D01*
X126930635Y-96019954D01*
X126941595Y-95894683D01*
X128439500Y-95894683D01*
X128439500Y-96071840D01*
X128467214Y-96246818D01*
X128521956Y-96415301D01*
X128521957Y-96415304D01*
X128578714Y-96526693D01*
X128602386Y-96573152D01*
X128706517Y-96716476D01*
X128831786Y-96841745D01*
X128975110Y-96945876D01*
X129043577Y-96980762D01*
X129132957Y-97026304D01*
X129132960Y-97026305D01*
X129217201Y-97053676D01*
X129301445Y-97081048D01*
X129476421Y-97108762D01*
X129476422Y-97108762D01*
X129653578Y-97108762D01*
X129653579Y-97108762D01*
X129828555Y-97081048D01*
X129997042Y-97026304D01*
X130154890Y-96945876D01*
X130298214Y-96841745D01*
X130423483Y-96716476D01*
X130527614Y-96573152D01*
X130608042Y-96415304D01*
X130662786Y-96246817D01*
X130690500Y-96071841D01*
X130690500Y-95894683D01*
X130662786Y-95719707D01*
X130625701Y-95605570D01*
X130608043Y-95551222D01*
X130608042Y-95551219D01*
X130543847Y-95425231D01*
X130527614Y-95393372D01*
X130423483Y-95250048D01*
X130298214Y-95124779D01*
X130154890Y-95020648D01*
X129997042Y-94940219D01*
X129997039Y-94940218D01*
X129828556Y-94885476D01*
X129741067Y-94871619D01*
X129653579Y-94857762D01*
X129476421Y-94857762D01*
X129418095Y-94867000D01*
X129301443Y-94885476D01*
X129132960Y-94940218D01*
X129132957Y-94940219D01*
X128975109Y-95020648D01*
X128893338Y-95080058D01*
X128831786Y-95124779D01*
X128831784Y-95124781D01*
X128831783Y-95124781D01*
X128706519Y-95250045D01*
X128706519Y-95250046D01*
X128706517Y-95250048D01*
X128692256Y-95269677D01*
X128602386Y-95393371D01*
X128521957Y-95551219D01*
X128521956Y-95551222D01*
X128467214Y-95719705D01*
X128439500Y-95894683D01*
X126941595Y-95894683D01*
X126950468Y-95793262D01*
X126947379Y-95757960D01*
X126944033Y-95719705D01*
X126930635Y-95566570D01*
X126880460Y-95379312D01*
X126871741Y-95346773D01*
X126871738Y-95346764D01*
X126835792Y-95269678D01*
X126775568Y-95140528D01*
X126677839Y-95000955D01*
X126645045Y-94954120D01*
X126484141Y-94793216D01*
X126297734Y-94662694D01*
X126297732Y-94662693D01*
X126091497Y-94566523D01*
X126091488Y-94566520D01*
X126057994Y-94557546D01*
X125998333Y-94521181D01*
X125967804Y-94458335D01*
X125976098Y-94388959D01*
X126002406Y-94350090D01*
X126120654Y-94231843D01*
X126313601Y-94038896D01*
X126374924Y-94005411D01*
X126401282Y-94002577D01*
X133164135Y-94002577D01*
X133231174Y-94022262D01*
X133276929Y-94075066D01*
X133286873Y-94144224D01*
X133257848Y-94207780D01*
X133239622Y-94224953D01*
X133157952Y-94287620D01*
X132949358Y-94496214D01*
X132949352Y-94496221D01*
X132769761Y-94730268D01*
X132622258Y-94985751D01*
X132622254Y-94985761D01*
X132509364Y-95258300D01*
X132509361Y-95258310D01*
X132473172Y-95393372D01*
X132433008Y-95543266D01*
X132433006Y-95543277D01*
X132394500Y-95835748D01*
X132394500Y-96130775D01*
X132416304Y-96296384D01*
X132433007Y-96423255D01*
X132508606Y-96705397D01*
X132509361Y-96708213D01*
X132509364Y-96708223D01*
X132622254Y-96980762D01*
X132622258Y-96980772D01*
X132769761Y-97236255D01*
X132949352Y-97470302D01*
X132949358Y-97470309D01*
X133157952Y-97678903D01*
X133157959Y-97678909D01*
X133392006Y-97858500D01*
X133647489Y-98006003D01*
X133647490Y-98006003D01*
X133647493Y-98006005D01*
X133731257Y-98040701D01*
X133906757Y-98113396D01*
X133920048Y-98118901D01*
X134205007Y-98195255D01*
X134497494Y-98233762D01*
X134497501Y-98233762D01*
X134792499Y-98233762D01*
X134792506Y-98233762D01*
X135084993Y-98195255D01*
X135369952Y-98118901D01*
X135642507Y-98006005D01*
X135897994Y-97858500D01*
X136051339Y-97740833D01*
X136116507Y-97715639D01*
X136184952Y-97729677D01*
X136234942Y-97778491D01*
X136250606Y-97846582D01*
X136244245Y-97879066D01*
X136228121Y-97926566D01*
X136228118Y-97926578D01*
X136169288Y-98222331D01*
X136169287Y-98222341D01*
X136169287Y-98222342D01*
X136149564Y-98523262D01*
X136161315Y-98702558D01*
X136169287Y-98824180D01*
X136169288Y-98824192D01*
X136228118Y-99119945D01*
X136228122Y-99119960D01*
X136325053Y-99405509D01*
X136325062Y-99405530D01*
X136458431Y-99675975D01*
X136458435Y-99675982D01*
X136625973Y-99926721D01*
X136824810Y-100153451D01*
X137051540Y-100352288D01*
X137302279Y-100519826D01*
X137302286Y-100519830D01*
X137572731Y-100653199D01*
X137572736Y-100653201D01*
X137572748Y-100653207D01*
X137858309Y-100750142D01*
X138048492Y-100787972D01*
X138154069Y-100808973D01*
X138154070Y-100808973D01*
X138154080Y-100808975D01*
X138455000Y-100828698D01*
X138755920Y-100808975D01*
X139051691Y-100750142D01*
X139337252Y-100653207D01*
X139607718Y-100519828D01*
X139858461Y-100352287D01*
X139912912Y-100304534D01*
X139976294Y-100275131D01*
X139994672Y-100273761D01*
X140505500Y-100273761D01*
X140572539Y-100293446D01*
X140618294Y-100346250D01*
X140629500Y-100397761D01*
X140629500Y-114005862D01*
X140609815Y-114072901D01*
X140557011Y-114118656D01*
X140487853Y-114128600D01*
X140432615Y-114106180D01*
X140314890Y-114020648D01*
X140285871Y-114005862D01*
X140157042Y-113940219D01*
X140157039Y-113940218D01*
X139988556Y-113885476D01*
X139901067Y-113871619D01*
X139813579Y-113857762D01*
X139636421Y-113857762D01*
X139578095Y-113867000D01*
X139461443Y-113885476D01*
X139292960Y-113940218D01*
X139292957Y-113940219D01*
X139135109Y-114020648D01*
X139063190Y-114072901D01*
X138991786Y-114124779D01*
X138991784Y-114124781D01*
X138991783Y-114124781D01*
X138866519Y-114250045D01*
X138866519Y-114250046D01*
X138866517Y-114250048D01*
X138821796Y-114311600D01*
X138762386Y-114393371D01*
X138681957Y-114551219D01*
X138681956Y-114551222D01*
X138627214Y-114719705D01*
X138599500Y-114894683D01*
X138599500Y-115071838D01*
X138600104Y-115075654D01*
X138591144Y-115144947D01*
X138546144Y-115198395D01*
X138479391Y-115219030D01*
X138469529Y-115218778D01*
X138455000Y-115217826D01*
X138154080Y-115237549D01*
X138154079Y-115237549D01*
X138154069Y-115237550D01*
X137858316Y-115296380D01*
X137858301Y-115296384D01*
X137572752Y-115393315D01*
X137572731Y-115393324D01*
X137302286Y-115526693D01*
X137302279Y-115526697D01*
X137051540Y-115694235D01*
X137009654Y-115730968D01*
X136946272Y-115760370D01*
X136877055Y-115750837D01*
X136823981Y-115705397D01*
X136803898Y-115638476D01*
X136808120Y-115605651D01*
X136856993Y-115423255D01*
X136895500Y-115130768D01*
X136895500Y-114835756D01*
X136856993Y-114543269D01*
X136780639Y-114258310D01*
X136667743Y-113985755D01*
X136649480Y-113954123D01*
X136520238Y-113730268D01*
X136340647Y-113496221D01*
X136340641Y-113496214D01*
X136132047Y-113287620D01*
X136132040Y-113287614D01*
X135897993Y-113108023D01*
X135642510Y-112960520D01*
X135642500Y-112960516D01*
X135369961Y-112847626D01*
X135369954Y-112847624D01*
X135369952Y-112847623D01*
X135084993Y-112771269D01*
X135036113Y-112764833D01*
X134792513Y-112732762D01*
X134792506Y-112732762D01*
X134497494Y-112732762D01*
X134497486Y-112732762D01*
X134219085Y-112769415D01*
X134205007Y-112771269D01*
X134089395Y-112802247D01*
X133920048Y-112847623D01*
X133920038Y-112847626D01*
X133647499Y-112960516D01*
X133647489Y-112960520D01*
X133392006Y-113108023D01*
X133157959Y-113287614D01*
X133157952Y-113287620D01*
X132949358Y-113496214D01*
X132949352Y-113496221D01*
X132769761Y-113730268D01*
X132622258Y-113985751D01*
X132622254Y-113985761D01*
X132509364Y-114258300D01*
X132509361Y-114258310D01*
X132473172Y-114393372D01*
X132433008Y-114543266D01*
X132433006Y-114543277D01*
X132394500Y-114835748D01*
X132394500Y-115130775D01*
X132416304Y-115296384D01*
X132433007Y-115423255D01*
X132508606Y-115705397D01*
X132509361Y-115708213D01*
X132509364Y-115708223D01*
X132622254Y-115980762D01*
X132622258Y-115980772D01*
X132769761Y-116236255D01*
X132949352Y-116470302D01*
X132949358Y-116470309D01*
X133157952Y-116678903D01*
X133157959Y-116678909D01*
X133392006Y-116858500D01*
X133647489Y-117006003D01*
X133647490Y-117006003D01*
X133647493Y-117006005D01*
X133920048Y-117118901D01*
X134205007Y-117195255D01*
X134497494Y-117233762D01*
X134497501Y-117233762D01*
X134792499Y-117233762D01*
X134792506Y-117233762D01*
X135084993Y-117195255D01*
X135369952Y-117118901D01*
X135642507Y-117006005D01*
X135897994Y-116858500D01*
X136051339Y-116740833D01*
X136116507Y-116715639D01*
X136184952Y-116729677D01*
X136234942Y-116778491D01*
X136250606Y-116846582D01*
X136244245Y-116879066D01*
X136228121Y-116926566D01*
X136228118Y-116926578D01*
X136169288Y-117222331D01*
X136169287Y-117222343D01*
X136149564Y-117523262D01*
X136169287Y-117824180D01*
X136169288Y-117824192D01*
X136228118Y-118119945D01*
X136228122Y-118119960D01*
X136325053Y-118405509D01*
X136325062Y-118405530D01*
X136458431Y-118675975D01*
X136458435Y-118675982D01*
X136625973Y-118926721D01*
X136824810Y-119153451D01*
X137051540Y-119352288D01*
X137302279Y-119519826D01*
X137302286Y-119519830D01*
X137572731Y-119653199D01*
X137572736Y-119653201D01*
X137572748Y-119653207D01*
X137858309Y-119750142D01*
X138058251Y-119789913D01*
X138154069Y-119808973D01*
X138154070Y-119808973D01*
X138154080Y-119808975D01*
X138455000Y-119828698D01*
X138755920Y-119808975D01*
X139051691Y-119750142D01*
X139337252Y-119653207D01*
X139607718Y-119519828D01*
X139858461Y-119352287D01*
X139912912Y-119304534D01*
X139976294Y-119275131D01*
X139994672Y-119273761D01*
X140505500Y-119273761D01*
X140572539Y-119293446D01*
X140618294Y-119346250D01*
X140629500Y-119397761D01*
X140629500Y-133055862D01*
X140609815Y-133122901D01*
X140557011Y-133168656D01*
X140487853Y-133178600D01*
X140432615Y-133156180D01*
X140314890Y-133070648D01*
X140285871Y-133055862D01*
X140157042Y-132990219D01*
X140157039Y-132990218D01*
X139988556Y-132935476D01*
X139901067Y-132921619D01*
X139813579Y-132907762D01*
X139636421Y-132907762D01*
X139578095Y-132917000D01*
X139461443Y-132935476D01*
X139292960Y-132990218D01*
X139292957Y-132990219D01*
X139135109Y-133070648D01*
X139063190Y-133122901D01*
X138991786Y-133174779D01*
X138991784Y-133174781D01*
X138991783Y-133174781D01*
X138866519Y-133300045D01*
X138866519Y-133300046D01*
X138866517Y-133300048D01*
X138832569Y-133346773D01*
X138762386Y-133443371D01*
X138681957Y-133601219D01*
X138681956Y-133601222D01*
X138627214Y-133769705D01*
X138599500Y-133944683D01*
X138599500Y-134121838D01*
X138600104Y-134125654D01*
X138591144Y-134194947D01*
X138546144Y-134248395D01*
X138479391Y-134269030D01*
X138469529Y-134268778D01*
X138455000Y-134267826D01*
X138154080Y-134287549D01*
X138154079Y-134287549D01*
X138154069Y-134287550D01*
X137858316Y-134346380D01*
X137858301Y-134346384D01*
X137572752Y-134443315D01*
X137572731Y-134443324D01*
X137302286Y-134576693D01*
X137302279Y-134576697D01*
X137051540Y-134744235D01*
X137009654Y-134780968D01*
X136946272Y-134810370D01*
X136877055Y-134800837D01*
X136823981Y-134755397D01*
X136803898Y-134688476D01*
X136808120Y-134655651D01*
X136856993Y-134473255D01*
X136895500Y-134180768D01*
X136895500Y-133885756D01*
X136856993Y-133593269D01*
X136780639Y-133308310D01*
X136667743Y-133035755D01*
X136641453Y-132990220D01*
X136520238Y-132780268D01*
X136340647Y-132546221D01*
X136340641Y-132546214D01*
X136132047Y-132337620D01*
X136132040Y-132337614D01*
X135897993Y-132158023D01*
X135642510Y-132010520D01*
X135642500Y-132010516D01*
X135369961Y-131897626D01*
X135369954Y-131897624D01*
X135369952Y-131897623D01*
X135084993Y-131821269D01*
X135036113Y-131814833D01*
X134792513Y-131782762D01*
X134792506Y-131782762D01*
X134497494Y-131782762D01*
X134497486Y-131782762D01*
X134219085Y-131819415D01*
X134205007Y-131821269D01*
X133920048Y-131897623D01*
X133920038Y-131897626D01*
X133647499Y-132010516D01*
X133647489Y-132010520D01*
X133392006Y-132158023D01*
X133157959Y-132337614D01*
X133157952Y-132337620D01*
X132949358Y-132546214D01*
X132949352Y-132546221D01*
X132769761Y-132780268D01*
X132622258Y-133035751D01*
X132622254Y-133035761D01*
X132509364Y-133308300D01*
X132509361Y-133308310D01*
X132473172Y-133443372D01*
X132433008Y-133593266D01*
X132433006Y-133593277D01*
X132394500Y-133885748D01*
X132394500Y-134180775D01*
X132416304Y-134346384D01*
X132433007Y-134473255D01*
X132508606Y-134755397D01*
X132509361Y-134758213D01*
X132509364Y-134758223D01*
X132622254Y-135030762D01*
X132622258Y-135030772D01*
X132769761Y-135286255D01*
X132949352Y-135520302D01*
X132949358Y-135520309D01*
X133157952Y-135728903D01*
X133157959Y-135728909D01*
X133392006Y-135908500D01*
X133647489Y-136056003D01*
X133647490Y-136056003D01*
X133647493Y-136056005D01*
X133920048Y-136168901D01*
X134205007Y-136245255D01*
X134497494Y-136283762D01*
X134497501Y-136283762D01*
X134792499Y-136283762D01*
X134792506Y-136283762D01*
X135084993Y-136245255D01*
X135369952Y-136168901D01*
X135642507Y-136056005D01*
X135897994Y-135908500D01*
X136051339Y-135790833D01*
X136116507Y-135765639D01*
X136184952Y-135779677D01*
X136234942Y-135828491D01*
X136250606Y-135896582D01*
X136244245Y-135929066D01*
X136228121Y-135976566D01*
X136228118Y-135976578D01*
X136169288Y-136272331D01*
X136169287Y-136272341D01*
X136169287Y-136272342D01*
X136149564Y-136573262D01*
X136165931Y-136822986D01*
X136169287Y-136874180D01*
X136169288Y-136874192D01*
X136228118Y-137169945D01*
X136228122Y-137169960D01*
X136325053Y-137455509D01*
X136325062Y-137455530D01*
X136458431Y-137725975D01*
X136458435Y-137725982D01*
X136625973Y-137976721D01*
X136824810Y-138203451D01*
X137051540Y-138402288D01*
X137302279Y-138569826D01*
X137302286Y-138569830D01*
X137572731Y-138703199D01*
X137572736Y-138703201D01*
X137572748Y-138703207D01*
X137858309Y-138800142D01*
X138058251Y-138839913D01*
X138154069Y-138858973D01*
X138154070Y-138858973D01*
X138154080Y-138858975D01*
X138455000Y-138878698D01*
X138755920Y-138858975D01*
X139051691Y-138800142D01*
X139337252Y-138703207D01*
X139607718Y-138569828D01*
X139858461Y-138402287D01*
X139912912Y-138354534D01*
X139976294Y-138325131D01*
X139994672Y-138323761D01*
X142805002Y-138323761D01*
X142805008Y-138323761D01*
X142907797Y-138313261D01*
X143074334Y-138258076D01*
X143223656Y-138165974D01*
X143347712Y-138041918D01*
X143439814Y-137892596D01*
X143494999Y-137726059D01*
X143505500Y-137623271D01*
X143505499Y-135523254D01*
X143505197Y-135520302D01*
X143494999Y-135420465D01*
X143494998Y-135420462D01*
X143450526Y-135286255D01*
X143439814Y-135253928D01*
X143347712Y-135104606D01*
X143223656Y-134980550D01*
X143119311Y-134916190D01*
X143074336Y-134888449D01*
X143074331Y-134888447D01*
X143072862Y-134887960D01*
X142907797Y-134833263D01*
X142907795Y-134833262D01*
X142805016Y-134822762D01*
X142805009Y-134822762D01*
X141954500Y-134822762D01*
X141887461Y-134803077D01*
X141841706Y-134750273D01*
X141830500Y-134698762D01*
X141830500Y-132553378D01*
X141850185Y-132486339D01*
X141902989Y-132440584D01*
X141972147Y-132430640D01*
X142035703Y-132459665D01*
X142056075Y-132482255D01*
X142125886Y-132581957D01*
X142286790Y-132742861D01*
X142286793Y-132742863D01*
X142473198Y-132873384D01*
X142679436Y-132969555D01*
X142899240Y-133028451D01*
X143061162Y-133042617D01*
X143125930Y-133048284D01*
X143125932Y-133048284D01*
X143125934Y-133048284D01*
X143182605Y-133043325D01*
X143352624Y-133028451D01*
X143572428Y-132969555D01*
X143778666Y-132873384D01*
X143965071Y-132742863D01*
X144125979Y-132581955D01*
X144256500Y-132395550D01*
X144352671Y-132189312D01*
X144411567Y-131969508D01*
X144431400Y-131742816D01*
X144429921Y-131725916D01*
X144422376Y-131639668D01*
X144411567Y-131516124D01*
X144352671Y-131296320D01*
X144256500Y-131090082D01*
X144125979Y-130903677D01*
X144125977Y-130903674D01*
X143965073Y-130742770D01*
X143778666Y-130612248D01*
X143778664Y-130612247D01*
X143572429Y-130516077D01*
X143572420Y-130516074D01*
X143352629Y-130457182D01*
X143352625Y-130457181D01*
X143352624Y-130457181D01*
X143352623Y-130457180D01*
X143352618Y-130457180D01*
X143125934Y-130437348D01*
X143125930Y-130437348D01*
X142899245Y-130457180D01*
X142899234Y-130457182D01*
X142679443Y-130516074D01*
X142679434Y-130516077D01*
X142473199Y-130612247D01*
X142473197Y-130612248D01*
X142286790Y-130742770D01*
X142125885Y-130903675D01*
X142056075Y-131003376D01*
X142001498Y-131047001D01*
X141932000Y-131054195D01*
X141869645Y-131022672D01*
X141834231Y-130962442D01*
X141830500Y-130932253D01*
X141830500Y-125424862D01*
X141850185Y-125357823D01*
X141902989Y-125312068D01*
X141972147Y-125302124D01*
X142028809Y-125325594D01*
X142083597Y-125366609D01*
X142083600Y-125366611D01*
X142083603Y-125366613D01*
X142218449Y-125416907D01*
X142218448Y-125416907D01*
X142225376Y-125417651D01*
X142278059Y-125423316D01*
X143973804Y-125423315D01*
X144033415Y-125416907D01*
X144168263Y-125366612D01*
X144283478Y-125280362D01*
X144369728Y-125165147D01*
X144420023Y-125030299D01*
X144426432Y-124970689D01*
X144426431Y-123274944D01*
X144420023Y-123215333D01*
X144394856Y-123147858D01*
X144369729Y-123080487D01*
X144369725Y-123080480D01*
X144283479Y-122965271D01*
X144283476Y-122965268D01*
X144168267Y-122879022D01*
X144168260Y-122879018D01*
X144033414Y-122828724D01*
X144033415Y-122828724D01*
X143973815Y-122822317D01*
X143973813Y-122822316D01*
X143973805Y-122822316D01*
X143973796Y-122822316D01*
X142278061Y-122822316D01*
X142278055Y-122822317D01*
X142218448Y-122828724D01*
X142083603Y-122879018D01*
X142083601Y-122879019D01*
X142028811Y-122920036D01*
X141963347Y-122944453D01*
X141895074Y-122929602D01*
X141845668Y-122880197D01*
X141830500Y-122820769D01*
X141830500Y-119397761D01*
X141850185Y-119330722D01*
X141902989Y-119284967D01*
X141954500Y-119273761D01*
X142805002Y-119273761D01*
X142805008Y-119273761D01*
X142907797Y-119263261D01*
X143074334Y-119208076D01*
X143212607Y-119122788D01*
X143279995Y-119104350D01*
X143346659Y-119125272D01*
X143391429Y-119178914D01*
X143401700Y-119228329D01*
X143401700Y-120176321D01*
X143401699Y-120176339D01*
X143401699Y-120342045D01*
X143401698Y-120342045D01*
X143409983Y-120372963D01*
X143442623Y-120494776D01*
X143442742Y-120494982D01*
X143455294Y-120516722D01*
X143455295Y-120516725D01*
X143521675Y-120631700D01*
X143521681Y-120631708D01*
X143640549Y-120750576D01*
X143640555Y-120750581D01*
X145458181Y-122568207D01*
X145491666Y-122629530D01*
X145494500Y-122655888D01*
X145494500Y-130991964D01*
X145474815Y-131059003D01*
X145458181Y-131079645D01*
X144832881Y-131704944D01*
X144832875Y-131704952D01*
X144793831Y-131772580D01*
X144793831Y-131772582D01*
X144753823Y-131841876D01*
X144740181Y-131892786D01*
X144712899Y-131994605D01*
X144712899Y-131994607D01*
X144712899Y-132162708D01*
X144712900Y-132162721D01*
X144712900Y-136437792D01*
X144712899Y-136437810D01*
X144712899Y-136603516D01*
X144712898Y-136603516D01*
X144753823Y-136756248D01*
X144753824Y-136756249D01*
X144781997Y-136805046D01*
X144832880Y-136893178D01*
X144832882Y-136893180D01*
X144951749Y-137012047D01*
X144951755Y-137012052D01*
X145087539Y-137147836D01*
X145087549Y-137147847D01*
X145091879Y-137152177D01*
X145091880Y-137152178D01*
X145203684Y-137263982D01*
X145238768Y-137284237D01*
X145290495Y-137314101D01*
X145290497Y-137314103D01*
X145340613Y-137343038D01*
X145340615Y-137343039D01*
X145493342Y-137383962D01*
X145493343Y-137383962D01*
X145693303Y-137383962D01*
X145760342Y-137403647D01*
X145780984Y-137420281D01*
X145836882Y-137476179D01*
X145870367Y-137537502D01*
X145869407Y-137594300D01*
X145808292Y-137835636D01*
X145808290Y-137835649D01*
X145787757Y-138083456D01*
X145787757Y-138083467D01*
X145808290Y-138331274D01*
X145808292Y-138331286D01*
X145869336Y-138572343D01*
X145969226Y-138800068D01*
X146105233Y-139008244D01*
X146105236Y-139008247D01*
X146273656Y-139191200D01*
X146469891Y-139343936D01*
X146469893Y-139343937D01*
X146599690Y-139414180D01*
X146688590Y-139462290D01*
X146923786Y-139543033D01*
X147169065Y-139583962D01*
X147417735Y-139583962D01*
X147663014Y-139543033D01*
X147898210Y-139462290D01*
X148116909Y-139343936D01*
X148313144Y-139191200D01*
X148481564Y-139008247D01*
X148617573Y-138800069D01*
X148717463Y-138572343D01*
X148778508Y-138331283D01*
X148779018Y-138325131D01*
X148799043Y-138083467D01*
X148799043Y-138083456D01*
X160287757Y-138083456D01*
X160287757Y-138083467D01*
X160308290Y-138331274D01*
X160308292Y-138331286D01*
X160369336Y-138572343D01*
X160469226Y-138800068D01*
X160605233Y-139008244D01*
X160605236Y-139008247D01*
X160773656Y-139191200D01*
X160969891Y-139343936D01*
X160969893Y-139343937D01*
X161099690Y-139414180D01*
X161188590Y-139462290D01*
X161423786Y-139543033D01*
X161669065Y-139583962D01*
X161917735Y-139583962D01*
X162163014Y-139543033D01*
X162398210Y-139462290D01*
X162616909Y-139343936D01*
X162813144Y-139191200D01*
X162981564Y-139008247D01*
X163117573Y-138800069D01*
X163217463Y-138572343D01*
X163278508Y-138331283D01*
X163279018Y-138325131D01*
X163299043Y-138083467D01*
X163299043Y-138083456D01*
X163278509Y-137835649D01*
X163278507Y-137835637D01*
X163217463Y-137594580D01*
X163117573Y-137366855D01*
X162981566Y-137158679D01*
X162942915Y-137116693D01*
X162813144Y-136975724D01*
X162616909Y-136822988D01*
X162616907Y-136822987D01*
X162616906Y-136822986D01*
X162398211Y-136704634D01*
X162398202Y-136704631D01*
X162163016Y-136623891D01*
X161917735Y-136582962D01*
X161669065Y-136582962D01*
X161423783Y-136623891D01*
X161188597Y-136704631D01*
X161188588Y-136704634D01*
X160969893Y-136822986D01*
X160773657Y-136975723D01*
X160605233Y-137158679D01*
X160469226Y-137366855D01*
X160369336Y-137594580D01*
X160308292Y-137835637D01*
X160308290Y-137835649D01*
X160287757Y-138083456D01*
X148799043Y-138083456D01*
X148778509Y-137835649D01*
X148778507Y-137835637D01*
X148717463Y-137594580D01*
X148617573Y-137366855D01*
X148481566Y-137158679D01*
X148346586Y-137012052D01*
X148313144Y-136975724D01*
X148256085Y-136931313D01*
X148215274Y-136874605D01*
X148211599Y-136804832D01*
X148246230Y-136744149D01*
X148256075Y-136735618D01*
X148313144Y-136691200D01*
X148481564Y-136508247D01*
X148617573Y-136300069D01*
X148635960Y-136258151D01*
X148680917Y-136204666D01*
X148747653Y-136183976D01*
X148749516Y-136183962D01*
X149063331Y-136183962D01*
X149063347Y-136183963D01*
X149070943Y-136183963D01*
X149229054Y-136183963D01*
X149229057Y-136183963D01*
X149381785Y-136143039D01*
X149381786Y-136143038D01*
X149389636Y-136140935D01*
X149389875Y-136141827D01*
X149427395Y-136134363D01*
X149431054Y-136134363D01*
X149431057Y-136134363D01*
X149583785Y-136093439D01*
X149634807Y-136063981D01*
X149720716Y-136014382D01*
X149832520Y-135902578D01*
X149832520Y-135902576D01*
X149842724Y-135892373D01*
X149842727Y-135892368D01*
X152014816Y-133720281D01*
X152076139Y-133686796D01*
X152102497Y-133683962D01*
X160337284Y-133683962D01*
X160404323Y-133703647D01*
X160450078Y-133756451D01*
X160450840Y-133758151D01*
X160469227Y-133800070D01*
X160605233Y-134008244D01*
X160637645Y-134043453D01*
X160773656Y-134191200D01*
X160969891Y-134343936D01*
X161188590Y-134462290D01*
X161423786Y-134543033D01*
X161669065Y-134583962D01*
X161917735Y-134583962D01*
X162163014Y-134543033D01*
X162398210Y-134462290D01*
X162616909Y-134343936D01*
X162813144Y-134191200D01*
X162981564Y-134008247D01*
X163117573Y-133800069D01*
X163217463Y-133572343D01*
X163278508Y-133331283D01*
X163280412Y-133308310D01*
X163299043Y-133083467D01*
X163299043Y-133083456D01*
X163278509Y-132835649D01*
X163278507Y-132835637D01*
X163217463Y-132594580D01*
X163117573Y-132366855D01*
X162981566Y-132158679D01*
X162868255Y-132035591D01*
X162813144Y-131975724D01*
X162616909Y-131822988D01*
X162616907Y-131822987D01*
X162616906Y-131822986D01*
X162398211Y-131704634D01*
X162398202Y-131704631D01*
X162163016Y-131623891D01*
X161917735Y-131582962D01*
X161669065Y-131582962D01*
X161423782Y-131623891D01*
X161423780Y-131623891D01*
X161317793Y-131660277D01*
X161247995Y-131663427D01*
X161189850Y-131630677D01*
X160081819Y-130522646D01*
X160048334Y-130461323D01*
X160045500Y-130434965D01*
X160045500Y-124857761D01*
X160065185Y-124790722D01*
X160117989Y-124744967D01*
X160169500Y-124733761D01*
X160342871Y-124733761D01*
X160342872Y-124733761D01*
X160402483Y-124727353D01*
X160537331Y-124677058D01*
X160652546Y-124590808D01*
X160738796Y-124475593D01*
X160789091Y-124340745D01*
X160795500Y-124281135D01*
X160795499Y-122485390D01*
X160789091Y-122425779D01*
X160787810Y-122422345D01*
X160738797Y-122290933D01*
X160738793Y-122290926D01*
X160652547Y-122175717D01*
X160652544Y-122175714D01*
X160537335Y-122089468D01*
X160537328Y-122089464D01*
X160402482Y-122039170D01*
X160402483Y-122039170D01*
X160342883Y-122032763D01*
X160342881Y-122032762D01*
X160342873Y-122032762D01*
X160342864Y-122032762D01*
X158547129Y-122032762D01*
X158547123Y-122032763D01*
X158487516Y-122039170D01*
X158352671Y-122089464D01*
X158352664Y-122089468D01*
X158237455Y-122175714D01*
X158237452Y-122175717D01*
X158151206Y-122290926D01*
X158151203Y-122290931D01*
X158102189Y-122422345D01*
X158060317Y-122478278D01*
X157994853Y-122502695D01*
X157926580Y-122487843D01*
X157898326Y-122466692D01*
X157776402Y-122344768D01*
X157776395Y-122344763D01*
X157582834Y-122209229D01*
X157582830Y-122209227D01*
X157548458Y-122193199D01*
X157368663Y-122109359D01*
X157368659Y-122109358D01*
X157368655Y-122109356D01*
X157140413Y-122048200D01*
X157140403Y-122048198D01*
X156905001Y-122027603D01*
X156904999Y-122027603D01*
X156669596Y-122048198D01*
X156669586Y-122048200D01*
X156441344Y-122109356D01*
X156441335Y-122109360D01*
X156227171Y-122209226D01*
X156227169Y-122209227D01*
X156033597Y-122344767D01*
X155866505Y-122511859D01*
X155736575Y-122697420D01*
X155681998Y-122741045D01*
X155612500Y-122748239D01*
X155550145Y-122716716D01*
X155533425Y-122697420D01*
X155403494Y-122511859D01*
X155236402Y-122344768D01*
X155236395Y-122344763D01*
X155042834Y-122209229D01*
X155042830Y-122209227D01*
X155008458Y-122193199D01*
X154828663Y-122109359D01*
X154828659Y-122109358D01*
X154828655Y-122109356D01*
X154600413Y-122048200D01*
X154600403Y-122048198D01*
X154365001Y-122027603D01*
X154364999Y-122027603D01*
X154129596Y-122048198D01*
X154129586Y-122048200D01*
X153901344Y-122109356D01*
X153901335Y-122109360D01*
X153687171Y-122209226D01*
X153687169Y-122209227D01*
X153493597Y-122344767D01*
X153326505Y-122511859D01*
X153196575Y-122697420D01*
X153141998Y-122741045D01*
X153072500Y-122748239D01*
X153010145Y-122716716D01*
X152993425Y-122697420D01*
X152863494Y-122511859D01*
X152696402Y-122344768D01*
X152696395Y-122344763D01*
X152502834Y-122209229D01*
X152502830Y-122209227D01*
X152468458Y-122193199D01*
X152288663Y-122109359D01*
X152288659Y-122109358D01*
X152288655Y-122109356D01*
X152060413Y-122048200D01*
X152060403Y-122048198D01*
X151825001Y-122027603D01*
X151824999Y-122027603D01*
X151589596Y-122048198D01*
X151589586Y-122048200D01*
X151361344Y-122109356D01*
X151361335Y-122109360D01*
X151147171Y-122209226D01*
X151147169Y-122209227D01*
X150953597Y-122344767D01*
X150786505Y-122511859D01*
X150650965Y-122705431D01*
X150650964Y-122705433D01*
X150551098Y-122919597D01*
X150551094Y-122919606D01*
X150489938Y-123147848D01*
X150489936Y-123147858D01*
X150469341Y-123383261D01*
X150469341Y-123383262D01*
X150489936Y-123618665D01*
X150489938Y-123618675D01*
X150551094Y-123846917D01*
X150551096Y-123846921D01*
X150551097Y-123846925D01*
X150555000Y-123855294D01*
X150650965Y-124061092D01*
X150650967Y-124061096D01*
X150759281Y-124215783D01*
X150786505Y-124254663D01*
X150953599Y-124421757D01*
X151050384Y-124489527D01*
X151147165Y-124557294D01*
X151147167Y-124557295D01*
X151147170Y-124557297D01*
X151361337Y-124657165D01*
X151589592Y-124718325D01*
X151766034Y-124733762D01*
X151824999Y-124738921D01*
X151825000Y-124738921D01*
X151825001Y-124738921D01*
X151883966Y-124733762D01*
X152060408Y-124718325D01*
X152288663Y-124657165D01*
X152502830Y-124557297D01*
X152696401Y-124421757D01*
X152863495Y-124254663D01*
X152993425Y-124069104D01*
X153048002Y-124025479D01*
X153117500Y-124018285D01*
X153179855Y-124049808D01*
X153196575Y-124069104D01*
X153326500Y-124254657D01*
X153326505Y-124254663D01*
X153493599Y-124421757D01*
X153590384Y-124489527D01*
X153687165Y-124557294D01*
X153687167Y-124557295D01*
X153687170Y-124557297D01*
X153901337Y-124657165D01*
X154129592Y-124718325D01*
X154306034Y-124733762D01*
X154364999Y-124738921D01*
X154365000Y-124738921D01*
X154365001Y-124738921D01*
X154423966Y-124733762D01*
X154600408Y-124718325D01*
X154828663Y-124657165D01*
X155042830Y-124557297D01*
X155236401Y-124421757D01*
X155403495Y-124254663D01*
X155533425Y-124069104D01*
X155588002Y-124025479D01*
X155657500Y-124018285D01*
X155719855Y-124049808D01*
X155736575Y-124069104D01*
X155866500Y-124254657D01*
X155866505Y-124254663D01*
X156033599Y-124421757D01*
X156130384Y-124489527D01*
X156227165Y-124557294D01*
X156227167Y-124557295D01*
X156227170Y-124557297D01*
X156441337Y-124657165D01*
X156669592Y-124718325D01*
X156846034Y-124733762D01*
X156904999Y-124738921D01*
X156905000Y-124738921D01*
X156905001Y-124738921D01*
X156963966Y-124733762D01*
X157140408Y-124718325D01*
X157368663Y-124657165D01*
X157582830Y-124557297D01*
X157776401Y-124421757D01*
X157898329Y-124299828D01*
X157959648Y-124266346D01*
X158029340Y-124271330D01*
X158085274Y-124313201D01*
X158102189Y-124344179D01*
X158151202Y-124475590D01*
X158151206Y-124475597D01*
X158237452Y-124590806D01*
X158237455Y-124590809D01*
X158352664Y-124677055D01*
X158352671Y-124677059D01*
X158397618Y-124693823D01*
X158487517Y-124727353D01*
X158547127Y-124733762D01*
X158720500Y-124733761D01*
X158787539Y-124753445D01*
X158833294Y-124806249D01*
X158844500Y-124857761D01*
X158844500Y-130648392D01*
X158844499Y-130648410D01*
X158844499Y-130814116D01*
X158844498Y-130814116D01*
X158885423Y-130966847D01*
X158914358Y-131016962D01*
X158914359Y-131016966D01*
X158914360Y-131016966D01*
X158957070Y-131090944D01*
X158964479Y-131103776D01*
X158964481Y-131103779D01*
X159083349Y-131222647D01*
X159083355Y-131222652D01*
X160131984Y-132271281D01*
X160165469Y-132332604D01*
X160160485Y-132402296D01*
X160118613Y-132458229D01*
X160053149Y-132482646D01*
X160044303Y-132482962D01*
X151889069Y-132482962D01*
X151889053Y-132482961D01*
X151881457Y-132482961D01*
X151723343Y-132482961D01*
X151631290Y-132507627D01*
X151570610Y-132523886D01*
X151570609Y-132523887D01*
X151531931Y-132546219D01*
X151531929Y-132546220D01*
X151433690Y-132602937D01*
X151433682Y-132602943D01*
X151321878Y-132714748D01*
X149120435Y-134916190D01*
X149064849Y-134948283D01*
X148959965Y-134976388D01*
X148959726Y-134975498D01*
X148922201Y-134982962D01*
X148749516Y-134982962D01*
X148682477Y-134963277D01*
X148636722Y-134910473D01*
X148635960Y-134908773D01*
X148617572Y-134866853D01*
X148505316Y-134695032D01*
X148485129Y-134628143D01*
X148504309Y-134560957D01*
X148534814Y-134527944D01*
X148535729Y-134527258D01*
X148535731Y-134527258D01*
X148650946Y-134441008D01*
X148737196Y-134325793D01*
X148787491Y-134190945D01*
X148793900Y-134131335D01*
X148793899Y-132035590D01*
X148787491Y-131975979D01*
X148785079Y-131969513D01*
X148737197Y-131841133D01*
X148737193Y-131841126D01*
X148650947Y-131725917D01*
X148650944Y-131725914D01*
X148535735Y-131639668D01*
X148535728Y-131639664D01*
X148400882Y-131589370D01*
X148400883Y-131589370D01*
X148341283Y-131582963D01*
X148341281Y-131582962D01*
X148341273Y-131582962D01*
X148341265Y-131582962D01*
X146800337Y-131582962D01*
X146733298Y-131563277D01*
X146687543Y-131510473D01*
X146677599Y-131441315D01*
X146680562Y-131426869D01*
X146695500Y-131371120D01*
X146695500Y-131213005D01*
X146695500Y-128935597D01*
X152692900Y-128935597D01*
X152692900Y-131031332D01*
X152692901Y-131031338D01*
X152699308Y-131090945D01*
X152749602Y-131225790D01*
X152749606Y-131225797D01*
X152835852Y-131341006D01*
X152835855Y-131341009D01*
X152951064Y-131427255D01*
X152951071Y-131427259D01*
X153085917Y-131477553D01*
X153085916Y-131477553D01*
X153092844Y-131478297D01*
X153145527Y-131483962D01*
X156441272Y-131483961D01*
X156500883Y-131477553D01*
X156635731Y-131427258D01*
X156750946Y-131341008D01*
X156837196Y-131225793D01*
X156887491Y-131090945D01*
X156893900Y-131031335D01*
X156893899Y-128935590D01*
X156887491Y-128875979D01*
X156837196Y-128741131D01*
X156837195Y-128741130D01*
X156837193Y-128741126D01*
X156750947Y-128625917D01*
X156750944Y-128625914D01*
X156635735Y-128539668D01*
X156635728Y-128539664D01*
X156500882Y-128489370D01*
X156500883Y-128489370D01*
X156441283Y-128482963D01*
X156441281Y-128482962D01*
X156441273Y-128482962D01*
X156441264Y-128482962D01*
X153145529Y-128482962D01*
X153145523Y-128482963D01*
X153085916Y-128489370D01*
X152951071Y-128539664D01*
X152951064Y-128539668D01*
X152835855Y-128625914D01*
X152835852Y-128625917D01*
X152749606Y-128741126D01*
X152749602Y-128741133D01*
X152699308Y-128875979D01*
X152692901Y-128935578D01*
X152692901Y-128935585D01*
X152692900Y-128935597D01*
X146695500Y-128935597D01*
X146695500Y-122276734D01*
X146673119Y-122193207D01*
X146654577Y-122124006D01*
X146646118Y-122109356D01*
X146625639Y-122073886D01*
X146625637Y-122073883D01*
X146617523Y-122059828D01*
X146575520Y-121987075D01*
X146463716Y-121875271D01*
X146463715Y-121875270D01*
X146459385Y-121870940D01*
X146459374Y-121870930D01*
X145415087Y-120826643D01*
X145381602Y-120765320D01*
X145386586Y-120695628D01*
X145428458Y-120639695D01*
X145493922Y-120615278D01*
X145502768Y-120614962D01*
X146235946Y-120614962D01*
X146235962Y-120614963D01*
X146243558Y-120614963D01*
X146401669Y-120614963D01*
X146401672Y-120614963D01*
X146554400Y-120574039D01*
X146604519Y-120545101D01*
X146691331Y-120494982D01*
X146803135Y-120383178D01*
X146803135Y-120383176D01*
X146813343Y-120372969D01*
X146813344Y-120372966D01*
X157110165Y-110076147D01*
X157171484Y-110042665D01*
X157241176Y-110047649D01*
X157285523Y-110076150D01*
X157370354Y-110160981D01*
X157529595Y-110276677D01*
X157569623Y-110297072D01*
X157704970Y-110366035D01*
X157704972Y-110366035D01*
X157704975Y-110366037D01*
X157788100Y-110393046D01*
X157892173Y-110426862D01*
X158086578Y-110457653D01*
X158086583Y-110457653D01*
X158283422Y-110457653D01*
X158477826Y-110426862D01*
X158541010Y-110406332D01*
X158665025Y-110366037D01*
X158840405Y-110276677D01*
X158999646Y-110160981D01*
X159138828Y-110021799D01*
X159254524Y-109862558D01*
X159343884Y-109687178D01*
X159344515Y-109685940D01*
X159392489Y-109635143D01*
X159460310Y-109618348D01*
X159526445Y-109640885D01*
X159565485Y-109685940D01*
X159655474Y-109862556D01*
X159671465Y-109884565D01*
X159771172Y-110021799D01*
X159910354Y-110160981D01*
X160069595Y-110276677D01*
X160109623Y-110297072D01*
X160244970Y-110366035D01*
X160244972Y-110366035D01*
X160244975Y-110366037D01*
X160328100Y-110393046D01*
X160432173Y-110426862D01*
X160626578Y-110457653D01*
X160626583Y-110457653D01*
X160823422Y-110457653D01*
X161017826Y-110426862D01*
X161081010Y-110406332D01*
X161205025Y-110366037D01*
X161380405Y-110276677D01*
X161539646Y-110160981D01*
X161678828Y-110021799D01*
X161794524Y-109862558D01*
X161883884Y-109687178D01*
X161944709Y-109499979D01*
X161951413Y-109457653D01*
X161975500Y-109305575D01*
X161975500Y-108941420D01*
X161995185Y-108874381D01*
X162047989Y-108828626D01*
X162117147Y-108818682D01*
X162180703Y-108847707D01*
X162199817Y-108868533D01*
X162311172Y-109021799D01*
X162450354Y-109160981D01*
X162609595Y-109276677D01*
X162654965Y-109299794D01*
X162784970Y-109366035D01*
X162784972Y-109366035D01*
X162784975Y-109366037D01*
X162885317Y-109398640D01*
X162972173Y-109426862D01*
X163166578Y-109457653D01*
X163166583Y-109457653D01*
X164363422Y-109457653D01*
X164557826Y-109426862D01*
X164745025Y-109366037D01*
X164920405Y-109276677D01*
X165079646Y-109160981D01*
X165218828Y-109021799D01*
X165334524Y-108862558D01*
X165423884Y-108687178D01*
X165484709Y-108499979D01*
X165488861Y-108473762D01*
X165515500Y-108305575D01*
X165515500Y-108108730D01*
X165484709Y-107914326D01*
X165430368Y-107747085D01*
X165423884Y-107727128D01*
X165423882Y-107727125D01*
X165423882Y-107727123D01*
X165334523Y-107551747D01*
X165307489Y-107514538D01*
X165218828Y-107392507D01*
X165133998Y-107307677D01*
X165100513Y-107246354D01*
X165105497Y-107176662D01*
X165133998Y-107132315D01*
X165180444Y-107085869D01*
X165180444Y-107085867D01*
X165190648Y-107075664D01*
X165190652Y-107075659D01*
X165673506Y-106592805D01*
X165673511Y-106592801D01*
X165683714Y-106582597D01*
X165683716Y-106582597D01*
X165795520Y-106470793D01*
X165866162Y-106348437D01*
X165874577Y-106333862D01*
X165915501Y-106181134D01*
X165915501Y-106023020D01*
X165915501Y-106015425D01*
X165915500Y-106015407D01*
X165915500Y-105266213D01*
X165915501Y-105266200D01*
X165915501Y-105098098D01*
X165915501Y-105098096D01*
X165874577Y-104945368D01*
X165795520Y-104808437D01*
X165161536Y-104174453D01*
X165128051Y-104113130D01*
X165133035Y-104043438D01*
X165161536Y-103999091D01*
X165218828Y-103941799D01*
X165334524Y-103782558D01*
X165423884Y-103607178D01*
X165484709Y-103419979D01*
X165495955Y-103348973D01*
X165515500Y-103225575D01*
X165515500Y-103028730D01*
X165484709Y-102834326D01*
X165426758Y-102655974D01*
X165423884Y-102647128D01*
X165423882Y-102647125D01*
X165423882Y-102647123D01*
X165376743Y-102554608D01*
X165334524Y-102471748D01*
X165218828Y-102312507D01*
X165079646Y-102173325D01*
X164956037Y-102083517D01*
X164920403Y-102057627D01*
X164743787Y-101967638D01*
X164692990Y-101919664D01*
X164676195Y-101851843D01*
X164698732Y-101785708D01*
X164743787Y-101746668D01*
X164920403Y-101656678D01*
X164920402Y-101656678D01*
X164920405Y-101656677D01*
X165079646Y-101540981D01*
X165218828Y-101401799D01*
X165334524Y-101242558D01*
X165423884Y-101067178D01*
X165484709Y-100879979D01*
X165492831Y-100828697D01*
X165515500Y-100685575D01*
X165515500Y-100488730D01*
X165484709Y-100294326D01*
X165447080Y-100178517D01*
X165423884Y-100107128D01*
X165423882Y-100107125D01*
X165423882Y-100107123D01*
X165334523Y-99931747D01*
X165330873Y-99926723D01*
X165218828Y-99772507D01*
X165079646Y-99633325D01*
X164996981Y-99573265D01*
X164920403Y-99517627D01*
X164743787Y-99427638D01*
X164692990Y-99379664D01*
X164676195Y-99311843D01*
X164698732Y-99245708D01*
X164743787Y-99206668D01*
X164920403Y-99116678D01*
X164920402Y-99116678D01*
X164920405Y-99116677D01*
X165079646Y-99000981D01*
X165218828Y-98861799D01*
X165334524Y-98702558D01*
X165423884Y-98527178D01*
X165484709Y-98339979D01*
X165501532Y-98233762D01*
X165515500Y-98145575D01*
X165515500Y-97948730D01*
X165484709Y-97754326D01*
X165423882Y-97567123D01*
X165343994Y-97410334D01*
X165334524Y-97391748D01*
X165218828Y-97232507D01*
X165079646Y-97093325D01*
X165000025Y-97035477D01*
X164920403Y-96977627D01*
X164743787Y-96887638D01*
X164692990Y-96839664D01*
X164676195Y-96771843D01*
X164698732Y-96705708D01*
X164743787Y-96666668D01*
X164920403Y-96576678D01*
X164920402Y-96576678D01*
X164920405Y-96576677D01*
X165079646Y-96460981D01*
X165218828Y-96321799D01*
X165334524Y-96162558D01*
X165423884Y-95987178D01*
X165484709Y-95799979D01*
X165511808Y-95628882D01*
X165515500Y-95605575D01*
X165515500Y-95408730D01*
X165484709Y-95214326D01*
X165423882Y-95027123D01*
X165334523Y-94851747D01*
X165310815Y-94819116D01*
X165218828Y-94692507D01*
X165079646Y-94553325D01*
X164987419Y-94486318D01*
X164920403Y-94437627D01*
X164743787Y-94347638D01*
X164692990Y-94299664D01*
X164676195Y-94231843D01*
X164698732Y-94165708D01*
X164743787Y-94126668D01*
X164920403Y-94036678D01*
X164920402Y-94036678D01*
X164920405Y-94036677D01*
X165079646Y-93920981D01*
X165218828Y-93781799D01*
X165334524Y-93622558D01*
X165423884Y-93447178D01*
X165484709Y-93259979D01*
X165491427Y-93217562D01*
X165515500Y-93065575D01*
X165515500Y-92868730D01*
X165484709Y-92674326D01*
X165440198Y-92537338D01*
X165423884Y-92487128D01*
X165423882Y-92487125D01*
X165423882Y-92487123D01*
X165334523Y-92311747D01*
X165218828Y-92152507D01*
X165079646Y-92013325D01*
X165000025Y-91955477D01*
X164920403Y-91897627D01*
X164743787Y-91807638D01*
X164692990Y-91759664D01*
X164676195Y-91691843D01*
X164698732Y-91625708D01*
X164743787Y-91586668D01*
X164920403Y-91496678D01*
X164920402Y-91496678D01*
X164920405Y-91496677D01*
X165079646Y-91380981D01*
X165218828Y-91241799D01*
X165334524Y-91082558D01*
X165423884Y-90907178D01*
X165484709Y-90719979D01*
X165515500Y-90525575D01*
X165515500Y-90328730D01*
X165484709Y-90134326D01*
X165423882Y-89947123D01*
X165334523Y-89771747D01*
X165321523Y-89753854D01*
X165218828Y-89612507D01*
X165079646Y-89473325D01*
X164968365Y-89392474D01*
X164920403Y-89357627D01*
X164743787Y-89267638D01*
X164692990Y-89219664D01*
X164676195Y-89151843D01*
X164698732Y-89085708D01*
X164743787Y-89046668D01*
X164920403Y-88956678D01*
X164920402Y-88956678D01*
X164920405Y-88956677D01*
X165079646Y-88840981D01*
X165218828Y-88701799D01*
X165334524Y-88542558D01*
X165423884Y-88367178D01*
X165450529Y-88285175D01*
X166797500Y-88285175D01*
X166797500Y-88497748D01*
X166829818Y-88701800D01*
X166830754Y-88707705D01*
X166874058Y-88840981D01*
X166896444Y-88909876D01*
X166992951Y-89099282D01*
X167117890Y-89271248D01*
X167268213Y-89421571D01*
X167440179Y-89546510D01*
X167440181Y-89546511D01*
X167440184Y-89546513D01*
X167629588Y-89643019D01*
X167831757Y-89708708D01*
X168041713Y-89741962D01*
X168041714Y-89741962D01*
X168254286Y-89741962D01*
X168254287Y-89741962D01*
X168464243Y-89708708D01*
X168666412Y-89643019D01*
X168855816Y-89546513D01*
X168955950Y-89473762D01*
X169027786Y-89421571D01*
X169027788Y-89421568D01*
X169027792Y-89421566D01*
X169178104Y-89271254D01*
X169178106Y-89271250D01*
X169178109Y-89271248D01*
X169303048Y-89099282D01*
X169303047Y-89099282D01*
X169303051Y-89099278D01*
X169399557Y-88909874D01*
X169465246Y-88707705D01*
X169498500Y-88497749D01*
X169498500Y-88285175D01*
X169465246Y-88075219D01*
X169399557Y-87873050D01*
X169303051Y-87683646D01*
X169303049Y-87683643D01*
X169303048Y-87683641D01*
X169178109Y-87511675D01*
X169027786Y-87361352D01*
X168855820Y-87236413D01*
X168666414Y-87139906D01*
X168666413Y-87139905D01*
X168666412Y-87139905D01*
X168464243Y-87074216D01*
X168464241Y-87074215D01*
X168464240Y-87074215D01*
X168302957Y-87048670D01*
X168254287Y-87040962D01*
X168041713Y-87040962D01*
X167993042Y-87048670D01*
X167831760Y-87074215D01*
X167629585Y-87139906D01*
X167440179Y-87236413D01*
X167268213Y-87361352D01*
X167117890Y-87511675D01*
X166992951Y-87683641D01*
X166896444Y-87873047D01*
X166830753Y-88075222D01*
X166797500Y-88285175D01*
X165450529Y-88285175D01*
X165484709Y-88179979D01*
X165501301Y-88075222D01*
X165515500Y-87985575D01*
X165515500Y-87788730D01*
X165484709Y-87594326D01*
X165423882Y-87407123D01*
X165376743Y-87314608D01*
X165334524Y-87231748D01*
X165218828Y-87072507D01*
X165079646Y-86933325D01*
X164920405Y-86817629D01*
X164745029Y-86728270D01*
X164557826Y-86667443D01*
X164363422Y-86636653D01*
X164363417Y-86636653D01*
X163166583Y-86636653D01*
X163166578Y-86636653D01*
X162972173Y-86667443D01*
X162784970Y-86728270D01*
X162609594Y-86817629D01*
X162524890Y-86879171D01*
X162450354Y-86933325D01*
X162450352Y-86933327D01*
X162450351Y-86933327D01*
X162311174Y-87072504D01*
X162311174Y-87072505D01*
X162311172Y-87072507D01*
X162268728Y-87130926D01*
X162195476Y-87231747D01*
X162106117Y-87407123D01*
X162045290Y-87594326D01*
X162014500Y-87788730D01*
X162014500Y-87985575D01*
X162045290Y-88179979D01*
X162106117Y-88367182D01*
X162158691Y-88470363D01*
X162195476Y-88542558D01*
X162311172Y-88701799D01*
X162450354Y-88840981D01*
X162609595Y-88956677D01*
X162732992Y-89019550D01*
X162786213Y-89046668D01*
X162837009Y-89094642D01*
X162853804Y-89162463D01*
X162831267Y-89228598D01*
X162786213Y-89267638D01*
X162609594Y-89357629D01*
X162527798Y-89417058D01*
X162450354Y-89473325D01*
X162450352Y-89473327D01*
X162450351Y-89473327D01*
X162311174Y-89612504D01*
X162311174Y-89612505D01*
X162311172Y-89612507D01*
X162289005Y-89643017D01*
X162195476Y-89771747D01*
X162106117Y-89947123D01*
X162045290Y-90134326D01*
X162014500Y-90328730D01*
X162014500Y-90525575D01*
X162045290Y-90719979D01*
X162106117Y-90907182D01*
X162195476Y-91082558D01*
X162311172Y-91241799D01*
X162450354Y-91380981D01*
X162609595Y-91496677D01*
X162711184Y-91548439D01*
X162786213Y-91586668D01*
X162837009Y-91634642D01*
X162853804Y-91702463D01*
X162831267Y-91768598D01*
X162786213Y-91807638D01*
X162609594Y-91897629D01*
X162518741Y-91963638D01*
X162450354Y-92013325D01*
X162450352Y-92013327D01*
X162450351Y-92013327D01*
X162311174Y-92152504D01*
X162311174Y-92152505D01*
X162311172Y-92152507D01*
X162261485Y-92220894D01*
X162195476Y-92311747D01*
X162106117Y-92487123D01*
X162045290Y-92674326D01*
X162014500Y-92868730D01*
X162014500Y-93065576D01*
X162019131Y-93094817D01*
X162010176Y-93164110D01*
X161965179Y-93217562D01*
X161898428Y-93238201D01*
X161831114Y-93219476D01*
X161808977Y-93201895D01*
X160162590Y-91555508D01*
X160162588Y-91555505D01*
X160043717Y-91436634D01*
X160043716Y-91436633D01*
X159947323Y-91380981D01*
X159906785Y-91357576D01*
X159754057Y-91316652D01*
X159595943Y-91316652D01*
X159588347Y-91316652D01*
X159588331Y-91316653D01*
X149167808Y-91316653D01*
X149100769Y-91296968D01*
X149055014Y-91244164D01*
X149045070Y-91175006D01*
X149067490Y-91119768D01*
X149080812Y-91101429D01*
X149094524Y-91082558D01*
X149183884Y-90907178D01*
X149244709Y-90719979D01*
X149275500Y-90525575D01*
X149275500Y-90328730D01*
X149244709Y-90134326D01*
X149183882Y-89947123D01*
X149094523Y-89771747D01*
X149081523Y-89753854D01*
X148978828Y-89612507D01*
X148839646Y-89473325D01*
X148728365Y-89392474D01*
X148680403Y-89357627D01*
X148503787Y-89267638D01*
X148452990Y-89219664D01*
X148436195Y-89151843D01*
X148458732Y-89085708D01*
X148503787Y-89046668D01*
X148680403Y-88956678D01*
X148680402Y-88956678D01*
X148680405Y-88956677D01*
X148839646Y-88840981D01*
X148978828Y-88701799D01*
X149094524Y-88542558D01*
X149183884Y-88367178D01*
X149244709Y-88179979D01*
X149261301Y-88075222D01*
X149275500Y-87985575D01*
X149275500Y-87788730D01*
X149244709Y-87594326D01*
X149183882Y-87407123D01*
X149136743Y-87314608D01*
X149094524Y-87231748D01*
X148978828Y-87072507D01*
X148839646Y-86933325D01*
X148680405Y-86817629D01*
X148505029Y-86728270D01*
X148317826Y-86667443D01*
X148123422Y-86636653D01*
X148123417Y-86636653D01*
X146926583Y-86636653D01*
X146926578Y-86636653D01*
X146732173Y-86667443D01*
X146544970Y-86728270D01*
X146369594Y-86817629D01*
X146284890Y-86879171D01*
X146210354Y-86933325D01*
X146210352Y-86933327D01*
X146210351Y-86933327D01*
X146071174Y-87072504D01*
X146071174Y-87072505D01*
X146071172Y-87072507D01*
X146028728Y-87130926D01*
X145955476Y-87231747D01*
X145866117Y-87407123D01*
X145805290Y-87594326D01*
X145774500Y-87788730D01*
X145774500Y-87985575D01*
X145805290Y-88179979D01*
X145866117Y-88367182D01*
X145918691Y-88470363D01*
X145955476Y-88542558D01*
X146071172Y-88701799D01*
X146210354Y-88840981D01*
X146369595Y-88956677D01*
X146492992Y-89019550D01*
X146546213Y-89046668D01*
X146597009Y-89094642D01*
X146613804Y-89162463D01*
X146591267Y-89228598D01*
X146546213Y-89267638D01*
X146369594Y-89357629D01*
X146287798Y-89417058D01*
X146210354Y-89473325D01*
X146210352Y-89473327D01*
X146210351Y-89473327D01*
X146071174Y-89612504D01*
X146071174Y-89612505D01*
X146071172Y-89612507D01*
X146049005Y-89643017D01*
X145955476Y-89771747D01*
X145866117Y-89947123D01*
X145805290Y-90134326D01*
X145774500Y-90328730D01*
X145774500Y-90525575D01*
X145805290Y-90719979D01*
X145866117Y-90907182D01*
X145955478Y-91082561D01*
X145982510Y-91119768D01*
X146005990Y-91185574D01*
X145990165Y-91253628D01*
X145940059Y-91302323D01*
X145882192Y-91316653D01*
X114124252Y-91316653D01*
X113971522Y-91357576D01*
X113930986Y-91380981D01*
X113930985Y-91380981D01*
X113834596Y-91436630D01*
X113834591Y-91436634D01*
X111889081Y-93382144D01*
X111889080Y-93382146D01*
X111851534Y-93447178D01*
X111810023Y-93519077D01*
X111769099Y-93671805D01*
X111769099Y-93671807D01*
X111769099Y-93839908D01*
X111769100Y-93839921D01*
X111769100Y-95350817D01*
X111749415Y-95417856D01*
X111696611Y-95463611D01*
X111627453Y-95473555D01*
X111563897Y-95444530D01*
X111534616Y-95407113D01*
X111527615Y-95393374D01*
X111527613Y-95393371D01*
X111423483Y-95250048D01*
X111298214Y-95124779D01*
X111154890Y-95020648D01*
X110997042Y-94940219D01*
X110997039Y-94940218D01*
X110828556Y-94885476D01*
X110741067Y-94871619D01*
X110653579Y-94857762D01*
X110476421Y-94857762D01*
X110418095Y-94867000D01*
X110301443Y-94885476D01*
X110132960Y-94940218D01*
X110132957Y-94940219D01*
X109975109Y-95020648D01*
X109893338Y-95080058D01*
X109831786Y-95124779D01*
X109831784Y-95124781D01*
X109831783Y-95124781D01*
X109706519Y-95250045D01*
X109706519Y-95250046D01*
X109706517Y-95250048D01*
X109692256Y-95269677D01*
X109602386Y-95393371D01*
X109521957Y-95551219D01*
X109521956Y-95551222D01*
X109467214Y-95719705D01*
X109439500Y-95894683D01*
X109439500Y-96071840D01*
X109467214Y-96246818D01*
X109521956Y-96415301D01*
X109521957Y-96415304D01*
X109578714Y-96526693D01*
X109602386Y-96573152D01*
X109706517Y-96716476D01*
X109831786Y-96841745D01*
X109975110Y-96945876D01*
X110043577Y-96980762D01*
X110132957Y-97026304D01*
X110132960Y-97026305D01*
X110221709Y-97055141D01*
X110279384Y-97094578D01*
X110306583Y-97158937D01*
X110294669Y-97227783D01*
X110271072Y-97260753D01*
X109645384Y-97886443D01*
X109584061Y-97919928D01*
X109557703Y-97922762D01*
X105629499Y-97922762D01*
X105562460Y-97903077D01*
X105516705Y-97850273D01*
X105505499Y-97798762D01*
X105505499Y-97473260D01*
X105505498Y-97473243D01*
X105494999Y-97370465D01*
X105494998Y-97370462D01*
X105449283Y-97232504D01*
X105439814Y-97203928D01*
X105347712Y-97054606D01*
X105223656Y-96930550D01*
X105090790Y-96848598D01*
X105074336Y-96838449D01*
X105074331Y-96838447D01*
X105041126Y-96827444D01*
X104907797Y-96783263D01*
X104907795Y-96783262D01*
X104805016Y-96772762D01*
X104805009Y-96772762D01*
X102785953Y-96772762D01*
X102718914Y-96753077D01*
X102673159Y-96700273D01*
X102663215Y-96631115D01*
X102685634Y-96575878D01*
X102686630Y-96574505D01*
X102687614Y-96573152D01*
X102768042Y-96415304D01*
X102822786Y-96246817D01*
X102850500Y-96071841D01*
X102850500Y-95894683D01*
X102834436Y-95793260D01*
X105339532Y-95793260D01*
X105339532Y-95793263D01*
X105359364Y-96019948D01*
X105359366Y-96019959D01*
X105418258Y-96239750D01*
X105418261Y-96239759D01*
X105514431Y-96445994D01*
X105514432Y-96445996D01*
X105644954Y-96632403D01*
X105805858Y-96793307D01*
X105805861Y-96793309D01*
X105992266Y-96923830D01*
X106198504Y-97020001D01*
X106418308Y-97078897D01*
X106580230Y-97093063D01*
X106644998Y-97098730D01*
X106645000Y-97098730D01*
X106645002Y-97098730D01*
X106701673Y-97093771D01*
X106871692Y-97078897D01*
X107091496Y-97020001D01*
X107297734Y-96923830D01*
X107484139Y-96793309D01*
X107645047Y-96632401D01*
X107775568Y-96445996D01*
X107871739Y-96239758D01*
X107930635Y-96019954D01*
X107950468Y-95793262D01*
X107947379Y-95757960D01*
X107944033Y-95719705D01*
X107930635Y-95566570D01*
X107880460Y-95379312D01*
X107871741Y-95346773D01*
X107871738Y-95346764D01*
X107835792Y-95269678D01*
X107775568Y-95140528D01*
X107677839Y-95000955D01*
X107645045Y-94954120D01*
X107484141Y-94793216D01*
X107297734Y-94662694D01*
X107297732Y-94662693D01*
X107091497Y-94566523D01*
X107091488Y-94566520D01*
X106871697Y-94507628D01*
X106871693Y-94507627D01*
X106871692Y-94507627D01*
X106871691Y-94507626D01*
X106871686Y-94507626D01*
X106645002Y-94487794D01*
X106644998Y-94487794D01*
X106418313Y-94507626D01*
X106418302Y-94507628D01*
X106198511Y-94566520D01*
X106198502Y-94566523D01*
X105992267Y-94662693D01*
X105992265Y-94662694D01*
X105805858Y-94793216D01*
X105644954Y-94954120D01*
X105514432Y-95140527D01*
X105514431Y-95140529D01*
X105418261Y-95346764D01*
X105418258Y-95346773D01*
X105359366Y-95566564D01*
X105359364Y-95566575D01*
X105339532Y-95793260D01*
X102834436Y-95793260D01*
X102822786Y-95719707D01*
X102785701Y-95605570D01*
X102768043Y-95551222D01*
X102768042Y-95551219D01*
X102703847Y-95425231D01*
X102687614Y-95393372D01*
X102583483Y-95250048D01*
X102458214Y-95124779D01*
X102314890Y-95020648D01*
X102157042Y-94940219D01*
X102157039Y-94940218D01*
X101988556Y-94885476D01*
X101901067Y-94871619D01*
X101813579Y-94857762D01*
X101636421Y-94857762D01*
X101578095Y-94867000D01*
X101461443Y-94885476D01*
X101292960Y-94940218D01*
X101292957Y-94940219D01*
X101135109Y-95020648D01*
X101053338Y-95080058D01*
X100991786Y-95124779D01*
X100991784Y-95124781D01*
X100991783Y-95124781D01*
X100866519Y-95250045D01*
X100866519Y-95250046D01*
X100866517Y-95250048D01*
X100852256Y-95269677D01*
X100762386Y-95393371D01*
X100681957Y-95551219D01*
X100681956Y-95551222D01*
X100627214Y-95719705D01*
X100599500Y-95894683D01*
X100599500Y-96071838D01*
X100600104Y-96075654D01*
X100591144Y-96144947D01*
X100546144Y-96198395D01*
X100479391Y-96219030D01*
X100469529Y-96218778D01*
X100455000Y-96217826D01*
X100154080Y-96237549D01*
X100154079Y-96237549D01*
X100154069Y-96237550D01*
X99858316Y-96296380D01*
X99858301Y-96296384D01*
X99572752Y-96393315D01*
X99572731Y-96393324D01*
X99302286Y-96526693D01*
X99302279Y-96526697D01*
X99051540Y-96694235D01*
X99009654Y-96730968D01*
X98946272Y-96760370D01*
X98877055Y-96750837D01*
X98823981Y-96705397D01*
X98803898Y-96638476D01*
X98808120Y-96605651D01*
X98856993Y-96423255D01*
X98895500Y-96130768D01*
X98895500Y-95835756D01*
X98856993Y-95543269D01*
X98780639Y-95258310D01*
X98667743Y-94985755D01*
X98649480Y-94954123D01*
X98520238Y-94730268D01*
X98340647Y-94496221D01*
X98340641Y-94496214D01*
X98132047Y-94287620D01*
X98132040Y-94287614D01*
X97897993Y-94108023D01*
X97642510Y-93960520D01*
X97642500Y-93960516D01*
X97369961Y-93847626D01*
X97369954Y-93847624D01*
X97369952Y-93847623D01*
X97084993Y-93771269D01*
X97036113Y-93764833D01*
X96792513Y-93732762D01*
X96792506Y-93732762D01*
X96497494Y-93732762D01*
X96497486Y-93732762D01*
X96219085Y-93769415D01*
X96205007Y-93771269D01*
X95938626Y-93842645D01*
X95920048Y-93847623D01*
X95920038Y-93847626D01*
X95647499Y-93960516D01*
X95647489Y-93960520D01*
X95392006Y-94108023D01*
X95157959Y-94287614D01*
X95157952Y-94287620D01*
X94949358Y-94496214D01*
X94949352Y-94496221D01*
X94769761Y-94730268D01*
X94622258Y-94985751D01*
X94622254Y-94985761D01*
X94509364Y-95258300D01*
X94509361Y-95258310D01*
X94473172Y-95393372D01*
X94433008Y-95543266D01*
X94433006Y-95543277D01*
X94394500Y-95835748D01*
X92681165Y-95835748D01*
X92662786Y-95719707D01*
X92625701Y-95605570D01*
X92608043Y-95551222D01*
X92608042Y-95551219D01*
X92543847Y-95425231D01*
X92527614Y-95393372D01*
X92423483Y-95250048D01*
X92298214Y-95124779D01*
X92154890Y-95020648D01*
X91997042Y-94940219D01*
X91997039Y-94940218D01*
X91828556Y-94885476D01*
X91741067Y-94871619D01*
X91653579Y-94857762D01*
X91476421Y-94857762D01*
X91418095Y-94867000D01*
X91301443Y-94885476D01*
X91132960Y-94940218D01*
X91132957Y-94940219D01*
X90975109Y-95020648D01*
X90893338Y-95080058D01*
X90831786Y-95124779D01*
X90831784Y-95124781D01*
X90831783Y-95124781D01*
X90706519Y-95250045D01*
X90706519Y-95250046D01*
X90706517Y-95250048D01*
X90692256Y-95269677D01*
X90602386Y-95393371D01*
X90521957Y-95551219D01*
X90521956Y-95551222D01*
X90467214Y-95719705D01*
X90439500Y-95894683D01*
X81805900Y-95894683D01*
X81805900Y-88767775D01*
X82926700Y-88767775D01*
X82926700Y-88980349D01*
X82936734Y-89043706D01*
X82957791Y-89176653D01*
X82959954Y-89190305D01*
X83014320Y-89357627D01*
X83025644Y-89392476D01*
X83122151Y-89581882D01*
X83247090Y-89753848D01*
X83397413Y-89904171D01*
X83569379Y-90029110D01*
X83569381Y-90029111D01*
X83569384Y-90029113D01*
X83758788Y-90125619D01*
X83960957Y-90191308D01*
X84170913Y-90224562D01*
X84170914Y-90224562D01*
X84383486Y-90224562D01*
X84383487Y-90224562D01*
X84593443Y-90191308D01*
X84795612Y-90125619D01*
X84985016Y-90029113D01*
X85006989Y-90013148D01*
X85156986Y-89904171D01*
X85156988Y-89904168D01*
X85156992Y-89904166D01*
X85307304Y-89753854D01*
X85307306Y-89753850D01*
X85307309Y-89753848D01*
X85432248Y-89581882D01*
X85432247Y-89581882D01*
X85432251Y-89581878D01*
X85528757Y-89392474D01*
X85594446Y-89190305D01*
X85627700Y-88980349D01*
X85627700Y-88767775D01*
X85594446Y-88557819D01*
X85528757Y-88355650D01*
X85432251Y-88166246D01*
X85432249Y-88166243D01*
X85432248Y-88166241D01*
X85307309Y-87994275D01*
X85156986Y-87843952D01*
X84985020Y-87719013D01*
X84795614Y-87622506D01*
X84795613Y-87622505D01*
X84795612Y-87622505D01*
X84593443Y-87556816D01*
X84593441Y-87556815D01*
X84593440Y-87556815D01*
X84432157Y-87531270D01*
X84383487Y-87523562D01*
X84170913Y-87523562D01*
X84122242Y-87531270D01*
X83960960Y-87556815D01*
X83758785Y-87622506D01*
X83569379Y-87719013D01*
X83397413Y-87843952D01*
X83247090Y-87994275D01*
X83122151Y-88166241D01*
X83025644Y-88355647D01*
X82959953Y-88557822D01*
X82937149Y-88701800D01*
X82926700Y-88767775D01*
X81805900Y-88767775D01*
X81805900Y-87325397D01*
X105344500Y-87325397D01*
X105344500Y-89021132D01*
X105344501Y-89021138D01*
X105350908Y-89080745D01*
X105401202Y-89215590D01*
X105401206Y-89215597D01*
X105487452Y-89330806D01*
X105487455Y-89330809D01*
X105602664Y-89417055D01*
X105602671Y-89417059D01*
X105737517Y-89467353D01*
X105737516Y-89467353D01*
X105744444Y-89468097D01*
X105797127Y-89473762D01*
X107492872Y-89473761D01*
X107552483Y-89467353D01*
X107687331Y-89417058D01*
X107802546Y-89330808D01*
X107888796Y-89215593D01*
X107939091Y-89080745D01*
X107945500Y-89021135D01*
X107945499Y-87325397D01*
X124344500Y-87325397D01*
X124344500Y-89021132D01*
X124344501Y-89021138D01*
X124350908Y-89080745D01*
X124401202Y-89215590D01*
X124401206Y-89215597D01*
X124487452Y-89330806D01*
X124487455Y-89330809D01*
X124602664Y-89417055D01*
X124602671Y-89417059D01*
X124737517Y-89467353D01*
X124737516Y-89467353D01*
X124744444Y-89468097D01*
X124797127Y-89473762D01*
X126492872Y-89473761D01*
X126552483Y-89467353D01*
X126687331Y-89417058D01*
X126802546Y-89330808D01*
X126888796Y-89215593D01*
X126939091Y-89080745D01*
X126945500Y-89021135D01*
X126945499Y-87325390D01*
X126939091Y-87265779D01*
X126928138Y-87236413D01*
X126888797Y-87130933D01*
X126888793Y-87130926D01*
X126802547Y-87015717D01*
X126802544Y-87015714D01*
X126687335Y-86929468D01*
X126687328Y-86929464D01*
X126552482Y-86879170D01*
X126552483Y-86879170D01*
X126492883Y-86872763D01*
X126492881Y-86872762D01*
X126492873Y-86872762D01*
X126492864Y-86872762D01*
X124797129Y-86872762D01*
X124797123Y-86872763D01*
X124737516Y-86879170D01*
X124602671Y-86929464D01*
X124602664Y-86929468D01*
X124487455Y-87015714D01*
X124487452Y-87015717D01*
X124401206Y-87130926D01*
X124401202Y-87130933D01*
X124350908Y-87265779D01*
X124344501Y-87325378D01*
X124344501Y-87325385D01*
X124344500Y-87325397D01*
X107945499Y-87325397D01*
X107945499Y-87325390D01*
X107939091Y-87265779D01*
X107928138Y-87236413D01*
X107888797Y-87130933D01*
X107888793Y-87130926D01*
X107802547Y-87015717D01*
X107802544Y-87015714D01*
X107687335Y-86929468D01*
X107687328Y-86929464D01*
X107552482Y-86879170D01*
X107552483Y-86879170D01*
X107492883Y-86872763D01*
X107492881Y-86872762D01*
X107492873Y-86872762D01*
X107492864Y-86872762D01*
X105797129Y-86872762D01*
X105797123Y-86872763D01*
X105737516Y-86879170D01*
X105602671Y-86929464D01*
X105602664Y-86929468D01*
X105487455Y-87015714D01*
X105487452Y-87015717D01*
X105401206Y-87130926D01*
X105401202Y-87130933D01*
X105350908Y-87265779D01*
X105344501Y-87325378D01*
X105344501Y-87325385D01*
X105344500Y-87325397D01*
X81805900Y-87325397D01*
X81805900Y-86247362D01*
X81825585Y-86180323D01*
X81878389Y-86134568D01*
X81929900Y-86123362D01*
X141758416Y-86123362D01*
X141825455Y-86143047D01*
G37*
G04 #@! TD.AperFunction*
G04 #@! TA.AperFunction,NonConductor*
G36*
X153339050Y-92537338D02*
G01*
X153384805Y-92590142D01*
X153394749Y-92659300D01*
X153365724Y-92722856D01*
X153359692Y-92729334D01*
X152279865Y-93809160D01*
X152218542Y-93842645D01*
X152206068Y-93844699D01*
X152119150Y-93854492D01*
X151948878Y-93914072D01*
X151796137Y-94010046D01*
X151668584Y-94137599D01*
X151572611Y-94290338D01*
X151513031Y-94460607D01*
X151513030Y-94460612D01*
X151492835Y-94639858D01*
X151492835Y-94639865D01*
X151513030Y-94819111D01*
X151513031Y-94819116D01*
X151572611Y-94989385D01*
X151592255Y-95020648D01*
X151668584Y-95142124D01*
X151796138Y-95269678D01*
X151886480Y-95326444D01*
X151918819Y-95346764D01*
X151948878Y-95365651D01*
X152028106Y-95393374D01*
X152119145Y-95425230D01*
X152119150Y-95425231D01*
X152298396Y-95445427D01*
X152298400Y-95445427D01*
X152298404Y-95445427D01*
X152477649Y-95425231D01*
X152477652Y-95425230D01*
X152477655Y-95425230D01*
X152647922Y-95365651D01*
X152800662Y-95269678D01*
X152928216Y-95142124D01*
X153024189Y-94989384D01*
X153083768Y-94819117D01*
X153093561Y-94732191D01*
X153120626Y-94667780D01*
X153129090Y-94658405D01*
X154060216Y-93727281D01*
X154121539Y-93693796D01*
X154147897Y-93690962D01*
X155856188Y-93690962D01*
X155923227Y-93710647D01*
X155933503Y-93718017D01*
X155936336Y-93720276D01*
X155936338Y-93720278D01*
X156034248Y-93781799D01*
X156077792Y-93809160D01*
X156089078Y-93816251D01*
X156259345Y-93875830D01*
X156259350Y-93875831D01*
X156438596Y-93896027D01*
X156438600Y-93896027D01*
X156438604Y-93896027D01*
X156617849Y-93875831D01*
X156617852Y-93875830D01*
X156617855Y-93875830D01*
X156788122Y-93816251D01*
X156940862Y-93720278D01*
X157068416Y-93592724D01*
X157164389Y-93439984D01*
X157223968Y-93269717D01*
X157223969Y-93269711D01*
X157244165Y-93090465D01*
X157244165Y-93090458D01*
X157223969Y-92911212D01*
X157223968Y-92911207D01*
X157199926Y-92842500D01*
X157164389Y-92740940D01*
X157157096Y-92729334D01*
X157143456Y-92707625D01*
X157124456Y-92640388D01*
X157144824Y-92573553D01*
X157198091Y-92528339D01*
X157248450Y-92517653D01*
X159374903Y-92517653D01*
X159441942Y-92537338D01*
X159462584Y-92553972D01*
X162011231Y-95102619D01*
X162044716Y-95163942D01*
X162046023Y-95209697D01*
X162014500Y-95408729D01*
X162014500Y-95605575D01*
X162045290Y-95799979D01*
X162106117Y-95987182D01*
X162151196Y-96075654D01*
X162195476Y-96162558D01*
X162311172Y-96321799D01*
X162450354Y-96460981D01*
X162609595Y-96576677D01*
X162716436Y-96631115D01*
X162786213Y-96666668D01*
X162837009Y-96714642D01*
X162853804Y-96782463D01*
X162831267Y-96848598D01*
X162786213Y-96887638D01*
X162609594Y-96977629D01*
X162518741Y-97043638D01*
X162450354Y-97093325D01*
X162450352Y-97093327D01*
X162450351Y-97093327D01*
X162311174Y-97232504D01*
X162311174Y-97232505D01*
X162311172Y-97232507D01*
X162210939Y-97370465D01*
X162192722Y-97395539D01*
X162137392Y-97438204D01*
X162092404Y-97446653D01*
X152839412Y-97446653D01*
X152772373Y-97426968D01*
X152751731Y-97410334D01*
X150946967Y-95605570D01*
X149114033Y-93772637D01*
X149080549Y-93711315D01*
X149085533Y-93641623D01*
X149092633Y-93627062D01*
X149092312Y-93626899D01*
X149183882Y-93447182D01*
X149183883Y-93447179D01*
X149183884Y-93447178D01*
X149244709Y-93259979D01*
X149251427Y-93217562D01*
X149275500Y-93065575D01*
X149275500Y-92868730D01*
X149252395Y-92722856D01*
X149244709Y-92674327D01*
X149244705Y-92674315D01*
X149243814Y-92670600D01*
X149247305Y-92600817D01*
X149287969Y-92544000D01*
X149352895Y-92518187D01*
X149364388Y-92517653D01*
X153272011Y-92517653D01*
X153339050Y-92537338D01*
G37*
G04 #@! TD.AperFunction*
G04 #@! TA.AperFunction,NonConductor*
G36*
X149403426Y-95769875D02*
G01*
X149436396Y-95793471D01*
X151927897Y-98284972D01*
X151961382Y-98346295D01*
X151956398Y-98415987D01*
X151914526Y-98471920D01*
X151849062Y-98496337D01*
X151840216Y-98496653D01*
X149364388Y-98496653D01*
X149297349Y-98476968D01*
X149251594Y-98424164D01*
X149241650Y-98355006D01*
X149243814Y-98343706D01*
X149244704Y-98339993D01*
X149244709Y-98339979D01*
X149261532Y-98233761D01*
X149275500Y-98145575D01*
X149275500Y-97948730D01*
X149244709Y-97754326D01*
X149183882Y-97567123D01*
X149103994Y-97410334D01*
X149094524Y-97391748D01*
X148978828Y-97232507D01*
X148839646Y-97093325D01*
X148760025Y-97035477D01*
X148680403Y-96977627D01*
X148503787Y-96887638D01*
X148452990Y-96839664D01*
X148436195Y-96771843D01*
X148458732Y-96705708D01*
X148503787Y-96666668D01*
X148680403Y-96576678D01*
X148680402Y-96576678D01*
X148680405Y-96576677D01*
X148839646Y-96460981D01*
X148978828Y-96321799D01*
X149094524Y-96162558D01*
X149183884Y-95987178D01*
X149230784Y-95842832D01*
X149270222Y-95785158D01*
X149334580Y-95757960D01*
X149403426Y-95769875D01*
G37*
G04 #@! TD.AperFunction*
G04 #@! TA.AperFunction,NonConductor*
G36*
X142018512Y-94022262D02*
G01*
X142064267Y-94075066D01*
X142074211Y-94144224D01*
X142053048Y-94197700D01*
X141995364Y-94280081D01*
X141995363Y-94280083D01*
X141899193Y-94486318D01*
X141899190Y-94486327D01*
X141840298Y-94706118D01*
X141840296Y-94706129D01*
X141820464Y-94932814D01*
X141820464Y-94932817D01*
X141840296Y-95159502D01*
X141840298Y-95159513D01*
X141899190Y-95379304D01*
X141899193Y-95379313D01*
X141995363Y-95585548D01*
X141995364Y-95585550D01*
X142125886Y-95771957D01*
X142286790Y-95932861D01*
X142286793Y-95932863D01*
X142473198Y-96063384D01*
X142679436Y-96159555D01*
X142679441Y-96159556D01*
X142679443Y-96159557D01*
X142732347Y-96173732D01*
X142899240Y-96218451D01*
X143061162Y-96232617D01*
X143125930Y-96238284D01*
X143125932Y-96238284D01*
X143125934Y-96238284D01*
X143182605Y-96233325D01*
X143352624Y-96218451D01*
X143572428Y-96159555D01*
X143778666Y-96063384D01*
X143965071Y-95932863D01*
X144125979Y-95771955D01*
X144256500Y-95585550D01*
X144352671Y-95379312D01*
X144411567Y-95159508D01*
X144431400Y-94932816D01*
X144411567Y-94706124D01*
X144361367Y-94518774D01*
X144352673Y-94486327D01*
X144352670Y-94486318D01*
X144327487Y-94432313D01*
X144256500Y-94280082D01*
X144198815Y-94197699D01*
X144176489Y-94131493D01*
X144193500Y-94063726D01*
X144244448Y-94015914D01*
X144300391Y-94002577D01*
X145674903Y-94002577D01*
X145741942Y-94022262D01*
X145762584Y-94038896D01*
X146105215Y-94381527D01*
X146105236Y-94381550D01*
X146156000Y-94432313D01*
X146189486Y-94493636D01*
X146184502Y-94563327D01*
X146156002Y-94607675D01*
X146071175Y-94692503D01*
X146071174Y-94692505D01*
X146071172Y-94692507D01*
X146061283Y-94706118D01*
X145955476Y-94851747D01*
X145866117Y-95027123D01*
X145805290Y-95214326D01*
X145774500Y-95408730D01*
X145774500Y-95605575D01*
X145805290Y-95799979D01*
X145866117Y-95987182D01*
X145911196Y-96075654D01*
X145955476Y-96162558D01*
X146071172Y-96321799D01*
X146210354Y-96460981D01*
X146369595Y-96576677D01*
X146476436Y-96631115D01*
X146546213Y-96666668D01*
X146597009Y-96714642D01*
X146613804Y-96782463D01*
X146591267Y-96848598D01*
X146546213Y-96887638D01*
X146369594Y-96977629D01*
X146278741Y-97043638D01*
X146210354Y-97093325D01*
X146210352Y-97093327D01*
X146210351Y-97093327D01*
X146071174Y-97232504D01*
X146071174Y-97232505D01*
X146071172Y-97232507D01*
X146050650Y-97260753D01*
X145955476Y-97391747D01*
X145866117Y-97567123D01*
X145805290Y-97754326D01*
X145774500Y-97948730D01*
X145774500Y-98145575D01*
X145805290Y-98339974D01*
X145806186Y-98343706D01*
X145802695Y-98413489D01*
X145762031Y-98470306D01*
X145697105Y-98496119D01*
X145685612Y-98496653D01*
X143629499Y-98496653D01*
X143562460Y-98476968D01*
X143516705Y-98424164D01*
X143505499Y-98372653D01*
X143505499Y-97473260D01*
X143505498Y-97473243D01*
X143494999Y-97370465D01*
X143494998Y-97370462D01*
X143449283Y-97232504D01*
X143439814Y-97203928D01*
X143347712Y-97054606D01*
X143223656Y-96930550D01*
X143090790Y-96848598D01*
X143074336Y-96838449D01*
X143074331Y-96838447D01*
X143041126Y-96827444D01*
X142907797Y-96783263D01*
X142907795Y-96783262D01*
X142805016Y-96772762D01*
X142805009Y-96772762D01*
X140785953Y-96772762D01*
X140718914Y-96753077D01*
X140673159Y-96700273D01*
X140663215Y-96631115D01*
X140685634Y-96575878D01*
X140686630Y-96574505D01*
X140687614Y-96573152D01*
X140768042Y-96415304D01*
X140822786Y-96246817D01*
X140850500Y-96071841D01*
X140850500Y-95894683D01*
X140822786Y-95719707D01*
X140785701Y-95605570D01*
X140768043Y-95551222D01*
X140768042Y-95551219D01*
X140703847Y-95425231D01*
X140687614Y-95393372D01*
X140583483Y-95250048D01*
X140458214Y-95124779D01*
X140314890Y-95020648D01*
X140157042Y-94940219D01*
X140157039Y-94940218D01*
X139988556Y-94885476D01*
X139901067Y-94871619D01*
X139813579Y-94857762D01*
X139636421Y-94857762D01*
X139578095Y-94867000D01*
X139461443Y-94885476D01*
X139292960Y-94940218D01*
X139292957Y-94940219D01*
X139135109Y-95020648D01*
X139053338Y-95080058D01*
X138991786Y-95124779D01*
X138991784Y-95124781D01*
X138991783Y-95124781D01*
X138866519Y-95250045D01*
X138866519Y-95250046D01*
X138866517Y-95250048D01*
X138852256Y-95269677D01*
X138762386Y-95393371D01*
X138681957Y-95551219D01*
X138681956Y-95551222D01*
X138627214Y-95719705D01*
X138599500Y-95894683D01*
X138599500Y-96071838D01*
X138600104Y-96075654D01*
X138591144Y-96144947D01*
X138546144Y-96198395D01*
X138479391Y-96219030D01*
X138469529Y-96218778D01*
X138455000Y-96217826D01*
X138154080Y-96237549D01*
X138154079Y-96237549D01*
X138154069Y-96237550D01*
X137858316Y-96296380D01*
X137858301Y-96296384D01*
X137572752Y-96393315D01*
X137572731Y-96393324D01*
X137302286Y-96526693D01*
X137302279Y-96526697D01*
X137051540Y-96694235D01*
X137009654Y-96730968D01*
X136946272Y-96760370D01*
X136877055Y-96750837D01*
X136823981Y-96705397D01*
X136803898Y-96638476D01*
X136808120Y-96605651D01*
X136856993Y-96423255D01*
X136895500Y-96130768D01*
X136895500Y-95835756D01*
X136856993Y-95543269D01*
X136780639Y-95258310D01*
X136667743Y-94985755D01*
X136649480Y-94954123D01*
X136520238Y-94730268D01*
X136340647Y-94496221D01*
X136340641Y-94496214D01*
X136132047Y-94287620D01*
X136122225Y-94280083D01*
X136050377Y-94224952D01*
X136009176Y-94168525D01*
X136005021Y-94098779D01*
X136039233Y-94037858D01*
X136100951Y-94005106D01*
X136125865Y-94002577D01*
X141951473Y-94002577D01*
X142018512Y-94022262D01*
G37*
G04 #@! TD.AperFunction*
G04 #@! TA.AperFunction,NonConductor*
G36*
X142560342Y-100293446D02*
G01*
X142606097Y-100346250D01*
X142616041Y-100415408D01*
X142587016Y-100478964D01*
X142580984Y-100485442D01*
X142042181Y-101024245D01*
X141980858Y-101057730D01*
X141911166Y-101052746D01*
X141855233Y-101010874D01*
X141830816Y-100945410D01*
X141830500Y-100936564D01*
X141830500Y-100397761D01*
X141850185Y-100330722D01*
X141902989Y-100284967D01*
X141954500Y-100273761D01*
X142493303Y-100273761D01*
X142560342Y-100293446D01*
G37*
G04 #@! TD.AperFunction*
G04 #@! TA.AperFunction,NonConductor*
G36*
X159875049Y-99717338D02*
G01*
X159920804Y-99770142D01*
X159930748Y-99839300D01*
X159901723Y-99902856D01*
X159895691Y-99909334D01*
X158731465Y-101073560D01*
X158670142Y-101107045D01*
X158657668Y-101109099D01*
X158570750Y-101118892D01*
X158400478Y-101178472D01*
X158247737Y-101274446D01*
X158120184Y-101401999D01*
X158024211Y-101554738D01*
X157964631Y-101725007D01*
X157964630Y-101725012D01*
X157944435Y-101904258D01*
X157944435Y-101904265D01*
X157964630Y-102083511D01*
X157964631Y-102083516D01*
X158024211Y-102253785D01*
X158061107Y-102312504D01*
X158120184Y-102406524D01*
X158247738Y-102534078D01*
X158400478Y-102630051D01*
X158474556Y-102655972D01*
X158570745Y-102689630D01*
X158570750Y-102689631D01*
X158749996Y-102709827D01*
X158750000Y-102709827D01*
X158750004Y-102709827D01*
X158929249Y-102689631D01*
X158929252Y-102689630D01*
X158929255Y-102689630D01*
X159099522Y-102630051D01*
X159252262Y-102534078D01*
X159379816Y-102406524D01*
X159475789Y-102253784D01*
X159535368Y-102083517D01*
X159545161Y-101996591D01*
X159572226Y-101932180D01*
X159580690Y-101922805D01*
X160372945Y-101130551D01*
X160434266Y-101097068D01*
X160474505Y-101095014D01*
X160554011Y-101103972D01*
X160604198Y-101109627D01*
X160604200Y-101109627D01*
X160604204Y-101109627D01*
X160783449Y-101089431D01*
X160783452Y-101089430D01*
X160783455Y-101089430D01*
X160953722Y-101029851D01*
X161106462Y-100933878D01*
X161234016Y-100806324D01*
X161329989Y-100653584D01*
X161389568Y-100483317D01*
X161389569Y-100483311D01*
X161409765Y-100304065D01*
X161409765Y-100304058D01*
X161389569Y-100124812D01*
X161389568Y-100124807D01*
X161383380Y-100107123D01*
X161329989Y-99954540D01*
X161315668Y-99931748D01*
X161287944Y-99887625D01*
X161268944Y-99820388D01*
X161289312Y-99753553D01*
X161342580Y-99708339D01*
X161392938Y-99697653D01*
X161474903Y-99697653D01*
X161541942Y-99717338D01*
X161562584Y-99733972D01*
X162011231Y-100182619D01*
X162044716Y-100243942D01*
X162046023Y-100289697D01*
X162014500Y-100488729D01*
X162014500Y-100685575D01*
X162045290Y-100879979D01*
X162106117Y-101067182D01*
X162162823Y-101178473D01*
X162195476Y-101242558D01*
X162311172Y-101401799D01*
X162450354Y-101540981D01*
X162609595Y-101656677D01*
X162710474Y-101708077D01*
X162786213Y-101746668D01*
X162837009Y-101794642D01*
X162853804Y-101862463D01*
X162831267Y-101928598D01*
X162786213Y-101967638D01*
X162609594Y-102057629D01*
X162573963Y-102083517D01*
X162450354Y-102173325D01*
X162450352Y-102173327D01*
X162450351Y-102173327D01*
X162311174Y-102312504D01*
X162311174Y-102312505D01*
X162311172Y-102312507D01*
X162261485Y-102380894D01*
X162195476Y-102471747D01*
X162106117Y-102647123D01*
X162045290Y-102834326D01*
X162014500Y-103028730D01*
X162014500Y-103225575D01*
X162045290Y-103419979D01*
X162106117Y-103607182D01*
X162160680Y-103714266D01*
X162173576Y-103782935D01*
X162147300Y-103847676D01*
X162090193Y-103887933D01*
X162050195Y-103894561D01*
X162006256Y-103894561D01*
X162006240Y-103894562D01*
X149239805Y-103894562D01*
X149172766Y-103874877D01*
X149127011Y-103822073D01*
X149117067Y-103752915D01*
X149129320Y-103714268D01*
X149183881Y-103607184D01*
X149183882Y-103607182D01*
X149183884Y-103607178D01*
X149244709Y-103419979D01*
X149255955Y-103348973D01*
X149275500Y-103225575D01*
X149275500Y-103028730D01*
X149244709Y-102834326D01*
X149186758Y-102655974D01*
X149183884Y-102647128D01*
X149183882Y-102647125D01*
X149183882Y-102647123D01*
X149136743Y-102554608D01*
X149094524Y-102471748D01*
X148978828Y-102312507D01*
X148839646Y-102173325D01*
X148716037Y-102083517D01*
X148680403Y-102057627D01*
X148503787Y-101967638D01*
X148452990Y-101919664D01*
X148436195Y-101851843D01*
X148458732Y-101785708D01*
X148503787Y-101746668D01*
X148680403Y-101656678D01*
X148680402Y-101656678D01*
X148680405Y-101656677D01*
X148839646Y-101540981D01*
X148978828Y-101401799D01*
X149094524Y-101242558D01*
X149183884Y-101067178D01*
X149244709Y-100879979D01*
X149252831Y-100828697D01*
X149275500Y-100685575D01*
X149275500Y-100488730D01*
X149244709Y-100294326D01*
X149207080Y-100178517D01*
X149183884Y-100107128D01*
X149183882Y-100107125D01*
X149183882Y-100107123D01*
X149151464Y-100043500D01*
X149094524Y-99931748D01*
X149090872Y-99926721D01*
X149067490Y-99894538D01*
X149044010Y-99828732D01*
X149059835Y-99760678D01*
X149109941Y-99711983D01*
X149167808Y-99697653D01*
X159808010Y-99697653D01*
X159875049Y-99717338D01*
G37*
G04 #@! TD.AperFunction*
G04 #@! TA.AperFunction,NonConductor*
G36*
X145949231Y-99717338D02*
G01*
X145994986Y-99770142D01*
X146004930Y-99839300D01*
X145982510Y-99894538D01*
X145955478Y-99931744D01*
X145866117Y-100107123D01*
X145805290Y-100294326D01*
X145774500Y-100488730D01*
X145774500Y-100685575D01*
X145805290Y-100879979D01*
X145866117Y-101067182D01*
X145922823Y-101178473D01*
X145955476Y-101242558D01*
X146071172Y-101401799D01*
X146210354Y-101540981D01*
X146369595Y-101656677D01*
X146470474Y-101708077D01*
X146546213Y-101746668D01*
X146597009Y-101794642D01*
X146613804Y-101862463D01*
X146591267Y-101928598D01*
X146546213Y-101967638D01*
X146369594Y-102057629D01*
X146333963Y-102083517D01*
X146210354Y-102173325D01*
X146210352Y-102173327D01*
X146210351Y-102173327D01*
X146071174Y-102312504D01*
X146071174Y-102312505D01*
X146071172Y-102312507D01*
X146021485Y-102380894D01*
X145955476Y-102471747D01*
X145866117Y-102647123D01*
X145805290Y-102834326D01*
X145774500Y-103028730D01*
X145774500Y-103225575D01*
X145805290Y-103419979D01*
X145866118Y-103607184D01*
X145920680Y-103714268D01*
X145933576Y-103782937D01*
X145907299Y-103847677D01*
X145850193Y-103887934D01*
X145810195Y-103894562D01*
X143938732Y-103894562D01*
X143871693Y-103874877D01*
X143825938Y-103822073D01*
X143821690Y-103811516D01*
X143778589Y-103688340D01*
X143682615Y-103535599D01*
X143555062Y-103408046D01*
X143402323Y-103312073D01*
X143232054Y-103252493D01*
X143232050Y-103252492D01*
X143130616Y-103241064D01*
X143066202Y-103213997D01*
X143026647Y-103156403D01*
X143020500Y-103117844D01*
X143020500Y-101795758D01*
X143040185Y-101728719D01*
X143056815Y-101708081D01*
X143941385Y-100823510D01*
X144002706Y-100790027D01*
X144015166Y-100787974D01*
X144044855Y-100784630D01*
X144215122Y-100725051D01*
X144367862Y-100629078D01*
X144495416Y-100501524D01*
X144591389Y-100348784D01*
X144650968Y-100178517D01*
X144650969Y-100178511D01*
X144671165Y-99999265D01*
X144671165Y-99999259D01*
X144652718Y-99835537D01*
X144664772Y-99766715D01*
X144712122Y-99715335D01*
X144775938Y-99697653D01*
X145882192Y-99697653D01*
X145949231Y-99717338D01*
G37*
G04 #@! TD.AperFunction*
G04 #@! TA.AperFunction,NonConductor*
G36*
X162189231Y-107337338D02*
G01*
X162234986Y-107390142D01*
X162244930Y-107459300D01*
X162222510Y-107514538D01*
X162195478Y-107551744D01*
X162105485Y-107728366D01*
X162057511Y-107779162D01*
X161989690Y-107795957D01*
X161923555Y-107773420D01*
X161884515Y-107728366D01*
X161846512Y-107653781D01*
X161794524Y-107551748D01*
X161791675Y-107547827D01*
X161767490Y-107514538D01*
X161744010Y-107448732D01*
X161759835Y-107380678D01*
X161809941Y-107331983D01*
X161867808Y-107317653D01*
X162122192Y-107317653D01*
X162189231Y-107337338D01*
G37*
G04 #@! TD.AperFunction*
G04 #@! TA.AperFunction,NonConductor*
G36*
X159649231Y-107337338D02*
G01*
X159694986Y-107390142D01*
X159704930Y-107459300D01*
X159682510Y-107514538D01*
X159655478Y-107551744D01*
X159565485Y-107728366D01*
X159517511Y-107779162D01*
X159449690Y-107795957D01*
X159383555Y-107773420D01*
X159344515Y-107728366D01*
X159306512Y-107653781D01*
X159254524Y-107551748D01*
X159251675Y-107547827D01*
X159227490Y-107514538D01*
X159204010Y-107448732D01*
X159219835Y-107380678D01*
X159269941Y-107331983D01*
X159327808Y-107317653D01*
X159582192Y-107317653D01*
X159649231Y-107337338D01*
G37*
G04 #@! TD.AperFunction*
G04 #@! TA.AperFunction,NonConductor*
G36*
X161859851Y-105115247D02*
G01*
X161880493Y-105131881D01*
X162011231Y-105262619D01*
X162044716Y-105323942D01*
X162046023Y-105369697D01*
X162014500Y-105568729D01*
X162014500Y-105765575D01*
X162045290Y-105959974D01*
X162046186Y-105963706D01*
X162042695Y-106033489D01*
X162002031Y-106090306D01*
X161937105Y-106116119D01*
X161925612Y-106116653D01*
X157986178Y-106116653D01*
X157986162Y-106116652D01*
X157978566Y-106116652D01*
X157820452Y-106116652D01*
X157706529Y-106147178D01*
X157667723Y-106157576D01*
X157626921Y-106181134D01*
X157626920Y-106181134D01*
X157530796Y-106236630D01*
X157530791Y-106236634D01*
X156566073Y-107201353D01*
X156504750Y-107234838D01*
X156435058Y-107229854D01*
X156405506Y-107213990D01*
X156300405Y-107137629D01*
X156125029Y-107048270D01*
X155937826Y-106987443D01*
X155743422Y-106956653D01*
X155743417Y-106956653D01*
X155546583Y-106956653D01*
X155546578Y-106956653D01*
X155352173Y-106987443D01*
X155164970Y-107048270D01*
X154989594Y-107137629D01*
X154935871Y-107176662D01*
X154830354Y-107253325D01*
X154830352Y-107253327D01*
X154830351Y-107253327D01*
X154691174Y-107392504D01*
X154691174Y-107392505D01*
X154691172Y-107392507D01*
X154650322Y-107448732D01*
X154575476Y-107551747D01*
X154485485Y-107728366D01*
X154437511Y-107779162D01*
X154369690Y-107795957D01*
X154303555Y-107773420D01*
X154264515Y-107728366D01*
X154226512Y-107653781D01*
X154174524Y-107551748D01*
X154058828Y-107392507D01*
X153919646Y-107253325D01*
X153760405Y-107137629D01*
X153749976Y-107132315D01*
X153585029Y-107048270D01*
X153397826Y-106987443D01*
X153203422Y-106956653D01*
X153203417Y-106956653D01*
X153006583Y-106956653D01*
X153006578Y-106956653D01*
X152812173Y-106987443D01*
X152624970Y-107048270D01*
X152449594Y-107137629D01*
X152395871Y-107176662D01*
X152290354Y-107253325D01*
X152290352Y-107253327D01*
X152290351Y-107253327D01*
X152151174Y-107392504D01*
X152151174Y-107392505D01*
X152151172Y-107392507D01*
X152110322Y-107448732D01*
X152035476Y-107551747D01*
X151945485Y-107728366D01*
X151897511Y-107779162D01*
X151829690Y-107795957D01*
X151763555Y-107773420D01*
X151724515Y-107728366D01*
X151686512Y-107653781D01*
X151634524Y-107551748D01*
X151518828Y-107392507D01*
X151379646Y-107253325D01*
X151220405Y-107137629D01*
X151209976Y-107132315D01*
X151045029Y-107048270D01*
X150857826Y-106987443D01*
X150853098Y-106986309D01*
X150853516Y-106984563D01*
X150797346Y-106957915D01*
X150760432Y-106898592D01*
X150761451Y-106828730D01*
X150792221Y-106777718D01*
X150870816Y-106699124D01*
X150966789Y-106546384D01*
X151026368Y-106376117D01*
X151032083Y-106325397D01*
X151046565Y-106196865D01*
X151046565Y-106196858D01*
X151026369Y-106017612D01*
X151026368Y-106017607D01*
X150975685Y-105872763D01*
X150966789Y-105847340D01*
X150870816Y-105694600D01*
X150743262Y-105567046D01*
X150590523Y-105471073D01*
X150420254Y-105411493D01*
X150420249Y-105411492D01*
X150241004Y-105391297D01*
X150240996Y-105391297D01*
X150061750Y-105411492D01*
X150061745Y-105411493D01*
X149891476Y-105471073D01*
X149738737Y-105567046D01*
X149611184Y-105694599D01*
X149515209Y-105847342D01*
X149508656Y-105866070D01*
X149467935Y-105922846D01*
X149402982Y-105948593D01*
X149334420Y-105935137D01*
X149284017Y-105886749D01*
X149267776Y-105818793D01*
X149269142Y-105805717D01*
X149275500Y-105765575D01*
X149275500Y-105568730D01*
X149244709Y-105374326D01*
X149209576Y-105266200D01*
X149206872Y-105257880D01*
X149204878Y-105188040D01*
X149240958Y-105128207D01*
X149303659Y-105097378D01*
X149324804Y-105095562D01*
X161792812Y-105095562D01*
X161859851Y-105115247D01*
G37*
G04 #@! TD.AperFunction*
G04 #@! TA.AperFunction,NonConductor*
G36*
X145792235Y-105115247D02*
G01*
X145837990Y-105168051D01*
X145847934Y-105237209D01*
X145843127Y-105257881D01*
X145805290Y-105374326D01*
X145774500Y-105568730D01*
X145774500Y-105765575D01*
X145805290Y-105959979D01*
X145866117Y-106147182D01*
X145926545Y-106265778D01*
X145955476Y-106322558D01*
X146071172Y-106481799D01*
X146210354Y-106620981D01*
X146369595Y-106736677D01*
X146492992Y-106799550D01*
X146546213Y-106826668D01*
X146597009Y-106874642D01*
X146613804Y-106942463D01*
X146591267Y-107008598D01*
X146546213Y-107047638D01*
X146369594Y-107137629D01*
X146315871Y-107176662D01*
X146210354Y-107253325D01*
X146210352Y-107253327D01*
X146210351Y-107253327D01*
X146071174Y-107392504D01*
X146071174Y-107392505D01*
X146071172Y-107392507D01*
X146030322Y-107448732D01*
X145955476Y-107551747D01*
X145866117Y-107727123D01*
X145859632Y-107747085D01*
X145820194Y-107804760D01*
X145755835Y-107831958D01*
X145686989Y-107820043D01*
X145654020Y-107796447D01*
X144862751Y-107005178D01*
X144829266Y-106943855D01*
X144826432Y-106917497D01*
X144826432Y-105301875D01*
X144826433Y-105301862D01*
X144826433Y-105219562D01*
X144846118Y-105152523D01*
X144898922Y-105106768D01*
X144950433Y-105095562D01*
X145725196Y-105095562D01*
X145792235Y-105115247D01*
G37*
G04 #@! TD.AperFunction*
G04 #@! TA.AperFunction,NonConductor*
G36*
X148840874Y-109249689D02*
G01*
X148889569Y-109299794D01*
X148903900Y-109357662D01*
X148903900Y-109742494D01*
X148884215Y-109809533D01*
X148867581Y-109830175D01*
X148325685Y-110372070D01*
X148264362Y-110405555D01*
X148194670Y-110400571D01*
X148172032Y-110389383D01*
X148145715Y-110372847D01*
X148111686Y-110351465D01*
X148025121Y-110297072D01*
X147854849Y-110237492D01*
X147767930Y-110227699D01*
X147703516Y-110200632D01*
X147694133Y-110192160D01*
X147474219Y-109972246D01*
X147440734Y-109910923D01*
X147437900Y-109884565D01*
X147437900Y-109750007D01*
X147437900Y-109750005D01*
X147401389Y-109613744D01*
X147403052Y-109543897D01*
X147442214Y-109486034D01*
X147506443Y-109458530D01*
X147521164Y-109457653D01*
X148123422Y-109457653D01*
X148317826Y-109426862D01*
X148505025Y-109366037D01*
X148680405Y-109276677D01*
X148683645Y-109274322D01*
X148707014Y-109257345D01*
X148772820Y-109233864D01*
X148840874Y-109249689D01*
G37*
G04 #@! TD.AperFunction*
G04 #@! TA.AperFunction,NonConductor*
G36*
X143788094Y-107633000D02*
G01*
X143808736Y-107649634D01*
X143864281Y-107705179D01*
X143864287Y-107705184D01*
X146200580Y-110041477D01*
X146234065Y-110102800D01*
X146236899Y-110129158D01*
X146236899Y-110263716D01*
X146236898Y-110263716D01*
X146245836Y-110297072D01*
X146277823Y-110416447D01*
X146285395Y-110429562D01*
X146356877Y-110553374D01*
X146356881Y-110553379D01*
X146475749Y-110672247D01*
X146475755Y-110672252D01*
X146844898Y-111041395D01*
X146878383Y-111102718D01*
X146880437Y-111115192D01*
X146890230Y-111202111D01*
X146949810Y-111372383D01*
X147042121Y-111519294D01*
X147061121Y-111586530D01*
X147040753Y-111653366D01*
X147024808Y-111672947D01*
X144640323Y-114057431D01*
X144579000Y-114090916D01*
X144509308Y-114085932D01*
X144453375Y-114044060D01*
X144428958Y-113978596D01*
X144429114Y-113958941D01*
X144431400Y-113932815D01*
X144431400Y-113932814D01*
X144421364Y-113818104D01*
X144411567Y-113706124D01*
X144366848Y-113539231D01*
X144352673Y-113486327D01*
X144352670Y-113486318D01*
X144256500Y-113280083D01*
X144256499Y-113280081D01*
X144226334Y-113237001D01*
X144125979Y-113093677D01*
X144125977Y-113093674D01*
X143965073Y-112932770D01*
X143778666Y-112802248D01*
X143778664Y-112802247D01*
X143572429Y-112706077D01*
X143572420Y-112706074D01*
X143352629Y-112647182D01*
X143352625Y-112647181D01*
X143352624Y-112647181D01*
X143352623Y-112647180D01*
X143352618Y-112647180D01*
X143125934Y-112627348D01*
X143125930Y-112627348D01*
X142899245Y-112647180D01*
X142899234Y-112647182D01*
X142679443Y-112706074D01*
X142679434Y-112706077D01*
X142473199Y-112802247D01*
X142473197Y-112802248D01*
X142286790Y-112932770D01*
X142125885Y-113093675D01*
X142056075Y-113193376D01*
X142001498Y-113237001D01*
X141932000Y-113244195D01*
X141869645Y-113212672D01*
X141834231Y-113152442D01*
X141830500Y-113122253D01*
X141830500Y-107830295D01*
X141850185Y-107763256D01*
X141902989Y-107717501D01*
X141972147Y-107707557D01*
X142016502Y-107722909D01*
X142033699Y-107732838D01*
X142033700Y-107732838D01*
X142033701Y-107732839D01*
X142186429Y-107773763D01*
X142186432Y-107773763D01*
X142344540Y-107773763D01*
X142344543Y-107773763D01*
X142497271Y-107732839D01*
X142634202Y-107653781D01*
X142638349Y-107649634D01*
X142699672Y-107616149D01*
X142726030Y-107613315D01*
X143721055Y-107613315D01*
X143788094Y-107633000D01*
G37*
G04 #@! TD.AperFunction*
G04 #@! TA.AperFunction,NonConductor*
G36*
X142035703Y-114649665D02*
G01*
X142056075Y-114672255D01*
X142125886Y-114771957D01*
X142286790Y-114932861D01*
X142286793Y-114932863D01*
X142473198Y-115063384D01*
X142679436Y-115159555D01*
X142899240Y-115218451D01*
X143061162Y-115232617D01*
X143125930Y-115238284D01*
X143125932Y-115238284D01*
X143125933Y-115238284D01*
X143142182Y-115236862D01*
X143294312Y-115223552D01*
X143362810Y-115237318D01*
X143412993Y-115285933D01*
X143428927Y-115353962D01*
X143424893Y-115379173D01*
X143401699Y-115465734D01*
X143401699Y-115633837D01*
X143401700Y-115633850D01*
X143401700Y-115818194D01*
X143382015Y-115885233D01*
X143329211Y-115930988D01*
X143260053Y-115940932D01*
X143212604Y-115923733D01*
X143118096Y-115865440D01*
X143074336Y-115838449D01*
X143074331Y-115838447D01*
X143072862Y-115837960D01*
X142907797Y-115783263D01*
X142907795Y-115783262D01*
X142805016Y-115772762D01*
X142805009Y-115772762D01*
X141954500Y-115772762D01*
X141887461Y-115753077D01*
X141841706Y-115700273D01*
X141830500Y-115648762D01*
X141830500Y-114743378D01*
X141850185Y-114676339D01*
X141902989Y-114630584D01*
X141972147Y-114620640D01*
X142035703Y-114649665D01*
G37*
G04 #@! TD.AperFunction*
G04 #@! TA.AperFunction,NonConductor*
G36*
X154446445Y-109640885D02*
G01*
X154485485Y-109685940D01*
X154575474Y-109862556D01*
X154591465Y-109884565D01*
X154691172Y-110021799D01*
X154830354Y-110160981D01*
X154884929Y-110200632D01*
X154989600Y-110276681D01*
X154992861Y-110278679D01*
X155039736Y-110330491D01*
X155051159Y-110399420D01*
X155023502Y-110463583D01*
X155015752Y-110472087D01*
X146110199Y-119377643D01*
X146048876Y-119411128D01*
X146022518Y-119413962D01*
X145184612Y-119413962D01*
X145117573Y-119394277D01*
X145107297Y-119386907D01*
X145104463Y-119384647D01*
X145104462Y-119384646D01*
X144976965Y-119304534D01*
X144951721Y-119288672D01*
X144781449Y-119229092D01*
X144712816Y-119221359D01*
X144648402Y-119194292D01*
X144608847Y-119136697D01*
X144602700Y-119098139D01*
X144602700Y-115844887D01*
X144622385Y-115777848D01*
X144639014Y-115757211D01*
X149873113Y-110523112D01*
X149873116Y-110523111D01*
X149984920Y-110411307D01*
X149984922Y-110411302D01*
X149989893Y-110406332D01*
X150051216Y-110372847D01*
X150115889Y-110376081D01*
X150208990Y-110406332D01*
X150272173Y-110426862D01*
X150466578Y-110457653D01*
X150466583Y-110457653D01*
X150663422Y-110457653D01*
X150857826Y-110426862D01*
X150921010Y-110406332D01*
X151045025Y-110366037D01*
X151220405Y-110276677D01*
X151379646Y-110160981D01*
X151518828Y-110021799D01*
X151634524Y-109862558D01*
X151723884Y-109687178D01*
X151724515Y-109685940D01*
X151772489Y-109635143D01*
X151840310Y-109618348D01*
X151906445Y-109640885D01*
X151945485Y-109685940D01*
X152035474Y-109862556D01*
X152051465Y-109884565D01*
X152151172Y-110021799D01*
X152290354Y-110160981D01*
X152449595Y-110276677D01*
X152489623Y-110297072D01*
X152624970Y-110366035D01*
X152624972Y-110366035D01*
X152624975Y-110366037D01*
X152708100Y-110393046D01*
X152812173Y-110426862D01*
X153006578Y-110457653D01*
X153006583Y-110457653D01*
X153203422Y-110457653D01*
X153397826Y-110426862D01*
X153461010Y-110406332D01*
X153585025Y-110366037D01*
X153760405Y-110276677D01*
X153919646Y-110160981D01*
X154058828Y-110021799D01*
X154174524Y-109862558D01*
X154263884Y-109687178D01*
X154264515Y-109685940D01*
X154312489Y-109635143D01*
X154380310Y-109618348D01*
X154446445Y-109640885D01*
G37*
G04 #@! TD.AperFunction*
M02*
