G04 #@! TF.GenerationSoftware,KiCad,Pcbnew,8.0.0*
G04 #@! TF.CreationDate,2024-03-13T16:50:10+05:30*
G04 #@! TF.ProjectId,CoryDora,436f7279-446f-4726-912e-6b696361645f,rev?*
G04 #@! TF.SameCoordinates,Original*
G04 #@! TF.FileFunction,Copper,L1,Top*
G04 #@! TF.FilePolarity,Positive*
%FSLAX46Y46*%
G04 Gerber Fmt 4.6, Leading zero omitted, Abs format (unit mm)*
G04 Created by KiCad (PCBNEW 8.0.0) date 2024-03-13 16:50:10*
%MOMM*%
%LPD*%
G01*
G04 APERTURE LIST*
G04 #@! TA.AperFunction,ComponentPad*
%ADD10C,3.600000*%
G04 #@! TD*
G04 #@! TA.AperFunction,ComponentPad*
%ADD11R,2.000000X2.000000*%
G04 #@! TD*
G04 #@! TA.AperFunction,ComponentPad*
%ADD12C,2.000000*%
G04 #@! TD*
G04 #@! TA.AperFunction,ComponentPad*
%ADD13R,3.200000X2.000000*%
G04 #@! TD*
G04 #@! TA.AperFunction,ComponentPad*
%ADD14R,1.700000X1.700000*%
G04 #@! TD*
G04 #@! TA.AperFunction,ComponentPad*
%ADD15O,1.700000X1.700000*%
G04 #@! TD*
G04 #@! TA.AperFunction,ComponentPad*
%ADD16R,1.600000X1.600000*%
G04 #@! TD*
G04 #@! TA.AperFunction,ComponentPad*
%ADD17O,1.600000X1.600000*%
G04 #@! TD*
G04 #@! TA.AperFunction,ComponentPad*
%ADD18O,2.500000X1.500000*%
G04 #@! TD*
G04 #@! TA.AperFunction,ComponentPad*
%ADD19O,1.500000X2.500000*%
G04 #@! TD*
G04 #@! TA.AperFunction,ViaPad*
%ADD20C,0.600000*%
G04 #@! TD*
G04 #@! TA.AperFunction,Conductor*
%ADD21C,0.200000*%
G04 #@! TD*
G04 APERTURE END LIST*
D10*
X119455000Y-98523262D03*
X113105000Y-101063262D03*
X138455000Y-98523262D03*
X132105000Y-101063262D03*
D11*
X147395000Y-131483262D03*
D12*
X147395000Y-136483262D03*
X147395000Y-133983262D03*
D13*
X154895000Y-128383262D03*
X154895000Y-139583262D03*
D12*
X161895000Y-136483262D03*
X161895000Y-131483262D03*
D10*
X100455000Y-98523262D03*
X94105000Y-101063262D03*
X119455000Y-136573262D03*
X113105000Y-139113262D03*
X100455000Y-117523262D03*
X94105000Y-120063262D03*
X100455000Y-136573262D03*
X94105000Y-139113262D03*
X138455000Y-117523262D03*
X132105000Y-120063262D03*
X138455000Y-136573262D03*
X132105000Y-139113262D03*
D14*
X159445000Y-123383262D03*
D15*
X156905000Y-123383262D03*
X154365000Y-123383262D03*
X151825000Y-123383262D03*
D10*
X119455000Y-117523262D03*
X113105000Y-120063262D03*
D16*
X125645000Y-107173262D03*
D17*
X125645000Y-114793262D03*
D16*
X143125932Y-87312816D03*
D17*
X143125932Y-94932816D03*
D16*
X106645000Y-107173262D03*
D17*
X106645000Y-114793262D03*
D16*
X143125932Y-124122816D03*
D17*
X143125932Y-131742816D03*
D16*
X106645000Y-88173262D03*
D17*
X106645000Y-95793262D03*
D16*
X125645000Y-126173262D03*
D17*
X125645000Y-133793262D03*
D16*
X125645000Y-88173262D03*
D17*
X125645000Y-95793262D03*
D16*
X143125932Y-106312816D03*
D17*
X143125932Y-113932816D03*
D18*
X147525000Y-87887153D03*
X147525000Y-90427153D03*
X147525000Y-92967153D03*
X147525000Y-95507153D03*
X147525000Y-98047153D03*
X147525000Y-100587153D03*
X147525000Y-103127153D03*
X147525000Y-105667153D03*
X147525000Y-108207153D03*
D19*
X150565000Y-108707153D03*
X153105000Y-108707153D03*
X155645000Y-108707153D03*
X158185000Y-108707153D03*
X160725000Y-108707153D03*
D18*
X163765000Y-108207153D03*
X163765000Y-105667153D03*
X163765000Y-103127153D03*
X163765000Y-100587153D03*
X163765000Y-98047153D03*
X163765000Y-95507153D03*
X163765000Y-92967153D03*
X163765000Y-90427153D03*
X163765000Y-87887153D03*
D16*
X106645000Y-126173262D03*
D17*
X106645000Y-133793262D03*
D20*
X143052800Y-104037862D03*
X144602200Y-120014462D03*
X143865600Y-99999262D03*
X147675600Y-111022862D03*
X152298400Y-94639862D03*
X156438600Y-93090462D03*
X158750000Y-101904262D03*
X160604200Y-100304062D03*
X150241000Y-106196862D03*
D21*
X143125932Y-94932816D02*
X143125932Y-96822179D01*
X138884849Y-101063262D02*
X132105000Y-101063262D01*
X143125932Y-96822179D02*
X138884849Y-101063262D01*
X162102800Y-103020029D02*
X162102800Y-107044953D01*
X148459924Y-89377153D02*
X162102800Y-103020029D01*
X142265486Y-88173262D02*
X143125932Y-87312816D01*
X106645000Y-88173262D02*
X125645000Y-88173262D01*
X125645000Y-88173262D02*
X142265486Y-88173262D01*
X145190269Y-89377153D02*
X148459924Y-89377153D01*
X143125932Y-87312816D02*
X145190269Y-89377153D01*
X162102800Y-107044953D02*
X163265000Y-108207153D01*
X125645000Y-95793262D02*
X120375000Y-101063262D01*
X120375000Y-101063262D02*
X113105000Y-101063262D01*
X106645000Y-95793262D02*
X101375000Y-101063262D01*
X101375000Y-101063262D02*
X94105000Y-101063262D01*
X125645000Y-107173262D02*
X142265486Y-107173262D01*
X142265486Y-107173262D02*
X143125932Y-106312816D01*
X143125932Y-106312816D02*
X143125932Y-104110994D01*
X143125932Y-104110994D02*
X143052800Y-104037862D01*
X106645000Y-107173262D02*
X125645000Y-107173262D01*
X132105000Y-120063262D02*
X138884849Y-120063262D01*
X138884849Y-120063262D02*
X138886849Y-120065262D01*
X143125932Y-118010930D02*
X143125932Y-113932816D01*
X138886849Y-120065262D02*
X141071600Y-120065262D01*
X141071600Y-120065262D02*
X143125932Y-118010930D01*
X125645000Y-114793262D02*
X120375000Y-120063262D01*
X120375000Y-120063262D02*
X113105000Y-120063262D01*
X101375000Y-120063262D02*
X94105000Y-120063262D01*
X106645000Y-114793262D02*
X101375000Y-120063262D01*
X106645000Y-126173262D02*
X125645000Y-126173262D01*
X141075486Y-126173262D02*
X143125932Y-124122816D01*
X143125932Y-121490730D02*
X144602200Y-120014462D01*
X125645000Y-126173262D02*
X141075486Y-126173262D01*
X143125932Y-124122816D02*
X143125932Y-121490730D01*
X143125932Y-131742816D02*
X143125932Y-134872179D01*
X143125932Y-134872179D02*
X138884849Y-139113262D01*
X138884849Y-139113262D02*
X132105000Y-139113262D01*
X120325000Y-139113262D02*
X113105000Y-139113262D01*
X125645000Y-133793262D02*
X120325000Y-139113262D01*
X106645000Y-133793262D02*
X101325000Y-139113262D01*
X101325000Y-139113262D02*
X94105000Y-139113262D01*
X143865600Y-97126553D02*
X148025000Y-92967153D01*
X149075000Y-112447662D02*
X147777200Y-111149862D01*
X147777200Y-111149862D02*
X147777200Y-111124462D01*
X147777200Y-111124462D02*
X147675600Y-111022862D01*
X149075000Y-120633262D02*
X149075000Y-112447662D01*
X151825000Y-123383262D02*
X149075000Y-120633262D01*
X143865600Y-99999262D02*
X143865600Y-97126553D01*
X156438600Y-93090462D02*
X161641909Y-87887153D01*
X156905000Y-123383262D02*
X156905000Y-99246462D01*
X156905000Y-99246462D02*
X152298400Y-94639862D01*
X161641909Y-87887153D02*
X163265000Y-87887153D01*
X154365000Y-102902229D02*
X149656800Y-98194029D01*
X154365000Y-123383262D02*
X154365000Y-102902229D01*
X149656800Y-96138462D02*
X149025491Y-95507153D01*
X149656800Y-98194029D02*
X149656800Y-96138462D01*
X149025491Y-95507153D02*
X148025000Y-95507153D01*
X160604200Y-100304062D02*
X160604200Y-93087953D01*
X159445000Y-102599262D02*
X158750000Y-101904262D01*
X159445000Y-123383262D02*
X159445000Y-102599262D01*
X160604200Y-93087953D02*
X163265000Y-90427153D01*
X145975000Y-111455862D02*
X144983200Y-110464062D01*
X144983200Y-110464062D02*
X144983200Y-99186462D01*
X147395000Y-131483262D02*
X145975000Y-130063262D01*
X144983200Y-99186462D02*
X144932400Y-99135662D01*
X144932400Y-99135662D02*
X146020909Y-98047153D01*
X145975000Y-130063262D02*
X145975000Y-111455862D01*
X146020909Y-98047153D02*
X148025000Y-98047153D01*
X150241000Y-102803153D02*
X148025000Y-100587153D01*
X150241000Y-106196862D02*
X150241000Y-102803153D01*
X159795000Y-136483262D02*
X146659600Y-123347862D01*
X146274909Y-103127153D02*
X148025000Y-103127153D01*
X145643600Y-103758462D02*
X146274909Y-103127153D01*
X145643600Y-109575062D02*
X145643600Y-103758462D01*
X146659600Y-110591062D02*
X145643600Y-109575062D01*
X161895000Y-136483262D02*
X159795000Y-136483262D01*
X146659600Y-123347862D02*
X146659600Y-110591062D01*
M02*
