G04 #@! TF.GenerationSoftware,KiCad,Pcbnew,8.0.4*
G04 #@! TF.CreationDate,2024-08-26T00:37:18+05:30*
G04 #@! TF.ProjectId,CoryDora,436f7279-446f-4726-912e-6b696361645f,rev?*
G04 #@! TF.SameCoordinates,Original*
G04 #@! TF.FileFunction,Copper,L1,Top*
G04 #@! TF.FilePolarity,Positive*
%FSLAX46Y46*%
G04 Gerber Fmt 4.6, Leading zero omitted, Abs format (unit mm)*
G04 Created by KiCad (PCBNEW 8.0.4) date 2024-08-26 00:37:18*
%MOMM*%
%LPD*%
G01*
G04 APERTURE LIST*
G04 #@! TA.AperFunction,ComponentPad*
%ADD10C,3.600000*%
G04 #@! TD*
G04 #@! TA.AperFunction,ComponentPad*
%ADD11R,2.000000X2.000000*%
G04 #@! TD*
G04 #@! TA.AperFunction,ComponentPad*
%ADD12C,2.000000*%
G04 #@! TD*
G04 #@! TA.AperFunction,ComponentPad*
%ADD13R,3.200000X2.000000*%
G04 #@! TD*
G04 #@! TA.AperFunction,ComponentPad*
%ADD14R,1.700000X1.700000*%
G04 #@! TD*
G04 #@! TA.AperFunction,ComponentPad*
%ADD15O,1.700000X1.700000*%
G04 #@! TD*
G04 #@! TA.AperFunction,ComponentPad*
%ADD16R,1.600000X1.600000*%
G04 #@! TD*
G04 #@! TA.AperFunction,ComponentPad*
%ADD17O,1.600000X1.600000*%
G04 #@! TD*
G04 #@! TA.AperFunction,ComponentPad*
%ADD18O,2.500000X1.500000*%
G04 #@! TD*
G04 #@! TA.AperFunction,ComponentPad*
%ADD19O,1.500000X2.500000*%
G04 #@! TD*
G04 #@! TA.AperFunction,ViaPad*
%ADD20C,0.600000*%
G04 #@! TD*
G04 #@! TA.AperFunction,Conductor*
%ADD21C,0.200000*%
G04 #@! TD*
G04 APERTURE END LIST*
D10*
X119455000Y-98523262D03*
X113105000Y-101063262D03*
X138455000Y-98523262D03*
X132105000Y-101063262D03*
D11*
X147293400Y-133083462D03*
D12*
X147293400Y-138083462D03*
X147293400Y-135583462D03*
D13*
X154793400Y-129983462D03*
X154793400Y-141183462D03*
D12*
X161793400Y-138083462D03*
X161793400Y-133083462D03*
D10*
X100455000Y-98523262D03*
X94105000Y-101063262D03*
X119455000Y-136573262D03*
X113105000Y-139113262D03*
X100455000Y-117523262D03*
X94105000Y-120063262D03*
X100455000Y-136573262D03*
X94105000Y-139113262D03*
X138455000Y-117523262D03*
X132105000Y-120063262D03*
X138455000Y-136573262D03*
X132105000Y-139113262D03*
D14*
X159445000Y-123383262D03*
D15*
X156905000Y-123383262D03*
X154365000Y-123383262D03*
X151825000Y-123383262D03*
D10*
X119455000Y-117523262D03*
X113105000Y-120063262D03*
D16*
X125645000Y-107173262D03*
D17*
X125645000Y-114793262D03*
D16*
X143125932Y-87312816D03*
D17*
X143125932Y-94932816D03*
D16*
X106645000Y-107173262D03*
D17*
X106645000Y-114793262D03*
D16*
X143125932Y-124122816D03*
D17*
X143125932Y-131742816D03*
D16*
X106645000Y-88173262D03*
D17*
X106645000Y-95793262D03*
D16*
X125645000Y-126173262D03*
D17*
X125645000Y-133793262D03*
D16*
X125645000Y-88173262D03*
D17*
X125645000Y-95793262D03*
D16*
X143125932Y-106312816D03*
D17*
X143125932Y-113932816D03*
D18*
X147525000Y-87887153D03*
X147525000Y-90427153D03*
X147525000Y-92967153D03*
X147525000Y-95507153D03*
X147525000Y-98047153D03*
X147525000Y-100587153D03*
X147525000Y-103127153D03*
X147525000Y-105667153D03*
X147525000Y-108207153D03*
D19*
X150565000Y-108707153D03*
X153105000Y-108707153D03*
X155645000Y-108707153D03*
X158185000Y-108707153D03*
X160725000Y-108707153D03*
D18*
X163765000Y-108207153D03*
X163765000Y-105667153D03*
X163765000Y-103127153D03*
X163765000Y-100587153D03*
X163765000Y-98047153D03*
X163765000Y-95507153D03*
X163765000Y-92967153D03*
X163765000Y-90427153D03*
X163765000Y-87887153D03*
D16*
X106645000Y-126173262D03*
D17*
X106645000Y-133793262D03*
D20*
X143052800Y-104037862D03*
X144602200Y-120014462D03*
X143865600Y-99999262D03*
X147675600Y-111022862D03*
X152298400Y-94639862D03*
X156438600Y-93090462D03*
X158750000Y-101904262D03*
X160604200Y-100304062D03*
X150241000Y-106196862D03*
D21*
X143125932Y-94932816D02*
X143125932Y-96822179D01*
X138884849Y-101063262D02*
X132105000Y-101063262D01*
X143125932Y-96822179D02*
X138884849Y-101063262D01*
X162102800Y-103020029D02*
X162102800Y-107044953D01*
X148459924Y-89377153D02*
X162102800Y-103020029D01*
X142265486Y-88173262D02*
X143125932Y-87312816D01*
X106645000Y-88173262D02*
X125645000Y-88173262D01*
X125645000Y-88173262D02*
X142265486Y-88173262D01*
X145190269Y-89377153D02*
X148459924Y-89377153D01*
X143125932Y-87312816D02*
X145190269Y-89377153D01*
X162102800Y-107044953D02*
X163265000Y-108207153D01*
X125645000Y-95793262D02*
X120375000Y-101063262D01*
X120375000Y-101063262D02*
X113105000Y-101063262D01*
X106645000Y-95793262D02*
X101375000Y-101063262D01*
X101375000Y-101063262D02*
X94105000Y-101063262D01*
X125645000Y-107173262D02*
X142265486Y-107173262D01*
X142265486Y-107173262D02*
X143125932Y-106312816D01*
X143125932Y-106312816D02*
X143125932Y-104110994D01*
X143125932Y-104110994D02*
X143052800Y-104037862D01*
X106645000Y-107173262D02*
X125645000Y-107173262D01*
X132105000Y-120063262D02*
X138884849Y-120063262D01*
X138884849Y-120063262D02*
X138886849Y-120065262D01*
X143125932Y-118010930D02*
X143125932Y-113932816D01*
X138886849Y-120065262D02*
X141071600Y-120065262D01*
X141071600Y-120065262D02*
X143125932Y-118010930D01*
X125645000Y-114793262D02*
X120375000Y-120063262D01*
X120375000Y-120063262D02*
X113105000Y-120063262D01*
X101375000Y-120063262D02*
X94105000Y-120063262D01*
X106645000Y-114793262D02*
X101375000Y-120063262D01*
X106645000Y-126173262D02*
X125645000Y-126173262D01*
X141075486Y-126173262D02*
X143125932Y-124122816D01*
X143125932Y-121490730D02*
X144602200Y-120014462D01*
X125645000Y-126173262D02*
X141075486Y-126173262D01*
X143125932Y-124122816D02*
X143125932Y-121490730D01*
X143125932Y-131742816D02*
X143125932Y-134872179D01*
X143125932Y-134872179D02*
X138884849Y-139113262D01*
X138884849Y-139113262D02*
X132105000Y-139113262D01*
X120325000Y-139113262D02*
X113105000Y-139113262D01*
X125645000Y-133793262D02*
X120325000Y-139113262D01*
X106645000Y-133793262D02*
X101325000Y-139113262D01*
X101325000Y-139113262D02*
X94105000Y-139113262D01*
X143865600Y-97126553D02*
X148025000Y-92967153D01*
X149075000Y-112447662D02*
X147777200Y-111149862D01*
X147777200Y-111149862D02*
X147777200Y-111124462D01*
X147777200Y-111124462D02*
X147675600Y-111022862D01*
X149075000Y-120633262D02*
X149075000Y-112447662D01*
X151825000Y-123383262D02*
X149075000Y-120633262D01*
X143865600Y-99999262D02*
X143865600Y-97126553D01*
X156438600Y-93090462D02*
X161641909Y-87887153D01*
X156905000Y-123383262D02*
X156905000Y-99246462D01*
X156905000Y-99246462D02*
X152298400Y-94639862D01*
X161641909Y-87887153D02*
X163265000Y-87887153D01*
X154365000Y-102902229D02*
X149656800Y-98194029D01*
X154365000Y-123383262D02*
X154365000Y-102902229D01*
X149656800Y-96138462D02*
X149025491Y-95507153D01*
X149656800Y-98194029D02*
X149656800Y-96138462D01*
X149025491Y-95507153D02*
X148025000Y-95507153D01*
X160604200Y-100304062D02*
X160604200Y-93087953D01*
X159445000Y-102599262D02*
X158750000Y-101904262D01*
X159445000Y-123383262D02*
X159445000Y-102599262D01*
X160604200Y-93087953D02*
X163265000Y-90427153D01*
X147293400Y-131213462D02*
X145975000Y-129895062D01*
X145975000Y-111455862D02*
X144983200Y-110464062D01*
X144983200Y-110464062D02*
X144983200Y-99186462D01*
X145975000Y-129895062D02*
X145975000Y-111455862D01*
X144983200Y-99186462D02*
X144932400Y-99135662D01*
X144932400Y-99135662D02*
X146020909Y-98047153D01*
X146020909Y-98047153D02*
X148025000Y-98047153D01*
X147293400Y-131213462D02*
X147293400Y-133083462D01*
X150241000Y-102803153D02*
X148025000Y-100587153D01*
X150241000Y-106196862D02*
X150241000Y-102803153D01*
X147650200Y-126034262D02*
X146685000Y-125069062D01*
X146274909Y-103127153D02*
X148025000Y-103127153D01*
X145643600Y-103758462D02*
X146274909Y-103127153D01*
X161793400Y-138083462D02*
X157810200Y-134100262D01*
X145643600Y-109575062D02*
X145643600Y-103758462D01*
X146659600Y-110591062D02*
X145643600Y-109575062D01*
X146659600Y-123087862D02*
X146659600Y-110591062D01*
X146685000Y-125069062D02*
X146685000Y-123113262D01*
X146685000Y-123113262D02*
X146659600Y-123087862D01*
X157810200Y-126034262D02*
X147650200Y-126034262D01*
X157810200Y-134100262D02*
X157810200Y-126034262D01*
G04 #@! TA.AperFunction,NonConductor*
G36*
X148975634Y-96427507D02*
G01*
X149031567Y-96469379D01*
X149055984Y-96534843D01*
X149056300Y-96543689D01*
X149056300Y-97010617D01*
X149036615Y-97077656D01*
X148983811Y-97123411D01*
X148914653Y-97133355D01*
X148851097Y-97104330D01*
X148844619Y-97098298D01*
X148839648Y-97093327D01*
X148839646Y-97093325D01*
X148758791Y-97034580D01*
X148680403Y-96977627D01*
X148503787Y-96887638D01*
X148452990Y-96839664D01*
X148436195Y-96771843D01*
X148458732Y-96705708D01*
X148503787Y-96666668D01*
X148680403Y-96576678D01*
X148680402Y-96576678D01*
X148680405Y-96576677D01*
X148839646Y-96460981D01*
X148844619Y-96456008D01*
X148905942Y-96422523D01*
X148975634Y-96427507D01*
G37*
G04 #@! TD.AperFunction*
G04 #@! TA.AperFunction,NonConductor*
G36*
X145872428Y-96071472D02*
G01*
X145928361Y-96113344D01*
X145939578Y-96131358D01*
X145955474Y-96162555D01*
X145955476Y-96162558D01*
X146071172Y-96321799D01*
X146210354Y-96460981D01*
X146369595Y-96576677D01*
X146478960Y-96632401D01*
X146546213Y-96666668D01*
X146597009Y-96714642D01*
X146613804Y-96782463D01*
X146591267Y-96848598D01*
X146546213Y-96887638D01*
X146369594Y-96977629D01*
X146291209Y-97034580D01*
X146210354Y-97093325D01*
X146210352Y-97093327D01*
X146210351Y-97093327D01*
X146071174Y-97232504D01*
X146071174Y-97232505D01*
X146071172Y-97232507D01*
X146013324Y-97312127D01*
X145955474Y-97391750D01*
X145950292Y-97401920D01*
X145902316Y-97452714D01*
X145871906Y-97465394D01*
X145789124Y-97487576D01*
X145789122Y-97487576D01*
X145789118Y-97487578D01*
X145739005Y-97516512D01*
X145739004Y-97516513D01*
X145695598Y-97541573D01*
X145652194Y-97566632D01*
X145652191Y-97566634D01*
X144677781Y-98541045D01*
X144616458Y-98574530D01*
X144546766Y-98569546D01*
X144490833Y-98527674D01*
X144466416Y-98462210D01*
X144466100Y-98453364D01*
X144466100Y-97426649D01*
X144485785Y-97359610D01*
X144502414Y-97338973D01*
X145741415Y-96099971D01*
X145802736Y-96066488D01*
X145872428Y-96071472D01*
G37*
G04 #@! TD.AperFunction*
G04 #@! TA.AperFunction,NonConductor*
G36*
X146106667Y-98913141D02*
G01*
X146151015Y-98941642D01*
X146210354Y-99000981D01*
X146369595Y-99116677D01*
X146492992Y-99179550D01*
X146546213Y-99206668D01*
X146597009Y-99254642D01*
X146613804Y-99322463D01*
X146591267Y-99388598D01*
X146546213Y-99427638D01*
X146369594Y-99517629D01*
X146329776Y-99546559D01*
X146210354Y-99633325D01*
X146210352Y-99633327D01*
X146210351Y-99633327D01*
X146071174Y-99772504D01*
X146071174Y-99772505D01*
X146071172Y-99772507D01*
X146022429Y-99839595D01*
X145955476Y-99931747D01*
X145866117Y-100107123D01*
X145825631Y-100231727D01*
X145786193Y-100289402D01*
X145721834Y-100316600D01*
X145652988Y-100304685D01*
X145601512Y-100257441D01*
X145583700Y-100193408D01*
X145583700Y-99384958D01*
X145603385Y-99317919D01*
X145620015Y-99297281D01*
X145975655Y-98941640D01*
X146036976Y-98908157D01*
X146106667Y-98913141D01*
G37*
G04 #@! TD.AperFunction*
G04 #@! TA.AperFunction,NonConductor*
G36*
X161939991Y-92703908D02*
G01*
X161995925Y-92745779D01*
X162020342Y-92811244D01*
X162019132Y-92839486D01*
X162014500Y-92868734D01*
X162014500Y-93065575D01*
X162045290Y-93259979D01*
X162106117Y-93447182D01*
X162180275Y-93592724D01*
X162195476Y-93622558D01*
X162311172Y-93781799D01*
X162450354Y-93920981D01*
X162609595Y-94036677D01*
X162721459Y-94093674D01*
X162786213Y-94126668D01*
X162837009Y-94174642D01*
X162853804Y-94242463D01*
X162831267Y-94308598D01*
X162786213Y-94347638D01*
X162609594Y-94437629D01*
X162542578Y-94486320D01*
X162450354Y-94553325D01*
X162450352Y-94553327D01*
X162450351Y-94553327D01*
X162311174Y-94692504D01*
X162311174Y-94692505D01*
X162311172Y-94692507D01*
X162301283Y-94706118D01*
X162195476Y-94851747D01*
X162106117Y-95027123D01*
X162045290Y-95214326D01*
X162014500Y-95408730D01*
X162014500Y-95605575D01*
X162045290Y-95799979D01*
X162106117Y-95987182D01*
X162179275Y-96130761D01*
X162195476Y-96162558D01*
X162311172Y-96321799D01*
X162450354Y-96460981D01*
X162609595Y-96576677D01*
X162718960Y-96632401D01*
X162786213Y-96666668D01*
X162837009Y-96714642D01*
X162853804Y-96782463D01*
X162831267Y-96848598D01*
X162786213Y-96887638D01*
X162609594Y-96977629D01*
X162531209Y-97034580D01*
X162450354Y-97093325D01*
X162450352Y-97093327D01*
X162450351Y-97093327D01*
X162311174Y-97232504D01*
X162311174Y-97232505D01*
X162311172Y-97232507D01*
X162261485Y-97300894D01*
X162195476Y-97391747D01*
X162106117Y-97567123D01*
X162045290Y-97754326D01*
X162014500Y-97948730D01*
X162014500Y-98145575D01*
X162045290Y-98339979D01*
X162106117Y-98527182D01*
X162195476Y-98702558D01*
X162311172Y-98861799D01*
X162450354Y-99000981D01*
X162609595Y-99116677D01*
X162732992Y-99179550D01*
X162786213Y-99206668D01*
X162837009Y-99254642D01*
X162853804Y-99322463D01*
X162831267Y-99388598D01*
X162786213Y-99427638D01*
X162609594Y-99517629D01*
X162569776Y-99546559D01*
X162450354Y-99633325D01*
X162450352Y-99633327D01*
X162450351Y-99633327D01*
X162311174Y-99772504D01*
X162311174Y-99772505D01*
X162311172Y-99772507D01*
X162262429Y-99839595D01*
X162195476Y-99931747D01*
X162106117Y-100107123D01*
X162045290Y-100294326D01*
X162014500Y-100488730D01*
X162014500Y-100685575D01*
X162045290Y-100879979D01*
X162106117Y-101067182D01*
X162160483Y-101173880D01*
X162195476Y-101242558D01*
X162311172Y-101401799D01*
X162450354Y-101540981D01*
X162609595Y-101656677D01*
X162732992Y-101719550D01*
X162786213Y-101746668D01*
X162837009Y-101794642D01*
X162853804Y-101862463D01*
X162831267Y-101928598D01*
X162786213Y-101967638D01*
X162609594Y-102057629D01*
X162450355Y-102173324D01*
X162365523Y-102258156D01*
X162304199Y-102291640D01*
X162234508Y-102286656D01*
X162190161Y-102258155D01*
X161068666Y-101136660D01*
X161035181Y-101075337D01*
X161040165Y-101005645D01*
X161082037Y-100949712D01*
X161090359Y-100943995D01*
X161106462Y-100933878D01*
X161234016Y-100806324D01*
X161329989Y-100653584D01*
X161389568Y-100483317D01*
X161395242Y-100432957D01*
X161409765Y-100304065D01*
X161409765Y-100304058D01*
X161389569Y-100124812D01*
X161389568Y-100124807D01*
X161345638Y-99999262D01*
X161329989Y-99954540D01*
X161312510Y-99926723D01*
X161234013Y-99801796D01*
X161231750Y-99798958D01*
X161230859Y-99796777D01*
X161230311Y-99795904D01*
X161230464Y-99795807D01*
X161205344Y-99734271D01*
X161204700Y-99721649D01*
X161204700Y-93388049D01*
X161224385Y-93321010D01*
X161241015Y-93300372D01*
X161808980Y-92732407D01*
X161870300Y-92698924D01*
X161939991Y-92703908D01*
G37*
G04 #@! TD.AperFunction*
G04 #@! TA.AperFunction,NonConductor*
G36*
X145788903Y-100887184D02*
G01*
X145825630Y-100942577D01*
X145841587Y-100991686D01*
X145866117Y-101067182D01*
X145920483Y-101173880D01*
X145955476Y-101242558D01*
X146071172Y-101401799D01*
X146210354Y-101540981D01*
X146369595Y-101656677D01*
X146492992Y-101719550D01*
X146546213Y-101746668D01*
X146597009Y-101794642D01*
X146613804Y-101862463D01*
X146591267Y-101928598D01*
X146546213Y-101967638D01*
X146369594Y-102057629D01*
X146333963Y-102083517D01*
X146210354Y-102173325D01*
X146210352Y-102173327D01*
X146210351Y-102173327D01*
X146071174Y-102312504D01*
X146071174Y-102312505D01*
X146071172Y-102312507D01*
X146031238Y-102367471D01*
X145955476Y-102471747D01*
X145866117Y-102647124D01*
X145866113Y-102647134D01*
X145856263Y-102677449D01*
X145826015Y-102726809D01*
X145795381Y-102757443D01*
X145734060Y-102790929D01*
X145664368Y-102785945D01*
X145608434Y-102744075D01*
X145584016Y-102678611D01*
X145583700Y-102669763D01*
X145583700Y-100980897D01*
X145603385Y-100913858D01*
X145656189Y-100868103D01*
X145725347Y-100858159D01*
X145788903Y-100887184D01*
G37*
G04 #@! TD.AperFunction*
G04 #@! TA.AperFunction,NonConductor*
G36*
X149458882Y-102874828D02*
G01*
X149481022Y-102892410D01*
X149604181Y-103015569D01*
X149637666Y-103076892D01*
X149640500Y-103103250D01*
X149640500Y-105614449D01*
X149620815Y-105681488D01*
X149613450Y-105691758D01*
X149611186Y-105694596D01*
X149515209Y-105847341D01*
X149508656Y-105866070D01*
X149467933Y-105922846D01*
X149402980Y-105948592D01*
X149334419Y-105935135D01*
X149284017Y-105886747D01*
X149267776Y-105818791D01*
X149269142Y-105805715D01*
X149275500Y-105765574D01*
X149275500Y-105568730D01*
X149244709Y-105374326D01*
X149183882Y-105187123D01*
X149113435Y-105048864D01*
X149094524Y-105011748D01*
X148978828Y-104852507D01*
X148839646Y-104713325D01*
X148760025Y-104655477D01*
X148680403Y-104597627D01*
X148503787Y-104507638D01*
X148452990Y-104459664D01*
X148436195Y-104391843D01*
X148458732Y-104325708D01*
X148503787Y-104286668D01*
X148680403Y-104196678D01*
X148680402Y-104196678D01*
X148680405Y-104196677D01*
X148839646Y-104080981D01*
X148978828Y-103941799D01*
X149094524Y-103782558D01*
X149183884Y-103607178D01*
X149244709Y-103419979D01*
X149260524Y-103320126D01*
X149275500Y-103225575D01*
X149275500Y-103028733D01*
X149270868Y-102999491D01*
X149279822Y-102930197D01*
X149324817Y-102876745D01*
X149391568Y-102856104D01*
X149458882Y-102874828D01*
G37*
G04 #@! TD.AperFunction*
G04 #@! TA.AperFunction,NonConductor*
G36*
X157710703Y-99477613D02*
G01*
X157717181Y-99483645D01*
X159196051Y-100962515D01*
X159229536Y-101023838D01*
X159224552Y-101093530D01*
X159182680Y-101149463D01*
X159117216Y-101173880D01*
X159067416Y-101167238D01*
X158929257Y-101118894D01*
X158929249Y-101118892D01*
X158750004Y-101098697D01*
X158749996Y-101098697D01*
X158570750Y-101118892D01*
X158570745Y-101118893D01*
X158400476Y-101178473D01*
X158247737Y-101274446D01*
X158120184Y-101401999D01*
X158024211Y-101554738D01*
X157964631Y-101725007D01*
X157964630Y-101725012D01*
X157944435Y-101904258D01*
X157944435Y-101904265D01*
X157964630Y-102083511D01*
X157964631Y-102083516D01*
X158024211Y-102253785D01*
X158085368Y-102351115D01*
X158120184Y-102406524D01*
X158247738Y-102534078D01*
X158400478Y-102630051D01*
X158570745Y-102689630D01*
X158657669Y-102699423D01*
X158722080Y-102726488D01*
X158731465Y-102734962D01*
X158808181Y-102811678D01*
X158841666Y-102873001D01*
X158844500Y-102899359D01*
X158844500Y-106937366D01*
X158824815Y-107004405D01*
X158772011Y-107050160D01*
X158702853Y-107060104D01*
X158669752Y-107049609D01*
X158669534Y-107050136D01*
X158665035Y-107048272D01*
X158477826Y-106987443D01*
X158283422Y-106956653D01*
X158283417Y-106956653D01*
X158086583Y-106956653D01*
X158086578Y-106956653D01*
X157892173Y-106987443D01*
X157746300Y-107034841D01*
X157704975Y-107048269D01*
X157704972Y-107048270D01*
X157704970Y-107048271D01*
X157685793Y-107058042D01*
X157617123Y-107070937D01*
X157552383Y-107044659D01*
X157512127Y-106987552D01*
X157505500Y-106947556D01*
X157505500Y-99571326D01*
X157525185Y-99504287D01*
X157577989Y-99458532D01*
X157647147Y-99448588D01*
X157710703Y-99477613D01*
G37*
G04 #@! TD.AperFunction*
G04 #@! TA.AperFunction,NonConductor*
G36*
X149281413Y-91048634D02*
G01*
X149289934Y-91056398D01*
X151960974Y-93727438D01*
X151994459Y-93788761D01*
X151989475Y-93858453D01*
X151947603Y-93914386D01*
X151939265Y-93920113D01*
X151796137Y-94010046D01*
X151668584Y-94137599D01*
X151572611Y-94290338D01*
X151513031Y-94460607D01*
X151513030Y-94460612D01*
X151492835Y-94639858D01*
X151492835Y-94639865D01*
X151513030Y-94819111D01*
X151513031Y-94819116D01*
X151572611Y-94989385D01*
X151596324Y-95027123D01*
X151668584Y-95142124D01*
X151796138Y-95269678D01*
X151948878Y-95365651D01*
X152119145Y-95425230D01*
X152206069Y-95435023D01*
X152270480Y-95462088D01*
X152279865Y-95470562D01*
X156268181Y-99458878D01*
X156301666Y-99520201D01*
X156304500Y-99546559D01*
X156304500Y-106937366D01*
X156284815Y-107004405D01*
X156232011Y-107050160D01*
X156162853Y-107060104D01*
X156129752Y-107049609D01*
X156129534Y-107050136D01*
X156125035Y-107048272D01*
X155937826Y-106987443D01*
X155743422Y-106956653D01*
X155743417Y-106956653D01*
X155546583Y-106956653D01*
X155546578Y-106956653D01*
X155352173Y-106987443D01*
X155206300Y-107034841D01*
X155164975Y-107048269D01*
X155164972Y-107048270D01*
X155164970Y-107048271D01*
X155145793Y-107058042D01*
X155077123Y-107070937D01*
X155012383Y-107044659D01*
X154972127Y-106987552D01*
X154965500Y-106947556D01*
X154965500Y-102823173D01*
X154965499Y-102823167D01*
X154956142Y-102788245D01*
X154924577Y-102670444D01*
X154877775Y-102589381D01*
X154845520Y-102533513D01*
X154733716Y-102421709D01*
X154733715Y-102421708D01*
X154729385Y-102417378D01*
X154729374Y-102417368D01*
X150293619Y-97981613D01*
X150260134Y-97920290D01*
X150257300Y-97893932D01*
X150257300Y-96227522D01*
X150257301Y-96227509D01*
X150257301Y-96059406D01*
X150223393Y-95932863D01*
X150216377Y-95906678D01*
X150154775Y-95799979D01*
X150137324Y-95769752D01*
X150137318Y-95769744D01*
X149513081Y-95145508D01*
X149513079Y-95145505D01*
X149394208Y-95026634D01*
X149394207Y-95026633D01*
X149307395Y-94976513D01*
X149307395Y-94976512D01*
X149307391Y-94976511D01*
X149257276Y-94947576D01*
X149257275Y-94947575D01*
X149257274Y-94947575D01*
X149257273Y-94947574D01*
X149178663Y-94926510D01*
X149119003Y-94890145D01*
X149100274Y-94863032D01*
X149094525Y-94851750D01*
X149094523Y-94851747D01*
X148978828Y-94692507D01*
X148839646Y-94553325D01*
X148747419Y-94486318D01*
X148680403Y-94437627D01*
X148503787Y-94347638D01*
X148452990Y-94299664D01*
X148436195Y-94231843D01*
X148458732Y-94165708D01*
X148503787Y-94126668D01*
X148680403Y-94036678D01*
X148680402Y-94036678D01*
X148680405Y-94036677D01*
X148839646Y-93920981D01*
X148978828Y-93781799D01*
X149094524Y-93622558D01*
X149183884Y-93447178D01*
X149244709Y-93259979D01*
X149257852Y-93176999D01*
X149275500Y-93065575D01*
X149275500Y-92868730D01*
X149244709Y-92674326D01*
X149183882Y-92487123D01*
X149094523Y-92311747D01*
X148978828Y-92152507D01*
X148839646Y-92013325D01*
X148760025Y-91955477D01*
X148680403Y-91897627D01*
X148503787Y-91807638D01*
X148452990Y-91759664D01*
X148436195Y-91691843D01*
X148458732Y-91625708D01*
X148503787Y-91586668D01*
X148680403Y-91496678D01*
X148680402Y-91496678D01*
X148680405Y-91496677D01*
X148839646Y-91380981D01*
X148978828Y-91241799D01*
X149094524Y-91082558D01*
X149094530Y-91082545D01*
X149096514Y-91079308D01*
X149148318Y-91032423D01*
X149217245Y-91020989D01*
X149281413Y-91048634D01*
G37*
G04 #@! TD.AperFunction*
G04 #@! TA.AperFunction,NonConductor*
G36*
X159649759Y-101430617D02*
G01*
X159691746Y-101458210D01*
X161465981Y-103232445D01*
X161499466Y-103293768D01*
X161502300Y-103320126D01*
X161502300Y-106958283D01*
X161502299Y-106958301D01*
X161502299Y-106997387D01*
X161482614Y-107064426D01*
X161429810Y-107110181D01*
X161360652Y-107120125D01*
X161322005Y-107107872D01*
X161205032Y-107048271D01*
X161017826Y-106987443D01*
X160823422Y-106956653D01*
X160823417Y-106956653D01*
X160626583Y-106956653D01*
X160626578Y-106956653D01*
X160432173Y-106987443D01*
X160286300Y-107034841D01*
X160244975Y-107048269D01*
X160244972Y-107048270D01*
X160244970Y-107048271D01*
X160225793Y-107058042D01*
X160157123Y-107070937D01*
X160092383Y-107044659D01*
X160052127Y-106987552D01*
X160045500Y-106947556D01*
X160045500Y-102520207D01*
X160045500Y-102520205D01*
X160004577Y-102367478D01*
X159978685Y-102322631D01*
X159925524Y-102230552D01*
X159925521Y-102230548D01*
X159925520Y-102230546D01*
X159813716Y-102118742D01*
X159813715Y-102118741D01*
X159809385Y-102114411D01*
X159809374Y-102114401D01*
X159580700Y-101885727D01*
X159547215Y-101824404D01*
X159545163Y-101811948D01*
X159535368Y-101725007D01*
X159487022Y-101586844D01*
X159483462Y-101517067D01*
X159518191Y-101456439D01*
X159580184Y-101424212D01*
X159649759Y-101430617D01*
G37*
G04 #@! TD.AperFunction*
G04 #@! TA.AperFunction,NonConductor*
G36*
X149276103Y-98666349D02*
G01*
X149276254Y-98666124D01*
X149276257Y-98666126D01*
X149277001Y-98666736D01*
X149281419Y-98668640D01*
X149289934Y-98676399D01*
X149295149Y-98681614D01*
X149295155Y-98681619D01*
X153728181Y-103114645D01*
X153761666Y-103175968D01*
X153764500Y-103202326D01*
X153764500Y-106937366D01*
X153744815Y-107004405D01*
X153692011Y-107050160D01*
X153622853Y-107060104D01*
X153589752Y-107049609D01*
X153589534Y-107050136D01*
X153585035Y-107048272D01*
X153397826Y-106987443D01*
X153203422Y-106956653D01*
X153203417Y-106956653D01*
X153006583Y-106956653D01*
X153006578Y-106956653D01*
X152812173Y-106987443D01*
X152624970Y-107048270D01*
X152449594Y-107137629D01*
X152358741Y-107203638D01*
X152290354Y-107253325D01*
X152290352Y-107253327D01*
X152290351Y-107253327D01*
X152151174Y-107392504D01*
X152151174Y-107392505D01*
X152151172Y-107392507D01*
X152101485Y-107460894D01*
X152035476Y-107551747D01*
X151945485Y-107728366D01*
X151897511Y-107779162D01*
X151829690Y-107795957D01*
X151763555Y-107773420D01*
X151724515Y-107728366D01*
X151684399Y-107649634D01*
X151634524Y-107551748D01*
X151518828Y-107392507D01*
X151379646Y-107253325D01*
X151220405Y-107137629D01*
X151193676Y-107124010D01*
X151045029Y-107048270D01*
X150857826Y-106987443D01*
X150853098Y-106986309D01*
X150853516Y-106984563D01*
X150797346Y-106957915D01*
X150760432Y-106898592D01*
X150761451Y-106828730D01*
X150792221Y-106777718D01*
X150870816Y-106699124D01*
X150966789Y-106546384D01*
X151026368Y-106376117D01*
X151032083Y-106325397D01*
X151046565Y-106196865D01*
X151046565Y-106196858D01*
X151026369Y-106017612D01*
X151026368Y-106017607D01*
X151006203Y-105959979D01*
X150966789Y-105847340D01*
X150948850Y-105818791D01*
X150933645Y-105794592D01*
X150870816Y-105694600D01*
X150870814Y-105694598D01*
X150870813Y-105694596D01*
X150868550Y-105691758D01*
X150867659Y-105689577D01*
X150867111Y-105688704D01*
X150867264Y-105688607D01*
X150842144Y-105627071D01*
X150841500Y-105614449D01*
X150841500Y-102724096D01*
X150841499Y-102724092D01*
X150829313Y-102678611D01*
X150827125Y-102670445D01*
X150800577Y-102571368D01*
X150740160Y-102466723D01*
X150721520Y-102434437D01*
X150609716Y-102322633D01*
X150609715Y-102322632D01*
X150605385Y-102318302D01*
X150605374Y-102318292D01*
X149278768Y-100991686D01*
X149245283Y-100930363D01*
X149243976Y-100884607D01*
X149275500Y-100685575D01*
X149275500Y-100488730D01*
X149244709Y-100294326D01*
X149207080Y-100178517D01*
X149183884Y-100107128D01*
X149183882Y-100107125D01*
X149183882Y-100107123D01*
X149094523Y-99931747D01*
X149090873Y-99926723D01*
X148978828Y-99772507D01*
X148839646Y-99633325D01*
X148720224Y-99546559D01*
X148680403Y-99517627D01*
X148503787Y-99427638D01*
X148452990Y-99379664D01*
X148436195Y-99311843D01*
X148458732Y-99245708D01*
X148503787Y-99206668D01*
X148680403Y-99116678D01*
X148680402Y-99116678D01*
X148680405Y-99116677D01*
X148839646Y-99000981D01*
X148978828Y-98861799D01*
X149094524Y-98702558D01*
X149094528Y-98702548D01*
X149096518Y-98699303D01*
X149148324Y-98652421D01*
X149217253Y-98640991D01*
X149276103Y-98666349D01*
G37*
G04 #@! TD.AperFunction*
G04 #@! TA.AperFunction,NonConductor*
G36*
X149372010Y-106026557D02*
G01*
X149423487Y-106073800D01*
X149441249Y-106141375D01*
X149440521Y-106151716D01*
X149436153Y-106190487D01*
X149435436Y-106196858D01*
X149435435Y-106196863D01*
X149435435Y-106196865D01*
X149455630Y-106376111D01*
X149455631Y-106376116D01*
X149515211Y-106546385D01*
X149562083Y-106620981D01*
X149611184Y-106699124D01*
X149738738Y-106826678D01*
X149883524Y-106917653D01*
X149891480Y-106922652D01*
X149893331Y-106923544D01*
X149894320Y-106924437D01*
X149897374Y-106926356D01*
X149897037Y-106926890D01*
X149945190Y-106970368D01*
X149963501Y-107037795D01*
X149942452Y-107104419D01*
X149912413Y-107135581D01*
X149750352Y-107253326D01*
X149611174Y-107392504D01*
X149611174Y-107392505D01*
X149611172Y-107392507D01*
X149561485Y-107460894D01*
X149495476Y-107551747D01*
X149405485Y-107728366D01*
X149357511Y-107779162D01*
X149289690Y-107795957D01*
X149223555Y-107773420D01*
X149184515Y-107728366D01*
X149144399Y-107649634D01*
X149094524Y-107551748D01*
X148978828Y-107392507D01*
X148839646Y-107253325D01*
X148684500Y-107140604D01*
X148680403Y-107137627D01*
X148503787Y-107047638D01*
X148452990Y-106999664D01*
X148436195Y-106931843D01*
X148458732Y-106865708D01*
X148503787Y-106826668D01*
X148680403Y-106736678D01*
X148680402Y-106736678D01*
X148680405Y-106736677D01*
X148839646Y-106620981D01*
X148978828Y-106481799D01*
X149094524Y-106322558D01*
X149183884Y-106147178D01*
X149199370Y-106099515D01*
X149238805Y-106041842D01*
X149303164Y-106014643D01*
X149372010Y-106026557D01*
G37*
G04 #@! TD.AperFunction*
G04 #@! TA.AperFunction,NonConductor*
G36*
X157685795Y-110356264D02*
G01*
X157704975Y-110366037D01*
X157832844Y-110407584D01*
X157892173Y-110426862D01*
X158086578Y-110457653D01*
X158086583Y-110457653D01*
X158283422Y-110457653D01*
X158477826Y-110426862D01*
X158665025Y-110366037D01*
X158665029Y-110366034D01*
X158665035Y-110366033D01*
X158669534Y-110364170D01*
X158670029Y-110365366D01*
X158732848Y-110353555D01*
X158797594Y-110379818D01*
X158837863Y-110436915D01*
X158844500Y-110476939D01*
X158844500Y-121908762D01*
X158824815Y-121975801D01*
X158772011Y-122021556D01*
X158720501Y-122032762D01*
X158547130Y-122032762D01*
X158547123Y-122032763D01*
X158487516Y-122039170D01*
X158352671Y-122089464D01*
X158352664Y-122089468D01*
X158237455Y-122175714D01*
X158237452Y-122175717D01*
X158151206Y-122290926D01*
X158151203Y-122290931D01*
X158102189Y-122422345D01*
X158060317Y-122478278D01*
X157994853Y-122502695D01*
X157926580Y-122487843D01*
X157898326Y-122466692D01*
X157776402Y-122344768D01*
X157776395Y-122344763D01*
X157582831Y-122209227D01*
X157582826Y-122209224D01*
X157577091Y-122206550D01*
X157524653Y-122160375D01*
X157505500Y-122094170D01*
X157505500Y-110466749D01*
X157525185Y-110399710D01*
X157577989Y-110353955D01*
X157647147Y-110344011D01*
X157685795Y-110356264D01*
G37*
G04 #@! TD.AperFunction*
G04 #@! TA.AperFunction,NonConductor*
G36*
X155145795Y-110356264D02*
G01*
X155164975Y-110366037D01*
X155292844Y-110407584D01*
X155352173Y-110426862D01*
X155546578Y-110457653D01*
X155546583Y-110457653D01*
X155743422Y-110457653D01*
X155937826Y-110426862D01*
X156125025Y-110366037D01*
X156125029Y-110366034D01*
X156125035Y-110366033D01*
X156129534Y-110364170D01*
X156130029Y-110365366D01*
X156192848Y-110353555D01*
X156257594Y-110379818D01*
X156297863Y-110436915D01*
X156304500Y-110476939D01*
X156304500Y-122094170D01*
X156284815Y-122161209D01*
X156232914Y-122206548D01*
X156227173Y-122209225D01*
X156227169Y-122209227D01*
X156033597Y-122344767D01*
X155866505Y-122511859D01*
X155736575Y-122697420D01*
X155681998Y-122741045D01*
X155612500Y-122748239D01*
X155550145Y-122716716D01*
X155533425Y-122697420D01*
X155403494Y-122511859D01*
X155236402Y-122344768D01*
X155236395Y-122344763D01*
X155042831Y-122209227D01*
X155042826Y-122209224D01*
X155037091Y-122206550D01*
X154984653Y-122160375D01*
X154965500Y-122094170D01*
X154965500Y-110466749D01*
X154985185Y-110399710D01*
X155037989Y-110353955D01*
X155107147Y-110344011D01*
X155145795Y-110356264D01*
G37*
G04 #@! TD.AperFunction*
G04 #@! TA.AperFunction,NonConductor*
G36*
X149276921Y-108852496D02*
G01*
X149311278Y-108913335D01*
X149314500Y-108941420D01*
X149314500Y-109305575D01*
X149345290Y-109499979D01*
X149406117Y-109687182D01*
X149495475Y-109862556D01*
X149495476Y-109862558D01*
X149611172Y-110021799D01*
X149750354Y-110160981D01*
X149909595Y-110276677D01*
X149955552Y-110300093D01*
X150084970Y-110366035D01*
X150084972Y-110366035D01*
X150084975Y-110366037D01*
X150168100Y-110393046D01*
X150272173Y-110426862D01*
X150466578Y-110457653D01*
X150466583Y-110457653D01*
X150663422Y-110457653D01*
X150857826Y-110426862D01*
X151045025Y-110366037D01*
X151220405Y-110276677D01*
X151379646Y-110160981D01*
X151518828Y-110021799D01*
X151634524Y-109862558D01*
X151723884Y-109687178D01*
X151724515Y-109685940D01*
X151772489Y-109635143D01*
X151840310Y-109618348D01*
X151906445Y-109640885D01*
X151945485Y-109685940D01*
X152035474Y-109862556D01*
X152070234Y-109910399D01*
X152151172Y-110021799D01*
X152290354Y-110160981D01*
X152449595Y-110276677D01*
X152495552Y-110300093D01*
X152624970Y-110366035D01*
X152624972Y-110366035D01*
X152624975Y-110366037D01*
X152708100Y-110393046D01*
X152812173Y-110426862D01*
X153006578Y-110457653D01*
X153006583Y-110457653D01*
X153203422Y-110457653D01*
X153397826Y-110426862D01*
X153585025Y-110366037D01*
X153585029Y-110366034D01*
X153585035Y-110366033D01*
X153589534Y-110364170D01*
X153590029Y-110365366D01*
X153652848Y-110353555D01*
X153717594Y-110379818D01*
X153757863Y-110436915D01*
X153764500Y-110476939D01*
X153764500Y-122094170D01*
X153744815Y-122161209D01*
X153692914Y-122206548D01*
X153687173Y-122209225D01*
X153687169Y-122209227D01*
X153493597Y-122344767D01*
X153326505Y-122511859D01*
X153196575Y-122697420D01*
X153141998Y-122741045D01*
X153072500Y-122748239D01*
X153010145Y-122716716D01*
X152993425Y-122697420D01*
X152863494Y-122511859D01*
X152696402Y-122344768D01*
X152696395Y-122344763D01*
X152502834Y-122209229D01*
X152502830Y-122209227D01*
X152468458Y-122193199D01*
X152288663Y-122109359D01*
X152288659Y-122109358D01*
X152288655Y-122109356D01*
X152060413Y-122048200D01*
X152060403Y-122048198D01*
X151825001Y-122027603D01*
X151824999Y-122027603D01*
X151589596Y-122048198D01*
X151589583Y-122048201D01*
X151461241Y-122082589D01*
X151391392Y-122080926D01*
X151341468Y-122050495D01*
X149711819Y-120420846D01*
X149678334Y-120359523D01*
X149675500Y-120333165D01*
X149675500Y-112368607D01*
X149675500Y-112368605D01*
X149634577Y-112215878D01*
X149634573Y-112215871D01*
X149555524Y-112078952D01*
X149555521Y-112078948D01*
X149555520Y-112078946D01*
X149443716Y-111967142D01*
X149443715Y-111967141D01*
X149439385Y-111962811D01*
X149439374Y-111962801D01*
X148509526Y-111032953D01*
X148476041Y-110971630D01*
X148473987Y-110959155D01*
X148460969Y-110843612D01*
X148460968Y-110843607D01*
X148409265Y-110695848D01*
X148401389Y-110673340D01*
X148305416Y-110520600D01*
X148177862Y-110393046D01*
X148165065Y-110385005D01*
X148025123Y-110297073D01*
X147854854Y-110237493D01*
X147854849Y-110237492D01*
X147675604Y-110217297D01*
X147675596Y-110217297D01*
X147496350Y-110237492D01*
X147496337Y-110237495D01*
X147326078Y-110297072D01*
X147319806Y-110300093D01*
X147318665Y-110297724D01*
X147262992Y-110313433D01*
X147196165Y-110293040D01*
X147156918Y-110251440D01*
X147140122Y-110222349D01*
X147140121Y-110222348D01*
X147140120Y-110222346D01*
X147028316Y-110110542D01*
X147028315Y-110110541D01*
X147023985Y-110106211D01*
X147023974Y-110106201D01*
X146523328Y-109605555D01*
X146489843Y-109544232D01*
X146494827Y-109474540D01*
X146536699Y-109418607D01*
X146602163Y-109394190D01*
X146649325Y-109399942D01*
X146701212Y-109416801D01*
X146732173Y-109426862D01*
X146926578Y-109457653D01*
X146926583Y-109457653D01*
X148123422Y-109457653D01*
X148317826Y-109426862D01*
X148343232Y-109418607D01*
X148505025Y-109366037D01*
X148680405Y-109276677D01*
X148839646Y-109160981D01*
X148978828Y-109021799D01*
X149090182Y-108868533D01*
X149145512Y-108825869D01*
X149215126Y-108819890D01*
X149276921Y-108852496D01*
G37*
G04 #@! TD.AperFunction*
G04 #@! TA.AperFunction,NonConductor*
G36*
X141825455Y-86143047D02*
G01*
X141871210Y-86195851D01*
X141881154Y-86265009D01*
X141874598Y-86290695D01*
X141831840Y-86405333D01*
X141825433Y-86464932D01*
X141825432Y-86464943D01*
X141825432Y-87015717D01*
X141825433Y-87448762D01*
X141805749Y-87515801D01*
X141752945Y-87561556D01*
X141701433Y-87572762D01*
X127069499Y-87572762D01*
X127002460Y-87553077D01*
X126956705Y-87500273D01*
X126945499Y-87448762D01*
X126945499Y-87325391D01*
X126945498Y-87325385D01*
X126945497Y-87325378D01*
X126939091Y-87265779D01*
X126928138Y-87236413D01*
X126888797Y-87130933D01*
X126888793Y-87130926D01*
X126802547Y-87015717D01*
X126802544Y-87015714D01*
X126687335Y-86929468D01*
X126687328Y-86929464D01*
X126552482Y-86879170D01*
X126552483Y-86879170D01*
X126492883Y-86872763D01*
X126492881Y-86872762D01*
X126492873Y-86872762D01*
X126492864Y-86872762D01*
X124797129Y-86872762D01*
X124797123Y-86872763D01*
X124737516Y-86879170D01*
X124602671Y-86929464D01*
X124602664Y-86929468D01*
X124487455Y-87015714D01*
X124487452Y-87015717D01*
X124401206Y-87130926D01*
X124401202Y-87130933D01*
X124350908Y-87265779D01*
X124344501Y-87325378D01*
X124344501Y-87325385D01*
X124344500Y-87325397D01*
X124344500Y-87448762D01*
X124324815Y-87515801D01*
X124272011Y-87561556D01*
X124220500Y-87572762D01*
X108069499Y-87572762D01*
X108002460Y-87553077D01*
X107956705Y-87500273D01*
X107945499Y-87448762D01*
X107945499Y-87325391D01*
X107945498Y-87325385D01*
X107945497Y-87325378D01*
X107939091Y-87265779D01*
X107928138Y-87236413D01*
X107888797Y-87130933D01*
X107888793Y-87130926D01*
X107802547Y-87015717D01*
X107802544Y-87015714D01*
X107687335Y-86929468D01*
X107687328Y-86929464D01*
X107552482Y-86879170D01*
X107552483Y-86879170D01*
X107492883Y-86872763D01*
X107492881Y-86872762D01*
X107492873Y-86872762D01*
X107492864Y-86872762D01*
X105797129Y-86872762D01*
X105797123Y-86872763D01*
X105737516Y-86879170D01*
X105602671Y-86929464D01*
X105602664Y-86929468D01*
X105487455Y-87015714D01*
X105487452Y-87015717D01*
X105401206Y-87130926D01*
X105401202Y-87130933D01*
X105350908Y-87265779D01*
X105344501Y-87325378D01*
X105344501Y-87325385D01*
X105344500Y-87325397D01*
X105344500Y-89021132D01*
X105344501Y-89021138D01*
X105350908Y-89080745D01*
X105401202Y-89215590D01*
X105401206Y-89215597D01*
X105487452Y-89330806D01*
X105487455Y-89330809D01*
X105602664Y-89417055D01*
X105602671Y-89417059D01*
X105737517Y-89467353D01*
X105737516Y-89467353D01*
X105744444Y-89468097D01*
X105797127Y-89473762D01*
X107492872Y-89473761D01*
X107552483Y-89467353D01*
X107687331Y-89417058D01*
X107802546Y-89330808D01*
X107888796Y-89215593D01*
X107939091Y-89080745D01*
X107945500Y-89021135D01*
X107945500Y-88897762D01*
X107965185Y-88830723D01*
X108017989Y-88784968D01*
X108069500Y-88773762D01*
X124220501Y-88773762D01*
X124287540Y-88793447D01*
X124333295Y-88846251D01*
X124344501Y-88897762D01*
X124344501Y-89021138D01*
X124350908Y-89080745D01*
X124401202Y-89215590D01*
X124401206Y-89215597D01*
X124487452Y-89330806D01*
X124487455Y-89330809D01*
X124602664Y-89417055D01*
X124602671Y-89417059D01*
X124737517Y-89467353D01*
X124737516Y-89467353D01*
X124744444Y-89468097D01*
X124797127Y-89473762D01*
X126492872Y-89473761D01*
X126552483Y-89467353D01*
X126687331Y-89417058D01*
X126802546Y-89330808D01*
X126888796Y-89215593D01*
X126939091Y-89080745D01*
X126945500Y-89021135D01*
X126945500Y-88897762D01*
X126965185Y-88830723D01*
X127017989Y-88784968D01*
X127069500Y-88773762D01*
X142178817Y-88773762D01*
X142178833Y-88773763D01*
X142186429Y-88773763D01*
X142344540Y-88773763D01*
X142344543Y-88773763D01*
X142497271Y-88732839D01*
X142551033Y-88701799D01*
X142634202Y-88653782D01*
X142634205Y-88653779D01*
X142638351Y-88649634D01*
X142699674Y-88616149D01*
X142726032Y-88613315D01*
X143525834Y-88613315D01*
X143592873Y-88633000D01*
X143613515Y-88649634D01*
X144705408Y-89741527D01*
X144705418Y-89741538D01*
X144709748Y-89745868D01*
X144709749Y-89745869D01*
X144821553Y-89857673D01*
X144821555Y-89857674D01*
X144821559Y-89857677D01*
X144958478Y-89936726D01*
X144958485Y-89936730D01*
X145070288Y-89966687D01*
X145111211Y-89977653D01*
X145111212Y-89977653D01*
X145685612Y-89977653D01*
X145752651Y-89997338D01*
X145798406Y-90050142D01*
X145808350Y-90119300D01*
X145806186Y-90130600D01*
X145805290Y-90134331D01*
X145774500Y-90328730D01*
X145774500Y-90525575D01*
X145805290Y-90719979D01*
X145866117Y-90907182D01*
X145924105Y-91020989D01*
X145955476Y-91082558D01*
X146071172Y-91241799D01*
X146210354Y-91380981D01*
X146369595Y-91496677D01*
X146492992Y-91559550D01*
X146546213Y-91586668D01*
X146597009Y-91634642D01*
X146613804Y-91702463D01*
X146591267Y-91768598D01*
X146546213Y-91807638D01*
X146369594Y-91897629D01*
X146278741Y-91963638D01*
X146210354Y-92013325D01*
X146210352Y-92013327D01*
X146210351Y-92013327D01*
X146071174Y-92152504D01*
X146071174Y-92152505D01*
X146071172Y-92152507D01*
X146021485Y-92220894D01*
X145955476Y-92311747D01*
X145866117Y-92487123D01*
X145805290Y-92674326D01*
X145774500Y-92868730D01*
X145774500Y-93065575D01*
X145805290Y-93259979D01*
X145866117Y-93447182D01*
X145940275Y-93592724D01*
X145955476Y-93622558D01*
X146071172Y-93781799D01*
X146071174Y-93781801D01*
X146128464Y-93839091D01*
X146161949Y-93900414D01*
X146156965Y-93970106D01*
X146128464Y-94014453D01*
X144490884Y-95652033D01*
X144429561Y-95685518D01*
X144359869Y-95680534D01*
X144303936Y-95638662D01*
X144279519Y-95573198D01*
X144290820Y-95511950D01*
X144352671Y-95379312D01*
X144411567Y-95159508D01*
X144431400Y-94932816D01*
X144411567Y-94706124D01*
X144366848Y-94539231D01*
X144352673Y-94486327D01*
X144352670Y-94486318D01*
X144256500Y-94280083D01*
X144256499Y-94280081D01*
X144125977Y-94093674D01*
X143965073Y-93932770D01*
X143778666Y-93802248D01*
X143778664Y-93802247D01*
X143572429Y-93706077D01*
X143572420Y-93706074D01*
X143352629Y-93647182D01*
X143352625Y-93647181D01*
X143352624Y-93647181D01*
X143352623Y-93647180D01*
X143352618Y-93647180D01*
X143125934Y-93627348D01*
X143125930Y-93627348D01*
X142899245Y-93647180D01*
X142899234Y-93647182D01*
X142679443Y-93706074D01*
X142679434Y-93706077D01*
X142473199Y-93802247D01*
X142473197Y-93802248D01*
X142286790Y-93932770D01*
X142125886Y-94093674D01*
X141995364Y-94280081D01*
X141995363Y-94280083D01*
X141899193Y-94486318D01*
X141899190Y-94486327D01*
X141840298Y-94706118D01*
X141840296Y-94706129D01*
X141820464Y-94932814D01*
X141820464Y-94932817D01*
X141840296Y-95159502D01*
X141840298Y-95159513D01*
X141899190Y-95379304D01*
X141899193Y-95379313D01*
X141995363Y-95585548D01*
X141995364Y-95585550D01*
X142125886Y-95771957D01*
X142286790Y-95932861D01*
X142286793Y-95932863D01*
X142472556Y-96062934D01*
X142516180Y-96117509D01*
X142525432Y-96164508D01*
X142525432Y-96522081D01*
X142505747Y-96589120D01*
X142489113Y-96609762D01*
X140927286Y-98171588D01*
X140865963Y-98205073D01*
X140796271Y-98200089D01*
X140740338Y-98158217D01*
X140717988Y-98108098D01*
X140697681Y-98006007D01*
X140681880Y-97926571D01*
X140584945Y-97641010D01*
X140548510Y-97567128D01*
X140451568Y-97370548D01*
X140451567Y-97370547D01*
X140451566Y-97370544D01*
X140284025Y-97119801D01*
X140284023Y-97119799D01*
X140282115Y-97116943D01*
X140261237Y-97050265D01*
X140279722Y-96982885D01*
X140312332Y-96947734D01*
X140314887Y-96945877D01*
X140314890Y-96945876D01*
X140458214Y-96841745D01*
X140583483Y-96716476D01*
X140687614Y-96573152D01*
X140768042Y-96415304D01*
X140822786Y-96246817D01*
X140850500Y-96071841D01*
X140850500Y-95894683D01*
X140822786Y-95719707D01*
X140785701Y-95605570D01*
X140768043Y-95551222D01*
X140768042Y-95551219D01*
X140722627Y-95462088D01*
X140687614Y-95393372D01*
X140583483Y-95250048D01*
X140458214Y-95124779D01*
X140314890Y-95020648D01*
X140157042Y-94940219D01*
X140157039Y-94940218D01*
X139988556Y-94885476D01*
X139901067Y-94871619D01*
X139813579Y-94857762D01*
X139636421Y-94857762D01*
X139578095Y-94867000D01*
X139461443Y-94885476D01*
X139292960Y-94940218D01*
X139292957Y-94940219D01*
X139135109Y-95020648D01*
X139053338Y-95080058D01*
X138991786Y-95124779D01*
X138991784Y-95124781D01*
X138991783Y-95124781D01*
X138866519Y-95250045D01*
X138866519Y-95250046D01*
X138866517Y-95250048D01*
X138852256Y-95269677D01*
X138762386Y-95393371D01*
X138681957Y-95551219D01*
X138681956Y-95551222D01*
X138627214Y-95719705D01*
X138599500Y-95894683D01*
X138599500Y-96071838D01*
X138600104Y-96075654D01*
X138591144Y-96144947D01*
X138546144Y-96198395D01*
X138479391Y-96219030D01*
X138469529Y-96218778D01*
X138455000Y-96217826D01*
X138154080Y-96237549D01*
X138154079Y-96237549D01*
X138154069Y-96237550D01*
X137858316Y-96296380D01*
X137858301Y-96296384D01*
X137572752Y-96393315D01*
X137572731Y-96393324D01*
X137302286Y-96526693D01*
X137302279Y-96526697D01*
X137051540Y-96694235D01*
X137009654Y-96730968D01*
X136946272Y-96760370D01*
X136877055Y-96750837D01*
X136823981Y-96705397D01*
X136803898Y-96638476D01*
X136808120Y-96605651D01*
X136856993Y-96423255D01*
X136895500Y-96130768D01*
X136895500Y-95835756D01*
X136856993Y-95543269D01*
X136780639Y-95258310D01*
X136667743Y-94985755D01*
X136649480Y-94954123D01*
X136520238Y-94730268D01*
X136340647Y-94496221D01*
X136340641Y-94496214D01*
X136132047Y-94287620D01*
X136132040Y-94287614D01*
X135897993Y-94108023D01*
X135642510Y-93960520D01*
X135642500Y-93960516D01*
X135369961Y-93847626D01*
X135369954Y-93847624D01*
X135369952Y-93847623D01*
X135084993Y-93771269D01*
X135036113Y-93764833D01*
X134792513Y-93732762D01*
X134792506Y-93732762D01*
X134497494Y-93732762D01*
X134497486Y-93732762D01*
X134219085Y-93769415D01*
X134205007Y-93771269D01*
X134037131Y-93816251D01*
X133920048Y-93847623D01*
X133920038Y-93847626D01*
X133647499Y-93960516D01*
X133647489Y-93960520D01*
X133392006Y-94108023D01*
X133157959Y-94287614D01*
X133157952Y-94287620D01*
X132949358Y-94496214D01*
X132949352Y-94496221D01*
X132769761Y-94730268D01*
X132622258Y-94985751D01*
X132622254Y-94985761D01*
X132509364Y-95258300D01*
X132509361Y-95258310D01*
X132462012Y-95435022D01*
X132433008Y-95543266D01*
X132433006Y-95543277D01*
X132394500Y-95835748D01*
X132394500Y-96130775D01*
X132416304Y-96296384D01*
X132433007Y-96423255D01*
X132505616Y-96694237D01*
X132509361Y-96708213D01*
X132509364Y-96708223D01*
X132622254Y-96980762D01*
X132622258Y-96980772D01*
X132769761Y-97236255D01*
X132949352Y-97470302D01*
X132949358Y-97470309D01*
X133157952Y-97678903D01*
X133157959Y-97678909D01*
X133392006Y-97858500D01*
X133647489Y-98006003D01*
X133647490Y-98006003D01*
X133647493Y-98006005D01*
X133920048Y-98118901D01*
X134205007Y-98195255D01*
X134497494Y-98233762D01*
X134497501Y-98233762D01*
X134792499Y-98233762D01*
X134792506Y-98233762D01*
X135084993Y-98195255D01*
X135369952Y-98118901D01*
X135642507Y-98006005D01*
X135897994Y-97858500D01*
X136051339Y-97740833D01*
X136116507Y-97715639D01*
X136184952Y-97729677D01*
X136234942Y-97778491D01*
X136250606Y-97846582D01*
X136244245Y-97879066D01*
X136228121Y-97926566D01*
X136228118Y-97926578D01*
X136169288Y-98222331D01*
X136169287Y-98222341D01*
X136169287Y-98222342D01*
X136149564Y-98523262D01*
X136161315Y-98702558D01*
X136169287Y-98824180D01*
X136169288Y-98824192D01*
X136228118Y-99119945D01*
X136228122Y-99119960D01*
X136325053Y-99405509D01*
X136325062Y-99405530D01*
X136458431Y-99675975D01*
X136458435Y-99675982D01*
X136625973Y-99926721D01*
X136824810Y-100153451D01*
X136929810Y-100245534D01*
X136967234Y-100304536D01*
X136966818Y-100374405D01*
X136928694Y-100432957D01*
X136864967Y-100461603D01*
X136848051Y-100462762D01*
X134419444Y-100462762D01*
X134352405Y-100443077D01*
X134306650Y-100390273D01*
X134302025Y-100378621D01*
X134276876Y-100304536D01*
X134234945Y-100181010D01*
X134221354Y-100153451D01*
X134101568Y-99910548D01*
X134101564Y-99910541D01*
X133934026Y-99659802D01*
X133735189Y-99433072D01*
X133508459Y-99234235D01*
X133257720Y-99066697D01*
X133257713Y-99066693D01*
X132987268Y-98933324D01*
X132987247Y-98933315D01*
X132701698Y-98836384D01*
X132701692Y-98836382D01*
X132701691Y-98836382D01*
X132701689Y-98836381D01*
X132701683Y-98836380D01*
X132405930Y-98777550D01*
X132405921Y-98777549D01*
X132405920Y-98777549D01*
X132105000Y-98757826D01*
X131804080Y-98777549D01*
X131804079Y-98777549D01*
X131804069Y-98777550D01*
X131508316Y-98836380D01*
X131508301Y-98836384D01*
X131222752Y-98933315D01*
X131222731Y-98933324D01*
X130952286Y-99066693D01*
X130952279Y-99066697D01*
X130701540Y-99234235D01*
X130474810Y-99433072D01*
X130275973Y-99659802D01*
X130108435Y-99910541D01*
X130108431Y-99910548D01*
X129975062Y-100180993D01*
X129975053Y-100181014D01*
X129878122Y-100466563D01*
X129878118Y-100466578D01*
X129819288Y-100762331D01*
X129819287Y-100762341D01*
X129819287Y-100762342D01*
X129799564Y-101063262D01*
X129813405Y-101274446D01*
X129819287Y-101364180D01*
X129819288Y-101364192D01*
X129878118Y-101659945D01*
X129878122Y-101659960D01*
X129975053Y-101945509D01*
X129975062Y-101945530D01*
X130108431Y-102215975D01*
X130108435Y-102215982D01*
X130275973Y-102466721D01*
X130474810Y-102693451D01*
X130701540Y-102892288D01*
X130952279Y-103059826D01*
X130952286Y-103059830D01*
X131222731Y-103193199D01*
X131222736Y-103193201D01*
X131222748Y-103193207D01*
X131508309Y-103290142D01*
X131708251Y-103329913D01*
X131804069Y-103348973D01*
X131804070Y-103348973D01*
X131804080Y-103348975D01*
X132105000Y-103368698D01*
X132405920Y-103348975D01*
X132701691Y-103290142D01*
X132987252Y-103193207D01*
X133257718Y-103059828D01*
X133508461Y-102892287D01*
X133735189Y-102693451D01*
X133934025Y-102466723D01*
X134101566Y-102215980D01*
X134234945Y-101945514D01*
X134302025Y-101747903D01*
X134342214Y-101690749D01*
X134406923Y-101664396D01*
X134419444Y-101663762D01*
X138798180Y-101663762D01*
X138798196Y-101663763D01*
X138805792Y-101663763D01*
X138963903Y-101663763D01*
X138963906Y-101663763D01*
X139116634Y-101622839D01*
X139166753Y-101593901D01*
X139253565Y-101543782D01*
X139365369Y-101431978D01*
X139365369Y-101431976D01*
X139375577Y-101421769D01*
X139375578Y-101421766D01*
X143053421Y-97743924D01*
X143114742Y-97710441D01*
X143184434Y-97715425D01*
X143240367Y-97757297D01*
X143264784Y-97822761D01*
X143265100Y-97831607D01*
X143265100Y-99416849D01*
X143245415Y-99483888D01*
X143238050Y-99494158D01*
X143235786Y-99496996D01*
X143139811Y-99649738D01*
X143080231Y-99820007D01*
X143080230Y-99820012D01*
X143060035Y-99999258D01*
X143060035Y-99999265D01*
X143080230Y-100178511D01*
X143080231Y-100178516D01*
X143139811Y-100348785D01*
X143213826Y-100466578D01*
X143235784Y-100501524D01*
X143363338Y-100629078D01*
X143402339Y-100653584D01*
X143514618Y-100724134D01*
X143516078Y-100725051D01*
X143686339Y-100784628D01*
X143686345Y-100784630D01*
X143686350Y-100784631D01*
X143865596Y-100804827D01*
X143865600Y-100804827D01*
X143865604Y-100804827D01*
X144044849Y-100784631D01*
X144044851Y-100784630D01*
X144044855Y-100784630D01*
X144044858Y-100784628D01*
X144044862Y-100784628D01*
X144217745Y-100724134D01*
X144287524Y-100720572D01*
X144348151Y-100755300D01*
X144380379Y-100817294D01*
X144382700Y-100841175D01*
X144382700Y-104981825D01*
X144363015Y-105048864D01*
X144310211Y-105094619D01*
X144241053Y-105104563D01*
X144184389Y-105081092D01*
X144168262Y-105069019D01*
X144168260Y-105069018D01*
X144033414Y-105018724D01*
X144033415Y-105018724D01*
X143973815Y-105012317D01*
X143973813Y-105012316D01*
X143973805Y-105012316D01*
X143973797Y-105012316D01*
X143850432Y-105012316D01*
X143783393Y-104992631D01*
X143737638Y-104939827D01*
X143726432Y-104888316D01*
X143726432Y-104506115D01*
X143745439Y-104440142D01*
X143778588Y-104387386D01*
X143838168Y-104217116D01*
X143838169Y-104217111D01*
X143858365Y-104037865D01*
X143858365Y-104037858D01*
X143838169Y-103858612D01*
X143838168Y-103858607D01*
X143778588Y-103688338D01*
X143682615Y-103535599D01*
X143555062Y-103408046D01*
X143402323Y-103312073D01*
X143232054Y-103252493D01*
X143232049Y-103252492D01*
X143052804Y-103232297D01*
X143052796Y-103232297D01*
X142873550Y-103252492D01*
X142873545Y-103252493D01*
X142703276Y-103312073D01*
X142550537Y-103408046D01*
X142422984Y-103535599D01*
X142327011Y-103688338D01*
X142267431Y-103858607D01*
X142267430Y-103858612D01*
X142247235Y-104037858D01*
X142247235Y-104037865D01*
X142267430Y-104217111D01*
X142267431Y-104217116D01*
X142327011Y-104387385D01*
X142422984Y-104540124D01*
X142489113Y-104606253D01*
X142522598Y-104667576D01*
X142525432Y-104693934D01*
X142525432Y-104888316D01*
X142505747Y-104955355D01*
X142452943Y-105001110D01*
X142401433Y-105012316D01*
X142278062Y-105012316D01*
X142278055Y-105012317D01*
X142218448Y-105018724D01*
X142083603Y-105069018D01*
X142083596Y-105069022D01*
X141968387Y-105155268D01*
X141968384Y-105155271D01*
X141882138Y-105270480D01*
X141882134Y-105270487D01*
X141831840Y-105405333D01*
X141825433Y-105464932D01*
X141825432Y-105464943D01*
X141825432Y-106017612D01*
X141825433Y-106448762D01*
X141805749Y-106515801D01*
X141752945Y-106561556D01*
X141701433Y-106572762D01*
X127069499Y-106572762D01*
X127002460Y-106553077D01*
X126956705Y-106500273D01*
X126945499Y-106448762D01*
X126945499Y-106325391D01*
X126945498Y-106325385D01*
X126945497Y-106325378D01*
X126939091Y-106265779D01*
X126896548Y-106151716D01*
X126888797Y-106130933D01*
X126888793Y-106130926D01*
X126802547Y-106015717D01*
X126802544Y-106015714D01*
X126687335Y-105929468D01*
X126687328Y-105929464D01*
X126552482Y-105879170D01*
X126552483Y-105879170D01*
X126492883Y-105872763D01*
X126492881Y-105872762D01*
X126492873Y-105872762D01*
X126492864Y-105872762D01*
X124797129Y-105872762D01*
X124797123Y-105872763D01*
X124737516Y-105879170D01*
X124602671Y-105929464D01*
X124602664Y-105929468D01*
X124487455Y-106015714D01*
X124487452Y-106015717D01*
X124401206Y-106130926D01*
X124401202Y-106130933D01*
X124350908Y-106265779D01*
X124344804Y-106322558D01*
X124344501Y-106325385D01*
X124344500Y-106325397D01*
X124344500Y-106448762D01*
X124324815Y-106515801D01*
X124272011Y-106561556D01*
X124220500Y-106572762D01*
X108069499Y-106572762D01*
X108002460Y-106553077D01*
X107956705Y-106500273D01*
X107945499Y-106448762D01*
X107945499Y-106325391D01*
X107945498Y-106325385D01*
X107945497Y-106325378D01*
X107939091Y-106265779D01*
X107896548Y-106151716D01*
X107888797Y-106130933D01*
X107888793Y-106130926D01*
X107802547Y-106015717D01*
X107802544Y-106015714D01*
X107687335Y-105929468D01*
X107687328Y-105929464D01*
X107552482Y-105879170D01*
X107552483Y-105879170D01*
X107492883Y-105872763D01*
X107492881Y-105872762D01*
X107492873Y-105872762D01*
X107492864Y-105872762D01*
X105797129Y-105872762D01*
X105797123Y-105872763D01*
X105737516Y-105879170D01*
X105602671Y-105929464D01*
X105602664Y-105929468D01*
X105487455Y-106015714D01*
X105487452Y-106015717D01*
X105401206Y-106130926D01*
X105401202Y-106130933D01*
X105350908Y-106265779D01*
X105344804Y-106322558D01*
X105344501Y-106325385D01*
X105344500Y-106325397D01*
X105344500Y-108021132D01*
X105344501Y-108021138D01*
X105350908Y-108080745D01*
X105401202Y-108215590D01*
X105401206Y-108215597D01*
X105487452Y-108330806D01*
X105487455Y-108330809D01*
X105602664Y-108417055D01*
X105602671Y-108417059D01*
X105737517Y-108467353D01*
X105737516Y-108467353D01*
X105744444Y-108468097D01*
X105797127Y-108473762D01*
X107492872Y-108473761D01*
X107552483Y-108467353D01*
X107687331Y-108417058D01*
X107802546Y-108330808D01*
X107888796Y-108215593D01*
X107939091Y-108080745D01*
X107945500Y-108021135D01*
X107945500Y-107897762D01*
X107965185Y-107830723D01*
X108017989Y-107784968D01*
X108069500Y-107773762D01*
X124220501Y-107773762D01*
X124287540Y-107793447D01*
X124333295Y-107846251D01*
X124344501Y-107897762D01*
X124344501Y-108021138D01*
X124350908Y-108080745D01*
X124401202Y-108215590D01*
X124401206Y-108215597D01*
X124487452Y-108330806D01*
X124487455Y-108330809D01*
X124602664Y-108417055D01*
X124602671Y-108417059D01*
X124737517Y-108467353D01*
X124737516Y-108467353D01*
X124744444Y-108468097D01*
X124797127Y-108473762D01*
X126492872Y-108473761D01*
X126552483Y-108467353D01*
X126687331Y-108417058D01*
X126802546Y-108330808D01*
X126888796Y-108215593D01*
X126939091Y-108080745D01*
X126945500Y-108021135D01*
X126945500Y-107897762D01*
X126965185Y-107830723D01*
X127017989Y-107784968D01*
X127069500Y-107773762D01*
X142178817Y-107773762D01*
X142178833Y-107773763D01*
X142186429Y-107773763D01*
X142344540Y-107773763D01*
X142344543Y-107773763D01*
X142497271Y-107732839D01*
X142547390Y-107703901D01*
X142634202Y-107653782D01*
X142634205Y-107653779D01*
X142638351Y-107649634D01*
X142699674Y-107616149D01*
X142726032Y-107613315D01*
X143973803Y-107613315D01*
X143973804Y-107613315D01*
X144033415Y-107606907D01*
X144168263Y-107556612D01*
X144184389Y-107544539D01*
X144249850Y-107520122D01*
X144318123Y-107534972D01*
X144367530Y-107584375D01*
X144382700Y-107643806D01*
X144382700Y-110377392D01*
X144382699Y-110377410D01*
X144382699Y-110543116D01*
X144382698Y-110543116D01*
X144382699Y-110543119D01*
X144423623Y-110695847D01*
X144423624Y-110695848D01*
X144436608Y-110718339D01*
X144436609Y-110718340D01*
X144502675Y-110832771D01*
X144502681Y-110832779D01*
X144621549Y-110951647D01*
X144621555Y-110951652D01*
X145338181Y-111668278D01*
X145371666Y-111729601D01*
X145374500Y-111755959D01*
X145374500Y-119355322D01*
X145354815Y-119422361D01*
X145302011Y-119468116D01*
X145232853Y-119478060D01*
X145169297Y-119449035D01*
X145162819Y-119443003D01*
X145104462Y-119384646D01*
X144951723Y-119288673D01*
X144781454Y-119229093D01*
X144781449Y-119229092D01*
X144602204Y-119208897D01*
X144602196Y-119208897D01*
X144422950Y-119229092D01*
X144422945Y-119229093D01*
X144252676Y-119288673D01*
X144099937Y-119384646D01*
X143972384Y-119512199D01*
X143876410Y-119664940D01*
X143816830Y-119835212D01*
X143807037Y-119922130D01*
X143779970Y-119986544D01*
X143771498Y-119995927D01*
X142757218Y-121010208D01*
X142645413Y-121122012D01*
X142645411Y-121122015D01*
X142605594Y-121190982D01*
X142605593Y-121190983D01*
X142591164Y-121215975D01*
X142566355Y-121258945D01*
X142525431Y-121411673D01*
X142525431Y-121411675D01*
X142525431Y-121579776D01*
X142525432Y-121579789D01*
X142525432Y-122698316D01*
X142505747Y-122765355D01*
X142452943Y-122811110D01*
X142401433Y-122822316D01*
X142278062Y-122822316D01*
X142278055Y-122822317D01*
X142218448Y-122828724D01*
X142083603Y-122879018D01*
X142083596Y-122879022D01*
X141968387Y-122965268D01*
X141968384Y-122965271D01*
X141882138Y-123080480D01*
X141882134Y-123080487D01*
X141831840Y-123215333D01*
X141825433Y-123274932D01*
X141825433Y-123274939D01*
X141825432Y-123274951D01*
X141825432Y-124522717D01*
X141805747Y-124589756D01*
X141789113Y-124610398D01*
X140863070Y-125536443D01*
X140801747Y-125569928D01*
X140775389Y-125572762D01*
X127069499Y-125572762D01*
X127002460Y-125553077D01*
X126956705Y-125500273D01*
X126945499Y-125448762D01*
X126945499Y-125325391D01*
X126945498Y-125325385D01*
X126945497Y-125325378D01*
X126939091Y-125265779D01*
X126901559Y-125165151D01*
X126888797Y-125130933D01*
X126888793Y-125130926D01*
X126802547Y-125015717D01*
X126802544Y-125015714D01*
X126687335Y-124929468D01*
X126687328Y-124929464D01*
X126552482Y-124879170D01*
X126552483Y-124879170D01*
X126492883Y-124872763D01*
X126492881Y-124872762D01*
X126492873Y-124872762D01*
X126492864Y-124872762D01*
X124797129Y-124872762D01*
X124797123Y-124872763D01*
X124737516Y-124879170D01*
X124602671Y-124929464D01*
X124602664Y-124929468D01*
X124487455Y-125015714D01*
X124487452Y-125015717D01*
X124401206Y-125130926D01*
X124401202Y-125130933D01*
X124350908Y-125265779D01*
X124344501Y-125325378D01*
X124344501Y-125325385D01*
X124344500Y-125325397D01*
X124344500Y-125448762D01*
X124324815Y-125515801D01*
X124272011Y-125561556D01*
X124220500Y-125572762D01*
X108069499Y-125572762D01*
X108002460Y-125553077D01*
X107956705Y-125500273D01*
X107945499Y-125448762D01*
X107945499Y-125325391D01*
X107945498Y-125325385D01*
X107945497Y-125325378D01*
X107939091Y-125265779D01*
X107901559Y-125165151D01*
X107888797Y-125130933D01*
X107888793Y-125130926D01*
X107802547Y-125015717D01*
X107802544Y-125015714D01*
X107687335Y-124929468D01*
X107687328Y-124929464D01*
X107552482Y-124879170D01*
X107552483Y-124879170D01*
X107492883Y-124872763D01*
X107492881Y-124872762D01*
X107492873Y-124872762D01*
X107492864Y-124872762D01*
X105797129Y-124872762D01*
X105797123Y-124872763D01*
X105737516Y-124879170D01*
X105602671Y-124929464D01*
X105602664Y-124929468D01*
X105487455Y-125015714D01*
X105487452Y-125015717D01*
X105401206Y-125130926D01*
X105401202Y-125130933D01*
X105350908Y-125265779D01*
X105344501Y-125325378D01*
X105344501Y-125325385D01*
X105344500Y-125325397D01*
X105344500Y-127021132D01*
X105344501Y-127021138D01*
X105350908Y-127080745D01*
X105401202Y-127215590D01*
X105401206Y-127215597D01*
X105487452Y-127330806D01*
X105487455Y-127330809D01*
X105602664Y-127417055D01*
X105602671Y-127417059D01*
X105737517Y-127467353D01*
X105737516Y-127467353D01*
X105744444Y-127468097D01*
X105797127Y-127473762D01*
X107492872Y-127473761D01*
X107552483Y-127467353D01*
X107687331Y-127417058D01*
X107802546Y-127330808D01*
X107888796Y-127215593D01*
X107939091Y-127080745D01*
X107945500Y-127021135D01*
X107945500Y-126897762D01*
X107965185Y-126830723D01*
X108017989Y-126784968D01*
X108069500Y-126773762D01*
X124220501Y-126773762D01*
X124287540Y-126793447D01*
X124333295Y-126846251D01*
X124344501Y-126897762D01*
X124344501Y-127021138D01*
X124350908Y-127080745D01*
X124401202Y-127215590D01*
X124401206Y-127215597D01*
X124487452Y-127330806D01*
X124487455Y-127330809D01*
X124602664Y-127417055D01*
X124602671Y-127417059D01*
X124737517Y-127467353D01*
X124737516Y-127467353D01*
X124744444Y-127468097D01*
X124797127Y-127473762D01*
X126492872Y-127473761D01*
X126552483Y-127467353D01*
X126687331Y-127417058D01*
X126802546Y-127330808D01*
X126888796Y-127215593D01*
X126939091Y-127080745D01*
X126945500Y-127021135D01*
X126945500Y-126897762D01*
X126965185Y-126830723D01*
X127017989Y-126784968D01*
X127069500Y-126773762D01*
X140988817Y-126773762D01*
X140988833Y-126773763D01*
X140996429Y-126773763D01*
X141154540Y-126773763D01*
X141154543Y-126773763D01*
X141307271Y-126732839D01*
X141357390Y-126703901D01*
X141444202Y-126653782D01*
X141556006Y-126541978D01*
X141556006Y-126541976D01*
X141566214Y-126531769D01*
X141566216Y-126531766D01*
X142638348Y-125459634D01*
X142699671Y-125426149D01*
X142726029Y-125423315D01*
X143973803Y-125423315D01*
X143973804Y-125423315D01*
X144033415Y-125416907D01*
X144168263Y-125366612D01*
X144283478Y-125280362D01*
X144369728Y-125165147D01*
X144420023Y-125030299D01*
X144426432Y-124970689D01*
X144426431Y-123274944D01*
X144420023Y-123215333D01*
X144411440Y-123192322D01*
X144369729Y-123080487D01*
X144369725Y-123080480D01*
X144283479Y-122965271D01*
X144283476Y-122965268D01*
X144168267Y-122879022D01*
X144168260Y-122879018D01*
X144033414Y-122828724D01*
X144033415Y-122828724D01*
X143973815Y-122822317D01*
X143973813Y-122822316D01*
X143973805Y-122822316D01*
X143973797Y-122822316D01*
X143850432Y-122822316D01*
X143783393Y-122802631D01*
X143737638Y-122749827D01*
X143726432Y-122698316D01*
X143726432Y-121790826D01*
X143746117Y-121723787D01*
X143762747Y-121703149D01*
X144620735Y-120845160D01*
X144682056Y-120811677D01*
X144694511Y-120809625D01*
X144781455Y-120799830D01*
X144951722Y-120740251D01*
X145104462Y-120644278D01*
X145162819Y-120585921D01*
X145224142Y-120552436D01*
X145293834Y-120557420D01*
X145349767Y-120599292D01*
X145374184Y-120664756D01*
X145374500Y-120673602D01*
X145374500Y-129808392D01*
X145374499Y-129808410D01*
X145374499Y-129974116D01*
X145374498Y-129974116D01*
X145415423Y-130126847D01*
X145444358Y-130176962D01*
X145444359Y-130176966D01*
X145444360Y-130176966D01*
X145494479Y-130263776D01*
X145494481Y-130263779D01*
X145613349Y-130382647D01*
X145613355Y-130382652D01*
X146601984Y-131371281D01*
X146635469Y-131432604D01*
X146630485Y-131502296D01*
X146588613Y-131558229D01*
X146523149Y-131582646D01*
X146514303Y-131582962D01*
X146245530Y-131582962D01*
X146245523Y-131582963D01*
X146185916Y-131589370D01*
X146051071Y-131639664D01*
X146051064Y-131639668D01*
X145935855Y-131725914D01*
X145935852Y-131725917D01*
X145849606Y-131841126D01*
X145849602Y-131841133D01*
X145799308Y-131975979D01*
X145795595Y-132010519D01*
X145792901Y-132035585D01*
X145792900Y-132035597D01*
X145792900Y-134131332D01*
X145792901Y-134131338D01*
X145799308Y-134190945D01*
X145849602Y-134325790D01*
X145849606Y-134325797D01*
X145935852Y-134441006D01*
X145935853Y-134441006D01*
X145935854Y-134441008D01*
X145978933Y-134473257D01*
X146051986Y-134527945D01*
X146093856Y-134583879D01*
X146098840Y-134653570D01*
X146081483Y-134695032D01*
X145969226Y-134866855D01*
X145869336Y-135094580D01*
X145808292Y-135335637D01*
X145808290Y-135335649D01*
X145787757Y-135583456D01*
X145787757Y-135583467D01*
X145808290Y-135831274D01*
X145808292Y-135831286D01*
X145869336Y-136072343D01*
X145969226Y-136300068D01*
X146105233Y-136508244D01*
X146105236Y-136508247D01*
X146273656Y-136691200D01*
X146330712Y-136735609D01*
X146371525Y-136792319D01*
X146375200Y-136862092D01*
X146340569Y-136922775D01*
X146330717Y-136931310D01*
X146290683Y-136962470D01*
X146273657Y-136975723D01*
X146105233Y-137158679D01*
X145969226Y-137366855D01*
X145869336Y-137594580D01*
X145808292Y-137835637D01*
X145808290Y-137835649D01*
X145787757Y-138083456D01*
X145787757Y-138083467D01*
X145808290Y-138331274D01*
X145808292Y-138331286D01*
X145869336Y-138572343D01*
X145969226Y-138800068D01*
X146105233Y-139008244D01*
X146105236Y-139008247D01*
X146273656Y-139191200D01*
X146469891Y-139343936D01*
X146469893Y-139343937D01*
X146599690Y-139414180D01*
X146688590Y-139462290D01*
X146923786Y-139543033D01*
X147169065Y-139583962D01*
X147417735Y-139583962D01*
X147663014Y-139543033D01*
X147898210Y-139462290D01*
X148116909Y-139343936D01*
X148313144Y-139191200D01*
X148481564Y-139008247D01*
X148617573Y-138800069D01*
X148717463Y-138572343D01*
X148778508Y-138331283D01*
X148778509Y-138331274D01*
X148799043Y-138083467D01*
X148799043Y-138083456D01*
X148778509Y-137835649D01*
X148778507Y-137835637D01*
X148717463Y-137594580D01*
X148617573Y-137366855D01*
X148481566Y-137158679D01*
X148320140Y-136983324D01*
X148313144Y-136975724D01*
X148256085Y-136931313D01*
X148215274Y-136874605D01*
X148211599Y-136804832D01*
X148246230Y-136744149D01*
X148256075Y-136735618D01*
X148313144Y-136691200D01*
X148481564Y-136508247D01*
X148617573Y-136300069D01*
X148717463Y-136072343D01*
X148778508Y-135831283D01*
X148778509Y-135831274D01*
X148799043Y-135583467D01*
X148799043Y-135583456D01*
X148778509Y-135335649D01*
X148778507Y-135335637D01*
X148717463Y-135094580D01*
X148617573Y-134866855D01*
X148505316Y-134695032D01*
X148485129Y-134628143D01*
X148504309Y-134560957D01*
X148534814Y-134527944D01*
X148535729Y-134527258D01*
X148535731Y-134527258D01*
X148650946Y-134441008D01*
X148737196Y-134325793D01*
X148787491Y-134190945D01*
X148793900Y-134131335D01*
X148793899Y-132035590D01*
X148787491Y-131975979D01*
X148785079Y-131969513D01*
X148737197Y-131841133D01*
X148737193Y-131841126D01*
X148650947Y-131725917D01*
X148650944Y-131725914D01*
X148535735Y-131639668D01*
X148535728Y-131639664D01*
X148400882Y-131589370D01*
X148400883Y-131589370D01*
X148341283Y-131582963D01*
X148341281Y-131582962D01*
X148341273Y-131582962D01*
X148341265Y-131582962D01*
X148017900Y-131582962D01*
X147950861Y-131563277D01*
X147905106Y-131510473D01*
X147893900Y-131458962D01*
X147893900Y-131134407D01*
X147893900Y-131134405D01*
X147872084Y-131052986D01*
X147852977Y-130981677D01*
X147824039Y-130931557D01*
X147773920Y-130844746D01*
X147662116Y-130732942D01*
X147662115Y-130732941D01*
X147657785Y-130728611D01*
X147657774Y-130728601D01*
X146611819Y-129682646D01*
X146578334Y-129621323D01*
X146575500Y-129594965D01*
X146575500Y-128935597D01*
X152692900Y-128935597D01*
X152692900Y-131031332D01*
X152692901Y-131031338D01*
X152699308Y-131090945D01*
X152749602Y-131225790D01*
X152749606Y-131225797D01*
X152835852Y-131341006D01*
X152835855Y-131341009D01*
X152951064Y-131427255D01*
X152951071Y-131427259D01*
X153085917Y-131477553D01*
X153085916Y-131477553D01*
X153092844Y-131478297D01*
X153145527Y-131483962D01*
X156441272Y-131483961D01*
X156500883Y-131477553D01*
X156635731Y-131427258D01*
X156750946Y-131341008D01*
X156837196Y-131225793D01*
X156887491Y-131090945D01*
X156893900Y-131031335D01*
X156893899Y-128935590D01*
X156887491Y-128875979D01*
X156837196Y-128741131D01*
X156837195Y-128741130D01*
X156837193Y-128741126D01*
X156750947Y-128625917D01*
X156750944Y-128625914D01*
X156635735Y-128539668D01*
X156635728Y-128539664D01*
X156500882Y-128489370D01*
X156500883Y-128489370D01*
X156441283Y-128482963D01*
X156441281Y-128482962D01*
X156441273Y-128482962D01*
X156441264Y-128482962D01*
X153145529Y-128482962D01*
X153145523Y-128482963D01*
X153085916Y-128489370D01*
X152951071Y-128539664D01*
X152951064Y-128539668D01*
X152835855Y-128625914D01*
X152835852Y-128625917D01*
X152749606Y-128741126D01*
X152749602Y-128741133D01*
X152699308Y-128875979D01*
X152692901Y-128935578D01*
X152692901Y-128935585D01*
X152692900Y-128935597D01*
X146575500Y-128935597D01*
X146575500Y-126108159D01*
X146595185Y-126041120D01*
X146647989Y-125995365D01*
X146717147Y-125985421D01*
X146780703Y-126014446D01*
X146787181Y-126020478D01*
X147165339Y-126398636D01*
X147165349Y-126398647D01*
X147169679Y-126402977D01*
X147169680Y-126402978D01*
X147281484Y-126514782D01*
X147368295Y-126564901D01*
X147368297Y-126564903D01*
X147406351Y-126586873D01*
X147418415Y-126593839D01*
X147571143Y-126634763D01*
X147571146Y-126634763D01*
X147736853Y-126634763D01*
X147736869Y-126634762D01*
X157085700Y-126634762D01*
X157152739Y-126654447D01*
X157198494Y-126707251D01*
X157209700Y-126758762D01*
X157209700Y-134013592D01*
X157209699Y-134013610D01*
X157209699Y-134179316D01*
X157209698Y-134179316D01*
X157238699Y-134287550D01*
X157250623Y-134332047D01*
X157270975Y-134367297D01*
X157325818Y-134462289D01*
X157329679Y-134468976D01*
X157329681Y-134468979D01*
X157448549Y-134587847D01*
X157448555Y-134587852D01*
X160336882Y-137476179D01*
X160370367Y-137537502D01*
X160369407Y-137594300D01*
X160308292Y-137835636D01*
X160308290Y-137835649D01*
X160287757Y-138083456D01*
X160287757Y-138083467D01*
X160308290Y-138331274D01*
X160308292Y-138331286D01*
X160369336Y-138572343D01*
X160469226Y-138800068D01*
X160605233Y-139008244D01*
X160605236Y-139008247D01*
X160773656Y-139191200D01*
X160969891Y-139343936D01*
X160969893Y-139343937D01*
X161099690Y-139414180D01*
X161188590Y-139462290D01*
X161423786Y-139543033D01*
X161669065Y-139583962D01*
X161917735Y-139583962D01*
X162163014Y-139543033D01*
X162398210Y-139462290D01*
X162616909Y-139343936D01*
X162813144Y-139191200D01*
X162981564Y-139008247D01*
X163117573Y-138800069D01*
X163217463Y-138572343D01*
X163278508Y-138331283D01*
X163278509Y-138331274D01*
X163299043Y-138083467D01*
X163299043Y-138083456D01*
X163278509Y-137835649D01*
X163278507Y-137835637D01*
X163217463Y-137594580D01*
X163117573Y-137366855D01*
X162981566Y-137158679D01*
X162942915Y-137116693D01*
X162813144Y-136975724D01*
X162616909Y-136822988D01*
X162616907Y-136822987D01*
X162616906Y-136822986D01*
X162398211Y-136704634D01*
X162398202Y-136704631D01*
X162163016Y-136623891D01*
X161917735Y-136582962D01*
X161669065Y-136582962D01*
X161423782Y-136623891D01*
X161423780Y-136623891D01*
X161317793Y-136660277D01*
X161247995Y-136663427D01*
X161189850Y-136630677D01*
X158447019Y-133887846D01*
X158413534Y-133826523D01*
X158410700Y-133800165D01*
X158410700Y-133083456D01*
X160287757Y-133083456D01*
X160287757Y-133083467D01*
X160308290Y-133331274D01*
X160308292Y-133331286D01*
X160369336Y-133572343D01*
X160469226Y-133800068D01*
X160605233Y-134008244D01*
X160617161Y-134021201D01*
X160773656Y-134191200D01*
X160969891Y-134343936D01*
X161188590Y-134462290D01*
X161423786Y-134543033D01*
X161669065Y-134583962D01*
X161917735Y-134583962D01*
X162163014Y-134543033D01*
X162398210Y-134462290D01*
X162616909Y-134343936D01*
X162813144Y-134191200D01*
X162981564Y-134008247D01*
X163117573Y-133800069D01*
X163217463Y-133572343D01*
X163278508Y-133331283D01*
X163280412Y-133308310D01*
X163299043Y-133083467D01*
X163299043Y-133083456D01*
X163278509Y-132835649D01*
X163278507Y-132835637D01*
X163217463Y-132594580D01*
X163117573Y-132366855D01*
X162981566Y-132158679D01*
X162959957Y-132135206D01*
X162813144Y-131975724D01*
X162616909Y-131822988D01*
X162616907Y-131822987D01*
X162616906Y-131822986D01*
X162398211Y-131704634D01*
X162398202Y-131704631D01*
X162163016Y-131623891D01*
X161917735Y-131582962D01*
X161669065Y-131582962D01*
X161423783Y-131623891D01*
X161188597Y-131704631D01*
X161188588Y-131704634D01*
X160969893Y-131822986D01*
X160773657Y-131975723D01*
X160605233Y-132158679D01*
X160469226Y-132366855D01*
X160369336Y-132594580D01*
X160308292Y-132835637D01*
X160308290Y-132835649D01*
X160287757Y-133083456D01*
X158410700Y-133083456D01*
X158410700Y-125955207D01*
X158410700Y-125955205D01*
X158369777Y-125802478D01*
X158369773Y-125802471D01*
X158290724Y-125665552D01*
X158290718Y-125665544D01*
X158178917Y-125553743D01*
X158178909Y-125553737D01*
X158041990Y-125474688D01*
X158041986Y-125474686D01*
X158041984Y-125474685D01*
X157889257Y-125433762D01*
X157889256Y-125433762D01*
X147950297Y-125433762D01*
X147883258Y-125414077D01*
X147862616Y-125397443D01*
X147321819Y-124856646D01*
X147288334Y-124795323D01*
X147285500Y-124768965D01*
X147285500Y-123202321D01*
X147285501Y-123202308D01*
X147285501Y-123034207D01*
X147285501Y-123034205D01*
X147264325Y-122955175D01*
X147260100Y-122923082D01*
X147260100Y-111900326D01*
X147279785Y-111833287D01*
X147332589Y-111787532D01*
X147401747Y-111777588D01*
X147425055Y-111783285D01*
X147496337Y-111808228D01*
X147496342Y-111808229D01*
X147496345Y-111808230D01*
X147554642Y-111814798D01*
X147619055Y-111841863D01*
X147628440Y-111850337D01*
X148438181Y-112660078D01*
X148471666Y-112721401D01*
X148474500Y-112747759D01*
X148474500Y-120546592D01*
X148474499Y-120546610D01*
X148474499Y-120712316D01*
X148474498Y-120712316D01*
X148474499Y-120712319D01*
X148515423Y-120865047D01*
X148529963Y-120890230D01*
X148561878Y-120945509D01*
X148594479Y-121001977D01*
X148713349Y-121120847D01*
X148713355Y-121120852D01*
X150492233Y-122899730D01*
X150525718Y-122961053D01*
X150524327Y-123019503D01*
X150489939Y-123147845D01*
X150489936Y-123147858D01*
X150469341Y-123383261D01*
X150469341Y-123383262D01*
X150489936Y-123618665D01*
X150489938Y-123618675D01*
X150551094Y-123846917D01*
X150551096Y-123846921D01*
X150551097Y-123846925D01*
X150555000Y-123855294D01*
X150650965Y-124061092D01*
X150650967Y-124061096D01*
X150759281Y-124215783D01*
X150786505Y-124254663D01*
X150953599Y-124421757D01*
X151050384Y-124489527D01*
X151147165Y-124557294D01*
X151147167Y-124557295D01*
X151147170Y-124557297D01*
X151361337Y-124657165D01*
X151589592Y-124718325D01*
X151766034Y-124733762D01*
X151824999Y-124738921D01*
X151825000Y-124738921D01*
X151825001Y-124738921D01*
X151883966Y-124733762D01*
X152060408Y-124718325D01*
X152288663Y-124657165D01*
X152502830Y-124557297D01*
X152696401Y-124421757D01*
X152863495Y-124254663D01*
X152993425Y-124069104D01*
X153048002Y-124025479D01*
X153117500Y-124018285D01*
X153179855Y-124049808D01*
X153196575Y-124069104D01*
X153326500Y-124254657D01*
X153326505Y-124254663D01*
X153493599Y-124421757D01*
X153590384Y-124489527D01*
X153687165Y-124557294D01*
X153687167Y-124557295D01*
X153687170Y-124557297D01*
X153901337Y-124657165D01*
X154129592Y-124718325D01*
X154306034Y-124733762D01*
X154364999Y-124738921D01*
X154365000Y-124738921D01*
X154365001Y-124738921D01*
X154423966Y-124733762D01*
X154600408Y-124718325D01*
X154828663Y-124657165D01*
X155042830Y-124557297D01*
X155236401Y-124421757D01*
X155403495Y-124254663D01*
X155533425Y-124069104D01*
X155588002Y-124025479D01*
X155657500Y-124018285D01*
X155719855Y-124049808D01*
X155736575Y-124069104D01*
X155866500Y-124254657D01*
X155866505Y-124254663D01*
X156033599Y-124421757D01*
X156130384Y-124489527D01*
X156227165Y-124557294D01*
X156227167Y-124557295D01*
X156227170Y-124557297D01*
X156441337Y-124657165D01*
X156669592Y-124718325D01*
X156846034Y-124733762D01*
X156904999Y-124738921D01*
X156905000Y-124738921D01*
X156905001Y-124738921D01*
X156963966Y-124733762D01*
X157140408Y-124718325D01*
X157368663Y-124657165D01*
X157582830Y-124557297D01*
X157776401Y-124421757D01*
X157898329Y-124299828D01*
X157959648Y-124266346D01*
X158029340Y-124271330D01*
X158085274Y-124313201D01*
X158102189Y-124344179D01*
X158151202Y-124475590D01*
X158151206Y-124475597D01*
X158237452Y-124590806D01*
X158237455Y-124590809D01*
X158352664Y-124677055D01*
X158352671Y-124677059D01*
X158487517Y-124727353D01*
X158487516Y-124727353D01*
X158494444Y-124728097D01*
X158547127Y-124733762D01*
X160342872Y-124733761D01*
X160402483Y-124727353D01*
X160537331Y-124677058D01*
X160652546Y-124590808D01*
X160738796Y-124475593D01*
X160789091Y-124340745D01*
X160795500Y-124281135D01*
X160795499Y-122485390D01*
X160789091Y-122425779D01*
X160787810Y-122422345D01*
X160738797Y-122290933D01*
X160738793Y-122290926D01*
X160652547Y-122175717D01*
X160652544Y-122175714D01*
X160537335Y-122089468D01*
X160537328Y-122089464D01*
X160402482Y-122039170D01*
X160402483Y-122039170D01*
X160342883Y-122032763D01*
X160342881Y-122032762D01*
X160342873Y-122032762D01*
X160342865Y-122032762D01*
X160169500Y-122032762D01*
X160102461Y-122013077D01*
X160056706Y-121960273D01*
X160045500Y-121908762D01*
X160045500Y-110466749D01*
X160065185Y-110399710D01*
X160117989Y-110353955D01*
X160187147Y-110344011D01*
X160225795Y-110356264D01*
X160244975Y-110366037D01*
X160372844Y-110407584D01*
X160432173Y-110426862D01*
X160626578Y-110457653D01*
X160626583Y-110457653D01*
X160823422Y-110457653D01*
X161017826Y-110426862D01*
X161205025Y-110366037D01*
X161380405Y-110276677D01*
X161539646Y-110160981D01*
X161678828Y-110021799D01*
X161794524Y-109862558D01*
X161883884Y-109687178D01*
X161944709Y-109499979D01*
X161951413Y-109457653D01*
X161975500Y-109305575D01*
X161975500Y-108941420D01*
X161995185Y-108874381D01*
X162047989Y-108828626D01*
X162117147Y-108818682D01*
X162180703Y-108847707D01*
X162199817Y-108868533D01*
X162311172Y-109021799D01*
X162450354Y-109160981D01*
X162609595Y-109276677D01*
X162666301Y-109305570D01*
X162784970Y-109366035D01*
X162784972Y-109366035D01*
X162784975Y-109366037D01*
X162871621Y-109394190D01*
X162972173Y-109426862D01*
X163166578Y-109457653D01*
X163166583Y-109457653D01*
X164363422Y-109457653D01*
X164557826Y-109426862D01*
X164583232Y-109418607D01*
X164745025Y-109366037D01*
X164920405Y-109276677D01*
X165079646Y-109160981D01*
X165218828Y-109021799D01*
X165334524Y-108862558D01*
X165423884Y-108687178D01*
X165484709Y-108499979D01*
X165488861Y-108473762D01*
X165515500Y-108305575D01*
X165515500Y-108108730D01*
X165484709Y-107914326D01*
X165438925Y-107773420D01*
X165423884Y-107727128D01*
X165423882Y-107727125D01*
X165423882Y-107727123D01*
X165351148Y-107584375D01*
X165334524Y-107551748D01*
X165218828Y-107392507D01*
X165079646Y-107253325D01*
X164924500Y-107140604D01*
X164920403Y-107137627D01*
X164743787Y-107047638D01*
X164692990Y-106999664D01*
X164676195Y-106931843D01*
X164698732Y-106865708D01*
X164743787Y-106826668D01*
X164920403Y-106736678D01*
X164920402Y-106736678D01*
X164920405Y-106736677D01*
X165079646Y-106620981D01*
X165218828Y-106481799D01*
X165334524Y-106322558D01*
X165423884Y-106147178D01*
X165484709Y-105959979D01*
X165488644Y-105935135D01*
X165515500Y-105765575D01*
X165515500Y-105568730D01*
X165484709Y-105374326D01*
X165423882Y-105187123D01*
X165353435Y-105048864D01*
X165334524Y-105011748D01*
X165218828Y-104852507D01*
X165079646Y-104713325D01*
X165000025Y-104655477D01*
X164920403Y-104597627D01*
X164743787Y-104507638D01*
X164692990Y-104459664D01*
X164676195Y-104391843D01*
X164698732Y-104325708D01*
X164743787Y-104286668D01*
X164920403Y-104196678D01*
X164920402Y-104196678D01*
X164920405Y-104196677D01*
X165079646Y-104080981D01*
X165218828Y-103941799D01*
X165334524Y-103782558D01*
X165423884Y-103607178D01*
X165484709Y-103419979D01*
X165500524Y-103320126D01*
X165515500Y-103225575D01*
X165515500Y-103028730D01*
X165484709Y-102834326D01*
X165449670Y-102726488D01*
X165423884Y-102647128D01*
X165423882Y-102647124D01*
X165423882Y-102647123D01*
X165370014Y-102541402D01*
X165334524Y-102471748D01*
X165218828Y-102312507D01*
X165079646Y-102173325D01*
X164956037Y-102083517D01*
X164920403Y-102057627D01*
X164743787Y-101967638D01*
X164692990Y-101919664D01*
X164676195Y-101851843D01*
X164698732Y-101785708D01*
X164743787Y-101746668D01*
X164920403Y-101656678D01*
X164920402Y-101656678D01*
X164920405Y-101656677D01*
X165079646Y-101540981D01*
X165218828Y-101401799D01*
X165334524Y-101242558D01*
X165423884Y-101067178D01*
X165484709Y-100879979D01*
X165496612Y-100804827D01*
X165515500Y-100685575D01*
X165515500Y-100488730D01*
X165484709Y-100294326D01*
X165447080Y-100178517D01*
X165423884Y-100107128D01*
X165423882Y-100107125D01*
X165423882Y-100107123D01*
X165334523Y-99931747D01*
X165330873Y-99926723D01*
X165218828Y-99772507D01*
X165079646Y-99633325D01*
X164960224Y-99546559D01*
X164920403Y-99517627D01*
X164743787Y-99427638D01*
X164692990Y-99379664D01*
X164676195Y-99311843D01*
X164698732Y-99245708D01*
X164743787Y-99206668D01*
X164920403Y-99116678D01*
X164920402Y-99116678D01*
X164920405Y-99116677D01*
X165079646Y-99000981D01*
X165218828Y-98861799D01*
X165334524Y-98702558D01*
X165423884Y-98527178D01*
X165484709Y-98339979D01*
X165501532Y-98233762D01*
X165515500Y-98145575D01*
X165515500Y-97948730D01*
X165484709Y-97754326D01*
X165423882Y-97567123D01*
X165372049Y-97465395D01*
X165334524Y-97391748D01*
X165218828Y-97232507D01*
X165079646Y-97093325D01*
X164998791Y-97034580D01*
X164920403Y-96977627D01*
X164743787Y-96887638D01*
X164692990Y-96839664D01*
X164676195Y-96771843D01*
X164698732Y-96705708D01*
X164743787Y-96666668D01*
X164920403Y-96576678D01*
X164920402Y-96576678D01*
X164920405Y-96576677D01*
X165079646Y-96460981D01*
X165218828Y-96321799D01*
X165334524Y-96162558D01*
X165423884Y-95987178D01*
X165484709Y-95799979D01*
X165489148Y-95771955D01*
X165515500Y-95605575D01*
X165515500Y-95408730D01*
X165484709Y-95214326D01*
X165423882Y-95027123D01*
X165334523Y-94851747D01*
X165310815Y-94819116D01*
X165218828Y-94692507D01*
X165079646Y-94553325D01*
X164987419Y-94486318D01*
X164920403Y-94437627D01*
X164743787Y-94347638D01*
X164692990Y-94299664D01*
X164676195Y-94231843D01*
X164698732Y-94165708D01*
X164743787Y-94126668D01*
X164920403Y-94036678D01*
X164920402Y-94036678D01*
X164920405Y-94036677D01*
X165079646Y-93920981D01*
X165218828Y-93781799D01*
X165334524Y-93622558D01*
X165423884Y-93447178D01*
X165484709Y-93259979D01*
X165497852Y-93176999D01*
X165515500Y-93065575D01*
X165515500Y-92868730D01*
X165484709Y-92674326D01*
X165423882Y-92487123D01*
X165334523Y-92311747D01*
X165218828Y-92152507D01*
X165079646Y-92013325D01*
X165000025Y-91955477D01*
X164920403Y-91897627D01*
X164743787Y-91807638D01*
X164692990Y-91759664D01*
X164676195Y-91691843D01*
X164698732Y-91625708D01*
X164743787Y-91586668D01*
X164920403Y-91496678D01*
X164920402Y-91496678D01*
X164920405Y-91496677D01*
X165079646Y-91380981D01*
X165218828Y-91241799D01*
X165334524Y-91082558D01*
X165423884Y-90907178D01*
X165484709Y-90719979D01*
X165515500Y-90525575D01*
X165515500Y-90328730D01*
X165484709Y-90134326D01*
X165430239Y-89966687D01*
X165423884Y-89947128D01*
X165423882Y-89947125D01*
X165423882Y-89947123D01*
X165334523Y-89771747D01*
X165321523Y-89753854D01*
X165218828Y-89612507D01*
X165079646Y-89473325D01*
X164968365Y-89392474D01*
X164920403Y-89357627D01*
X164743787Y-89267638D01*
X164692990Y-89219664D01*
X164676195Y-89151843D01*
X164698732Y-89085708D01*
X164743787Y-89046668D01*
X164920403Y-88956678D01*
X164920402Y-88956678D01*
X164920405Y-88956677D01*
X165079646Y-88840981D01*
X165218828Y-88701799D01*
X165334524Y-88542558D01*
X165423884Y-88367178D01*
X165450529Y-88285175D01*
X166797500Y-88285175D01*
X166797500Y-88497748D01*
X166829818Y-88701799D01*
X166830754Y-88707705D01*
X166885284Y-88875531D01*
X166896444Y-88909876D01*
X166992951Y-89099282D01*
X167117890Y-89271248D01*
X167268213Y-89421571D01*
X167440179Y-89546510D01*
X167440181Y-89546511D01*
X167440184Y-89546513D01*
X167629588Y-89643019D01*
X167831757Y-89708708D01*
X168041713Y-89741962D01*
X168041714Y-89741962D01*
X168254286Y-89741962D01*
X168254287Y-89741962D01*
X168464243Y-89708708D01*
X168666412Y-89643019D01*
X168855816Y-89546513D01*
X168955950Y-89473762D01*
X169027786Y-89421571D01*
X169027788Y-89421568D01*
X169027792Y-89421566D01*
X169178104Y-89271254D01*
X169178106Y-89271250D01*
X169178109Y-89271248D01*
X169303048Y-89099282D01*
X169303047Y-89099282D01*
X169303051Y-89099278D01*
X169399557Y-88909874D01*
X169465246Y-88707705D01*
X169498500Y-88497749D01*
X169498500Y-88285175D01*
X169465246Y-88075219D01*
X169399557Y-87873050D01*
X169303051Y-87683646D01*
X169303049Y-87683643D01*
X169303048Y-87683641D01*
X169178109Y-87511675D01*
X169027786Y-87361352D01*
X168855820Y-87236413D01*
X168666414Y-87139906D01*
X168666413Y-87139905D01*
X168666412Y-87139905D01*
X168464243Y-87074216D01*
X168464241Y-87074215D01*
X168464240Y-87074215D01*
X168302957Y-87048670D01*
X168254287Y-87040962D01*
X168041713Y-87040962D01*
X167993042Y-87048670D01*
X167831760Y-87074215D01*
X167629585Y-87139906D01*
X167440179Y-87236413D01*
X167268213Y-87361352D01*
X167117890Y-87511675D01*
X166992951Y-87683641D01*
X166896444Y-87873047D01*
X166830753Y-88075222D01*
X166797500Y-88285175D01*
X165450529Y-88285175D01*
X165484709Y-88179979D01*
X165501301Y-88075222D01*
X165515500Y-87985575D01*
X165515500Y-87788730D01*
X165484709Y-87594326D01*
X165423882Y-87407123D01*
X165358194Y-87278204D01*
X165334524Y-87231748D01*
X165218828Y-87072507D01*
X165079646Y-86933325D01*
X164920405Y-86817629D01*
X164745029Y-86728270D01*
X164557826Y-86667443D01*
X164363422Y-86636653D01*
X164363417Y-86636653D01*
X163166583Y-86636653D01*
X163166578Y-86636653D01*
X162972173Y-86667443D01*
X162784970Y-86728270D01*
X162609594Y-86817629D01*
X162524890Y-86879171D01*
X162450354Y-86933325D01*
X162450352Y-86933327D01*
X162450351Y-86933327D01*
X162311174Y-87072504D01*
X162311174Y-87072505D01*
X162311172Y-87072507D01*
X162195477Y-87231747D01*
X162192722Y-87235539D01*
X162137392Y-87278204D01*
X162092404Y-87286653D01*
X161720966Y-87286653D01*
X161562852Y-87286653D01*
X161410124Y-87327576D01*
X161410123Y-87327576D01*
X161410121Y-87327577D01*
X161410118Y-87327578D01*
X161360005Y-87356512D01*
X161360004Y-87356513D01*
X161316598Y-87381573D01*
X161273194Y-87406632D01*
X161273191Y-87406634D01*
X161161387Y-87518439D01*
X156420065Y-92259760D01*
X156358742Y-92293245D01*
X156346268Y-92295299D01*
X156259350Y-92305092D01*
X156089078Y-92364672D01*
X155936337Y-92460646D01*
X155808784Y-92588199D01*
X155712811Y-92740938D01*
X155653231Y-92911207D01*
X155653230Y-92911212D01*
X155633035Y-93090458D01*
X155633035Y-93090465D01*
X155653230Y-93269711D01*
X155653231Y-93269716D01*
X155712811Y-93439985D01*
X155808784Y-93592724D01*
X155936338Y-93720278D01*
X156089078Y-93816251D01*
X156221419Y-93862559D01*
X156259345Y-93875830D01*
X156259350Y-93875831D01*
X156438596Y-93896027D01*
X156438600Y-93896027D01*
X156438604Y-93896027D01*
X156617849Y-93875831D01*
X156617852Y-93875830D01*
X156617855Y-93875830D01*
X156788122Y-93816251D01*
X156940862Y-93720278D01*
X157068416Y-93592724D01*
X157164389Y-93439984D01*
X157223968Y-93269717D01*
X157233761Y-93182791D01*
X157260826Y-93118380D01*
X157269290Y-93109005D01*
X161854325Y-88523972D01*
X161915648Y-88490487D01*
X161942006Y-88487653D01*
X162092404Y-88487653D01*
X162159443Y-88507338D01*
X162192722Y-88538767D01*
X162195475Y-88542556D01*
X162195476Y-88542558D01*
X162311172Y-88701799D01*
X162450354Y-88840981D01*
X162609595Y-88956677D01*
X162711184Y-89008439D01*
X162786213Y-89046668D01*
X162837009Y-89094642D01*
X162853804Y-89162463D01*
X162831267Y-89228598D01*
X162786213Y-89267638D01*
X162609594Y-89357629D01*
X162527798Y-89417058D01*
X162450354Y-89473325D01*
X162450352Y-89473327D01*
X162450351Y-89473327D01*
X162311174Y-89612504D01*
X162311174Y-89612505D01*
X162311172Y-89612507D01*
X162289005Y-89643017D01*
X162195476Y-89771747D01*
X162106117Y-89947123D01*
X162045290Y-90134326D01*
X162014500Y-90328730D01*
X162014500Y-90525575D01*
X162046023Y-90724606D01*
X162037068Y-90793900D01*
X162011231Y-90831685D01*
X160235486Y-92607431D01*
X160123681Y-92719235D01*
X160123680Y-92719237D01*
X160085170Y-92785939D01*
X160044623Y-92856168D01*
X160003699Y-93008896D01*
X160003699Y-93008898D01*
X160003699Y-93176999D01*
X160003700Y-93177012D01*
X160003700Y-99721649D01*
X159984015Y-99788688D01*
X159976650Y-99798958D01*
X159974384Y-99801798D01*
X159964274Y-99817889D01*
X159911938Y-99864178D01*
X159842885Y-99874825D01*
X159779037Y-99846448D01*
X159771601Y-99839595D01*
X148947514Y-89015508D01*
X148947511Y-89015504D01*
X148893997Y-88961989D01*
X148860513Y-88900666D01*
X148865498Y-88830974D01*
X148893994Y-88786632D01*
X148978828Y-88701799D01*
X149094524Y-88542558D01*
X149183884Y-88367178D01*
X149244709Y-88179979D01*
X149261301Y-88075222D01*
X149275500Y-87985575D01*
X149275500Y-87788730D01*
X149244709Y-87594326D01*
X149183882Y-87407123D01*
X149118194Y-87278204D01*
X149094524Y-87231748D01*
X148978828Y-87072507D01*
X148839646Y-86933325D01*
X148680405Y-86817629D01*
X148505029Y-86728270D01*
X148317826Y-86667443D01*
X148123422Y-86636653D01*
X148123417Y-86636653D01*
X146926583Y-86636653D01*
X146926578Y-86636653D01*
X146732173Y-86667443D01*
X146544970Y-86728270D01*
X146369594Y-86817629D01*
X146284890Y-86879171D01*
X146210354Y-86933325D01*
X146210352Y-86933327D01*
X146210351Y-86933327D01*
X146071174Y-87072504D01*
X146071174Y-87072505D01*
X146071172Y-87072507D01*
X146028728Y-87130926D01*
X145955476Y-87231747D01*
X145866117Y-87407123D01*
X145805290Y-87594326D01*
X145774500Y-87788730D01*
X145774500Y-87985575D01*
X145805290Y-88179979D01*
X145866117Y-88367182D01*
X145927501Y-88487653D01*
X145953544Y-88538767D01*
X145955478Y-88542561D01*
X145982510Y-88579768D01*
X146005990Y-88645574D01*
X145990165Y-88713628D01*
X145940059Y-88762323D01*
X145882192Y-88776653D01*
X145490366Y-88776653D01*
X145423327Y-88756968D01*
X145402685Y-88740334D01*
X144462750Y-87800399D01*
X144429265Y-87739076D01*
X144426431Y-87712718D01*
X144426431Y-86464945D01*
X144426430Y-86464939D01*
X144426429Y-86464932D01*
X144420023Y-86405333D01*
X144377266Y-86290695D01*
X144372282Y-86221003D01*
X144405767Y-86159680D01*
X144467090Y-86126196D01*
X144493448Y-86123362D01*
X170292100Y-86123362D01*
X170359139Y-86143047D01*
X170404894Y-86195851D01*
X170416100Y-86247362D01*
X170416100Y-145094762D01*
X170396415Y-145161801D01*
X170343611Y-145207556D01*
X170292100Y-145218762D01*
X81929900Y-145218762D01*
X81862861Y-145199077D01*
X81817106Y-145146273D01*
X81805900Y-145094762D01*
X81805900Y-142742775D01*
X82799700Y-142742775D01*
X82799700Y-142955348D01*
X82832953Y-143165301D01*
X82898644Y-143367476D01*
X82995151Y-143556882D01*
X83120090Y-143728848D01*
X83270413Y-143879171D01*
X83442379Y-144004110D01*
X83442381Y-144004111D01*
X83442384Y-144004113D01*
X83631788Y-144100619D01*
X83833957Y-144166308D01*
X84043913Y-144199562D01*
X84043914Y-144199562D01*
X84256486Y-144199562D01*
X84256487Y-144199562D01*
X84466443Y-144166308D01*
X84668612Y-144100619D01*
X84858016Y-144004113D01*
X84879989Y-143988148D01*
X85029986Y-143879171D01*
X85029988Y-143879168D01*
X85029992Y-143879166D01*
X85180304Y-143728854D01*
X85180306Y-143728850D01*
X85180309Y-143728848D01*
X85305248Y-143556882D01*
X85305247Y-143556882D01*
X85305251Y-143556878D01*
X85401757Y-143367474D01*
X85467446Y-143165305D01*
X85500700Y-142955349D01*
X85500700Y-142742775D01*
X85467446Y-142532819D01*
X85401757Y-142330650D01*
X85305251Y-142141246D01*
X85305249Y-142141243D01*
X85305248Y-142141241D01*
X85180309Y-141969275D01*
X85029986Y-141818952D01*
X84858020Y-141694013D01*
X84668614Y-141597506D01*
X84668613Y-141597505D01*
X84668612Y-141597505D01*
X84466443Y-141531816D01*
X84466441Y-141531815D01*
X84466440Y-141531815D01*
X84305157Y-141506270D01*
X84256487Y-141498562D01*
X84043913Y-141498562D01*
X83995242Y-141506270D01*
X83833960Y-141531815D01*
X83631785Y-141597506D01*
X83442379Y-141694013D01*
X83270413Y-141818952D01*
X83120090Y-141969275D01*
X82995151Y-142141241D01*
X82898644Y-142330647D01*
X82832953Y-142532822D01*
X82799700Y-142742775D01*
X81805900Y-142742775D01*
X81805900Y-139113262D01*
X91799564Y-139113262D01*
X91819287Y-139414180D01*
X91819288Y-139414192D01*
X91878118Y-139709945D01*
X91878122Y-139709960D01*
X91975053Y-139995509D01*
X91975062Y-139995530D01*
X92108431Y-140265975D01*
X92108435Y-140265982D01*
X92275973Y-140516721D01*
X92474810Y-140743451D01*
X92701540Y-140942288D01*
X92952279Y-141109826D01*
X92952286Y-141109830D01*
X93222731Y-141243199D01*
X93222736Y-141243201D01*
X93222748Y-141243207D01*
X93508309Y-141340142D01*
X93708251Y-141379913D01*
X93804069Y-141398973D01*
X93804070Y-141398973D01*
X93804080Y-141398975D01*
X94105000Y-141418698D01*
X94405920Y-141398975D01*
X94701691Y-141340142D01*
X94987252Y-141243207D01*
X95257718Y-141109828D01*
X95508461Y-140942287D01*
X95735189Y-140743451D01*
X95934025Y-140516723D01*
X96101566Y-140265980D01*
X96234945Y-139995514D01*
X96302025Y-139797903D01*
X96342214Y-139740749D01*
X96406923Y-139714396D01*
X96419444Y-139713762D01*
X101238331Y-139713762D01*
X101238347Y-139713763D01*
X101245943Y-139713763D01*
X101404054Y-139713763D01*
X101404057Y-139713763D01*
X101556785Y-139672839D01*
X101606904Y-139643901D01*
X101693716Y-139593782D01*
X101805520Y-139481978D01*
X101805520Y-139481976D01*
X101815728Y-139471769D01*
X101815730Y-139471766D01*
X102174234Y-139113262D01*
X110799564Y-139113262D01*
X110819287Y-139414180D01*
X110819288Y-139414192D01*
X110878118Y-139709945D01*
X110878122Y-139709960D01*
X110975053Y-139995509D01*
X110975062Y-139995530D01*
X111108431Y-140265975D01*
X111108435Y-140265982D01*
X111275973Y-140516721D01*
X111474810Y-140743451D01*
X111701540Y-140942288D01*
X111952279Y-141109826D01*
X111952286Y-141109830D01*
X112222731Y-141243199D01*
X112222736Y-141243201D01*
X112222748Y-141243207D01*
X112508309Y-141340142D01*
X112708251Y-141379913D01*
X112804069Y-141398973D01*
X112804070Y-141398973D01*
X112804080Y-141398975D01*
X113105000Y-141418698D01*
X113405920Y-141398975D01*
X113701691Y-141340142D01*
X113987252Y-141243207D01*
X114257718Y-141109828D01*
X114508461Y-140942287D01*
X114735189Y-140743451D01*
X114934025Y-140516723D01*
X115101566Y-140265980D01*
X115234945Y-139995514D01*
X115302025Y-139797903D01*
X115342214Y-139740749D01*
X115406923Y-139714396D01*
X115419444Y-139713762D01*
X120238331Y-139713762D01*
X120238347Y-139713763D01*
X120245943Y-139713763D01*
X120404054Y-139713763D01*
X120404057Y-139713763D01*
X120556785Y-139672839D01*
X120606904Y-139643901D01*
X120693716Y-139593782D01*
X120805520Y-139481978D01*
X120805520Y-139481976D01*
X120815728Y-139471769D01*
X120815730Y-139471766D01*
X121174234Y-139113262D01*
X129799564Y-139113262D01*
X129819287Y-139414180D01*
X129819288Y-139414192D01*
X129878118Y-139709945D01*
X129878122Y-139709960D01*
X129975053Y-139995509D01*
X129975062Y-139995530D01*
X130108431Y-140265975D01*
X130108435Y-140265982D01*
X130275973Y-140516721D01*
X130474810Y-140743451D01*
X130701540Y-140942288D01*
X130952279Y-141109826D01*
X130952286Y-141109830D01*
X131222731Y-141243199D01*
X131222736Y-141243201D01*
X131222748Y-141243207D01*
X131508309Y-141340142D01*
X131708251Y-141379913D01*
X131804069Y-141398973D01*
X131804070Y-141398973D01*
X131804080Y-141398975D01*
X132105000Y-141418698D01*
X132405920Y-141398975D01*
X132701691Y-141340142D01*
X132987252Y-141243207D01*
X133257718Y-141109828D01*
X133508461Y-140942287D01*
X133735189Y-140743451D01*
X133934025Y-140516723D01*
X134101566Y-140265980D01*
X134165864Y-140135597D01*
X152692900Y-140135597D01*
X152692900Y-142231332D01*
X152692901Y-142231338D01*
X152699308Y-142290945D01*
X152749602Y-142425790D01*
X152749606Y-142425797D01*
X152835852Y-142541006D01*
X152835855Y-142541009D01*
X152951064Y-142627255D01*
X152951071Y-142627259D01*
X153085917Y-142677553D01*
X153085916Y-142677553D01*
X153092844Y-142678297D01*
X153145527Y-142683962D01*
X156441272Y-142683961D01*
X156500883Y-142677553D01*
X156635731Y-142627258D01*
X156750946Y-142541008D01*
X156837196Y-142425793D01*
X156880020Y-142310975D01*
X165044900Y-142310975D01*
X165044900Y-142523549D01*
X165054934Y-142586906D01*
X165078153Y-142733501D01*
X165143844Y-142935676D01*
X165240351Y-143125082D01*
X165365290Y-143297048D01*
X165515613Y-143447371D01*
X165687579Y-143572310D01*
X165687581Y-143572311D01*
X165687584Y-143572313D01*
X165876988Y-143668819D01*
X166079157Y-143734508D01*
X166289113Y-143767762D01*
X166289114Y-143767762D01*
X166501686Y-143767762D01*
X166501687Y-143767762D01*
X166711643Y-143734508D01*
X166913812Y-143668819D01*
X167103216Y-143572313D01*
X167125189Y-143556348D01*
X167275186Y-143447371D01*
X167275188Y-143447368D01*
X167275192Y-143447366D01*
X167425504Y-143297054D01*
X167425506Y-143297050D01*
X167425509Y-143297048D01*
X167550448Y-143125082D01*
X167550447Y-143125082D01*
X167550451Y-143125078D01*
X167646957Y-142935674D01*
X167712646Y-142733505D01*
X167745900Y-142523549D01*
X167745900Y-142310975D01*
X167712646Y-142101019D01*
X167646957Y-141898850D01*
X167550451Y-141709446D01*
X167550449Y-141709443D01*
X167550448Y-141709441D01*
X167425509Y-141537475D01*
X167275186Y-141387152D01*
X167103220Y-141262213D01*
X166913814Y-141165706D01*
X166913813Y-141165705D01*
X166913812Y-141165705D01*
X166711643Y-141100016D01*
X166711641Y-141100015D01*
X166711640Y-141100015D01*
X166550357Y-141074470D01*
X166501687Y-141066762D01*
X166289113Y-141066762D01*
X166240442Y-141074470D01*
X166079160Y-141100015D01*
X165876985Y-141165706D01*
X165687579Y-141262213D01*
X165515613Y-141387152D01*
X165365290Y-141537475D01*
X165240351Y-141709441D01*
X165143844Y-141898847D01*
X165078153Y-142101022D01*
X165057515Y-142231326D01*
X165044900Y-142310975D01*
X156880020Y-142310975D01*
X156887491Y-142290945D01*
X156893900Y-142231335D01*
X156893899Y-140135590D01*
X156887491Y-140075979D01*
X156857485Y-139995530D01*
X156837197Y-139941133D01*
X156837193Y-139941126D01*
X156750947Y-139825917D01*
X156750944Y-139825914D01*
X156635735Y-139739668D01*
X156635728Y-139739664D01*
X156500882Y-139689370D01*
X156500883Y-139689370D01*
X156441283Y-139682963D01*
X156441281Y-139682962D01*
X156441273Y-139682962D01*
X156441264Y-139682962D01*
X153145529Y-139682962D01*
X153145523Y-139682963D01*
X153085916Y-139689370D01*
X152951071Y-139739664D01*
X152951064Y-139739668D01*
X152835855Y-139825914D01*
X152835852Y-139825917D01*
X152749606Y-139941126D01*
X152749602Y-139941133D01*
X152699308Y-140075979D01*
X152692901Y-140135578D01*
X152692901Y-140135585D01*
X152692900Y-140135597D01*
X134165864Y-140135597D01*
X134234945Y-139995514D01*
X134302025Y-139797903D01*
X134342214Y-139740749D01*
X134406923Y-139714396D01*
X134419444Y-139713762D01*
X138798180Y-139713762D01*
X138798196Y-139713763D01*
X138805792Y-139713763D01*
X138963903Y-139713763D01*
X138963906Y-139713763D01*
X139116634Y-139672839D01*
X139166753Y-139643901D01*
X139253565Y-139593782D01*
X139365369Y-139481978D01*
X139365369Y-139481976D01*
X139375577Y-139471769D01*
X139375579Y-139471766D01*
X143484438Y-135362907D01*
X143484443Y-135362903D01*
X143494646Y-135352699D01*
X143494648Y-135352699D01*
X143606452Y-135240895D01*
X143682285Y-135109548D01*
X143685509Y-135103964D01*
X143726432Y-134951236D01*
X143726432Y-134793122D01*
X143726432Y-132974508D01*
X143746117Y-132907469D01*
X143779306Y-132872935D01*
X143965071Y-132742863D01*
X144125979Y-132581955D01*
X144256500Y-132395550D01*
X144352671Y-132189312D01*
X144411567Y-131969508D01*
X144431400Y-131742816D01*
X144429921Y-131725916D01*
X144422376Y-131639668D01*
X144411567Y-131516124D01*
X144352671Y-131296320D01*
X144256500Y-131090082D01*
X144125979Y-130903677D01*
X144125977Y-130903674D01*
X143965073Y-130742770D01*
X143778666Y-130612248D01*
X143778664Y-130612247D01*
X143572429Y-130516077D01*
X143572420Y-130516074D01*
X143352629Y-130457182D01*
X143352625Y-130457181D01*
X143352624Y-130457181D01*
X143352623Y-130457180D01*
X143352618Y-130457180D01*
X143125934Y-130437348D01*
X143125930Y-130437348D01*
X142899245Y-130457180D01*
X142899234Y-130457182D01*
X142679443Y-130516074D01*
X142679434Y-130516077D01*
X142473199Y-130612247D01*
X142473197Y-130612248D01*
X142286790Y-130742770D01*
X142125886Y-130903674D01*
X141995364Y-131090081D01*
X141995363Y-131090083D01*
X141899193Y-131296318D01*
X141899190Y-131296327D01*
X141840298Y-131516118D01*
X141840296Y-131516129D01*
X141820464Y-131742814D01*
X141820464Y-131742817D01*
X141840296Y-131969502D01*
X141840298Y-131969513D01*
X141899190Y-132189304D01*
X141899193Y-132189313D01*
X141995363Y-132395548D01*
X141995364Y-132395550D01*
X142125886Y-132581957D01*
X142286790Y-132742861D01*
X142286793Y-132742863D01*
X142472556Y-132872934D01*
X142516180Y-132927509D01*
X142525432Y-132974508D01*
X142525432Y-134572081D01*
X142505747Y-134639120D01*
X142489113Y-134659762D01*
X140927286Y-136221588D01*
X140865963Y-136255073D01*
X140796271Y-136250089D01*
X140740338Y-136208217D01*
X140717988Y-136158098D01*
X140697681Y-136056007D01*
X140681880Y-135976571D01*
X140584945Y-135691010D01*
X140531905Y-135583456D01*
X140451568Y-135420548D01*
X140451567Y-135420547D01*
X140451566Y-135420544D01*
X140284025Y-135169801D01*
X140284023Y-135169799D01*
X140282115Y-135166943D01*
X140261237Y-135100265D01*
X140279722Y-135032885D01*
X140312332Y-134997734D01*
X140314887Y-134995877D01*
X140314890Y-134995876D01*
X140458214Y-134891745D01*
X140583483Y-134766476D01*
X140687614Y-134623152D01*
X140768042Y-134465304D01*
X140822786Y-134296817D01*
X140850500Y-134121841D01*
X140850500Y-133944683D01*
X140822786Y-133769707D01*
X140768042Y-133601220D01*
X140768042Y-133601219D01*
X140687613Y-133443371D01*
X140583483Y-133300048D01*
X140458214Y-133174779D01*
X140314890Y-133070648D01*
X140157042Y-132990219D01*
X140157039Y-132990218D01*
X139988556Y-132935476D01*
X139901067Y-132921619D01*
X139813579Y-132907762D01*
X139636421Y-132907762D01*
X139578095Y-132917000D01*
X139461443Y-132935476D01*
X139292960Y-132990218D01*
X139292957Y-132990219D01*
X139135109Y-133070648D01*
X139053338Y-133130058D01*
X138991786Y-133174779D01*
X138991784Y-133174781D01*
X138991783Y-133174781D01*
X138866519Y-133300045D01*
X138866519Y-133300046D01*
X138866517Y-133300048D01*
X138832569Y-133346773D01*
X138762386Y-133443371D01*
X138681957Y-133601219D01*
X138681956Y-133601222D01*
X138627214Y-133769705D01*
X138599500Y-133944683D01*
X138599500Y-134121838D01*
X138600104Y-134125654D01*
X138591144Y-134194947D01*
X138546144Y-134248395D01*
X138479391Y-134269030D01*
X138469529Y-134268778D01*
X138455000Y-134267826D01*
X138154080Y-134287549D01*
X138154079Y-134287549D01*
X138154069Y-134287550D01*
X137858316Y-134346380D01*
X137858301Y-134346384D01*
X137572752Y-134443315D01*
X137572731Y-134443324D01*
X137302286Y-134576693D01*
X137302279Y-134576697D01*
X137051540Y-134744235D01*
X137009654Y-134780968D01*
X136946272Y-134810370D01*
X136877055Y-134800837D01*
X136823981Y-134755397D01*
X136803898Y-134688476D01*
X136808120Y-134655651D01*
X136856993Y-134473255D01*
X136895500Y-134180768D01*
X136895500Y-133885756D01*
X136856993Y-133593269D01*
X136780639Y-133308310D01*
X136667743Y-133035755D01*
X136641453Y-132990220D01*
X136520238Y-132780268D01*
X136340647Y-132546221D01*
X136340641Y-132546214D01*
X136132047Y-132337620D01*
X136132040Y-132337614D01*
X135897993Y-132158023D01*
X135642510Y-132010520D01*
X135642500Y-132010516D01*
X135369961Y-131897626D01*
X135369954Y-131897624D01*
X135369952Y-131897623D01*
X135084993Y-131821269D01*
X135036113Y-131814833D01*
X134792513Y-131782762D01*
X134792506Y-131782762D01*
X134497494Y-131782762D01*
X134497486Y-131782762D01*
X134219085Y-131819415D01*
X134205007Y-131821269D01*
X133920048Y-131897623D01*
X133920038Y-131897626D01*
X133647499Y-132010516D01*
X133647489Y-132010520D01*
X133392006Y-132158023D01*
X133157959Y-132337614D01*
X133157952Y-132337620D01*
X132949358Y-132546214D01*
X132949352Y-132546221D01*
X132769761Y-132780268D01*
X132622258Y-133035751D01*
X132622254Y-133035761D01*
X132509364Y-133308300D01*
X132509361Y-133308310D01*
X132473172Y-133443372D01*
X132433008Y-133593266D01*
X132433006Y-133593277D01*
X132394500Y-133885748D01*
X132394500Y-134180775D01*
X132416304Y-134346384D01*
X132433007Y-134473255D01*
X132505616Y-134744237D01*
X132509361Y-134758213D01*
X132509364Y-134758223D01*
X132622254Y-135030762D01*
X132622258Y-135030772D01*
X132769761Y-135286255D01*
X132949352Y-135520302D01*
X132949358Y-135520309D01*
X133157952Y-135728903D01*
X133157959Y-135728909D01*
X133392006Y-135908500D01*
X133647489Y-136056003D01*
X133647490Y-136056003D01*
X133647493Y-136056005D01*
X133920048Y-136168901D01*
X134205007Y-136245255D01*
X134497494Y-136283762D01*
X134497501Y-136283762D01*
X134792499Y-136283762D01*
X134792506Y-136283762D01*
X135084993Y-136245255D01*
X135369952Y-136168901D01*
X135642507Y-136056005D01*
X135897994Y-135908500D01*
X136051339Y-135790833D01*
X136116507Y-135765639D01*
X136184952Y-135779677D01*
X136234942Y-135828491D01*
X136250606Y-135896582D01*
X136244245Y-135929066D01*
X136228121Y-135976566D01*
X136228118Y-135976578D01*
X136169288Y-136272331D01*
X136169287Y-136272341D01*
X136169287Y-136272342D01*
X136149564Y-136573262D01*
X136165931Y-136822986D01*
X136169287Y-136874180D01*
X136169288Y-136874192D01*
X136228118Y-137169945D01*
X136228122Y-137169960D01*
X136325053Y-137455509D01*
X136325062Y-137455530D01*
X136458431Y-137725975D01*
X136458435Y-137725982D01*
X136625973Y-137976721D01*
X136824810Y-138203451D01*
X136929810Y-138295534D01*
X136967234Y-138354536D01*
X136966818Y-138424405D01*
X136928694Y-138482957D01*
X136864967Y-138511603D01*
X136848051Y-138512762D01*
X134419444Y-138512762D01*
X134352405Y-138493077D01*
X134306650Y-138440273D01*
X134302025Y-138428621D01*
X134234946Y-138231014D01*
X134234945Y-138231010D01*
X134221354Y-138203451D01*
X134101568Y-137960548D01*
X134101564Y-137960541D01*
X133934026Y-137709802D01*
X133735189Y-137483072D01*
X133508459Y-137284235D01*
X133257720Y-137116697D01*
X133257713Y-137116693D01*
X132987268Y-136983324D01*
X132987247Y-136983315D01*
X132701698Y-136886384D01*
X132701692Y-136886382D01*
X132701691Y-136886382D01*
X132701689Y-136886381D01*
X132701683Y-136886380D01*
X132405930Y-136827550D01*
X132405921Y-136827549D01*
X132405920Y-136827549D01*
X132105000Y-136807826D01*
X131804080Y-136827549D01*
X131804079Y-136827549D01*
X131804069Y-136827550D01*
X131508316Y-136886380D01*
X131508301Y-136886384D01*
X131222752Y-136983315D01*
X131222731Y-136983324D01*
X130952286Y-137116693D01*
X130952279Y-137116697D01*
X130701540Y-137284235D01*
X130474810Y-137483072D01*
X130275973Y-137709802D01*
X130108435Y-137960541D01*
X130108431Y-137960548D01*
X129975062Y-138230993D01*
X129975053Y-138231014D01*
X129878122Y-138516563D01*
X129878118Y-138516578D01*
X129819288Y-138812331D01*
X129819287Y-138812343D01*
X129799564Y-139113262D01*
X121174234Y-139113262D01*
X125202294Y-135085201D01*
X125263615Y-135051718D01*
X125322066Y-135053109D01*
X125341604Y-135058344D01*
X125418308Y-135078897D01*
X125580230Y-135093063D01*
X125644998Y-135098730D01*
X125645000Y-135098730D01*
X125645002Y-135098730D01*
X125701673Y-135093771D01*
X125871692Y-135078897D01*
X126091496Y-135020001D01*
X126297734Y-134923830D01*
X126484139Y-134793309D01*
X126645047Y-134632401D01*
X126775568Y-134445996D01*
X126871739Y-134239758D01*
X126930635Y-134019954D01*
X126937220Y-133944683D01*
X128439500Y-133944683D01*
X128439500Y-134121840D01*
X128467214Y-134296818D01*
X128521956Y-134465301D01*
X128521957Y-134465304D01*
X128602386Y-134623152D01*
X128706517Y-134766476D01*
X128831786Y-134891745D01*
X128975110Y-134995876D01*
X128978757Y-134997734D01*
X129132957Y-135076304D01*
X129132960Y-135076305D01*
X129201979Y-135098730D01*
X129301445Y-135131048D01*
X129476421Y-135158762D01*
X129476422Y-135158762D01*
X129653578Y-135158762D01*
X129653579Y-135158762D01*
X129828555Y-135131048D01*
X129997042Y-135076304D01*
X130154890Y-134995876D01*
X130298214Y-134891745D01*
X130423483Y-134766476D01*
X130527614Y-134623152D01*
X130608042Y-134465304D01*
X130662786Y-134296817D01*
X130690500Y-134121841D01*
X130690500Y-133944683D01*
X130662786Y-133769707D01*
X130608042Y-133601220D01*
X130608042Y-133601219D01*
X130527613Y-133443371D01*
X130423483Y-133300048D01*
X130298214Y-133174779D01*
X130154890Y-133070648D01*
X129997042Y-132990219D01*
X129997039Y-132990218D01*
X129828556Y-132935476D01*
X129741067Y-132921619D01*
X129653579Y-132907762D01*
X129476421Y-132907762D01*
X129418095Y-132917000D01*
X129301443Y-132935476D01*
X129132960Y-132990218D01*
X129132957Y-132990219D01*
X128975109Y-133070648D01*
X128893338Y-133130058D01*
X128831786Y-133174779D01*
X128831784Y-133174781D01*
X128831783Y-133174781D01*
X128706519Y-133300045D01*
X128706519Y-133300046D01*
X128706517Y-133300048D01*
X128672569Y-133346773D01*
X128602386Y-133443371D01*
X128521957Y-133601219D01*
X128521956Y-133601222D01*
X128467214Y-133769705D01*
X128439500Y-133944683D01*
X126937220Y-133944683D01*
X126949864Y-133800165D01*
X126950468Y-133793263D01*
X126950468Y-133793260D01*
X126944801Y-133728492D01*
X126930635Y-133566570D01*
X126871739Y-133346766D01*
X126775568Y-133140528D01*
X126645047Y-132954123D01*
X126645045Y-132954120D01*
X126484141Y-132793216D01*
X126297734Y-132662694D01*
X126297732Y-132662693D01*
X126091497Y-132566523D01*
X126091488Y-132566520D01*
X125871697Y-132507628D01*
X125871693Y-132507627D01*
X125871692Y-132507627D01*
X125871691Y-132507626D01*
X125871686Y-132507626D01*
X125645002Y-132487794D01*
X125644998Y-132487794D01*
X125418313Y-132507626D01*
X125418302Y-132507628D01*
X125198511Y-132566520D01*
X125198502Y-132566523D01*
X124992267Y-132662693D01*
X124992265Y-132662694D01*
X124805858Y-132793216D01*
X124644954Y-132954120D01*
X124514432Y-133140527D01*
X124514431Y-133140529D01*
X124418261Y-133346764D01*
X124418258Y-133346773D01*
X124359366Y-133566564D01*
X124359364Y-133566575D01*
X124339532Y-133793260D01*
X124339532Y-133793263D01*
X124359364Y-134019948D01*
X124359366Y-134019959D01*
X124385152Y-134116193D01*
X124383489Y-134186043D01*
X124353058Y-134235967D01*
X121969658Y-136619367D01*
X121908335Y-136652852D01*
X121838643Y-136647868D01*
X121782710Y-136605996D01*
X121758293Y-136540532D01*
X121758252Y-136539945D01*
X121740713Y-136272342D01*
X121681880Y-135976571D01*
X121584945Y-135691010D01*
X121531905Y-135583456D01*
X121451568Y-135420548D01*
X121451567Y-135420547D01*
X121451566Y-135420544D01*
X121284025Y-135169801D01*
X121284023Y-135169799D01*
X121282115Y-135166943D01*
X121261237Y-135100265D01*
X121279722Y-135032885D01*
X121312332Y-134997734D01*
X121314887Y-134995877D01*
X121314890Y-134995876D01*
X121458214Y-134891745D01*
X121583483Y-134766476D01*
X121687614Y-134623152D01*
X121768042Y-134465304D01*
X121822786Y-134296817D01*
X121850500Y-134121841D01*
X121850500Y-133944683D01*
X121822786Y-133769707D01*
X121768042Y-133601220D01*
X121768042Y-133601219D01*
X121687613Y-133443371D01*
X121583483Y-133300048D01*
X121458214Y-133174779D01*
X121314890Y-133070648D01*
X121157042Y-132990219D01*
X121157039Y-132990218D01*
X120988556Y-132935476D01*
X120901067Y-132921619D01*
X120813579Y-132907762D01*
X120636421Y-132907762D01*
X120578095Y-132917000D01*
X120461443Y-132935476D01*
X120292960Y-132990218D01*
X120292957Y-132990219D01*
X120135109Y-133070648D01*
X120053338Y-133130058D01*
X119991786Y-133174779D01*
X119991784Y-133174781D01*
X119991783Y-133174781D01*
X119866519Y-133300045D01*
X119866519Y-133300046D01*
X119866517Y-133300048D01*
X119832569Y-133346773D01*
X119762386Y-133443371D01*
X119681957Y-133601219D01*
X119681956Y-133601222D01*
X119627214Y-133769705D01*
X119599500Y-133944683D01*
X119599500Y-134121838D01*
X119600104Y-134125654D01*
X119591144Y-134194947D01*
X119546144Y-134248395D01*
X119479391Y-134269030D01*
X119469529Y-134268778D01*
X119455000Y-134267826D01*
X119154080Y-134287549D01*
X119154079Y-134287549D01*
X119154069Y-134287550D01*
X118858316Y-134346380D01*
X118858301Y-134346384D01*
X118572752Y-134443315D01*
X118572731Y-134443324D01*
X118302286Y-134576693D01*
X118302279Y-134576697D01*
X118051540Y-134744235D01*
X118009654Y-134780968D01*
X117946272Y-134810370D01*
X117877055Y-134800837D01*
X117823981Y-134755397D01*
X117803898Y-134688476D01*
X117808120Y-134655651D01*
X117856993Y-134473255D01*
X117895500Y-134180768D01*
X117895500Y-133885756D01*
X117856993Y-133593269D01*
X117780639Y-133308310D01*
X117667743Y-133035755D01*
X117641453Y-132990220D01*
X117520238Y-132780268D01*
X117340647Y-132546221D01*
X117340641Y-132546214D01*
X117132047Y-132337620D01*
X117132040Y-132337614D01*
X116897993Y-132158023D01*
X116642510Y-132010520D01*
X116642500Y-132010516D01*
X116369961Y-131897626D01*
X116369954Y-131897624D01*
X116369952Y-131897623D01*
X116084993Y-131821269D01*
X116036113Y-131814833D01*
X115792513Y-131782762D01*
X115792506Y-131782762D01*
X115497494Y-131782762D01*
X115497486Y-131782762D01*
X115219085Y-131819415D01*
X115205007Y-131821269D01*
X114920048Y-131897623D01*
X114920038Y-131897626D01*
X114647499Y-132010516D01*
X114647489Y-132010520D01*
X114392006Y-132158023D01*
X114157959Y-132337614D01*
X114157952Y-132337620D01*
X113949358Y-132546214D01*
X113949352Y-132546221D01*
X113769761Y-132780268D01*
X113622258Y-133035751D01*
X113622254Y-133035761D01*
X113509364Y-133308300D01*
X113509361Y-133308310D01*
X113473172Y-133443372D01*
X113433008Y-133593266D01*
X113433006Y-133593277D01*
X113394500Y-133885748D01*
X113394500Y-134180775D01*
X113416304Y-134346384D01*
X113433007Y-134473255D01*
X113505616Y-134744237D01*
X113509361Y-134758213D01*
X113509364Y-134758223D01*
X113622254Y-135030762D01*
X113622258Y-135030772D01*
X113769761Y-135286255D01*
X113949352Y-135520302D01*
X113949358Y-135520309D01*
X114157952Y-135728903D01*
X114157959Y-135728909D01*
X114392006Y-135908500D01*
X114647489Y-136056003D01*
X114647490Y-136056003D01*
X114647493Y-136056005D01*
X114920048Y-136168901D01*
X115205007Y-136245255D01*
X115497494Y-136283762D01*
X115497501Y-136283762D01*
X115792499Y-136283762D01*
X115792506Y-136283762D01*
X116084993Y-136245255D01*
X116369952Y-136168901D01*
X116642507Y-136056005D01*
X116897994Y-135908500D01*
X117051339Y-135790833D01*
X117116507Y-135765639D01*
X117184952Y-135779677D01*
X117234942Y-135828491D01*
X117250606Y-135896582D01*
X117244245Y-135929066D01*
X117228121Y-135976566D01*
X117228118Y-135976578D01*
X117169288Y-136272331D01*
X117169287Y-136272341D01*
X117169287Y-136272342D01*
X117149564Y-136573262D01*
X117165931Y-136822986D01*
X117169287Y-136874180D01*
X117169288Y-136874192D01*
X117228118Y-137169945D01*
X117228122Y-137169960D01*
X117325053Y-137455509D01*
X117325062Y-137455530D01*
X117458431Y-137725975D01*
X117458435Y-137725982D01*
X117625973Y-137976721D01*
X117824810Y-138203451D01*
X117929810Y-138295534D01*
X117967234Y-138354536D01*
X117966818Y-138424405D01*
X117928694Y-138482957D01*
X117864967Y-138511603D01*
X117848051Y-138512762D01*
X115419444Y-138512762D01*
X115352405Y-138493077D01*
X115306650Y-138440273D01*
X115302025Y-138428621D01*
X115234946Y-138231014D01*
X115234945Y-138231010D01*
X115221354Y-138203451D01*
X115101568Y-137960548D01*
X115101564Y-137960541D01*
X114934026Y-137709802D01*
X114735189Y-137483072D01*
X114508459Y-137284235D01*
X114257720Y-137116697D01*
X114257713Y-137116693D01*
X113987268Y-136983324D01*
X113987247Y-136983315D01*
X113701698Y-136886384D01*
X113701692Y-136886382D01*
X113701691Y-136886382D01*
X113701689Y-136886381D01*
X113701683Y-136886380D01*
X113405930Y-136827550D01*
X113405921Y-136827549D01*
X113405920Y-136827549D01*
X113105000Y-136807826D01*
X112804080Y-136827549D01*
X112804079Y-136827549D01*
X112804069Y-136827550D01*
X112508316Y-136886380D01*
X112508301Y-136886384D01*
X112222752Y-136983315D01*
X112222731Y-136983324D01*
X111952286Y-137116693D01*
X111952279Y-137116697D01*
X111701540Y-137284235D01*
X111474810Y-137483072D01*
X111275973Y-137709802D01*
X111108435Y-137960541D01*
X111108431Y-137960548D01*
X110975062Y-138230993D01*
X110975053Y-138231014D01*
X110878122Y-138516563D01*
X110878118Y-138516578D01*
X110819288Y-138812331D01*
X110819287Y-138812343D01*
X110799564Y-139113262D01*
X102174234Y-139113262D01*
X106202294Y-135085201D01*
X106263615Y-135051718D01*
X106322066Y-135053109D01*
X106341604Y-135058344D01*
X106418308Y-135078897D01*
X106580230Y-135093063D01*
X106644998Y-135098730D01*
X106645000Y-135098730D01*
X106645002Y-135098730D01*
X106701673Y-135093771D01*
X106871692Y-135078897D01*
X107091496Y-135020001D01*
X107297734Y-134923830D01*
X107484139Y-134793309D01*
X107645047Y-134632401D01*
X107775568Y-134445996D01*
X107871739Y-134239758D01*
X107930635Y-134019954D01*
X107937220Y-133944683D01*
X109439500Y-133944683D01*
X109439500Y-134121840D01*
X109467214Y-134296818D01*
X109521956Y-134465301D01*
X109521957Y-134465304D01*
X109602386Y-134623152D01*
X109706517Y-134766476D01*
X109831786Y-134891745D01*
X109975110Y-134995876D01*
X109978757Y-134997734D01*
X110132957Y-135076304D01*
X110132960Y-135076305D01*
X110201979Y-135098730D01*
X110301445Y-135131048D01*
X110476421Y-135158762D01*
X110476422Y-135158762D01*
X110653578Y-135158762D01*
X110653579Y-135158762D01*
X110828555Y-135131048D01*
X110997042Y-135076304D01*
X111154890Y-134995876D01*
X111298214Y-134891745D01*
X111423483Y-134766476D01*
X111527614Y-134623152D01*
X111608042Y-134465304D01*
X111662786Y-134296817D01*
X111690500Y-134121841D01*
X111690500Y-133944683D01*
X111662786Y-133769707D01*
X111608042Y-133601220D01*
X111608042Y-133601219D01*
X111527613Y-133443371D01*
X111423483Y-133300048D01*
X111298214Y-133174779D01*
X111154890Y-133070648D01*
X110997042Y-132990219D01*
X110997039Y-132990218D01*
X110828556Y-132935476D01*
X110741067Y-132921619D01*
X110653579Y-132907762D01*
X110476421Y-132907762D01*
X110418095Y-132917000D01*
X110301443Y-132935476D01*
X110132960Y-132990218D01*
X110132957Y-132990219D01*
X109975109Y-133070648D01*
X109893338Y-133130058D01*
X109831786Y-133174779D01*
X109831784Y-133174781D01*
X109831783Y-133174781D01*
X109706519Y-133300045D01*
X109706519Y-133300046D01*
X109706517Y-133300048D01*
X109672569Y-133346773D01*
X109602386Y-133443371D01*
X109521957Y-133601219D01*
X109521956Y-133601222D01*
X109467214Y-133769705D01*
X109439500Y-133944683D01*
X107937220Y-133944683D01*
X107949864Y-133800165D01*
X107950468Y-133793263D01*
X107950468Y-133793260D01*
X107944801Y-133728492D01*
X107930635Y-133566570D01*
X107871739Y-133346766D01*
X107775568Y-133140528D01*
X107645047Y-132954123D01*
X107645045Y-132954120D01*
X107484141Y-132793216D01*
X107297734Y-132662694D01*
X107297732Y-132662693D01*
X107091497Y-132566523D01*
X107091488Y-132566520D01*
X106871697Y-132507628D01*
X106871693Y-132507627D01*
X106871692Y-132507627D01*
X106871691Y-132507626D01*
X106871686Y-132507626D01*
X106645002Y-132487794D01*
X106644998Y-132487794D01*
X106418313Y-132507626D01*
X106418302Y-132507628D01*
X106198511Y-132566520D01*
X106198502Y-132566523D01*
X105992267Y-132662693D01*
X105992265Y-132662694D01*
X105805858Y-132793216D01*
X105644954Y-132954120D01*
X105514432Y-133140527D01*
X105514431Y-133140529D01*
X105418261Y-133346764D01*
X105418258Y-133346773D01*
X105359366Y-133566564D01*
X105359364Y-133566575D01*
X105339532Y-133793260D01*
X105339532Y-133793263D01*
X105359364Y-134019948D01*
X105359366Y-134019959D01*
X105385152Y-134116193D01*
X105383489Y-134186043D01*
X105353058Y-134235967D01*
X102969658Y-136619367D01*
X102908335Y-136652852D01*
X102838643Y-136647868D01*
X102782710Y-136605996D01*
X102758293Y-136540532D01*
X102758252Y-136539945D01*
X102740713Y-136272342D01*
X102681880Y-135976571D01*
X102584945Y-135691010D01*
X102531905Y-135583456D01*
X102451568Y-135420548D01*
X102451567Y-135420547D01*
X102451566Y-135420544D01*
X102284025Y-135169801D01*
X102284023Y-135169799D01*
X102282115Y-135166943D01*
X102261237Y-135100265D01*
X102279722Y-135032885D01*
X102312332Y-134997734D01*
X102314887Y-134995877D01*
X102314890Y-134995876D01*
X102458214Y-134891745D01*
X102583483Y-134766476D01*
X102687614Y-134623152D01*
X102768042Y-134465304D01*
X102822786Y-134296817D01*
X102850500Y-134121841D01*
X102850500Y-133944683D01*
X102822786Y-133769707D01*
X102768042Y-133601220D01*
X102768042Y-133601219D01*
X102687613Y-133443371D01*
X102583483Y-133300048D01*
X102458214Y-133174779D01*
X102314890Y-133070648D01*
X102157042Y-132990219D01*
X102157039Y-132990218D01*
X101988556Y-132935476D01*
X101901067Y-132921619D01*
X101813579Y-132907762D01*
X101636421Y-132907762D01*
X101578095Y-132917000D01*
X101461443Y-132935476D01*
X101292960Y-132990218D01*
X101292957Y-132990219D01*
X101135109Y-133070648D01*
X101053338Y-133130058D01*
X100991786Y-133174779D01*
X100991784Y-133174781D01*
X100991783Y-133174781D01*
X100866519Y-133300045D01*
X100866519Y-133300046D01*
X100866517Y-133300048D01*
X100832569Y-133346773D01*
X100762386Y-133443371D01*
X100681957Y-133601219D01*
X100681956Y-133601222D01*
X100627214Y-133769705D01*
X100599500Y-133944683D01*
X100599500Y-134121838D01*
X100600104Y-134125654D01*
X100591144Y-134194947D01*
X100546144Y-134248395D01*
X100479391Y-134269030D01*
X100469529Y-134268778D01*
X100455000Y-134267826D01*
X100154080Y-134287549D01*
X100154079Y-134287549D01*
X100154069Y-134287550D01*
X99858316Y-134346380D01*
X99858301Y-134346384D01*
X99572752Y-134443315D01*
X99572731Y-134443324D01*
X99302286Y-134576693D01*
X99302279Y-134576697D01*
X99051540Y-134744235D01*
X99009654Y-134780968D01*
X98946272Y-134810370D01*
X98877055Y-134800837D01*
X98823981Y-134755397D01*
X98803898Y-134688476D01*
X98808120Y-134655651D01*
X98856993Y-134473255D01*
X98895500Y-134180768D01*
X98895500Y-133885756D01*
X98856993Y-133593269D01*
X98780639Y-133308310D01*
X98667743Y-133035755D01*
X98641453Y-132990220D01*
X98520238Y-132780268D01*
X98340647Y-132546221D01*
X98340641Y-132546214D01*
X98132047Y-132337620D01*
X98132040Y-132337614D01*
X97897993Y-132158023D01*
X97642510Y-132010520D01*
X97642500Y-132010516D01*
X97369961Y-131897626D01*
X97369954Y-131897624D01*
X97369952Y-131897623D01*
X97084993Y-131821269D01*
X97036113Y-131814833D01*
X96792513Y-131782762D01*
X96792506Y-131782762D01*
X96497494Y-131782762D01*
X96497486Y-131782762D01*
X96219085Y-131819415D01*
X96205007Y-131821269D01*
X95920048Y-131897623D01*
X95920038Y-131897626D01*
X95647499Y-132010516D01*
X95647489Y-132010520D01*
X95392006Y-132158023D01*
X95157959Y-132337614D01*
X95157952Y-132337620D01*
X94949358Y-132546214D01*
X94949352Y-132546221D01*
X94769761Y-132780268D01*
X94622258Y-133035751D01*
X94622254Y-133035761D01*
X94509364Y-133308300D01*
X94509361Y-133308310D01*
X94473172Y-133443372D01*
X94433008Y-133593266D01*
X94433006Y-133593277D01*
X94394500Y-133885748D01*
X94394500Y-134180775D01*
X94416304Y-134346384D01*
X94433007Y-134473255D01*
X94505616Y-134744237D01*
X94509361Y-134758213D01*
X94509364Y-134758223D01*
X94622254Y-135030762D01*
X94622258Y-135030772D01*
X94769761Y-135286255D01*
X94949352Y-135520302D01*
X94949358Y-135520309D01*
X95157952Y-135728903D01*
X95157959Y-135728909D01*
X95392006Y-135908500D01*
X95647489Y-136056003D01*
X95647490Y-136056003D01*
X95647493Y-136056005D01*
X95920048Y-136168901D01*
X96205007Y-136245255D01*
X96497494Y-136283762D01*
X96497501Y-136283762D01*
X96792499Y-136283762D01*
X96792506Y-136283762D01*
X97084993Y-136245255D01*
X97369952Y-136168901D01*
X97642507Y-136056005D01*
X97897994Y-135908500D01*
X98051339Y-135790833D01*
X98116507Y-135765639D01*
X98184952Y-135779677D01*
X98234942Y-135828491D01*
X98250606Y-135896582D01*
X98244245Y-135929066D01*
X98228121Y-135976566D01*
X98228118Y-135976578D01*
X98169288Y-136272331D01*
X98169287Y-136272341D01*
X98169287Y-136272342D01*
X98149564Y-136573262D01*
X98165931Y-136822986D01*
X98169287Y-136874180D01*
X98169288Y-136874192D01*
X98228118Y-137169945D01*
X98228122Y-137169960D01*
X98325053Y-137455509D01*
X98325062Y-137455530D01*
X98458431Y-137725975D01*
X98458435Y-137725982D01*
X98625973Y-137976721D01*
X98824810Y-138203451D01*
X98929810Y-138295534D01*
X98967234Y-138354536D01*
X98966818Y-138424405D01*
X98928694Y-138482957D01*
X98864967Y-138511603D01*
X98848051Y-138512762D01*
X96419444Y-138512762D01*
X96352405Y-138493077D01*
X96306650Y-138440273D01*
X96302025Y-138428621D01*
X96234946Y-138231014D01*
X96234945Y-138231010D01*
X96221354Y-138203451D01*
X96101568Y-137960548D01*
X96101564Y-137960541D01*
X95934026Y-137709802D01*
X95735189Y-137483072D01*
X95508459Y-137284235D01*
X95257720Y-137116697D01*
X95257713Y-137116693D01*
X94987268Y-136983324D01*
X94987247Y-136983315D01*
X94701698Y-136886384D01*
X94701692Y-136886382D01*
X94701691Y-136886382D01*
X94701689Y-136886381D01*
X94701683Y-136886380D01*
X94405930Y-136827550D01*
X94405921Y-136827549D01*
X94405920Y-136827549D01*
X94105000Y-136807826D01*
X93804080Y-136827549D01*
X93804079Y-136827549D01*
X93804069Y-136827550D01*
X93508316Y-136886380D01*
X93508301Y-136886384D01*
X93222752Y-136983315D01*
X93222731Y-136983324D01*
X92952286Y-137116693D01*
X92952279Y-137116697D01*
X92701540Y-137284235D01*
X92474810Y-137483072D01*
X92275973Y-137709802D01*
X92108435Y-137960541D01*
X92108431Y-137960548D01*
X91975062Y-138230993D01*
X91975053Y-138231014D01*
X91878122Y-138516563D01*
X91878118Y-138516578D01*
X91819288Y-138812331D01*
X91819287Y-138812343D01*
X91799564Y-139113262D01*
X81805900Y-139113262D01*
X81805900Y-133944683D01*
X90439500Y-133944683D01*
X90439500Y-134121840D01*
X90467214Y-134296818D01*
X90521956Y-134465301D01*
X90521957Y-134465304D01*
X90602386Y-134623152D01*
X90706517Y-134766476D01*
X90831786Y-134891745D01*
X90975110Y-134995876D01*
X90978757Y-134997734D01*
X91132957Y-135076304D01*
X91132960Y-135076305D01*
X91201979Y-135098730D01*
X91301445Y-135131048D01*
X91476421Y-135158762D01*
X91476422Y-135158762D01*
X91653578Y-135158762D01*
X91653579Y-135158762D01*
X91828555Y-135131048D01*
X91997042Y-135076304D01*
X92154890Y-134995876D01*
X92298214Y-134891745D01*
X92423483Y-134766476D01*
X92527614Y-134623152D01*
X92608042Y-134465304D01*
X92662786Y-134296817D01*
X92690500Y-134121841D01*
X92690500Y-133944683D01*
X92662786Y-133769707D01*
X92608042Y-133601220D01*
X92608042Y-133601219D01*
X92527613Y-133443371D01*
X92423483Y-133300048D01*
X92298214Y-133174779D01*
X92154890Y-133070648D01*
X91997042Y-132990219D01*
X91997039Y-132990218D01*
X91828556Y-132935476D01*
X91741067Y-132921619D01*
X91653579Y-132907762D01*
X91476421Y-132907762D01*
X91418095Y-132917000D01*
X91301443Y-132935476D01*
X91132960Y-132990218D01*
X91132957Y-132990219D01*
X90975109Y-133070648D01*
X90893338Y-133130058D01*
X90831786Y-133174779D01*
X90831784Y-133174781D01*
X90831783Y-133174781D01*
X90706519Y-133300045D01*
X90706519Y-133300046D01*
X90706517Y-133300048D01*
X90672569Y-133346773D01*
X90602386Y-133443371D01*
X90521957Y-133601219D01*
X90521956Y-133601222D01*
X90467214Y-133769705D01*
X90439500Y-133944683D01*
X81805900Y-133944683D01*
X81805900Y-120063262D01*
X91799564Y-120063262D01*
X91819287Y-120364180D01*
X91819288Y-120364192D01*
X91878118Y-120659945D01*
X91878122Y-120659960D01*
X91975053Y-120945509D01*
X91975062Y-120945530D01*
X92108431Y-121215975D01*
X92108435Y-121215982D01*
X92275973Y-121466721D01*
X92474810Y-121693451D01*
X92701540Y-121892288D01*
X92952279Y-122059826D01*
X92952286Y-122059830D01*
X93222731Y-122193199D01*
X93222736Y-122193201D01*
X93222748Y-122193207D01*
X93508309Y-122290142D01*
X93708251Y-122329913D01*
X93804069Y-122348973D01*
X93804070Y-122348973D01*
X93804080Y-122348975D01*
X94105000Y-122368698D01*
X94405920Y-122348975D01*
X94701691Y-122290142D01*
X94987252Y-122193207D01*
X95257718Y-122059828D01*
X95508461Y-121892287D01*
X95735189Y-121693451D01*
X95934025Y-121466723D01*
X96101566Y-121215980D01*
X96234945Y-120945514D01*
X96302025Y-120747903D01*
X96342214Y-120690749D01*
X96406923Y-120664396D01*
X96419444Y-120663762D01*
X101288331Y-120663762D01*
X101288347Y-120663763D01*
X101295943Y-120663763D01*
X101454054Y-120663763D01*
X101454057Y-120663763D01*
X101606785Y-120622839D01*
X101656904Y-120593901D01*
X101743716Y-120543782D01*
X101855520Y-120431978D01*
X101855520Y-120431976D01*
X101865728Y-120421769D01*
X101865730Y-120421766D01*
X102224234Y-120063262D01*
X110799564Y-120063262D01*
X110819287Y-120364180D01*
X110819288Y-120364192D01*
X110878118Y-120659945D01*
X110878122Y-120659960D01*
X110975053Y-120945509D01*
X110975062Y-120945530D01*
X111108431Y-121215975D01*
X111108435Y-121215982D01*
X111275973Y-121466721D01*
X111474810Y-121693451D01*
X111701540Y-121892288D01*
X111952279Y-122059826D01*
X111952286Y-122059830D01*
X112222731Y-122193199D01*
X112222736Y-122193201D01*
X112222748Y-122193207D01*
X112508309Y-122290142D01*
X112708251Y-122329913D01*
X112804069Y-122348973D01*
X112804070Y-122348973D01*
X112804080Y-122348975D01*
X113105000Y-122368698D01*
X113405920Y-122348975D01*
X113701691Y-122290142D01*
X113987252Y-122193207D01*
X114257718Y-122059828D01*
X114508461Y-121892287D01*
X114735189Y-121693451D01*
X114934025Y-121466723D01*
X115101566Y-121215980D01*
X115234945Y-120945514D01*
X115302025Y-120747903D01*
X115342214Y-120690749D01*
X115406923Y-120664396D01*
X115419444Y-120663762D01*
X120288331Y-120663762D01*
X120288347Y-120663763D01*
X120295943Y-120663763D01*
X120454054Y-120663763D01*
X120454057Y-120663763D01*
X120606785Y-120622839D01*
X120656904Y-120593901D01*
X120743716Y-120543782D01*
X120855520Y-120431978D01*
X120855520Y-120431976D01*
X120865728Y-120421769D01*
X120865730Y-120421766D01*
X121224234Y-120063262D01*
X129799564Y-120063262D01*
X129819287Y-120364180D01*
X129819288Y-120364192D01*
X129878118Y-120659945D01*
X129878122Y-120659960D01*
X129975053Y-120945509D01*
X129975062Y-120945530D01*
X130108431Y-121215975D01*
X130108435Y-121215982D01*
X130275973Y-121466721D01*
X130474810Y-121693451D01*
X130701540Y-121892288D01*
X130952279Y-122059826D01*
X130952286Y-122059830D01*
X131222731Y-122193199D01*
X131222736Y-122193201D01*
X131222748Y-122193207D01*
X131508309Y-122290142D01*
X131708251Y-122329913D01*
X131804069Y-122348973D01*
X131804070Y-122348973D01*
X131804080Y-122348975D01*
X132105000Y-122368698D01*
X132405920Y-122348975D01*
X132701691Y-122290142D01*
X132987252Y-122193207D01*
X133257718Y-122059828D01*
X133508461Y-121892287D01*
X133735189Y-121693451D01*
X133934025Y-121466723D01*
X134101566Y-121215980D01*
X134234945Y-120945514D01*
X134302025Y-120747903D01*
X134342214Y-120690749D01*
X134406923Y-120664396D01*
X134419444Y-120663762D01*
X138784475Y-120663762D01*
X138800663Y-120664823D01*
X138807788Y-120665761D01*
X138807791Y-120665762D01*
X138807792Y-120665762D01*
X140984931Y-120665762D01*
X140984947Y-120665763D01*
X140992543Y-120665763D01*
X141150654Y-120665763D01*
X141150657Y-120665763D01*
X141303385Y-120624839D01*
X141353504Y-120595901D01*
X141440316Y-120545782D01*
X141552120Y-120433978D01*
X141552120Y-120433976D01*
X141562328Y-120423769D01*
X141562330Y-120423766D01*
X143494645Y-118491451D01*
X143494648Y-118491450D01*
X143606452Y-118379646D01*
X143656571Y-118292834D01*
X143685509Y-118242715D01*
X143726432Y-118089987D01*
X143726432Y-117931873D01*
X143726432Y-115164508D01*
X143746117Y-115097469D01*
X143779306Y-115062935D01*
X143965071Y-114932863D01*
X144125979Y-114771955D01*
X144256500Y-114585550D01*
X144352671Y-114379312D01*
X144411567Y-114159508D01*
X144431400Y-113932816D01*
X144411567Y-113706124D01*
X144366848Y-113539231D01*
X144352673Y-113486327D01*
X144352670Y-113486318D01*
X144256500Y-113280083D01*
X144256499Y-113280081D01*
X144125977Y-113093674D01*
X143965073Y-112932770D01*
X143778666Y-112802248D01*
X143778664Y-112802247D01*
X143572429Y-112706077D01*
X143572420Y-112706074D01*
X143352629Y-112647182D01*
X143352625Y-112647181D01*
X143352624Y-112647181D01*
X143352623Y-112647180D01*
X143352618Y-112647180D01*
X143125934Y-112627348D01*
X143125930Y-112627348D01*
X142899245Y-112647180D01*
X142899234Y-112647182D01*
X142679443Y-112706074D01*
X142679434Y-112706077D01*
X142473199Y-112802247D01*
X142473197Y-112802248D01*
X142286790Y-112932770D01*
X142125886Y-113093674D01*
X141995364Y-113280081D01*
X141995363Y-113280083D01*
X141899193Y-113486318D01*
X141899190Y-113486327D01*
X141840298Y-113706118D01*
X141840296Y-113706129D01*
X141820464Y-113932814D01*
X141820464Y-113932817D01*
X141840296Y-114159502D01*
X141840298Y-114159513D01*
X141899190Y-114379304D01*
X141899193Y-114379313D01*
X141995363Y-114585548D01*
X141995364Y-114585550D01*
X142125886Y-114771957D01*
X142286790Y-114932861D01*
X142286793Y-114932863D01*
X142472556Y-115062934D01*
X142516180Y-115117509D01*
X142525432Y-115164508D01*
X142525432Y-117710833D01*
X142505747Y-117777872D01*
X142489113Y-117798514D01*
X140859184Y-119428443D01*
X140797861Y-119461928D01*
X140771503Y-119464762D01*
X140059668Y-119464762D01*
X139992629Y-119445077D01*
X139946874Y-119392273D01*
X139936930Y-119323115D01*
X139965955Y-119259559D01*
X139977909Y-119247534D01*
X140085189Y-119153451D01*
X140284025Y-118926723D01*
X140451566Y-118675980D01*
X140584945Y-118405514D01*
X140681880Y-118119953D01*
X140740713Y-117824182D01*
X140760436Y-117523262D01*
X140740713Y-117222342D01*
X140681880Y-116926571D01*
X140584945Y-116641010D01*
X140451566Y-116370544D01*
X140284025Y-116119801D01*
X140284023Y-116119799D01*
X140282115Y-116116943D01*
X140261237Y-116050265D01*
X140279722Y-115982885D01*
X140312332Y-115947734D01*
X140314887Y-115945877D01*
X140314890Y-115945876D01*
X140458214Y-115841745D01*
X140583483Y-115716476D01*
X140687614Y-115573152D01*
X140768042Y-115415304D01*
X140822786Y-115246817D01*
X140850500Y-115071841D01*
X140850500Y-114894683D01*
X140822786Y-114719707D01*
X140795414Y-114635463D01*
X140768043Y-114551222D01*
X140768042Y-114551219D01*
X140687613Y-114393371D01*
X140583483Y-114250048D01*
X140458214Y-114124779D01*
X140314890Y-114020648D01*
X140157042Y-113940219D01*
X140157039Y-113940218D01*
X139988556Y-113885476D01*
X139901067Y-113871619D01*
X139813579Y-113857762D01*
X139636421Y-113857762D01*
X139578095Y-113867000D01*
X139461443Y-113885476D01*
X139292960Y-113940218D01*
X139292957Y-113940219D01*
X139135109Y-114020648D01*
X139053338Y-114080058D01*
X138991786Y-114124779D01*
X138991784Y-114124781D01*
X138991783Y-114124781D01*
X138866519Y-114250045D01*
X138866519Y-114250046D01*
X138866517Y-114250048D01*
X138821796Y-114311600D01*
X138762386Y-114393371D01*
X138681957Y-114551219D01*
X138681956Y-114551222D01*
X138627214Y-114719705D01*
X138599500Y-114894683D01*
X138599500Y-115071838D01*
X138600104Y-115075654D01*
X138591144Y-115144947D01*
X138546144Y-115198395D01*
X138479391Y-115219030D01*
X138469529Y-115218778D01*
X138455000Y-115217826D01*
X138154080Y-115237549D01*
X138154079Y-115237549D01*
X138154069Y-115237550D01*
X137858316Y-115296380D01*
X137858301Y-115296384D01*
X137572752Y-115393315D01*
X137572731Y-115393324D01*
X137302286Y-115526693D01*
X137302279Y-115526697D01*
X137051540Y-115694235D01*
X137009654Y-115730968D01*
X136946272Y-115760370D01*
X136877055Y-115750837D01*
X136823981Y-115705397D01*
X136803898Y-115638476D01*
X136808120Y-115605651D01*
X136856993Y-115423255D01*
X136895500Y-115130768D01*
X136895500Y-114835756D01*
X136856993Y-114543269D01*
X136780639Y-114258310D01*
X136667743Y-113985755D01*
X136649480Y-113954123D01*
X136520238Y-113730268D01*
X136340647Y-113496221D01*
X136340641Y-113496214D01*
X136132047Y-113287620D01*
X136132040Y-113287614D01*
X135897993Y-113108023D01*
X135642510Y-112960520D01*
X135642500Y-112960516D01*
X135369961Y-112847626D01*
X135369954Y-112847624D01*
X135369952Y-112847623D01*
X135084993Y-112771269D01*
X135036113Y-112764833D01*
X134792513Y-112732762D01*
X134792506Y-112732762D01*
X134497494Y-112732762D01*
X134497486Y-112732762D01*
X134219085Y-112769415D01*
X134205007Y-112771269D01*
X134089395Y-112802247D01*
X133920048Y-112847623D01*
X133920038Y-112847626D01*
X133647499Y-112960516D01*
X133647489Y-112960520D01*
X133392006Y-113108023D01*
X133157959Y-113287614D01*
X133157952Y-113287620D01*
X132949358Y-113496214D01*
X132949352Y-113496221D01*
X132769761Y-113730268D01*
X132622258Y-113985751D01*
X132622254Y-113985761D01*
X132509364Y-114258300D01*
X132509361Y-114258310D01*
X132473172Y-114393372D01*
X132433008Y-114543266D01*
X132433006Y-114543277D01*
X132394500Y-114835748D01*
X132394500Y-115130775D01*
X132416304Y-115296384D01*
X132433007Y-115423255D01*
X132505616Y-115694237D01*
X132509361Y-115708213D01*
X132509364Y-115708223D01*
X132622254Y-115980762D01*
X132622258Y-115980772D01*
X132769761Y-116236255D01*
X132949352Y-116470302D01*
X132949358Y-116470309D01*
X133157952Y-116678903D01*
X133157959Y-116678909D01*
X133392006Y-116858500D01*
X133647489Y-117006003D01*
X133647490Y-117006003D01*
X133647493Y-117006005D01*
X133920048Y-117118901D01*
X134205007Y-117195255D01*
X134497494Y-117233762D01*
X134497501Y-117233762D01*
X134792499Y-117233762D01*
X134792506Y-117233762D01*
X135084993Y-117195255D01*
X135369952Y-117118901D01*
X135642507Y-117006005D01*
X135897994Y-116858500D01*
X136051339Y-116740833D01*
X136116507Y-116715639D01*
X136184952Y-116729677D01*
X136234942Y-116778491D01*
X136250606Y-116846582D01*
X136244245Y-116879066D01*
X136228121Y-116926566D01*
X136228118Y-116926578D01*
X136169288Y-117222331D01*
X136169287Y-117222343D01*
X136149564Y-117523262D01*
X136169287Y-117824180D01*
X136169288Y-117824192D01*
X136228118Y-118119945D01*
X136228122Y-118119960D01*
X136325053Y-118405509D01*
X136325062Y-118405530D01*
X136458431Y-118675975D01*
X136458435Y-118675982D01*
X136625973Y-118926721D01*
X136824810Y-119153451D01*
X136929810Y-119245534D01*
X136967234Y-119304536D01*
X136966818Y-119374405D01*
X136928694Y-119432957D01*
X136864967Y-119461603D01*
X136848051Y-119462762D01*
X134419444Y-119462762D01*
X134352405Y-119443077D01*
X134306650Y-119390273D01*
X134302025Y-119378621D01*
X134251267Y-119229093D01*
X134234945Y-119181010D01*
X134221354Y-119153451D01*
X134101568Y-118910548D01*
X134101564Y-118910541D01*
X133934026Y-118659802D01*
X133735189Y-118433072D01*
X133508459Y-118234235D01*
X133257720Y-118066697D01*
X133257713Y-118066693D01*
X132987268Y-117933324D01*
X132987247Y-117933315D01*
X132701698Y-117836384D01*
X132701692Y-117836382D01*
X132701691Y-117836382D01*
X132701689Y-117836381D01*
X132701683Y-117836380D01*
X132405930Y-117777550D01*
X132405921Y-117777549D01*
X132405920Y-117777549D01*
X132105000Y-117757826D01*
X131804080Y-117777549D01*
X131804079Y-117777549D01*
X131804069Y-117777550D01*
X131508316Y-117836380D01*
X131508301Y-117836384D01*
X131222752Y-117933315D01*
X131222731Y-117933324D01*
X130952286Y-118066693D01*
X130952279Y-118066697D01*
X130701540Y-118234235D01*
X130474810Y-118433072D01*
X130275973Y-118659802D01*
X130108435Y-118910541D01*
X130108431Y-118910548D01*
X129975062Y-119180993D01*
X129975053Y-119181014D01*
X129878122Y-119466563D01*
X129878118Y-119466578D01*
X129819288Y-119762331D01*
X129819287Y-119762343D01*
X129799564Y-120063262D01*
X121224234Y-120063262D01*
X125202294Y-116085201D01*
X125263615Y-116051718D01*
X125322066Y-116053109D01*
X125341604Y-116058344D01*
X125418308Y-116078897D01*
X125580230Y-116093063D01*
X125644998Y-116098730D01*
X125645000Y-116098730D01*
X125645002Y-116098730D01*
X125701673Y-116093771D01*
X125871692Y-116078897D01*
X126091496Y-116020001D01*
X126297734Y-115923830D01*
X126484139Y-115793309D01*
X126645047Y-115632401D01*
X126775568Y-115445996D01*
X126871739Y-115239758D01*
X126930635Y-115019954D01*
X126941595Y-114894683D01*
X128439500Y-114894683D01*
X128439500Y-115071840D01*
X128467214Y-115246818D01*
X128521956Y-115415301D01*
X128521957Y-115415304D01*
X128537595Y-115445994D01*
X128602386Y-115573152D01*
X128706517Y-115716476D01*
X128831786Y-115841745D01*
X128975110Y-115945876D01*
X128978757Y-115947734D01*
X129132957Y-116026304D01*
X129132960Y-116026305D01*
X129158429Y-116034580D01*
X129301445Y-116081048D01*
X129476421Y-116108762D01*
X129476422Y-116108762D01*
X129653578Y-116108762D01*
X129653579Y-116108762D01*
X129828555Y-116081048D01*
X129997042Y-116026304D01*
X130154890Y-115945876D01*
X130298214Y-115841745D01*
X130423483Y-115716476D01*
X130527614Y-115573152D01*
X130608042Y-115415304D01*
X130662786Y-115246817D01*
X130690500Y-115071841D01*
X130690500Y-114894683D01*
X130662786Y-114719707D01*
X130635414Y-114635463D01*
X130608043Y-114551222D01*
X130608042Y-114551219D01*
X130527613Y-114393371D01*
X130423483Y-114250048D01*
X130298214Y-114124779D01*
X130154890Y-114020648D01*
X129997042Y-113940219D01*
X129997039Y-113940218D01*
X129828556Y-113885476D01*
X129741067Y-113871619D01*
X129653579Y-113857762D01*
X129476421Y-113857762D01*
X129418095Y-113867000D01*
X129301443Y-113885476D01*
X129132960Y-113940218D01*
X129132957Y-113940219D01*
X128975109Y-114020648D01*
X128893338Y-114080058D01*
X128831786Y-114124779D01*
X128831784Y-114124781D01*
X128831783Y-114124781D01*
X128706519Y-114250045D01*
X128706519Y-114250046D01*
X128706517Y-114250048D01*
X128661796Y-114311600D01*
X128602386Y-114393371D01*
X128521957Y-114551219D01*
X128521956Y-114551222D01*
X128467214Y-114719705D01*
X128439500Y-114894683D01*
X126941595Y-114894683D01*
X126950468Y-114793262D01*
X126930635Y-114566570D01*
X126880460Y-114379312D01*
X126871741Y-114346773D01*
X126871738Y-114346764D01*
X126826637Y-114250045D01*
X126775568Y-114140528D01*
X126645047Y-113954123D01*
X126645045Y-113954120D01*
X126484141Y-113793216D01*
X126297734Y-113662694D01*
X126297732Y-113662693D01*
X126091497Y-113566523D01*
X126091488Y-113566520D01*
X125871697Y-113507628D01*
X125871693Y-113507627D01*
X125871692Y-113507627D01*
X125871691Y-113507626D01*
X125871686Y-113507626D01*
X125645002Y-113487794D01*
X125644998Y-113487794D01*
X125418313Y-113507626D01*
X125418302Y-113507628D01*
X125198511Y-113566520D01*
X125198502Y-113566523D01*
X124992267Y-113662693D01*
X124992265Y-113662694D01*
X124805858Y-113793216D01*
X124644954Y-113954120D01*
X124514432Y-114140527D01*
X124514431Y-114140529D01*
X124418261Y-114346764D01*
X124418258Y-114346773D01*
X124359366Y-114566564D01*
X124359364Y-114566575D01*
X124339532Y-114793260D01*
X124339532Y-114793263D01*
X124359364Y-115019948D01*
X124359366Y-115019959D01*
X124385152Y-115116193D01*
X124383489Y-115186043D01*
X124353058Y-115235967D01*
X121971983Y-117617042D01*
X121910660Y-117650527D01*
X121840968Y-117645543D01*
X121785035Y-117603671D01*
X121760618Y-117538207D01*
X121760587Y-117527321D01*
X121760436Y-117527321D01*
X121760436Y-117523269D01*
X121760436Y-117523262D01*
X121740713Y-117222342D01*
X121681880Y-116926571D01*
X121584945Y-116641010D01*
X121451566Y-116370544D01*
X121284025Y-116119801D01*
X121284023Y-116119799D01*
X121282115Y-116116943D01*
X121261237Y-116050265D01*
X121279722Y-115982885D01*
X121312332Y-115947734D01*
X121314887Y-115945877D01*
X121314890Y-115945876D01*
X121458214Y-115841745D01*
X121583483Y-115716476D01*
X121687614Y-115573152D01*
X121768042Y-115415304D01*
X121822786Y-115246817D01*
X121850500Y-115071841D01*
X121850500Y-114894683D01*
X121822786Y-114719707D01*
X121795414Y-114635463D01*
X121768043Y-114551222D01*
X121768042Y-114551219D01*
X121687613Y-114393371D01*
X121583483Y-114250048D01*
X121458214Y-114124779D01*
X121314890Y-114020648D01*
X121157042Y-113940219D01*
X121157039Y-113940218D01*
X120988556Y-113885476D01*
X120901067Y-113871619D01*
X120813579Y-113857762D01*
X120636421Y-113857762D01*
X120578095Y-113867000D01*
X120461443Y-113885476D01*
X120292960Y-113940218D01*
X120292957Y-113940219D01*
X120135109Y-114020648D01*
X120053338Y-114080058D01*
X119991786Y-114124779D01*
X119991784Y-114124781D01*
X119991783Y-114124781D01*
X119866519Y-114250045D01*
X119866519Y-114250046D01*
X119866517Y-114250048D01*
X119821796Y-114311600D01*
X119762386Y-114393371D01*
X119681957Y-114551219D01*
X119681956Y-114551222D01*
X119627214Y-114719705D01*
X119599500Y-114894683D01*
X119599500Y-115071838D01*
X119600104Y-115075654D01*
X119591144Y-115144947D01*
X119546144Y-115198395D01*
X119479391Y-115219030D01*
X119469529Y-115218778D01*
X119455000Y-115217826D01*
X119154080Y-115237549D01*
X119154079Y-115237549D01*
X119154069Y-115237550D01*
X118858316Y-115296380D01*
X118858301Y-115296384D01*
X118572752Y-115393315D01*
X118572731Y-115393324D01*
X118302286Y-115526693D01*
X118302279Y-115526697D01*
X118051540Y-115694235D01*
X118009654Y-115730968D01*
X117946272Y-115760370D01*
X117877055Y-115750837D01*
X117823981Y-115705397D01*
X117803898Y-115638476D01*
X117808120Y-115605651D01*
X117856993Y-115423255D01*
X117895500Y-115130768D01*
X117895500Y-114835756D01*
X117856993Y-114543269D01*
X117780639Y-114258310D01*
X117667743Y-113985755D01*
X117649480Y-113954123D01*
X117520238Y-113730268D01*
X117340647Y-113496221D01*
X117340641Y-113496214D01*
X117132047Y-113287620D01*
X117132040Y-113287614D01*
X116897993Y-113108023D01*
X116642510Y-112960520D01*
X116642500Y-112960516D01*
X116369961Y-112847626D01*
X116369954Y-112847624D01*
X116369952Y-112847623D01*
X116084993Y-112771269D01*
X116036113Y-112764833D01*
X115792513Y-112732762D01*
X115792506Y-112732762D01*
X115497494Y-112732762D01*
X115497486Y-112732762D01*
X115219085Y-112769415D01*
X115205007Y-112771269D01*
X115089395Y-112802247D01*
X114920048Y-112847623D01*
X114920038Y-112847626D01*
X114647499Y-112960516D01*
X114647489Y-112960520D01*
X114392006Y-113108023D01*
X114157959Y-113287614D01*
X114157952Y-113287620D01*
X113949358Y-113496214D01*
X113949352Y-113496221D01*
X113769761Y-113730268D01*
X113622258Y-113985751D01*
X113622254Y-113985761D01*
X113509364Y-114258300D01*
X113509361Y-114258310D01*
X113473172Y-114393372D01*
X113433008Y-114543266D01*
X113433006Y-114543277D01*
X113394500Y-114835748D01*
X113394500Y-115130775D01*
X113416304Y-115296384D01*
X113433007Y-115423255D01*
X113505616Y-115694237D01*
X113509361Y-115708213D01*
X113509364Y-115708223D01*
X113622254Y-115980762D01*
X113622258Y-115980772D01*
X113769761Y-116236255D01*
X113949352Y-116470302D01*
X113949358Y-116470309D01*
X114157952Y-116678903D01*
X114157959Y-116678909D01*
X114392006Y-116858500D01*
X114647489Y-117006003D01*
X114647490Y-117006003D01*
X114647493Y-117006005D01*
X114920048Y-117118901D01*
X115205007Y-117195255D01*
X115497494Y-117233762D01*
X115497501Y-117233762D01*
X115792499Y-117233762D01*
X115792506Y-117233762D01*
X116084993Y-117195255D01*
X116369952Y-117118901D01*
X116642507Y-117006005D01*
X116897994Y-116858500D01*
X117051339Y-116740833D01*
X117116507Y-116715639D01*
X117184952Y-116729677D01*
X117234942Y-116778491D01*
X117250606Y-116846582D01*
X117244245Y-116879066D01*
X117228121Y-116926566D01*
X117228118Y-116926578D01*
X117169288Y-117222331D01*
X117169287Y-117222343D01*
X117149564Y-117523262D01*
X117169287Y-117824180D01*
X117169288Y-117824192D01*
X117228118Y-118119945D01*
X117228122Y-118119960D01*
X117325053Y-118405509D01*
X117325062Y-118405530D01*
X117458431Y-118675975D01*
X117458435Y-118675982D01*
X117625973Y-118926721D01*
X117824810Y-119153451D01*
X117929810Y-119245534D01*
X117967234Y-119304536D01*
X117966818Y-119374405D01*
X117928694Y-119432957D01*
X117864967Y-119461603D01*
X117848051Y-119462762D01*
X115419444Y-119462762D01*
X115352405Y-119443077D01*
X115306650Y-119390273D01*
X115302025Y-119378621D01*
X115251267Y-119229093D01*
X115234945Y-119181010D01*
X115221354Y-119153451D01*
X115101568Y-118910548D01*
X115101564Y-118910541D01*
X114934026Y-118659802D01*
X114735189Y-118433072D01*
X114508459Y-118234235D01*
X114257720Y-118066697D01*
X114257713Y-118066693D01*
X113987268Y-117933324D01*
X113987247Y-117933315D01*
X113701698Y-117836384D01*
X113701692Y-117836382D01*
X113701691Y-117836382D01*
X113701689Y-117836381D01*
X113701683Y-117836380D01*
X113405930Y-117777550D01*
X113405921Y-117777549D01*
X113405920Y-117777549D01*
X113105000Y-117757826D01*
X112804080Y-117777549D01*
X112804079Y-117777549D01*
X112804069Y-117777550D01*
X112508316Y-117836380D01*
X112508301Y-117836384D01*
X112222752Y-117933315D01*
X112222731Y-117933324D01*
X111952286Y-118066693D01*
X111952279Y-118066697D01*
X111701540Y-118234235D01*
X111474810Y-118433072D01*
X111275973Y-118659802D01*
X111108435Y-118910541D01*
X111108431Y-118910548D01*
X110975062Y-119180993D01*
X110975053Y-119181014D01*
X110878122Y-119466563D01*
X110878118Y-119466578D01*
X110819288Y-119762331D01*
X110819287Y-119762343D01*
X110799564Y-120063262D01*
X102224234Y-120063262D01*
X106202294Y-116085201D01*
X106263615Y-116051718D01*
X106322066Y-116053109D01*
X106341604Y-116058344D01*
X106418308Y-116078897D01*
X106580230Y-116093063D01*
X106644998Y-116098730D01*
X106645000Y-116098730D01*
X106645002Y-116098730D01*
X106701673Y-116093771D01*
X106871692Y-116078897D01*
X107091496Y-116020001D01*
X107297734Y-115923830D01*
X107484139Y-115793309D01*
X107645047Y-115632401D01*
X107775568Y-115445996D01*
X107871739Y-115239758D01*
X107930635Y-115019954D01*
X107941595Y-114894683D01*
X109439500Y-114894683D01*
X109439500Y-115071840D01*
X109467214Y-115246818D01*
X109521956Y-115415301D01*
X109521957Y-115415304D01*
X109537595Y-115445994D01*
X109602386Y-115573152D01*
X109706517Y-115716476D01*
X109831786Y-115841745D01*
X109975110Y-115945876D01*
X109978757Y-115947734D01*
X110132957Y-116026304D01*
X110132960Y-116026305D01*
X110158429Y-116034580D01*
X110301445Y-116081048D01*
X110476421Y-116108762D01*
X110476422Y-116108762D01*
X110653578Y-116108762D01*
X110653579Y-116108762D01*
X110828555Y-116081048D01*
X110997042Y-116026304D01*
X111154890Y-115945876D01*
X111298214Y-115841745D01*
X111423483Y-115716476D01*
X111527614Y-115573152D01*
X111608042Y-115415304D01*
X111662786Y-115246817D01*
X111690500Y-115071841D01*
X111690500Y-114894683D01*
X111662786Y-114719707D01*
X111635414Y-114635463D01*
X111608043Y-114551222D01*
X111608042Y-114551219D01*
X111527613Y-114393371D01*
X111423483Y-114250048D01*
X111298214Y-114124779D01*
X111154890Y-114020648D01*
X110997042Y-113940219D01*
X110997039Y-113940218D01*
X110828556Y-113885476D01*
X110741067Y-113871619D01*
X110653579Y-113857762D01*
X110476421Y-113857762D01*
X110418095Y-113867000D01*
X110301443Y-113885476D01*
X110132960Y-113940218D01*
X110132957Y-113940219D01*
X109975109Y-114020648D01*
X109893338Y-114080058D01*
X109831786Y-114124779D01*
X109831784Y-114124781D01*
X109831783Y-114124781D01*
X109706519Y-114250045D01*
X109706519Y-114250046D01*
X109706517Y-114250048D01*
X109661796Y-114311600D01*
X109602386Y-114393371D01*
X109521957Y-114551219D01*
X109521956Y-114551222D01*
X109467214Y-114719705D01*
X109439500Y-114894683D01*
X107941595Y-114894683D01*
X107950468Y-114793262D01*
X107930635Y-114566570D01*
X107880460Y-114379312D01*
X107871741Y-114346773D01*
X107871738Y-114346764D01*
X107826637Y-114250045D01*
X107775568Y-114140528D01*
X107645047Y-113954123D01*
X107645045Y-113954120D01*
X107484141Y-113793216D01*
X107297734Y-113662694D01*
X107297732Y-113662693D01*
X107091497Y-113566523D01*
X107091488Y-113566520D01*
X106871697Y-113507628D01*
X106871693Y-113507627D01*
X106871692Y-113507627D01*
X106871691Y-113507626D01*
X106871686Y-113507626D01*
X106645002Y-113487794D01*
X106644998Y-113487794D01*
X106418313Y-113507626D01*
X106418302Y-113507628D01*
X106198511Y-113566520D01*
X106198502Y-113566523D01*
X105992267Y-113662693D01*
X105992265Y-113662694D01*
X105805858Y-113793216D01*
X105644954Y-113954120D01*
X105514432Y-114140527D01*
X105514431Y-114140529D01*
X105418261Y-114346764D01*
X105418258Y-114346773D01*
X105359366Y-114566564D01*
X105359364Y-114566575D01*
X105339532Y-114793260D01*
X105339532Y-114793263D01*
X105359364Y-115019948D01*
X105359366Y-115019959D01*
X105385152Y-115116193D01*
X105383489Y-115186043D01*
X105353058Y-115235967D01*
X102971983Y-117617042D01*
X102910660Y-117650527D01*
X102840968Y-117645543D01*
X102785035Y-117603671D01*
X102760618Y-117538207D01*
X102760587Y-117527321D01*
X102760436Y-117527321D01*
X102760436Y-117523269D01*
X102760436Y-117523262D01*
X102740713Y-117222342D01*
X102681880Y-116926571D01*
X102584945Y-116641010D01*
X102451566Y-116370544D01*
X102284025Y-116119801D01*
X102284023Y-116119799D01*
X102282115Y-116116943D01*
X102261237Y-116050265D01*
X102279722Y-115982885D01*
X102312332Y-115947734D01*
X102314887Y-115945877D01*
X102314890Y-115945876D01*
X102458214Y-115841745D01*
X102583483Y-115716476D01*
X102687614Y-115573152D01*
X102768042Y-115415304D01*
X102822786Y-115246817D01*
X102850500Y-115071841D01*
X102850500Y-114894683D01*
X102822786Y-114719707D01*
X102795414Y-114635463D01*
X102768043Y-114551222D01*
X102768042Y-114551219D01*
X102687613Y-114393371D01*
X102583483Y-114250048D01*
X102458214Y-114124779D01*
X102314890Y-114020648D01*
X102157042Y-113940219D01*
X102157039Y-113940218D01*
X101988556Y-113885476D01*
X101901067Y-113871619D01*
X101813579Y-113857762D01*
X101636421Y-113857762D01*
X101578095Y-113867000D01*
X101461443Y-113885476D01*
X101292960Y-113940218D01*
X101292957Y-113940219D01*
X101135109Y-114020648D01*
X101053338Y-114080058D01*
X100991786Y-114124779D01*
X100991784Y-114124781D01*
X100991783Y-114124781D01*
X100866519Y-114250045D01*
X100866519Y-114250046D01*
X100866517Y-114250048D01*
X100821796Y-114311600D01*
X100762386Y-114393371D01*
X100681957Y-114551219D01*
X100681956Y-114551222D01*
X100627214Y-114719705D01*
X100599500Y-114894683D01*
X100599500Y-115071838D01*
X100600104Y-115075654D01*
X100591144Y-115144947D01*
X100546144Y-115198395D01*
X100479391Y-115219030D01*
X100469529Y-115218778D01*
X100455000Y-115217826D01*
X100154080Y-115237549D01*
X100154079Y-115237549D01*
X100154069Y-115237550D01*
X99858316Y-115296380D01*
X99858301Y-115296384D01*
X99572752Y-115393315D01*
X99572731Y-115393324D01*
X99302286Y-115526693D01*
X99302279Y-115526697D01*
X99051540Y-115694235D01*
X99009654Y-115730968D01*
X98946272Y-115760370D01*
X98877055Y-115750837D01*
X98823981Y-115705397D01*
X98803898Y-115638476D01*
X98808120Y-115605651D01*
X98856993Y-115423255D01*
X98895500Y-115130768D01*
X98895500Y-114835756D01*
X98856993Y-114543269D01*
X98780639Y-114258310D01*
X98667743Y-113985755D01*
X98649480Y-113954123D01*
X98520238Y-113730268D01*
X98340647Y-113496221D01*
X98340641Y-113496214D01*
X98132047Y-113287620D01*
X98132040Y-113287614D01*
X97897993Y-113108023D01*
X97642510Y-112960520D01*
X97642500Y-112960516D01*
X97369961Y-112847626D01*
X97369954Y-112847624D01*
X97369952Y-112847623D01*
X97084993Y-112771269D01*
X97036113Y-112764833D01*
X96792513Y-112732762D01*
X96792506Y-112732762D01*
X96497494Y-112732762D01*
X96497486Y-112732762D01*
X96219085Y-112769415D01*
X96205007Y-112771269D01*
X96089395Y-112802247D01*
X95920048Y-112847623D01*
X95920038Y-112847626D01*
X95647499Y-112960516D01*
X95647489Y-112960520D01*
X95392006Y-113108023D01*
X95157959Y-113287614D01*
X95157952Y-113287620D01*
X94949358Y-113496214D01*
X94949352Y-113496221D01*
X94769761Y-113730268D01*
X94622258Y-113985751D01*
X94622254Y-113985761D01*
X94509364Y-114258300D01*
X94509361Y-114258310D01*
X94473172Y-114393372D01*
X94433008Y-114543266D01*
X94433006Y-114543277D01*
X94394500Y-114835748D01*
X94394500Y-115130775D01*
X94416304Y-115296384D01*
X94433007Y-115423255D01*
X94505616Y-115694237D01*
X94509361Y-115708213D01*
X94509364Y-115708223D01*
X94622254Y-115980762D01*
X94622258Y-115980772D01*
X94769761Y-116236255D01*
X94949352Y-116470302D01*
X94949358Y-116470309D01*
X95157952Y-116678903D01*
X95157959Y-116678909D01*
X95392006Y-116858500D01*
X95647489Y-117006003D01*
X95647490Y-117006003D01*
X95647493Y-117006005D01*
X95920048Y-117118901D01*
X96205007Y-117195255D01*
X96497494Y-117233762D01*
X96497501Y-117233762D01*
X96792499Y-117233762D01*
X96792506Y-117233762D01*
X97084993Y-117195255D01*
X97369952Y-117118901D01*
X97642507Y-117006005D01*
X97897994Y-116858500D01*
X98051339Y-116740833D01*
X98116507Y-116715639D01*
X98184952Y-116729677D01*
X98234942Y-116778491D01*
X98250606Y-116846582D01*
X98244245Y-116879066D01*
X98228121Y-116926566D01*
X98228118Y-116926578D01*
X98169288Y-117222331D01*
X98169287Y-117222343D01*
X98149564Y-117523262D01*
X98169287Y-117824180D01*
X98169288Y-117824192D01*
X98228118Y-118119945D01*
X98228122Y-118119960D01*
X98325053Y-118405509D01*
X98325062Y-118405530D01*
X98458431Y-118675975D01*
X98458435Y-118675982D01*
X98625973Y-118926721D01*
X98824810Y-119153451D01*
X98929810Y-119245534D01*
X98967234Y-119304536D01*
X98966818Y-119374405D01*
X98928694Y-119432957D01*
X98864967Y-119461603D01*
X98848051Y-119462762D01*
X96419444Y-119462762D01*
X96352405Y-119443077D01*
X96306650Y-119390273D01*
X96302025Y-119378621D01*
X96251267Y-119229093D01*
X96234945Y-119181010D01*
X96221354Y-119153451D01*
X96101568Y-118910548D01*
X96101564Y-118910541D01*
X95934026Y-118659802D01*
X95735189Y-118433072D01*
X95508459Y-118234235D01*
X95257720Y-118066697D01*
X95257713Y-118066693D01*
X94987268Y-117933324D01*
X94987247Y-117933315D01*
X94701698Y-117836384D01*
X94701692Y-117836382D01*
X94701691Y-117836382D01*
X94701689Y-117836381D01*
X94701683Y-117836380D01*
X94405930Y-117777550D01*
X94405921Y-117777549D01*
X94405920Y-117777549D01*
X94105000Y-117757826D01*
X93804080Y-117777549D01*
X93804079Y-117777549D01*
X93804069Y-117777550D01*
X93508316Y-117836380D01*
X93508301Y-117836384D01*
X93222752Y-117933315D01*
X93222731Y-117933324D01*
X92952286Y-118066693D01*
X92952279Y-118066697D01*
X92701540Y-118234235D01*
X92474810Y-118433072D01*
X92275973Y-118659802D01*
X92108435Y-118910541D01*
X92108431Y-118910548D01*
X91975062Y-119180993D01*
X91975053Y-119181014D01*
X91878122Y-119466563D01*
X91878118Y-119466578D01*
X91819288Y-119762331D01*
X91819287Y-119762343D01*
X91799564Y-120063262D01*
X81805900Y-120063262D01*
X81805900Y-114894683D01*
X90439500Y-114894683D01*
X90439500Y-115071840D01*
X90467214Y-115246818D01*
X90521956Y-115415301D01*
X90521957Y-115415304D01*
X90537595Y-115445994D01*
X90602386Y-115573152D01*
X90706517Y-115716476D01*
X90831786Y-115841745D01*
X90975110Y-115945876D01*
X90978757Y-115947734D01*
X91132957Y-116026304D01*
X91132960Y-116026305D01*
X91158429Y-116034580D01*
X91301445Y-116081048D01*
X91476421Y-116108762D01*
X91476422Y-116108762D01*
X91653578Y-116108762D01*
X91653579Y-116108762D01*
X91828555Y-116081048D01*
X91997042Y-116026304D01*
X92154890Y-115945876D01*
X92298214Y-115841745D01*
X92423483Y-115716476D01*
X92527614Y-115573152D01*
X92608042Y-115415304D01*
X92662786Y-115246817D01*
X92690500Y-115071841D01*
X92690500Y-114894683D01*
X92662786Y-114719707D01*
X92635414Y-114635463D01*
X92608043Y-114551222D01*
X92608042Y-114551219D01*
X92527613Y-114393371D01*
X92423483Y-114250048D01*
X92298214Y-114124779D01*
X92154890Y-114020648D01*
X91997042Y-113940219D01*
X91997039Y-113940218D01*
X91828556Y-113885476D01*
X91741067Y-113871619D01*
X91653579Y-113857762D01*
X91476421Y-113857762D01*
X91418095Y-113867000D01*
X91301443Y-113885476D01*
X91132960Y-113940218D01*
X91132957Y-113940219D01*
X90975109Y-114020648D01*
X90893338Y-114080058D01*
X90831786Y-114124779D01*
X90831784Y-114124781D01*
X90831783Y-114124781D01*
X90706519Y-114250045D01*
X90706519Y-114250046D01*
X90706517Y-114250048D01*
X90661796Y-114311600D01*
X90602386Y-114393371D01*
X90521957Y-114551219D01*
X90521956Y-114551222D01*
X90467214Y-114719705D01*
X90439500Y-114894683D01*
X81805900Y-114894683D01*
X81805900Y-101063262D01*
X91799564Y-101063262D01*
X91813405Y-101274446D01*
X91819287Y-101364180D01*
X91819288Y-101364192D01*
X91878118Y-101659945D01*
X91878122Y-101659960D01*
X91975053Y-101945509D01*
X91975062Y-101945530D01*
X92108431Y-102215975D01*
X92108435Y-102215982D01*
X92275973Y-102466721D01*
X92474810Y-102693451D01*
X92701540Y-102892288D01*
X92952279Y-103059826D01*
X92952286Y-103059830D01*
X93222731Y-103193199D01*
X93222736Y-103193201D01*
X93222748Y-103193207D01*
X93508309Y-103290142D01*
X93708251Y-103329913D01*
X93804069Y-103348973D01*
X93804070Y-103348973D01*
X93804080Y-103348975D01*
X94105000Y-103368698D01*
X94405920Y-103348975D01*
X94701691Y-103290142D01*
X94987252Y-103193207D01*
X95257718Y-103059828D01*
X95508461Y-102892287D01*
X95735189Y-102693451D01*
X95934025Y-102466723D01*
X96101566Y-102215980D01*
X96234945Y-101945514D01*
X96302025Y-101747903D01*
X96342214Y-101690749D01*
X96406923Y-101664396D01*
X96419444Y-101663762D01*
X101288331Y-101663762D01*
X101288347Y-101663763D01*
X101295943Y-101663763D01*
X101454054Y-101663763D01*
X101454057Y-101663763D01*
X101606785Y-101622839D01*
X101656904Y-101593901D01*
X101743716Y-101543782D01*
X101855520Y-101431978D01*
X101855520Y-101431976D01*
X101865728Y-101421769D01*
X101865730Y-101421766D01*
X102224234Y-101063262D01*
X110799564Y-101063262D01*
X110813405Y-101274446D01*
X110819287Y-101364180D01*
X110819288Y-101364192D01*
X110878118Y-101659945D01*
X110878122Y-101659960D01*
X110975053Y-101945509D01*
X110975062Y-101945530D01*
X111108431Y-102215975D01*
X111108435Y-102215982D01*
X111275973Y-102466721D01*
X111474810Y-102693451D01*
X111701540Y-102892288D01*
X111952279Y-103059826D01*
X111952286Y-103059830D01*
X112222731Y-103193199D01*
X112222736Y-103193201D01*
X112222748Y-103193207D01*
X112508309Y-103290142D01*
X112708251Y-103329913D01*
X112804069Y-103348973D01*
X112804070Y-103348973D01*
X112804080Y-103348975D01*
X113105000Y-103368698D01*
X113405920Y-103348975D01*
X113701691Y-103290142D01*
X113987252Y-103193207D01*
X114257718Y-103059828D01*
X114508461Y-102892287D01*
X114735189Y-102693451D01*
X114934025Y-102466723D01*
X115101566Y-102215980D01*
X115234945Y-101945514D01*
X115302025Y-101747903D01*
X115342214Y-101690749D01*
X115406923Y-101664396D01*
X115419444Y-101663762D01*
X120288331Y-101663762D01*
X120288347Y-101663763D01*
X120295943Y-101663763D01*
X120454054Y-101663763D01*
X120454057Y-101663763D01*
X120606785Y-101622839D01*
X120656904Y-101593901D01*
X120743716Y-101543782D01*
X120855520Y-101431978D01*
X120855520Y-101431976D01*
X120865728Y-101421769D01*
X120865730Y-101421766D01*
X125202294Y-97085201D01*
X125263615Y-97051718D01*
X125322066Y-97053109D01*
X125341604Y-97058344D01*
X125418308Y-97078897D01*
X125580230Y-97093063D01*
X125644998Y-97098730D01*
X125645000Y-97098730D01*
X125645002Y-97098730D01*
X125701673Y-97093771D01*
X125871692Y-97078897D01*
X126091496Y-97020001D01*
X126297734Y-96923830D01*
X126484139Y-96793309D01*
X126645047Y-96632401D01*
X126775568Y-96445996D01*
X126871739Y-96239758D01*
X126930635Y-96019954D01*
X126941595Y-95894683D01*
X128439500Y-95894683D01*
X128439500Y-96071840D01*
X128467214Y-96246818D01*
X128521956Y-96415301D01*
X128521957Y-96415304D01*
X128576364Y-96522081D01*
X128602386Y-96573152D01*
X128706517Y-96716476D01*
X128831786Y-96841745D01*
X128975110Y-96945876D01*
X129043577Y-96980762D01*
X129132957Y-97026304D01*
X129132960Y-97026305D01*
X129158429Y-97034580D01*
X129301445Y-97081048D01*
X129476421Y-97108762D01*
X129476422Y-97108762D01*
X129653578Y-97108762D01*
X129653579Y-97108762D01*
X129828555Y-97081048D01*
X129997042Y-97026304D01*
X130154890Y-96945876D01*
X130298214Y-96841745D01*
X130423483Y-96716476D01*
X130527614Y-96573152D01*
X130608042Y-96415304D01*
X130662786Y-96246817D01*
X130690500Y-96071841D01*
X130690500Y-95894683D01*
X130662786Y-95719707D01*
X130625701Y-95605570D01*
X130608043Y-95551222D01*
X130608042Y-95551219D01*
X130562627Y-95462088D01*
X130527614Y-95393372D01*
X130423483Y-95250048D01*
X130298214Y-95124779D01*
X130154890Y-95020648D01*
X129997042Y-94940219D01*
X129997039Y-94940218D01*
X129828556Y-94885476D01*
X129741067Y-94871619D01*
X129653579Y-94857762D01*
X129476421Y-94857762D01*
X129418095Y-94867000D01*
X129301443Y-94885476D01*
X129132960Y-94940218D01*
X129132957Y-94940219D01*
X128975109Y-95020648D01*
X128893338Y-95080058D01*
X128831786Y-95124779D01*
X128831784Y-95124781D01*
X128831783Y-95124781D01*
X128706519Y-95250045D01*
X128706519Y-95250046D01*
X128706517Y-95250048D01*
X128692256Y-95269677D01*
X128602386Y-95393371D01*
X128521957Y-95551219D01*
X128521956Y-95551222D01*
X128467214Y-95719705D01*
X128439500Y-95894683D01*
X126941595Y-95894683D01*
X126950468Y-95793262D01*
X126948410Y-95769744D01*
X126944033Y-95719705D01*
X126930635Y-95566570D01*
X126880460Y-95379312D01*
X126871741Y-95346773D01*
X126871738Y-95346764D01*
X126835792Y-95269678D01*
X126775568Y-95140528D01*
X126677839Y-95000955D01*
X126645045Y-94954120D01*
X126484141Y-94793216D01*
X126297734Y-94662694D01*
X126297732Y-94662693D01*
X126091497Y-94566523D01*
X126091488Y-94566520D01*
X125871697Y-94507628D01*
X125871693Y-94507627D01*
X125871692Y-94507627D01*
X125871691Y-94507626D01*
X125871686Y-94507626D01*
X125645002Y-94487794D01*
X125644998Y-94487794D01*
X125418313Y-94507626D01*
X125418302Y-94507628D01*
X125198511Y-94566520D01*
X125198502Y-94566523D01*
X124992267Y-94662693D01*
X124992265Y-94662694D01*
X124805858Y-94793216D01*
X124644954Y-94954120D01*
X124514432Y-95140527D01*
X124514431Y-95140529D01*
X124418261Y-95346764D01*
X124418258Y-95346773D01*
X124359366Y-95566564D01*
X124359364Y-95566575D01*
X124339532Y-95793260D01*
X124339532Y-95793263D01*
X124359364Y-96019948D01*
X124359366Y-96019959D01*
X124385152Y-96116193D01*
X124383489Y-96186043D01*
X124353058Y-96235967D01*
X121971983Y-98617042D01*
X121910660Y-98650527D01*
X121840968Y-98645543D01*
X121785035Y-98603671D01*
X121760618Y-98538207D01*
X121760587Y-98527321D01*
X121760436Y-98527321D01*
X121760436Y-98523269D01*
X121760436Y-98523262D01*
X121740713Y-98222342D01*
X121681880Y-97926571D01*
X121584945Y-97641010D01*
X121548510Y-97567128D01*
X121451568Y-97370548D01*
X121451567Y-97370547D01*
X121451566Y-97370544D01*
X121284025Y-97119801D01*
X121284023Y-97119799D01*
X121282115Y-97116943D01*
X121261237Y-97050265D01*
X121279722Y-96982885D01*
X121312332Y-96947734D01*
X121314887Y-96945877D01*
X121314890Y-96945876D01*
X121458214Y-96841745D01*
X121583483Y-96716476D01*
X121687614Y-96573152D01*
X121768042Y-96415304D01*
X121822786Y-96246817D01*
X121850500Y-96071841D01*
X121850500Y-95894683D01*
X121822786Y-95719707D01*
X121785701Y-95605570D01*
X121768043Y-95551222D01*
X121768042Y-95551219D01*
X121722627Y-95462088D01*
X121687614Y-95393372D01*
X121583483Y-95250048D01*
X121458214Y-95124779D01*
X121314890Y-95020648D01*
X121157042Y-94940219D01*
X121157039Y-94940218D01*
X120988556Y-94885476D01*
X120901067Y-94871619D01*
X120813579Y-94857762D01*
X120636421Y-94857762D01*
X120578095Y-94867000D01*
X120461443Y-94885476D01*
X120292960Y-94940218D01*
X120292957Y-94940219D01*
X120135109Y-95020648D01*
X120053338Y-95080058D01*
X119991786Y-95124779D01*
X119991784Y-95124781D01*
X119991783Y-95124781D01*
X119866519Y-95250045D01*
X119866519Y-95250046D01*
X119866517Y-95250048D01*
X119852256Y-95269677D01*
X119762386Y-95393371D01*
X119681957Y-95551219D01*
X119681956Y-95551222D01*
X119627214Y-95719705D01*
X119599500Y-95894683D01*
X119599500Y-96071838D01*
X119600104Y-96075654D01*
X119591144Y-96144947D01*
X119546144Y-96198395D01*
X119479391Y-96219030D01*
X119469529Y-96218778D01*
X119455000Y-96217826D01*
X119154080Y-96237549D01*
X119154079Y-96237549D01*
X119154069Y-96237550D01*
X118858316Y-96296380D01*
X118858301Y-96296384D01*
X118572752Y-96393315D01*
X118572731Y-96393324D01*
X118302286Y-96526693D01*
X118302279Y-96526697D01*
X118051540Y-96694235D01*
X118009654Y-96730968D01*
X117946272Y-96760370D01*
X117877055Y-96750837D01*
X117823981Y-96705397D01*
X117803898Y-96638476D01*
X117808120Y-96605651D01*
X117856993Y-96423255D01*
X117895500Y-96130768D01*
X117895500Y-95835756D01*
X117856993Y-95543269D01*
X117780639Y-95258310D01*
X117667743Y-94985755D01*
X117649480Y-94954123D01*
X117520238Y-94730268D01*
X117340647Y-94496221D01*
X117340641Y-94496214D01*
X117132047Y-94287620D01*
X117132040Y-94287614D01*
X116897993Y-94108023D01*
X116642510Y-93960520D01*
X116642500Y-93960516D01*
X116369961Y-93847626D01*
X116369954Y-93847624D01*
X116369952Y-93847623D01*
X116084993Y-93771269D01*
X116036113Y-93764833D01*
X115792513Y-93732762D01*
X115792506Y-93732762D01*
X115497494Y-93732762D01*
X115497486Y-93732762D01*
X115219085Y-93769415D01*
X115205007Y-93771269D01*
X115037131Y-93816251D01*
X114920048Y-93847623D01*
X114920038Y-93847626D01*
X114647499Y-93960516D01*
X114647489Y-93960520D01*
X114392006Y-94108023D01*
X114157959Y-94287614D01*
X114157952Y-94287620D01*
X113949358Y-94496214D01*
X113949352Y-94496221D01*
X113769761Y-94730268D01*
X113622258Y-94985751D01*
X113622254Y-94985761D01*
X113509364Y-95258300D01*
X113509361Y-95258310D01*
X113462012Y-95435022D01*
X113433008Y-95543266D01*
X113433006Y-95543277D01*
X113394500Y-95835748D01*
X113394500Y-96130775D01*
X113416304Y-96296384D01*
X113433007Y-96423255D01*
X113505616Y-96694237D01*
X113509361Y-96708213D01*
X113509364Y-96708223D01*
X113622254Y-96980762D01*
X113622258Y-96980772D01*
X113769761Y-97236255D01*
X113949352Y-97470302D01*
X113949358Y-97470309D01*
X114157952Y-97678903D01*
X114157959Y-97678909D01*
X114392006Y-97858500D01*
X114647489Y-98006003D01*
X114647490Y-98006003D01*
X114647493Y-98006005D01*
X114920048Y-98118901D01*
X115205007Y-98195255D01*
X115497494Y-98233762D01*
X115497501Y-98233762D01*
X115792499Y-98233762D01*
X115792506Y-98233762D01*
X116084993Y-98195255D01*
X116369952Y-98118901D01*
X116642507Y-98006005D01*
X116897994Y-97858500D01*
X117051339Y-97740833D01*
X117116507Y-97715639D01*
X117184952Y-97729677D01*
X117234942Y-97778491D01*
X117250606Y-97846582D01*
X117244245Y-97879066D01*
X117228121Y-97926566D01*
X117228118Y-97926578D01*
X117169288Y-98222331D01*
X117169287Y-98222341D01*
X117169287Y-98222342D01*
X117149564Y-98523262D01*
X117161315Y-98702558D01*
X117169287Y-98824180D01*
X117169288Y-98824192D01*
X117228118Y-99119945D01*
X117228122Y-99119960D01*
X117325053Y-99405509D01*
X117325062Y-99405530D01*
X117458431Y-99675975D01*
X117458435Y-99675982D01*
X117625973Y-99926721D01*
X117824810Y-100153451D01*
X117929810Y-100245534D01*
X117967234Y-100304536D01*
X117966818Y-100374405D01*
X117928694Y-100432957D01*
X117864967Y-100461603D01*
X117848051Y-100462762D01*
X115419444Y-100462762D01*
X115352405Y-100443077D01*
X115306650Y-100390273D01*
X115302025Y-100378621D01*
X115276876Y-100304536D01*
X115234945Y-100181010D01*
X115221354Y-100153451D01*
X115101568Y-99910548D01*
X115101564Y-99910541D01*
X114934026Y-99659802D01*
X114735189Y-99433072D01*
X114508459Y-99234235D01*
X114257720Y-99066697D01*
X114257713Y-99066693D01*
X113987268Y-98933324D01*
X113987247Y-98933315D01*
X113701698Y-98836384D01*
X113701692Y-98836382D01*
X113701691Y-98836382D01*
X113701689Y-98836381D01*
X113701683Y-98836380D01*
X113405930Y-98777550D01*
X113405921Y-98777549D01*
X113405920Y-98777549D01*
X113105000Y-98757826D01*
X112804080Y-98777549D01*
X112804079Y-98777549D01*
X112804069Y-98777550D01*
X112508316Y-98836380D01*
X112508301Y-98836384D01*
X112222752Y-98933315D01*
X112222731Y-98933324D01*
X111952286Y-99066693D01*
X111952279Y-99066697D01*
X111701540Y-99234235D01*
X111474810Y-99433072D01*
X111275973Y-99659802D01*
X111108435Y-99910541D01*
X111108431Y-99910548D01*
X110975062Y-100180993D01*
X110975053Y-100181014D01*
X110878122Y-100466563D01*
X110878118Y-100466578D01*
X110819288Y-100762331D01*
X110819287Y-100762341D01*
X110819287Y-100762342D01*
X110799564Y-101063262D01*
X102224234Y-101063262D01*
X106202294Y-97085201D01*
X106263615Y-97051718D01*
X106322066Y-97053109D01*
X106341604Y-97058344D01*
X106418308Y-97078897D01*
X106580230Y-97093063D01*
X106644998Y-97098730D01*
X106645000Y-97098730D01*
X106645002Y-97098730D01*
X106701673Y-97093771D01*
X106871692Y-97078897D01*
X107091496Y-97020001D01*
X107297734Y-96923830D01*
X107484139Y-96793309D01*
X107645047Y-96632401D01*
X107775568Y-96445996D01*
X107871739Y-96239758D01*
X107930635Y-96019954D01*
X107941595Y-95894683D01*
X109439500Y-95894683D01*
X109439500Y-96071840D01*
X109467214Y-96246818D01*
X109521956Y-96415301D01*
X109521957Y-96415304D01*
X109576364Y-96522081D01*
X109602386Y-96573152D01*
X109706517Y-96716476D01*
X109831786Y-96841745D01*
X109975110Y-96945876D01*
X110043577Y-96980762D01*
X110132957Y-97026304D01*
X110132960Y-97026305D01*
X110158429Y-97034580D01*
X110301445Y-97081048D01*
X110476421Y-97108762D01*
X110476422Y-97108762D01*
X110653578Y-97108762D01*
X110653579Y-97108762D01*
X110828555Y-97081048D01*
X110997042Y-97026304D01*
X111154890Y-96945876D01*
X111298214Y-96841745D01*
X111423483Y-96716476D01*
X111527614Y-96573152D01*
X111608042Y-96415304D01*
X111662786Y-96246817D01*
X111690500Y-96071841D01*
X111690500Y-95894683D01*
X111662786Y-95719707D01*
X111625701Y-95605570D01*
X111608043Y-95551222D01*
X111608042Y-95551219D01*
X111562627Y-95462088D01*
X111527614Y-95393372D01*
X111423483Y-95250048D01*
X111298214Y-95124779D01*
X111154890Y-95020648D01*
X110997042Y-94940219D01*
X110997039Y-94940218D01*
X110828556Y-94885476D01*
X110741067Y-94871619D01*
X110653579Y-94857762D01*
X110476421Y-94857762D01*
X110418095Y-94867000D01*
X110301443Y-94885476D01*
X110132960Y-94940218D01*
X110132957Y-94940219D01*
X109975109Y-95020648D01*
X109893338Y-95080058D01*
X109831786Y-95124779D01*
X109831784Y-95124781D01*
X109831783Y-95124781D01*
X109706519Y-95250045D01*
X109706519Y-95250046D01*
X109706517Y-95250048D01*
X109692256Y-95269677D01*
X109602386Y-95393371D01*
X109521957Y-95551219D01*
X109521956Y-95551222D01*
X109467214Y-95719705D01*
X109439500Y-95894683D01*
X107941595Y-95894683D01*
X107950468Y-95793262D01*
X107948410Y-95769744D01*
X107944033Y-95719705D01*
X107930635Y-95566570D01*
X107880460Y-95379312D01*
X107871741Y-95346773D01*
X107871738Y-95346764D01*
X107835792Y-95269678D01*
X107775568Y-95140528D01*
X107677839Y-95000955D01*
X107645045Y-94954120D01*
X107484141Y-94793216D01*
X107297734Y-94662694D01*
X107297732Y-94662693D01*
X107091497Y-94566523D01*
X107091488Y-94566520D01*
X106871697Y-94507628D01*
X106871693Y-94507627D01*
X106871692Y-94507627D01*
X106871691Y-94507626D01*
X106871686Y-94507626D01*
X106645002Y-94487794D01*
X106644998Y-94487794D01*
X106418313Y-94507626D01*
X106418302Y-94507628D01*
X106198511Y-94566520D01*
X106198502Y-94566523D01*
X105992267Y-94662693D01*
X105992265Y-94662694D01*
X105805858Y-94793216D01*
X105644954Y-94954120D01*
X105514432Y-95140527D01*
X105514431Y-95140529D01*
X105418261Y-95346764D01*
X105418258Y-95346773D01*
X105359366Y-95566564D01*
X105359364Y-95566575D01*
X105339532Y-95793260D01*
X105339532Y-95793263D01*
X105359364Y-96019948D01*
X105359366Y-96019959D01*
X105385152Y-96116193D01*
X105383489Y-96186043D01*
X105353058Y-96235967D01*
X102971983Y-98617042D01*
X102910660Y-98650527D01*
X102840968Y-98645543D01*
X102785035Y-98603671D01*
X102760618Y-98538207D01*
X102760587Y-98527321D01*
X102760436Y-98527321D01*
X102760436Y-98523269D01*
X102760436Y-98523262D01*
X102740713Y-98222342D01*
X102681880Y-97926571D01*
X102584945Y-97641010D01*
X102548510Y-97567128D01*
X102451568Y-97370548D01*
X102451567Y-97370547D01*
X102451566Y-97370544D01*
X102284025Y-97119801D01*
X102284023Y-97119799D01*
X102282115Y-97116943D01*
X102261237Y-97050265D01*
X102279722Y-96982885D01*
X102312332Y-96947734D01*
X102314887Y-96945877D01*
X102314890Y-96945876D01*
X102458214Y-96841745D01*
X102583483Y-96716476D01*
X102687614Y-96573152D01*
X102768042Y-96415304D01*
X102822786Y-96246817D01*
X102850500Y-96071841D01*
X102850500Y-95894683D01*
X102822786Y-95719707D01*
X102785701Y-95605570D01*
X102768043Y-95551222D01*
X102768042Y-95551219D01*
X102722627Y-95462088D01*
X102687614Y-95393372D01*
X102583483Y-95250048D01*
X102458214Y-95124779D01*
X102314890Y-95020648D01*
X102157042Y-94940219D01*
X102157039Y-94940218D01*
X101988556Y-94885476D01*
X101901067Y-94871619D01*
X101813579Y-94857762D01*
X101636421Y-94857762D01*
X101578095Y-94867000D01*
X101461443Y-94885476D01*
X101292960Y-94940218D01*
X101292957Y-94940219D01*
X101135109Y-95020648D01*
X101053338Y-95080058D01*
X100991786Y-95124779D01*
X100991784Y-95124781D01*
X100991783Y-95124781D01*
X100866519Y-95250045D01*
X100866519Y-95250046D01*
X100866517Y-95250048D01*
X100852256Y-95269677D01*
X100762386Y-95393371D01*
X100681957Y-95551219D01*
X100681956Y-95551222D01*
X100627214Y-95719705D01*
X100599500Y-95894683D01*
X100599500Y-96071838D01*
X100600104Y-96075654D01*
X100591144Y-96144947D01*
X100546144Y-96198395D01*
X100479391Y-96219030D01*
X100469529Y-96218778D01*
X100455000Y-96217826D01*
X100154080Y-96237549D01*
X100154079Y-96237549D01*
X100154069Y-96237550D01*
X99858316Y-96296380D01*
X99858301Y-96296384D01*
X99572752Y-96393315D01*
X99572731Y-96393324D01*
X99302286Y-96526693D01*
X99302279Y-96526697D01*
X99051540Y-96694235D01*
X99009654Y-96730968D01*
X98946272Y-96760370D01*
X98877055Y-96750837D01*
X98823981Y-96705397D01*
X98803898Y-96638476D01*
X98808120Y-96605651D01*
X98856993Y-96423255D01*
X98895500Y-96130768D01*
X98895500Y-95835756D01*
X98856993Y-95543269D01*
X98780639Y-95258310D01*
X98667743Y-94985755D01*
X98649480Y-94954123D01*
X98520238Y-94730268D01*
X98340647Y-94496221D01*
X98340641Y-94496214D01*
X98132047Y-94287620D01*
X98132040Y-94287614D01*
X97897993Y-94108023D01*
X97642510Y-93960520D01*
X97642500Y-93960516D01*
X97369961Y-93847626D01*
X97369954Y-93847624D01*
X97369952Y-93847623D01*
X97084993Y-93771269D01*
X97036113Y-93764833D01*
X96792513Y-93732762D01*
X96792506Y-93732762D01*
X96497494Y-93732762D01*
X96497486Y-93732762D01*
X96219085Y-93769415D01*
X96205007Y-93771269D01*
X96037131Y-93816251D01*
X95920048Y-93847623D01*
X95920038Y-93847626D01*
X95647499Y-93960516D01*
X95647489Y-93960520D01*
X95392006Y-94108023D01*
X95157959Y-94287614D01*
X95157952Y-94287620D01*
X94949358Y-94496214D01*
X94949352Y-94496221D01*
X94769761Y-94730268D01*
X94622258Y-94985751D01*
X94622254Y-94985761D01*
X94509364Y-95258300D01*
X94509361Y-95258310D01*
X94462012Y-95435022D01*
X94433008Y-95543266D01*
X94433006Y-95543277D01*
X94394500Y-95835748D01*
X94394500Y-96130775D01*
X94416304Y-96296384D01*
X94433007Y-96423255D01*
X94505616Y-96694237D01*
X94509361Y-96708213D01*
X94509364Y-96708223D01*
X94622254Y-96980762D01*
X94622258Y-96980772D01*
X94769761Y-97236255D01*
X94949352Y-97470302D01*
X94949358Y-97470309D01*
X95157952Y-97678903D01*
X95157959Y-97678909D01*
X95392006Y-97858500D01*
X95647489Y-98006003D01*
X95647490Y-98006003D01*
X95647493Y-98006005D01*
X95920048Y-98118901D01*
X96205007Y-98195255D01*
X96497494Y-98233762D01*
X96497501Y-98233762D01*
X96792499Y-98233762D01*
X96792506Y-98233762D01*
X97084993Y-98195255D01*
X97369952Y-98118901D01*
X97642507Y-98006005D01*
X97897994Y-97858500D01*
X98051339Y-97740833D01*
X98116507Y-97715639D01*
X98184952Y-97729677D01*
X98234942Y-97778491D01*
X98250606Y-97846582D01*
X98244245Y-97879066D01*
X98228121Y-97926566D01*
X98228118Y-97926578D01*
X98169288Y-98222331D01*
X98169287Y-98222341D01*
X98169287Y-98222342D01*
X98149564Y-98523262D01*
X98161315Y-98702558D01*
X98169287Y-98824180D01*
X98169288Y-98824192D01*
X98228118Y-99119945D01*
X98228122Y-99119960D01*
X98325053Y-99405509D01*
X98325062Y-99405530D01*
X98458431Y-99675975D01*
X98458435Y-99675982D01*
X98625973Y-99926721D01*
X98824810Y-100153451D01*
X98929810Y-100245534D01*
X98967234Y-100304536D01*
X98966818Y-100374405D01*
X98928694Y-100432957D01*
X98864967Y-100461603D01*
X98848051Y-100462762D01*
X96419444Y-100462762D01*
X96352405Y-100443077D01*
X96306650Y-100390273D01*
X96302025Y-100378621D01*
X96276876Y-100304536D01*
X96234945Y-100181010D01*
X96221354Y-100153451D01*
X96101568Y-99910548D01*
X96101564Y-99910541D01*
X95934026Y-99659802D01*
X95735189Y-99433072D01*
X95508459Y-99234235D01*
X95257720Y-99066697D01*
X95257713Y-99066693D01*
X94987268Y-98933324D01*
X94987247Y-98933315D01*
X94701698Y-98836384D01*
X94701692Y-98836382D01*
X94701691Y-98836382D01*
X94701689Y-98836381D01*
X94701683Y-98836380D01*
X94405930Y-98777550D01*
X94405921Y-98777549D01*
X94405920Y-98777549D01*
X94105000Y-98757826D01*
X93804080Y-98777549D01*
X93804079Y-98777549D01*
X93804069Y-98777550D01*
X93508316Y-98836380D01*
X93508301Y-98836384D01*
X93222752Y-98933315D01*
X93222731Y-98933324D01*
X92952286Y-99066693D01*
X92952279Y-99066697D01*
X92701540Y-99234235D01*
X92474810Y-99433072D01*
X92275973Y-99659802D01*
X92108435Y-99910541D01*
X92108431Y-99910548D01*
X91975062Y-100180993D01*
X91975053Y-100181014D01*
X91878122Y-100466563D01*
X91878118Y-100466578D01*
X91819288Y-100762331D01*
X91819287Y-100762341D01*
X91819287Y-100762342D01*
X91799564Y-101063262D01*
X81805900Y-101063262D01*
X81805900Y-95894683D01*
X90439500Y-95894683D01*
X90439500Y-96071840D01*
X90467214Y-96246818D01*
X90521956Y-96415301D01*
X90521957Y-96415304D01*
X90576364Y-96522081D01*
X90602386Y-96573152D01*
X90706517Y-96716476D01*
X90831786Y-96841745D01*
X90975110Y-96945876D01*
X91043577Y-96980762D01*
X91132957Y-97026304D01*
X91132960Y-97026305D01*
X91158429Y-97034580D01*
X91301445Y-97081048D01*
X91476421Y-97108762D01*
X91476422Y-97108762D01*
X91653578Y-97108762D01*
X91653579Y-97108762D01*
X91828555Y-97081048D01*
X91997042Y-97026304D01*
X92154890Y-96945876D01*
X92298214Y-96841745D01*
X92423483Y-96716476D01*
X92527614Y-96573152D01*
X92608042Y-96415304D01*
X92662786Y-96246817D01*
X92690500Y-96071841D01*
X92690500Y-95894683D01*
X92662786Y-95719707D01*
X92625701Y-95605570D01*
X92608043Y-95551222D01*
X92608042Y-95551219D01*
X92562627Y-95462088D01*
X92527614Y-95393372D01*
X92423483Y-95250048D01*
X92298214Y-95124779D01*
X92154890Y-95020648D01*
X91997042Y-94940219D01*
X91997039Y-94940218D01*
X91828556Y-94885476D01*
X91741067Y-94871619D01*
X91653579Y-94857762D01*
X91476421Y-94857762D01*
X91418095Y-94867000D01*
X91301443Y-94885476D01*
X91132960Y-94940218D01*
X91132957Y-94940219D01*
X90975109Y-95020648D01*
X90893338Y-95080058D01*
X90831786Y-95124779D01*
X90831784Y-95124781D01*
X90831783Y-95124781D01*
X90706519Y-95250045D01*
X90706519Y-95250046D01*
X90706517Y-95250048D01*
X90692256Y-95269677D01*
X90602386Y-95393371D01*
X90521957Y-95551219D01*
X90521956Y-95551222D01*
X90467214Y-95719705D01*
X90439500Y-95894683D01*
X81805900Y-95894683D01*
X81805900Y-88767775D01*
X82926700Y-88767775D01*
X82926700Y-88980349D01*
X82936734Y-89043706D01*
X82957791Y-89176653D01*
X82959954Y-89190305D01*
X83014320Y-89357627D01*
X83025644Y-89392476D01*
X83122151Y-89581882D01*
X83247090Y-89753848D01*
X83397413Y-89904171D01*
X83569379Y-90029110D01*
X83569381Y-90029111D01*
X83569384Y-90029113D01*
X83758788Y-90125619D01*
X83960957Y-90191308D01*
X84170913Y-90224562D01*
X84170914Y-90224562D01*
X84383486Y-90224562D01*
X84383487Y-90224562D01*
X84593443Y-90191308D01*
X84795612Y-90125619D01*
X84985016Y-90029113D01*
X85070946Y-89966682D01*
X85156986Y-89904171D01*
X85156988Y-89904168D01*
X85156992Y-89904166D01*
X85307304Y-89753854D01*
X85307306Y-89753850D01*
X85307309Y-89753848D01*
X85432248Y-89581882D01*
X85432247Y-89581882D01*
X85432251Y-89581878D01*
X85528757Y-89392474D01*
X85594446Y-89190305D01*
X85627700Y-88980349D01*
X85627700Y-88767775D01*
X85594446Y-88557819D01*
X85528757Y-88355650D01*
X85432251Y-88166246D01*
X85432249Y-88166243D01*
X85432248Y-88166241D01*
X85307309Y-87994275D01*
X85156986Y-87843952D01*
X84985020Y-87719013D01*
X84795614Y-87622506D01*
X84795613Y-87622505D01*
X84795612Y-87622505D01*
X84593443Y-87556816D01*
X84593441Y-87556815D01*
X84593440Y-87556815D01*
X84432157Y-87531270D01*
X84383487Y-87523562D01*
X84170913Y-87523562D01*
X84122242Y-87531270D01*
X83960960Y-87556815D01*
X83758785Y-87622506D01*
X83569379Y-87719013D01*
X83397413Y-87843952D01*
X83247090Y-87994275D01*
X83122151Y-88166241D01*
X83025644Y-88355647D01*
X82959953Y-88557822D01*
X82932233Y-88732839D01*
X82926700Y-88767775D01*
X81805900Y-88767775D01*
X81805900Y-86247362D01*
X81825585Y-86180323D01*
X81878389Y-86134568D01*
X81929900Y-86123362D01*
X141758416Y-86123362D01*
X141825455Y-86143047D01*
G37*
G04 #@! TD.AperFunction*
M02*
