G04 #@! TF.GenerationSoftware,KiCad,Pcbnew,8.0.4*
G04 #@! TF.CreationDate,2024-08-26T00:37:18+05:30*
G04 #@! TF.ProjectId,CoryDora,436f7279-446f-4726-912e-6b696361645f,rev?*
G04 #@! TF.SameCoordinates,Original*
G04 #@! TF.FileFunction,Legend,Bot*
G04 #@! TF.FilePolarity,Positive*
%FSLAX46Y46*%
G04 Gerber Fmt 4.6, Leading zero omitted, Abs format (unit mm)*
G04 Created by KiCad (PCBNEW 8.0.4) date 2024-08-26 00:37:18*
%MOMM*%
%LPD*%
G01*
G04 APERTURE LIST*
%ADD10C,0.120000*%
%ADD11C,0.000000*%
G04 APERTURE END LIST*
D10*
X115845000Y-98683262D02*
X110745000Y-98683262D01*
X119745000Y-102883262D02*
X114645000Y-102883262D01*
X117845000Y-96683262D02*
G75*
G02*
X115845000Y-98683262I-1999999J-1D01*
G01*
X121745000Y-100883262D02*
G75*
G02*
X119745000Y-102883262I-1999999J-1D01*
G01*
X134845000Y-98683262D02*
X129745000Y-98683262D01*
X138745000Y-102883262D02*
X133645000Y-102883262D01*
X136845000Y-96683262D02*
G75*
G02*
X134845000Y-98683262I-1999999J-1D01*
G01*
X140745000Y-100883262D02*
G75*
G02*
X138745000Y-102883262I-1999999J-1D01*
G01*
X96845000Y-98683262D02*
X91745000Y-98683262D01*
X100745000Y-102883262D02*
X95645000Y-102883262D01*
X98845000Y-96683262D02*
G75*
G02*
X96845000Y-98683262I-1999999J-1D01*
G01*
X102745000Y-100883262D02*
G75*
G02*
X100745000Y-102883262I-1999999J-1D01*
G01*
X115845000Y-136733262D02*
X110745000Y-136733262D01*
X119745000Y-140933262D02*
X114645000Y-140933262D01*
X117845000Y-134733262D02*
G75*
G02*
X115845000Y-136733262I-1999999J-1D01*
G01*
X121745000Y-138933262D02*
G75*
G02*
X119745000Y-140933262I-1999999J-1D01*
G01*
X96845000Y-117683262D02*
X91745000Y-117683262D01*
X100745000Y-121883262D02*
X95645000Y-121883262D01*
X98845000Y-115683262D02*
G75*
G02*
X96845000Y-117683262I-1999999J-1D01*
G01*
X102745000Y-119883262D02*
G75*
G02*
X100745000Y-121883262I-1999999J-1D01*
G01*
X96845000Y-136733262D02*
X91745000Y-136733262D01*
X100745000Y-140933262D02*
X95645000Y-140933262D01*
X98845000Y-134733262D02*
G75*
G02*
X96845000Y-136733262I-1999999J-1D01*
G01*
X102745000Y-138933262D02*
G75*
G02*
X100745000Y-140933262I-1999999J-1D01*
G01*
X134845000Y-117683262D02*
X129745000Y-117683262D01*
X138745000Y-121883262D02*
X133645000Y-121883262D01*
X136845000Y-115683262D02*
G75*
G02*
X134845000Y-117683262I-1999999J-1D01*
G01*
X140745000Y-119883262D02*
G75*
G02*
X138745000Y-121883262I-1999999J-1D01*
G01*
X134845000Y-136733262D02*
X129745000Y-136733262D01*
X138745000Y-140933262D02*
X133645000Y-140933262D01*
X136845000Y-134733262D02*
G75*
G02*
X134845000Y-136733262I-1999999J-1D01*
G01*
X140745000Y-138933262D02*
G75*
G02*
X138745000Y-140933262I-1999999J-1D01*
G01*
X115845000Y-117683262D02*
X110745000Y-117683262D01*
X119745000Y-121883262D02*
X114645000Y-121883262D01*
X117845000Y-115683262D02*
G75*
G02*
X115845000Y-117683262I-1999999J-1D01*
G01*
X121745000Y-119883262D02*
G75*
G02*
X119745000Y-121883262I-1999999J-1D01*
G01*
X124525000Y-108863262D02*
X124525000Y-113103262D01*
X124525000Y-113103262D02*
X126765000Y-113103262D01*
X125645000Y-108863262D02*
X125645000Y-108213262D01*
X125645000Y-113103262D02*
X125645000Y-113753262D01*
X126765000Y-108863262D02*
X124525000Y-108863262D01*
X126765000Y-109463262D02*
X124525000Y-109463262D01*
X126765000Y-109583262D02*
X124525000Y-109583262D01*
X126765000Y-109703262D02*
X124525000Y-109703262D01*
X126765000Y-113103262D02*
X126765000Y-108863262D01*
X142005932Y-89002816D02*
X142005932Y-93242816D01*
X142005932Y-93242816D02*
X144245932Y-93242816D01*
X143125932Y-89002816D02*
X143125932Y-88352816D01*
X143125932Y-93242816D02*
X143125932Y-93892816D01*
X144245932Y-89002816D02*
X142005932Y-89002816D01*
X144245932Y-89602816D02*
X142005932Y-89602816D01*
X144245932Y-89722816D02*
X142005932Y-89722816D01*
X144245932Y-89842816D02*
X142005932Y-89842816D01*
X144245932Y-93242816D02*
X144245932Y-89002816D01*
X105525000Y-108863262D02*
X105525000Y-113103262D01*
X105525000Y-113103262D02*
X107765000Y-113103262D01*
X106645000Y-108863262D02*
X106645000Y-108213262D01*
X106645000Y-113103262D02*
X106645000Y-113753262D01*
X107765000Y-108863262D02*
X105525000Y-108863262D01*
X107765000Y-109463262D02*
X105525000Y-109463262D01*
X107765000Y-109583262D02*
X105525000Y-109583262D01*
X107765000Y-109703262D02*
X105525000Y-109703262D01*
X107765000Y-113103262D02*
X107765000Y-108863262D01*
X142005932Y-125812816D02*
X142005932Y-130052816D01*
X142005932Y-130052816D02*
X144245932Y-130052816D01*
X143125932Y-125812816D02*
X143125932Y-125162816D01*
X143125932Y-130052816D02*
X143125932Y-130702816D01*
X144245932Y-125812816D02*
X142005932Y-125812816D01*
X144245932Y-126412816D02*
X142005932Y-126412816D01*
X144245932Y-126532816D02*
X142005932Y-126532816D01*
X144245932Y-126652816D02*
X142005932Y-126652816D01*
X144245932Y-130052816D02*
X144245932Y-125812816D01*
X105525000Y-89863262D02*
X105525000Y-94103262D01*
X105525000Y-94103262D02*
X107765000Y-94103262D01*
X106645000Y-89863262D02*
X106645000Y-89213262D01*
X106645000Y-94103262D02*
X106645000Y-94753262D01*
X107765000Y-89863262D02*
X105525000Y-89863262D01*
X107765000Y-90463262D02*
X105525000Y-90463262D01*
X107765000Y-90583262D02*
X105525000Y-90583262D01*
X107765000Y-90703262D02*
X105525000Y-90703262D01*
X107765000Y-94103262D02*
X107765000Y-89863262D01*
X124525000Y-127863262D02*
X124525000Y-132103262D01*
X124525000Y-132103262D02*
X126765000Y-132103262D01*
X125645000Y-127863262D02*
X125645000Y-127213262D01*
X125645000Y-132103262D02*
X125645000Y-132753262D01*
X126765000Y-127863262D02*
X124525000Y-127863262D01*
X126765000Y-128463262D02*
X124525000Y-128463262D01*
X126765000Y-128583262D02*
X124525000Y-128583262D01*
X126765000Y-128703262D02*
X124525000Y-128703262D01*
X126765000Y-132103262D02*
X126765000Y-127863262D01*
X124525000Y-89863262D02*
X124525000Y-94103262D01*
X124525000Y-94103262D02*
X126765000Y-94103262D01*
X125645000Y-89863262D02*
X125645000Y-89213262D01*
X125645000Y-94103262D02*
X125645000Y-94753262D01*
X126765000Y-89863262D02*
X124525000Y-89863262D01*
X126765000Y-90463262D02*
X124525000Y-90463262D01*
X126765000Y-90583262D02*
X124525000Y-90583262D01*
X126765000Y-90703262D02*
X124525000Y-90703262D01*
X126765000Y-94103262D02*
X126765000Y-89863262D01*
X142005932Y-108002816D02*
X142005932Y-112242816D01*
X142005932Y-112242816D02*
X144245932Y-112242816D01*
X143125932Y-108002816D02*
X143125932Y-107352816D01*
X143125932Y-112242816D02*
X143125932Y-112892816D01*
X144245932Y-108002816D02*
X142005932Y-108002816D01*
X144245932Y-108602816D02*
X142005932Y-108602816D01*
X144245932Y-108722816D02*
X142005932Y-108722816D01*
X144245932Y-108842816D02*
X142005932Y-108842816D01*
X144245932Y-112242816D02*
X144245932Y-108002816D01*
D11*
G36*
X168146614Y-113236614D02*
G01*
X168201436Y-113279440D01*
X168228701Y-113340715D01*
X168223031Y-113406150D01*
X168179049Y-113461456D01*
X168171748Y-113466173D01*
X168103741Y-113483650D01*
X168034586Y-113467450D01*
X167980904Y-113424972D01*
X167959316Y-113363617D01*
X167960719Y-113350342D01*
X167988525Y-113293956D01*
X168037876Y-113245672D01*
X168090144Y-113225197D01*
X168146614Y-113236614D01*
G37*
G36*
X168146614Y-114637993D02*
G01*
X168201436Y-114680819D01*
X168228701Y-114742094D01*
X168223031Y-114807529D01*
X168179049Y-114862835D01*
X168176411Y-114864629D01*
X168108822Y-114884544D01*
X168038948Y-114869208D01*
X167983731Y-114826306D01*
X167960112Y-114763523D01*
X167961385Y-114749681D01*
X167988982Y-114694603D01*
X168038223Y-114646911D01*
X168090144Y-114626576D01*
X168146614Y-114637993D01*
G37*
G36*
X166787444Y-113266612D02*
G01*
X166789427Y-113268439D01*
X166827952Y-113333277D01*
X166823542Y-113403377D01*
X166777092Y-113461861D01*
X166731199Y-113484734D01*
X166687459Y-113488305D01*
X166673610Y-113483516D01*
X166634981Y-113475443D01*
X166613485Y-113457069D01*
X166586115Y-113409808D01*
X166580124Y-113395959D01*
X166570080Y-113340349D01*
X166595187Y-113284684D01*
X166647647Y-113237505D01*
X166717038Y-113229354D01*
X166787444Y-113266612D01*
G37*
G36*
X166787444Y-114667991D02*
G01*
X166789427Y-114669818D01*
X166827952Y-114734656D01*
X166823542Y-114804757D01*
X166777092Y-114863240D01*
X166731199Y-114886114D01*
X166687459Y-114889684D01*
X166673610Y-114884895D01*
X166634981Y-114876822D01*
X166613485Y-114858448D01*
X166586115Y-114811187D01*
X166580124Y-114797338D01*
X166570080Y-114741729D01*
X166595187Y-114686064D01*
X166647647Y-114638884D01*
X166717038Y-114630733D01*
X166787444Y-114667991D01*
G37*
G36*
X168910252Y-118979576D02*
G01*
X168985326Y-119018399D01*
X169027059Y-119044423D01*
X169054038Y-119085629D01*
X169060400Y-119154630D01*
X169060253Y-119168534D01*
X169055209Y-119241337D01*
X169045211Y-119291623D01*
X169042580Y-119295292D01*
X169002728Y-119309936D01*
X168923650Y-119321237D01*
X168814127Y-119329197D01*
X168682940Y-119333816D01*
X168538868Y-119335097D01*
X168390694Y-119333040D01*
X168247197Y-119327647D01*
X168117158Y-119318918D01*
X168009358Y-119306856D01*
X167932578Y-119291461D01*
X167807930Y-119246891D01*
X167639735Y-119150721D01*
X167507528Y-119022092D01*
X167410133Y-118859350D01*
X167346369Y-118660841D01*
X167315059Y-118424912D01*
X167315292Y-118316321D01*
X167781070Y-118316321D01*
X167782937Y-118455988D01*
X167791621Y-118580695D01*
X167807168Y-118673137D01*
X167832238Y-118744848D01*
X167908088Y-118863524D01*
X168014491Y-118945975D01*
X168014934Y-118946203D01*
X168078559Y-118967777D01*
X168171945Y-118986785D01*
X168275040Y-118999136D01*
X168459809Y-119013110D01*
X168459809Y-118308809D01*
X168459809Y-117604507D01*
X168317562Y-117604507D01*
X168242616Y-117608418D01*
X168089432Y-117647082D01*
X167965285Y-117726334D01*
X167871387Y-117845226D01*
X167808949Y-118002807D01*
X167797606Y-118061323D01*
X167785975Y-118178997D01*
X167781070Y-118316321D01*
X167315292Y-118316321D01*
X167315535Y-118203208D01*
X167352257Y-117969646D01*
X167426828Y-117765690D01*
X167538038Y-117593149D01*
X167684679Y-117453829D01*
X167865541Y-117349540D01*
X168079415Y-117282088D01*
X168111413Y-117276869D01*
X168204107Y-117267884D01*
X168328123Y-117260683D01*
X168471187Y-117255898D01*
X168621024Y-117254162D01*
X168707994Y-117254136D01*
X168842789Y-117254999D01*
X168937961Y-117259412D01*
X169000395Y-117270171D01*
X169036972Y-117290069D01*
X169054576Y-117321901D01*
X169060091Y-117368461D01*
X169060400Y-117432545D01*
X169056977Y-117489185D01*
X169035957Y-117537102D01*
X168985485Y-117574390D01*
X168910569Y-117617019D01*
X168910411Y-118298298D01*
X168910409Y-118308809D01*
X168910252Y-118979576D01*
G37*
G36*
X166593703Y-117254341D02*
G01*
X166723015Y-117256411D01*
X166817664Y-117261581D01*
X166883020Y-117271188D01*
X166924451Y-117286567D01*
X166947328Y-117309056D01*
X166957021Y-117339992D01*
X166958899Y-117380709D01*
X166958331Y-117432545D01*
X166954908Y-117489185D01*
X166933888Y-117537102D01*
X166883416Y-117574390D01*
X166808500Y-117617019D01*
X166808342Y-118298298D01*
X166808183Y-118979576D01*
X166883257Y-119018399D01*
X166924991Y-119044423D01*
X166951969Y-119085629D01*
X166958331Y-119154630D01*
X166958184Y-119168534D01*
X166953140Y-119241337D01*
X166943142Y-119291623D01*
X166934471Y-119302837D01*
X166913464Y-119312169D01*
X166874949Y-119319240D01*
X166813502Y-119324351D01*
X166723701Y-119327802D01*
X166600123Y-119329894D01*
X166437343Y-119330929D01*
X166229940Y-119331207D01*
X165531927Y-119331207D01*
X165531927Y-119071367D01*
X165532552Y-118965947D01*
X165537961Y-118877009D01*
X165553522Y-118822567D01*
X165584599Y-118794099D01*
X165636557Y-118783086D01*
X165714763Y-118781006D01*
X165721268Y-118781052D01*
X165765805Y-118790294D01*
X165799425Y-118823750D01*
X165834801Y-118893276D01*
X165884614Y-119005886D01*
X166121177Y-119005886D01*
X166357740Y-119005886D01*
X166357740Y-118718103D01*
X166357740Y-118430320D01*
X166157007Y-118430320D01*
X166087791Y-118430641D01*
X166013289Y-118433896D01*
X165969535Y-118443379D01*
X165944766Y-118462358D01*
X165927214Y-118494097D01*
X165902752Y-118533731D01*
X165864853Y-118550865D01*
X165796371Y-118550402D01*
X165694587Y-118542931D01*
X165687512Y-118261404D01*
X165680436Y-117979876D01*
X165780777Y-117979876D01*
X165822119Y-117981557D01*
X165880987Y-117998882D01*
X165922110Y-118042438D01*
X165933278Y-118058546D01*
X165959214Y-118083842D01*
X165997299Y-118097806D01*
X166060158Y-118103754D01*
X166160421Y-118105000D01*
X166357740Y-118105000D01*
X166357740Y-117854753D01*
X166357740Y-117604507D01*
X166133027Y-117604507D01*
X165908314Y-117604507D01*
X165856573Y-117705928D01*
X165832951Y-117750420D01*
X165801936Y-117789039D01*
X165759790Y-117801914D01*
X165687148Y-117799771D01*
X165569464Y-117792192D01*
X165562361Y-117523177D01*
X165555259Y-117254162D01*
X166241605Y-117254162D01*
X166424357Y-117254034D01*
X166593703Y-117254341D01*
G37*
G36*
X162053504Y-117313596D02*
G01*
X162057538Y-117373717D01*
X162068946Y-117450239D01*
X162070250Y-117456923D01*
X162073514Y-117506483D01*
X162051689Y-117538551D01*
X161993872Y-117570613D01*
X161903356Y-117613777D01*
X161903953Y-118140915D01*
X161904787Y-118322477D01*
X161907875Y-118492381D01*
X161914219Y-118624278D01*
X161924843Y-118724629D01*
X161940771Y-118799896D01*
X161963028Y-118856543D01*
X161992640Y-118901032D01*
X162030630Y-118939825D01*
X162066604Y-118970093D01*
X162113131Y-118995953D01*
X162169761Y-119004427D01*
X162256242Y-119000857D01*
X162258088Y-119000723D01*
X162339297Y-118991113D01*
X162404262Y-118972133D01*
X162454754Y-118938703D01*
X162492546Y-118885743D01*
X162519410Y-118808175D01*
X162537119Y-118700919D01*
X162547443Y-118558895D01*
X162552157Y-118377023D01*
X162553032Y-118150224D01*
X162552068Y-117617019D01*
X162471702Y-117566187D01*
X162453259Y-117554222D01*
X162412800Y-117519094D01*
X162398134Y-117475733D01*
X162400198Y-117403527D01*
X162403031Y-117372476D01*
X162411692Y-117307494D01*
X162420444Y-117272931D01*
X162424046Y-117270771D01*
X162465230Y-117264246D01*
X162544185Y-117258973D01*
X162651504Y-117255447D01*
X162777776Y-117254162D01*
X162820907Y-117254175D01*
X162946001Y-117254773D01*
X163031429Y-117257197D01*
X163085308Y-117262713D01*
X163115755Y-117272586D01*
X163130885Y-117288082D01*
X163138815Y-117310468D01*
X163138941Y-117310939D01*
X163156907Y-117429691D01*
X163137997Y-117516447D01*
X163081691Y-117573598D01*
X163008794Y-117615435D01*
X162997888Y-118229330D01*
X162996885Y-118281506D01*
X162991708Y-118475297D01*
X162984874Y-118643544D01*
X162976732Y-118780120D01*
X162967628Y-118878899D01*
X162957912Y-118933756D01*
X162944915Y-118970828D01*
X162862497Y-119122268D01*
X162744133Y-119238901D01*
X162590086Y-119320450D01*
X162575632Y-119325424D01*
X162493515Y-119342574D01*
X162381028Y-119349990D01*
X162228676Y-119348404D01*
X162108718Y-119341780D01*
X161972287Y-119322557D01*
X161864266Y-119287851D01*
X161772339Y-119233275D01*
X161684192Y-119154443D01*
X161664699Y-119133960D01*
X161621744Y-119081947D01*
X161587971Y-119025527D01*
X161562145Y-118958179D01*
X161543032Y-118873383D01*
X161529397Y-118764620D01*
X161520006Y-118625370D01*
X161513624Y-118449114D01*
X161509016Y-118229330D01*
X161498607Y-117615435D01*
X161425710Y-117573598D01*
X161386721Y-117546897D01*
X161359415Y-117503406D01*
X161352814Y-117432545D01*
X161353074Y-117378266D01*
X161358096Y-117324982D01*
X161375386Y-117289654D01*
X161412501Y-117268596D01*
X161476996Y-117258119D01*
X161576427Y-117254537D01*
X161718348Y-117254162D01*
X162053504Y-117254162D01*
X162053504Y-117313596D01*
G37*
G36*
X163905965Y-117254365D02*
G01*
X164013190Y-117257092D01*
X164084260Y-117265763D01*
X164126603Y-117283799D01*
X164147650Y-117314623D01*
X164154830Y-117361659D01*
X164155573Y-117428329D01*
X164144661Y-117506560D01*
X164106168Y-117557662D01*
X164094104Y-117567075D01*
X164083933Y-117583702D01*
X164086997Y-117608491D01*
X164106721Y-117647766D01*
X164146531Y-117707854D01*
X164209851Y-117795078D01*
X164300109Y-117915765D01*
X164543454Y-118239536D01*
X164550529Y-117928550D01*
X164551765Y-117816795D01*
X164549366Y-117708447D01*
X164542999Y-117637158D01*
X164533016Y-117609369D01*
X164499795Y-117590910D01*
X164449493Y-117554814D01*
X164438881Y-117546175D01*
X164408860Y-117511128D01*
X164399061Y-117464495D01*
X164404444Y-117387565D01*
X164418331Y-117266675D01*
X164766745Y-117259684D01*
X164894541Y-117257427D01*
X165004844Y-117258213D01*
X165078681Y-117265671D01*
X165123392Y-117282900D01*
X165146318Y-117313004D01*
X165154799Y-117359085D01*
X165156175Y-117424242D01*
X165151563Y-117495992D01*
X165130113Y-117539608D01*
X165081642Y-117574390D01*
X165006726Y-117617019D01*
X165006568Y-118298298D01*
X165006410Y-118979576D01*
X165081484Y-119018399D01*
X165123217Y-119044423D01*
X165150195Y-119085629D01*
X165156558Y-119154630D01*
X165156411Y-119168416D01*
X165151285Y-119241511D01*
X165141111Y-119292292D01*
X165135908Y-119301701D01*
X165116711Y-119314768D01*
X165078460Y-119322995D01*
X165013416Y-119327080D01*
X164913842Y-119327722D01*
X164771998Y-119325620D01*
X164418331Y-119318694D01*
X164404267Y-119196208D01*
X164398786Y-119141280D01*
X164401575Y-119089934D01*
X164423880Y-119057243D01*
X164473085Y-119024820D01*
X164555967Y-118975918D01*
X164555967Y-118610210D01*
X164555967Y-118244503D01*
X164224390Y-118786743D01*
X163892814Y-119328983D01*
X163638989Y-119330095D01*
X163537342Y-119330021D01*
X163448759Y-119325420D01*
X163394785Y-119310870D01*
X163366847Y-119281074D01*
X163356371Y-119230737D01*
X163354784Y-119154564D01*
X163355769Y-119129723D01*
X163378660Y-119054954D01*
X163437064Y-119003037D01*
X163537864Y-118966917D01*
X163540106Y-118966333D01*
X163574731Y-118949084D01*
X163616007Y-118911625D01*
X163668694Y-118848271D01*
X163737552Y-118753336D01*
X163827340Y-118621134D01*
X163871646Y-118554621D01*
X163943152Y-118446971D01*
X164002430Y-118357348D01*
X164044285Y-118293613D01*
X164063525Y-118263629D01*
X164064323Y-118259821D01*
X164048924Y-118222815D01*
X164007482Y-118158227D01*
X163946202Y-118073727D01*
X163871287Y-117976990D01*
X163788941Y-117875687D01*
X163705370Y-117777491D01*
X163626776Y-117690075D01*
X163559364Y-117621112D01*
X163509339Y-117578274D01*
X163484786Y-117559641D01*
X163437317Y-117511133D01*
X163419431Y-117471919D01*
X163419525Y-117469997D01*
X163422219Y-117414246D01*
X163425688Y-117341748D01*
X163429858Y-117254162D01*
X163777526Y-117254162D01*
X163905965Y-117254365D01*
G37*
G36*
X168997839Y-115531819D02*
G01*
X168927625Y-115592202D01*
X168857412Y-115652586D01*
X167447980Y-115652586D01*
X167350507Y-115652575D01*
X167060335Y-115652363D01*
X166815230Y-115651798D01*
X166611368Y-115650779D01*
X166444928Y-115649203D01*
X166312086Y-115646968D01*
X166209019Y-115643972D01*
X166131905Y-115640112D01*
X166076920Y-115635286D01*
X166040242Y-115629392D01*
X166018048Y-115622327D01*
X166006515Y-115613988D01*
X165999338Y-115600304D01*
X166002572Y-115575765D01*
X166024728Y-115539251D01*
X166070152Y-115485143D01*
X166143192Y-115407825D01*
X166248194Y-115301678D01*
X166521907Y-115027966D01*
X166611978Y-115052835D01*
X166640306Y-115059243D01*
X166759013Y-115057326D01*
X166867099Y-115012428D01*
X166951160Y-114929427D01*
X166990700Y-114852023D01*
X167005236Y-114737709D01*
X166970439Y-114616746D01*
X166931911Y-114554620D01*
X166853141Y-114487595D01*
X166760480Y-114456441D01*
X166662698Y-114457789D01*
X166568567Y-114488273D01*
X166486858Y-114544525D01*
X166426342Y-114623177D01*
X166395790Y-114720864D01*
X166403974Y-114834216D01*
X166429224Y-114933694D01*
X166175834Y-115194135D01*
X166139608Y-115231132D01*
X166035756Y-115333291D01*
X165958971Y-115401211D01*
X165905372Y-115438115D01*
X165871078Y-115447226D01*
X165861393Y-115445282D01*
X165851860Y-115439648D01*
X165843859Y-115426661D01*
X165837229Y-115402441D01*
X165831811Y-115363106D01*
X165827443Y-115304774D01*
X165823965Y-115223564D01*
X165821216Y-115115594D01*
X165819036Y-114976983D01*
X165817264Y-114803850D01*
X165815740Y-114592312D01*
X165814302Y-114338488D01*
X165812791Y-114038497D01*
X165812041Y-113865380D01*
X165811335Y-113612260D01*
X165811137Y-113376163D01*
X165811150Y-113366649D01*
X166394646Y-113366649D01*
X166418571Y-113475935D01*
X166484343Y-113573171D01*
X166552837Y-113626244D01*
X166663701Y-113662024D01*
X166786892Y-113649545D01*
X166870307Y-113625622D01*
X167349551Y-114104394D01*
X167470646Y-114225500D01*
X167586491Y-114342190D01*
X167673730Y-114431957D01*
X167736114Y-114499368D01*
X167777394Y-114548993D01*
X167801320Y-114585399D01*
X167811641Y-114613155D01*
X167812110Y-114636830D01*
X167806475Y-114660993D01*
X167795427Y-114736629D01*
X167799645Y-114821392D01*
X167806473Y-114845635D01*
X167841521Y-114913554D01*
X167892448Y-114980506D01*
X167946900Y-115031698D01*
X167992522Y-115052336D01*
X168016113Y-115054302D01*
X168071927Y-115064039D01*
X168161299Y-115061404D01*
X168252260Y-115020616D01*
X168331875Y-114951695D01*
X168388318Y-114864914D01*
X168409760Y-114770549D01*
X168391955Y-114668103D01*
X168337449Y-114565264D01*
X168256341Y-114490989D01*
X168211836Y-114469189D01*
X168142078Y-114455499D01*
X168047068Y-114460670D01*
X167915331Y-114476153D01*
X167448954Y-114009775D01*
X166982576Y-113543398D01*
X166998255Y-113425210D01*
X167001615Y-113387019D01*
X166986985Y-113264314D01*
X166936980Y-113164350D01*
X166859323Y-113092567D01*
X166761736Y-113054407D01*
X166651941Y-113055309D01*
X166537663Y-113100715D01*
X166466844Y-113160615D01*
X166411195Y-113257486D01*
X166394646Y-113366649D01*
X165811150Y-113366649D01*
X165811425Y-113161808D01*
X165812178Y-112973911D01*
X165813374Y-112817190D01*
X165814992Y-112696365D01*
X165817011Y-112616151D01*
X165819409Y-112581268D01*
X165831387Y-112546724D01*
X165855475Y-112514734D01*
X165895862Y-112490490D01*
X165958168Y-112472963D01*
X166048014Y-112461124D01*
X166171022Y-112453943D01*
X166332813Y-112450389D01*
X166539008Y-112449433D01*
X167098130Y-112449433D01*
X167466328Y-112820592D01*
X167570057Y-112925311D01*
X167666614Y-113023952D01*
X167735416Y-113097022D01*
X167780595Y-113149946D01*
X167806282Y-113188146D01*
X167816612Y-113217045D01*
X167815715Y-113242067D01*
X167807724Y-113268634D01*
X167805464Y-113275376D01*
X167792763Y-113387438D01*
X167822458Y-113491587D01*
X167887385Y-113578063D01*
X167980376Y-113637107D01*
X168094268Y-113658957D01*
X168196433Y-113647851D01*
X168288985Y-113602761D01*
X168360956Y-113517639D01*
X168372669Y-113496617D01*
X168404682Y-113384094D01*
X168393861Y-113270145D01*
X168343362Y-113167680D01*
X168256341Y-113089609D01*
X168212619Y-113068111D01*
X168142671Y-113054142D01*
X168047616Y-113059226D01*
X167916428Y-113074644D01*
X167650834Y-112809050D01*
X167615562Y-112773866D01*
X167524026Y-112682138D01*
X167456294Y-112609527D01*
X167415283Y-112553805D01*
X167403907Y-112512743D01*
X167425081Y-112484113D01*
X167481720Y-112465685D01*
X167576739Y-112455232D01*
X167713053Y-112450525D01*
X167893578Y-112449335D01*
X168121228Y-112449433D01*
X168282349Y-112450042D01*
X168462295Y-112452325D01*
X168617618Y-112456103D01*
X168741963Y-112461165D01*
X168828975Y-112467300D01*
X168872297Y-112474299D01*
X168889815Y-112481186D01*
X168915675Y-112493967D01*
X168937576Y-112511616D01*
X168955825Y-112537898D01*
X168970726Y-112576579D01*
X168982586Y-112631424D01*
X168991711Y-112706197D01*
X168998407Y-112804664D01*
X169002979Y-112930589D01*
X169005733Y-113087738D01*
X169006976Y-113279875D01*
X169007013Y-113510765D01*
X169006151Y-113784174D01*
X169004694Y-114103867D01*
X169001494Y-114770549D01*
X168997839Y-115531819D01*
G37*
D10*
X105525000Y-127863262D02*
X105525000Y-132103262D01*
X105525000Y-132103262D02*
X107765000Y-132103262D01*
X106645000Y-127863262D02*
X106645000Y-127213262D01*
X106645000Y-132103262D02*
X106645000Y-132753262D01*
X107765000Y-127863262D02*
X105525000Y-127863262D01*
X107765000Y-128463262D02*
X105525000Y-128463262D01*
X107765000Y-128583262D02*
X105525000Y-128583262D01*
X107765000Y-128703262D02*
X105525000Y-128703262D01*
X107765000Y-132103262D02*
X107765000Y-127863262D01*
M02*
