G04 #@! TF.GenerationSoftware,KiCad,Pcbnew,8.0.3*
G04 #@! TF.CreationDate,2024-06-11T21:06:24+05:30*
G04 #@! TF.ProjectId,CoryDora,436f7279-446f-4726-912e-6b696361645f,rev?*
G04 #@! TF.SameCoordinates,Original*
G04 #@! TF.FileFunction,Soldermask,Top*
G04 #@! TF.FilePolarity,Negative*
%FSLAX46Y46*%
G04 Gerber Fmt 4.6, Leading zero omitted, Abs format (unit mm)*
G04 Created by KiCad (PCBNEW 8.0.3) date 2024-06-11 21:06:24*
%MOMM*%
%LPD*%
G01*
G04 APERTURE LIST*
%ADD10C,2.200000*%
%ADD11C,3.600000*%
%ADD12C,1.750000*%
%ADD13C,4.000000*%
%ADD14R,1.700000X1.700000*%
%ADD15O,1.700000X1.700000*%
%ADD16R,1.600000X1.600000*%
%ADD17O,1.600000X1.600000*%
%ADD18O,2.500000X1.500000*%
%ADD19O,1.500000X2.500000*%
%ADD20R,2.000000X2.000000*%
%ADD21C,2.000000*%
%ADD22R,3.200000X2.000000*%
G04 APERTURE END LIST*
D10*
X166395400Y-142417262D03*
D11*
X113105000Y-101063262D03*
X119455000Y-98523262D03*
D12*
X110565000Y-95983262D03*
D13*
X115645000Y-95983262D03*
D12*
X120725000Y-95983262D03*
D11*
X132105000Y-101063262D03*
X138455000Y-98523262D03*
D12*
X129565000Y-95983262D03*
D13*
X134645000Y-95983262D03*
D12*
X139725000Y-95983262D03*
D10*
X84150200Y-142849062D03*
D11*
X94105000Y-101063262D03*
X100455000Y-98523262D03*
D12*
X91565000Y-95983262D03*
D13*
X96645000Y-95983262D03*
D12*
X101725000Y-95983262D03*
D10*
X84277200Y-88874062D03*
D11*
X113105000Y-139113262D03*
X119455000Y-136573262D03*
D12*
X110565000Y-134033262D03*
D13*
X115645000Y-134033262D03*
D12*
X120725000Y-134033262D03*
D11*
X94105000Y-120063262D03*
X100455000Y-117523262D03*
D12*
X91565000Y-114983262D03*
D13*
X96645000Y-114983262D03*
D12*
X101725000Y-114983262D03*
D11*
X94105000Y-139113262D03*
X100455000Y-136573262D03*
D12*
X91565000Y-134033262D03*
D13*
X96645000Y-134033262D03*
D12*
X101725000Y-134033262D03*
D11*
X132105000Y-120063262D03*
X138455000Y-117523262D03*
D12*
X129565000Y-114983262D03*
D13*
X134645000Y-114983262D03*
D12*
X139725000Y-114983262D03*
X139725000Y-134033262D03*
D13*
X134645000Y-134033262D03*
D12*
X129565000Y-134033262D03*
D11*
X138455000Y-136573262D03*
X132105000Y-139113262D03*
D14*
X159445000Y-123383262D03*
D15*
X156905000Y-123383262D03*
X154365000Y-123383262D03*
X151825000Y-123383262D03*
D10*
X168148000Y-88391462D03*
D11*
X113105000Y-120063262D03*
X119455000Y-117523262D03*
D12*
X110565000Y-114983262D03*
D13*
X115645000Y-114983262D03*
D12*
X120725000Y-114983262D03*
D16*
X125645000Y-107173262D03*
D17*
X125645000Y-114793262D03*
D16*
X143125932Y-87312816D03*
D17*
X143125932Y-94932816D03*
D16*
X106645000Y-107173262D03*
D17*
X106645000Y-114793262D03*
D16*
X143125932Y-124122816D03*
D17*
X143125932Y-131742816D03*
D16*
X106645000Y-88173262D03*
D17*
X106645000Y-95793262D03*
D16*
X125645000Y-126173262D03*
D17*
X125645000Y-133793262D03*
D16*
X125645000Y-88173262D03*
D17*
X125645000Y-95793262D03*
D16*
X143125932Y-106312816D03*
D17*
X143125932Y-113932816D03*
D18*
X147525000Y-87887153D03*
X147525000Y-90427153D03*
X147525000Y-92967153D03*
X147525000Y-95507153D03*
X147525000Y-98047153D03*
X147525000Y-100587153D03*
X147525000Y-103127153D03*
X147525000Y-105667153D03*
X147525000Y-108207153D03*
D19*
X150565000Y-108707153D03*
X153105000Y-108707153D03*
X155645000Y-108707153D03*
X158185000Y-108707153D03*
X160725000Y-108707153D03*
D18*
X163765000Y-108207153D03*
X163765000Y-105667153D03*
X163765000Y-103127153D03*
X163765000Y-100587153D03*
X163765000Y-98047153D03*
X163765000Y-95507153D03*
X163765000Y-92967153D03*
X163765000Y-90427153D03*
X163765000Y-87887153D03*
D16*
X106645000Y-126173262D03*
D17*
X106645000Y-133793262D03*
D20*
X147293400Y-133083462D03*
D21*
X147293400Y-138083462D03*
X147293400Y-135583462D03*
D22*
X154793400Y-129983462D03*
X154793400Y-141183462D03*
D21*
X161793400Y-138083462D03*
X161793400Y-133083462D03*
M02*
