%TF.GenerationSoftware,KiCad,Pcbnew,8.0.0*%
%TF.CreationDate,2024-03-13T16:51:16+05:30*%
%TF.ProjectId,CoryDora,436f7279-446f-4726-912e-6b696361645f,rev?*%
%TF.SameCoordinates,Original*%
%TF.FileFunction,Drillmap*%
%TF.FilePolarity,Positive*%
%FSLAX45Y45*%
G04 Gerber Fmt 4.5, Leading zero omitted, Abs format (unit mm)*
G04 Created by KiCad (PCBNEW 8.0.0) date 2024-03-13 16:51:16*
%MOMM*%
%LPD*%
G01*
G04 APERTURE LIST*
%ADD10C,0.050000*%
%ADD11C,0.200000*%
%ADD12C,0.100000*%
%ADD13C,0.150000*%
%ADD14C,0.305000*%
G04 APERTURE END LIST*
D10*
X8130540Y-8562286D02*
X17091660Y-8562286D01*
X17091660Y-14571926D01*
X8130540Y-14571926D01*
X8130540Y-8562286D01*
D11*
D12*
X14290280Y-10388786D02*
X14320280Y-10418786D01*
X14320280Y-10388786D02*
X14290280Y-10418786D01*
X14371560Y-9984926D02*
X14401560Y-10014926D01*
X14401560Y-9984926D02*
X14371560Y-10014926D01*
X14445220Y-11986446D02*
X14475220Y-12016446D01*
X14475220Y-11986446D02*
X14445220Y-12016446D01*
X14752560Y-11087286D02*
X14782560Y-11117286D01*
X14782560Y-11087286D02*
X14752560Y-11117286D01*
X15009100Y-10604686D02*
X15039100Y-10634686D01*
X15039100Y-10604686D02*
X15009100Y-10634686D01*
X15214840Y-9448986D02*
X15244840Y-9478986D01*
X15244840Y-9448986D02*
X15214840Y-9478986D01*
X15628860Y-9294046D02*
X15658860Y-9324046D01*
X15658860Y-9294046D02*
X15628860Y-9324046D01*
X15860000Y-10175426D02*
X15890000Y-10205426D01*
X15890000Y-10175426D02*
X15860000Y-10205426D01*
X16045420Y-10015406D02*
X16075420Y-10045406D01*
X16075420Y-10015406D02*
X16045420Y-10045406D01*
X10704500Y-8817326D02*
G75*
G02*
X10624500Y-8817326I-40000J0D01*
G01*
X10624500Y-8817326D02*
G75*
G02*
X10704500Y-8817326I40000J0D01*
G01*
X10704500Y-9579326D02*
G75*
G02*
X10624500Y-9579326I-40000J0D01*
G01*
X10624500Y-9579326D02*
G75*
G02*
X10704500Y-9579326I40000J0D01*
G01*
X10704500Y-10717326D02*
G75*
G02*
X10624500Y-10717326I-40000J0D01*
G01*
X10624500Y-10717326D02*
G75*
G02*
X10704500Y-10717326I40000J0D01*
G01*
X10704500Y-11479326D02*
G75*
G02*
X10624500Y-11479326I-40000J0D01*
G01*
X10624500Y-11479326D02*
G75*
G02*
X10704500Y-11479326I40000J0D01*
G01*
X10704500Y-12617326D02*
G75*
G02*
X10624500Y-12617326I-40000J0D01*
G01*
X10624500Y-12617326D02*
G75*
G02*
X10704500Y-12617326I40000J0D01*
G01*
X10704500Y-13379326D02*
G75*
G02*
X10624500Y-13379326I-40000J0D01*
G01*
X10624500Y-13379326D02*
G75*
G02*
X10704500Y-13379326I40000J0D01*
G01*
X12604500Y-8817326D02*
G75*
G02*
X12524500Y-8817326I-40000J0D01*
G01*
X12524500Y-8817326D02*
G75*
G02*
X12604500Y-8817326I40000J0D01*
G01*
X12604500Y-9579326D02*
G75*
G02*
X12524500Y-9579326I-40000J0D01*
G01*
X12524500Y-9579326D02*
G75*
G02*
X12604500Y-9579326I40000J0D01*
G01*
X12604500Y-10717326D02*
G75*
G02*
X12524500Y-10717326I-40000J0D01*
G01*
X12524500Y-10717326D02*
G75*
G02*
X12604500Y-10717326I40000J0D01*
G01*
X12604500Y-11479326D02*
G75*
G02*
X12524500Y-11479326I-40000J0D01*
G01*
X12524500Y-11479326D02*
G75*
G02*
X12604500Y-11479326I40000J0D01*
G01*
X12604500Y-12617326D02*
G75*
G02*
X12524500Y-12617326I-40000J0D01*
G01*
X12524500Y-12617326D02*
G75*
G02*
X12604500Y-12617326I40000J0D01*
G01*
X12604500Y-13379326D02*
G75*
G02*
X12524500Y-13379326I-40000J0D01*
G01*
X12524500Y-13379326D02*
G75*
G02*
X12604500Y-13379326I40000J0D01*
G01*
X14352593Y-8731282D02*
G75*
G02*
X14272593Y-8731282I-40000J0D01*
G01*
X14272593Y-8731282D02*
G75*
G02*
X14352593Y-8731282I40000J0D01*
G01*
X14352593Y-9493282D02*
G75*
G02*
X14272593Y-9493282I-40000J0D01*
G01*
X14272593Y-9493282D02*
G75*
G02*
X14352593Y-9493282I40000J0D01*
G01*
X14352593Y-10631282D02*
G75*
G02*
X14272593Y-10631282I-40000J0D01*
G01*
X14272593Y-10631282D02*
G75*
G02*
X14352593Y-10631282I40000J0D01*
G01*
X14352593Y-11393282D02*
G75*
G02*
X14272593Y-11393282I-40000J0D01*
G01*
X14272593Y-11393282D02*
G75*
G02*
X14352593Y-11393282I40000J0D01*
G01*
X14352593Y-12412282D02*
G75*
G02*
X14272593Y-12412282I-40000J0D01*
G01*
X14272593Y-12412282D02*
G75*
G02*
X14352593Y-12412282I40000J0D01*
G01*
X14352593Y-13174282D02*
G75*
G02*
X14272593Y-13174282I-40000J0D01*
G01*
X14272593Y-13174282D02*
G75*
G02*
X14352593Y-13174282I40000J0D01*
G01*
X14739500Y-13098326D02*
X14739500Y-13198326D01*
X14689500Y-13148326D02*
X14789500Y-13148326D01*
X14739500Y-13348326D02*
X14739500Y-13448326D01*
X14689500Y-13398326D02*
X14789500Y-13398326D01*
X14739500Y-13598326D02*
X14739500Y-13698326D01*
X14689500Y-13648326D02*
X14789500Y-13648326D01*
X14802500Y-8738715D02*
X14802500Y-8838715D01*
X14752500Y-8788715D02*
X14852500Y-8788715D01*
X14802500Y-8992715D02*
X14802500Y-9092715D01*
X14752500Y-9042715D02*
X14852500Y-9042715D01*
X14802500Y-9246715D02*
X14802500Y-9346715D01*
X14752500Y-9296715D02*
X14852500Y-9296715D01*
X14802500Y-9500715D02*
X14802500Y-9600715D01*
X14752500Y-9550715D02*
X14852500Y-9550715D01*
X14802500Y-9754715D02*
X14802500Y-9854715D01*
X14752500Y-9804715D02*
X14852500Y-9804715D01*
X14802500Y-10008715D02*
X14802500Y-10108715D01*
X14752500Y-10058715D02*
X14852500Y-10058715D01*
X14802500Y-10262715D02*
X14802500Y-10362715D01*
X14752500Y-10312715D02*
X14852500Y-10312715D01*
X14802500Y-10516715D02*
X14802500Y-10616715D01*
X14752500Y-10566715D02*
X14852500Y-10566715D01*
X14802500Y-10770715D02*
X14802500Y-10870715D01*
X14752500Y-10820715D02*
X14852500Y-10820715D01*
X15056500Y-10770715D02*
X15056500Y-10870715D01*
X15006500Y-10820715D02*
X15106500Y-10820715D01*
X15182500Y-12288326D02*
X15182500Y-12388326D01*
X15132500Y-12338326D02*
X15232500Y-12338326D01*
X15310500Y-10770715D02*
X15310500Y-10870715D01*
X15260500Y-10820715D02*
X15360500Y-10820715D01*
X15436500Y-12288326D02*
X15436500Y-12388326D01*
X15386500Y-12338326D02*
X15486500Y-12338326D01*
X15564500Y-10770715D02*
X15564500Y-10870715D01*
X15514500Y-10820715D02*
X15614500Y-10820715D01*
X15690500Y-12288326D02*
X15690500Y-12388326D01*
X15640500Y-12338326D02*
X15740500Y-12338326D01*
X15818500Y-10770715D02*
X15818500Y-10870715D01*
X15768500Y-10820715D02*
X15868500Y-10820715D01*
X15944500Y-12288326D02*
X15944500Y-12388326D01*
X15894500Y-12338326D02*
X15994500Y-12338326D01*
X16072500Y-10770715D02*
X16072500Y-10870715D01*
X16022500Y-10820715D02*
X16122500Y-10820715D01*
X16189500Y-13098326D02*
X16189500Y-13198326D01*
X16139500Y-13148326D02*
X16239500Y-13148326D01*
X16189500Y-13598326D02*
X16189500Y-13698326D01*
X16139500Y-13648326D02*
X16239500Y-13648326D01*
X16326500Y-8738715D02*
X16326500Y-8838715D01*
X16276500Y-8788715D02*
X16376500Y-8788715D01*
X16326500Y-8992715D02*
X16326500Y-9092715D01*
X16276500Y-9042715D02*
X16376500Y-9042715D01*
X16326500Y-9246715D02*
X16326500Y-9346715D01*
X16276500Y-9296715D02*
X16376500Y-9296715D01*
X16326500Y-9500715D02*
X16326500Y-9600715D01*
X16276500Y-9550715D02*
X16376500Y-9550715D01*
X16326500Y-9754715D02*
X16326500Y-9854715D01*
X16276500Y-9804715D02*
X16376500Y-9804715D01*
X16326500Y-10008715D02*
X16326500Y-10108715D01*
X16276500Y-10058715D02*
X16376500Y-10058715D01*
X16326500Y-10262715D02*
X16326500Y-10362715D01*
X16276500Y-10312715D02*
X16376500Y-10312715D01*
X16326500Y-10516715D02*
X16326500Y-10616715D01*
X16276500Y-10566715D02*
X16376500Y-10566715D01*
X16326500Y-10770715D02*
X16326500Y-10870715D01*
X16276500Y-10820715D02*
X16376500Y-10820715D01*
D13*
X15542533Y-12891360D02*
X15542533Y-12785293D01*
X15436466Y-12785293D01*
X15436466Y-12891360D01*
X15542533Y-12891360D01*
D12*
X15424500Y-12913326D02*
X15554500Y-12913326D01*
X15554500Y-12763326D02*
G75*
G02*
X15554500Y-12913326I0J-75000D01*
G01*
X15554500Y-12763326D02*
X15424500Y-12763326D01*
X15424500Y-12763326D02*
G75*
G03*
X15424500Y-12913326I0J-75000D01*
G01*
D13*
X15542533Y-14011360D02*
X15542533Y-13905293D01*
X15436466Y-13905293D01*
X15436466Y-14011360D01*
X15542533Y-14011360D01*
D12*
X15424500Y-14033326D02*
X15554500Y-14033326D01*
X15554500Y-13883326D02*
G75*
G02*
X15554500Y-14033326I0J-75000D01*
G01*
X15554500Y-13883326D02*
X15424500Y-13883326D01*
X15424500Y-13883326D02*
G75*
G03*
X15424500Y-14033326I0J-75000D01*
G01*
D14*
X9410500Y-10258826D02*
X9563000Y-10106326D01*
X9410500Y-9953826D01*
X9258000Y-10106326D01*
X9410500Y-10258826D01*
X9410500Y-12158826D02*
X9563000Y-12006326D01*
X9410500Y-11853826D01*
X9258000Y-12006326D01*
X9410500Y-12158826D01*
X9410500Y-14063826D02*
X9563000Y-13911326D01*
X9410500Y-13758826D01*
X9258000Y-13911326D01*
X9410500Y-14063826D01*
X10045500Y-10004826D02*
X10198000Y-9852326D01*
X10045500Y-9699826D01*
X9893000Y-9852326D01*
X10045500Y-10004826D01*
X10045500Y-11904826D02*
X10198000Y-11752326D01*
X10045500Y-11599826D01*
X9893000Y-11752326D01*
X10045500Y-11904826D01*
X10045500Y-13809826D02*
X10198000Y-13657326D01*
X10045500Y-13504826D01*
X9893000Y-13657326D01*
X10045500Y-13809826D01*
X11310500Y-10258826D02*
X11463000Y-10106326D01*
X11310500Y-9953826D01*
X11158000Y-10106326D01*
X11310500Y-10258826D01*
X11310500Y-12158826D02*
X11463000Y-12006326D01*
X11310500Y-11853826D01*
X11158000Y-12006326D01*
X11310500Y-12158826D01*
X11310500Y-14063826D02*
X11463000Y-13911326D01*
X11310500Y-13758826D01*
X11158000Y-13911326D01*
X11310500Y-14063826D01*
X11945500Y-10004826D02*
X12098000Y-9852326D01*
X11945500Y-9699826D01*
X11793000Y-9852326D01*
X11945500Y-10004826D01*
X11945500Y-11904826D02*
X12098000Y-11752326D01*
X11945500Y-11599826D01*
X11793000Y-11752326D01*
X11945500Y-11904826D01*
X11945500Y-13809826D02*
X12098000Y-13657326D01*
X11945500Y-13504826D01*
X11793000Y-13657326D01*
X11945500Y-13809826D01*
X13210500Y-10258826D02*
X13363000Y-10106326D01*
X13210500Y-9953826D01*
X13058000Y-10106326D01*
X13210500Y-10258826D01*
X13210500Y-12158826D02*
X13363000Y-12006326D01*
X13210500Y-11853826D01*
X13058000Y-12006326D01*
X13210500Y-12158826D01*
X13210500Y-14063826D02*
X13363000Y-13911326D01*
X13210500Y-13758826D01*
X13058000Y-13911326D01*
X13210500Y-14063826D01*
X13845500Y-10004826D02*
X13998000Y-9852326D01*
X13845500Y-9699826D01*
X13693000Y-9852326D01*
X13845500Y-10004826D01*
X13845500Y-11904826D02*
X13998000Y-11752326D01*
X13845500Y-11599826D01*
X13693000Y-11752326D01*
X13845500Y-11904826D01*
X13845500Y-13809826D02*
X13998000Y-13657326D01*
X13845500Y-13504826D01*
X13693000Y-13657326D01*
X13845500Y-13809826D01*
D11*
X8388817Y-14885910D02*
X8388817Y-14685910D01*
X8388817Y-14685910D02*
X8436436Y-14685910D01*
X8436436Y-14685910D02*
X8465007Y-14695434D01*
X8465007Y-14695434D02*
X8484055Y-14714481D01*
X8484055Y-14714481D02*
X8493579Y-14733529D01*
X8493579Y-14733529D02*
X8503103Y-14771624D01*
X8503103Y-14771624D02*
X8503103Y-14800196D01*
X8503103Y-14800196D02*
X8493579Y-14838291D01*
X8493579Y-14838291D02*
X8484055Y-14857338D01*
X8484055Y-14857338D02*
X8465007Y-14876386D01*
X8465007Y-14876386D02*
X8436436Y-14885910D01*
X8436436Y-14885910D02*
X8388817Y-14885910D01*
X8588817Y-14885910D02*
X8588817Y-14752577D01*
X8588817Y-14790672D02*
X8598341Y-14771624D01*
X8598341Y-14771624D02*
X8607864Y-14762100D01*
X8607864Y-14762100D02*
X8626912Y-14752577D01*
X8626912Y-14752577D02*
X8645960Y-14752577D01*
X8712626Y-14885910D02*
X8712626Y-14752577D01*
X8712626Y-14685910D02*
X8703103Y-14695434D01*
X8703103Y-14695434D02*
X8712626Y-14704958D01*
X8712626Y-14704958D02*
X8722150Y-14695434D01*
X8722150Y-14695434D02*
X8712626Y-14685910D01*
X8712626Y-14685910D02*
X8712626Y-14704958D01*
X8836436Y-14885910D02*
X8817388Y-14876386D01*
X8817388Y-14876386D02*
X8807864Y-14857338D01*
X8807864Y-14857338D02*
X8807864Y-14685910D01*
X8941198Y-14885910D02*
X8922150Y-14876386D01*
X8922150Y-14876386D02*
X8912626Y-14857338D01*
X8912626Y-14857338D02*
X8912626Y-14685910D01*
X9169769Y-14885910D02*
X9169769Y-14685910D01*
X9169769Y-14685910D02*
X9236436Y-14828767D01*
X9236436Y-14828767D02*
X9303103Y-14685910D01*
X9303103Y-14685910D02*
X9303103Y-14885910D01*
X9484055Y-14885910D02*
X9484055Y-14781148D01*
X9484055Y-14781148D02*
X9474531Y-14762100D01*
X9474531Y-14762100D02*
X9455484Y-14752577D01*
X9455484Y-14752577D02*
X9417388Y-14752577D01*
X9417388Y-14752577D02*
X9398341Y-14762100D01*
X9484055Y-14876386D02*
X9465007Y-14885910D01*
X9465007Y-14885910D02*
X9417388Y-14885910D01*
X9417388Y-14885910D02*
X9398341Y-14876386D01*
X9398341Y-14876386D02*
X9388817Y-14857338D01*
X9388817Y-14857338D02*
X9388817Y-14838291D01*
X9388817Y-14838291D02*
X9398341Y-14819243D01*
X9398341Y-14819243D02*
X9417388Y-14809719D01*
X9417388Y-14809719D02*
X9465007Y-14809719D01*
X9465007Y-14809719D02*
X9484055Y-14800196D01*
X9579293Y-14752577D02*
X9579293Y-14952577D01*
X9579293Y-14762100D02*
X9598341Y-14752577D01*
X9598341Y-14752577D02*
X9636436Y-14752577D01*
X9636436Y-14752577D02*
X9655484Y-14762100D01*
X9655484Y-14762100D02*
X9665007Y-14771624D01*
X9665007Y-14771624D02*
X9674531Y-14790672D01*
X9674531Y-14790672D02*
X9674531Y-14847815D01*
X9674531Y-14847815D02*
X9665007Y-14866862D01*
X9665007Y-14866862D02*
X9655484Y-14876386D01*
X9655484Y-14876386D02*
X9636436Y-14885910D01*
X9636436Y-14885910D02*
X9598341Y-14885910D01*
X9598341Y-14885910D02*
X9579293Y-14876386D01*
X9760245Y-14866862D02*
X9769769Y-14876386D01*
X9769769Y-14876386D02*
X9760245Y-14885910D01*
X9760245Y-14885910D02*
X9750722Y-14876386D01*
X9750722Y-14876386D02*
X9760245Y-14866862D01*
X9760245Y-14866862D02*
X9760245Y-14885910D01*
X9760245Y-14762100D02*
X9769769Y-14771624D01*
X9769769Y-14771624D02*
X9760245Y-14781148D01*
X9760245Y-14781148D02*
X9750722Y-14771624D01*
X9750722Y-14771624D02*
X9760245Y-14762100D01*
X9760245Y-14762100D02*
X9760245Y-14781148D01*
D12*
X8098040Y-15199426D02*
X8128040Y-15229426D01*
X8128040Y-15199426D02*
X8098040Y-15229426D01*
D11*
X8426912Y-15105910D02*
X8445960Y-15105910D01*
X8445960Y-15105910D02*
X8465007Y-15115434D01*
X8465007Y-15115434D02*
X8474531Y-15124958D01*
X8474531Y-15124958D02*
X8484055Y-15144005D01*
X8484055Y-15144005D02*
X8493579Y-15182100D01*
X8493579Y-15182100D02*
X8493579Y-15229719D01*
X8493579Y-15229719D02*
X8484055Y-15267815D01*
X8484055Y-15267815D02*
X8474531Y-15286862D01*
X8474531Y-15286862D02*
X8465007Y-15296386D01*
X8465007Y-15296386D02*
X8445960Y-15305910D01*
X8445960Y-15305910D02*
X8426912Y-15305910D01*
X8426912Y-15305910D02*
X8407864Y-15296386D01*
X8407864Y-15296386D02*
X8398341Y-15286862D01*
X8398341Y-15286862D02*
X8388817Y-15267815D01*
X8388817Y-15267815D02*
X8379293Y-15229719D01*
X8379293Y-15229719D02*
X8379293Y-15182100D01*
X8379293Y-15182100D02*
X8388817Y-15144005D01*
X8388817Y-15144005D02*
X8398341Y-15124958D01*
X8398341Y-15124958D02*
X8407864Y-15115434D01*
X8407864Y-15115434D02*
X8426912Y-15105910D01*
X8579293Y-15286862D02*
X8588817Y-15296386D01*
X8588817Y-15296386D02*
X8579293Y-15305910D01*
X8579293Y-15305910D02*
X8569769Y-15296386D01*
X8569769Y-15296386D02*
X8579293Y-15286862D01*
X8579293Y-15286862D02*
X8579293Y-15305910D01*
X8655484Y-15105910D02*
X8779293Y-15105910D01*
X8779293Y-15105910D02*
X8712626Y-15182100D01*
X8712626Y-15182100D02*
X8741198Y-15182100D01*
X8741198Y-15182100D02*
X8760245Y-15191624D01*
X8760245Y-15191624D02*
X8769769Y-15201148D01*
X8769769Y-15201148D02*
X8779293Y-15220196D01*
X8779293Y-15220196D02*
X8779293Y-15267815D01*
X8779293Y-15267815D02*
X8769769Y-15286862D01*
X8769769Y-15286862D02*
X8760245Y-15296386D01*
X8760245Y-15296386D02*
X8741198Y-15305910D01*
X8741198Y-15305910D02*
X8684055Y-15305910D01*
X8684055Y-15305910D02*
X8665007Y-15296386D01*
X8665007Y-15296386D02*
X8655484Y-15286862D01*
X8903103Y-15105910D02*
X8922150Y-15105910D01*
X8922150Y-15105910D02*
X8941198Y-15115434D01*
X8941198Y-15115434D02*
X8950722Y-15124958D01*
X8950722Y-15124958D02*
X8960245Y-15144005D01*
X8960245Y-15144005D02*
X8969769Y-15182100D01*
X8969769Y-15182100D02*
X8969769Y-15229719D01*
X8969769Y-15229719D02*
X8960245Y-15267815D01*
X8960245Y-15267815D02*
X8950722Y-15286862D01*
X8950722Y-15286862D02*
X8941198Y-15296386D01*
X8941198Y-15296386D02*
X8922150Y-15305910D01*
X8922150Y-15305910D02*
X8903103Y-15305910D01*
X8903103Y-15305910D02*
X8884055Y-15296386D01*
X8884055Y-15296386D02*
X8874531Y-15286862D01*
X8874531Y-15286862D02*
X8865007Y-15267815D01*
X8865007Y-15267815D02*
X8855484Y-15229719D01*
X8855484Y-15229719D02*
X8855484Y-15182100D01*
X8855484Y-15182100D02*
X8865007Y-15144005D01*
X8865007Y-15144005D02*
X8874531Y-15124958D01*
X8874531Y-15124958D02*
X8884055Y-15115434D01*
X8884055Y-15115434D02*
X8903103Y-15105910D01*
X9093579Y-15105910D02*
X9112626Y-15105910D01*
X9112626Y-15105910D02*
X9131674Y-15115434D01*
X9131674Y-15115434D02*
X9141198Y-15124958D01*
X9141198Y-15124958D02*
X9150722Y-15144005D01*
X9150722Y-15144005D02*
X9160245Y-15182100D01*
X9160245Y-15182100D02*
X9160245Y-15229719D01*
X9160245Y-15229719D02*
X9150722Y-15267815D01*
X9150722Y-15267815D02*
X9141198Y-15286862D01*
X9141198Y-15286862D02*
X9131674Y-15296386D01*
X9131674Y-15296386D02*
X9112626Y-15305910D01*
X9112626Y-15305910D02*
X9093579Y-15305910D01*
X9093579Y-15305910D02*
X9074531Y-15296386D01*
X9074531Y-15296386D02*
X9065007Y-15286862D01*
X9065007Y-15286862D02*
X9055484Y-15267815D01*
X9055484Y-15267815D02*
X9045960Y-15229719D01*
X9045960Y-15229719D02*
X9045960Y-15182100D01*
X9045960Y-15182100D02*
X9055484Y-15144005D01*
X9055484Y-15144005D02*
X9065007Y-15124958D01*
X9065007Y-15124958D02*
X9074531Y-15115434D01*
X9074531Y-15115434D02*
X9093579Y-15105910D01*
X9245960Y-15305910D02*
X9245960Y-15172577D01*
X9245960Y-15191624D02*
X9255484Y-15182100D01*
X9255484Y-15182100D02*
X9274531Y-15172577D01*
X9274531Y-15172577D02*
X9303103Y-15172577D01*
X9303103Y-15172577D02*
X9322150Y-15182100D01*
X9322150Y-15182100D02*
X9331674Y-15201148D01*
X9331674Y-15201148D02*
X9331674Y-15305910D01*
X9331674Y-15201148D02*
X9341198Y-15182100D01*
X9341198Y-15182100D02*
X9360245Y-15172577D01*
X9360245Y-15172577D02*
X9388817Y-15172577D01*
X9388817Y-15172577D02*
X9407865Y-15182100D01*
X9407865Y-15182100D02*
X9417388Y-15201148D01*
X9417388Y-15201148D02*
X9417388Y-15305910D01*
X9512626Y-15305910D02*
X9512626Y-15172577D01*
X9512626Y-15191624D02*
X9522150Y-15182100D01*
X9522150Y-15182100D02*
X9541198Y-15172577D01*
X9541198Y-15172577D02*
X9569769Y-15172577D01*
X9569769Y-15172577D02*
X9588817Y-15182100D01*
X9588817Y-15182100D02*
X9598341Y-15201148D01*
X9598341Y-15201148D02*
X9598341Y-15305910D01*
X9598341Y-15201148D02*
X9607865Y-15182100D01*
X9607865Y-15182100D02*
X9626912Y-15172577D01*
X9626912Y-15172577D02*
X9655484Y-15172577D01*
X9655484Y-15172577D02*
X9674531Y-15182100D01*
X9674531Y-15182100D02*
X9684055Y-15201148D01*
X9684055Y-15201148D02*
X9684055Y-15305910D01*
X10074531Y-15096386D02*
X9903103Y-15353529D01*
X10331674Y-15105910D02*
X10350722Y-15105910D01*
X10350722Y-15105910D02*
X10369769Y-15115434D01*
X10369769Y-15115434D02*
X10379293Y-15124958D01*
X10379293Y-15124958D02*
X10388817Y-15144005D01*
X10388817Y-15144005D02*
X10398341Y-15182100D01*
X10398341Y-15182100D02*
X10398341Y-15229719D01*
X10398341Y-15229719D02*
X10388817Y-15267815D01*
X10388817Y-15267815D02*
X10379293Y-15286862D01*
X10379293Y-15286862D02*
X10369769Y-15296386D01*
X10369769Y-15296386D02*
X10350722Y-15305910D01*
X10350722Y-15305910D02*
X10331674Y-15305910D01*
X10331674Y-15305910D02*
X10312627Y-15296386D01*
X10312627Y-15296386D02*
X10303103Y-15286862D01*
X10303103Y-15286862D02*
X10293579Y-15267815D01*
X10293579Y-15267815D02*
X10284055Y-15229719D01*
X10284055Y-15229719D02*
X10284055Y-15182100D01*
X10284055Y-15182100D02*
X10293579Y-15144005D01*
X10293579Y-15144005D02*
X10303103Y-15124958D01*
X10303103Y-15124958D02*
X10312627Y-15115434D01*
X10312627Y-15115434D02*
X10331674Y-15105910D01*
X10484055Y-15286862D02*
X10493579Y-15296386D01*
X10493579Y-15296386D02*
X10484055Y-15305910D01*
X10484055Y-15305910D02*
X10474531Y-15296386D01*
X10474531Y-15296386D02*
X10484055Y-15286862D01*
X10484055Y-15286862D02*
X10484055Y-15305910D01*
X10617388Y-15105910D02*
X10636436Y-15105910D01*
X10636436Y-15105910D02*
X10655484Y-15115434D01*
X10655484Y-15115434D02*
X10665008Y-15124958D01*
X10665008Y-15124958D02*
X10674531Y-15144005D01*
X10674531Y-15144005D02*
X10684055Y-15182100D01*
X10684055Y-15182100D02*
X10684055Y-15229719D01*
X10684055Y-15229719D02*
X10674531Y-15267815D01*
X10674531Y-15267815D02*
X10665008Y-15286862D01*
X10665008Y-15286862D02*
X10655484Y-15296386D01*
X10655484Y-15296386D02*
X10636436Y-15305910D01*
X10636436Y-15305910D02*
X10617388Y-15305910D01*
X10617388Y-15305910D02*
X10598341Y-15296386D01*
X10598341Y-15296386D02*
X10588817Y-15286862D01*
X10588817Y-15286862D02*
X10579293Y-15267815D01*
X10579293Y-15267815D02*
X10569769Y-15229719D01*
X10569769Y-15229719D02*
X10569769Y-15182100D01*
X10569769Y-15182100D02*
X10579293Y-15144005D01*
X10579293Y-15144005D02*
X10588817Y-15124958D01*
X10588817Y-15124958D02*
X10598341Y-15115434D01*
X10598341Y-15115434D02*
X10617388Y-15105910D01*
X10874531Y-15305910D02*
X10760246Y-15305910D01*
X10817388Y-15305910D02*
X10817388Y-15105910D01*
X10817388Y-15105910D02*
X10798341Y-15134481D01*
X10798341Y-15134481D02*
X10779293Y-15153529D01*
X10779293Y-15153529D02*
X10760246Y-15163053D01*
X11065008Y-15305910D02*
X10950722Y-15305910D01*
X11007865Y-15305910D02*
X11007865Y-15105910D01*
X11007865Y-15105910D02*
X10988817Y-15134481D01*
X10988817Y-15134481D02*
X10969769Y-15153529D01*
X10969769Y-15153529D02*
X10950722Y-15163053D01*
X11179293Y-15191624D02*
X11160246Y-15182100D01*
X11160246Y-15182100D02*
X11150722Y-15172577D01*
X11150722Y-15172577D02*
X11141198Y-15153529D01*
X11141198Y-15153529D02*
X11141198Y-15144005D01*
X11141198Y-15144005D02*
X11150722Y-15124958D01*
X11150722Y-15124958D02*
X11160246Y-15115434D01*
X11160246Y-15115434D02*
X11179293Y-15105910D01*
X11179293Y-15105910D02*
X11217388Y-15105910D01*
X11217388Y-15105910D02*
X11236436Y-15115434D01*
X11236436Y-15115434D02*
X11245960Y-15124958D01*
X11245960Y-15124958D02*
X11255484Y-15144005D01*
X11255484Y-15144005D02*
X11255484Y-15153529D01*
X11255484Y-15153529D02*
X11245960Y-15172577D01*
X11245960Y-15172577D02*
X11236436Y-15182100D01*
X11236436Y-15182100D02*
X11217388Y-15191624D01*
X11217388Y-15191624D02*
X11179293Y-15191624D01*
X11179293Y-15191624D02*
X11160246Y-15201148D01*
X11160246Y-15201148D02*
X11150722Y-15210672D01*
X11150722Y-15210672D02*
X11141198Y-15229719D01*
X11141198Y-15229719D02*
X11141198Y-15267815D01*
X11141198Y-15267815D02*
X11150722Y-15286862D01*
X11150722Y-15286862D02*
X11160246Y-15296386D01*
X11160246Y-15296386D02*
X11179293Y-15305910D01*
X11179293Y-15305910D02*
X11217388Y-15305910D01*
X11217388Y-15305910D02*
X11236436Y-15296386D01*
X11236436Y-15296386D02*
X11245960Y-15286862D01*
X11245960Y-15286862D02*
X11255484Y-15267815D01*
X11255484Y-15267815D02*
X11255484Y-15229719D01*
X11255484Y-15229719D02*
X11245960Y-15210672D01*
X11245960Y-15210672D02*
X11236436Y-15201148D01*
X11236436Y-15201148D02*
X11217388Y-15191624D01*
X11331674Y-15105910D02*
X11331674Y-15144005D01*
X11407865Y-15105910D02*
X11407865Y-15144005D01*
X11703103Y-15382100D02*
X11693579Y-15372577D01*
X11693579Y-15372577D02*
X11674531Y-15344005D01*
X11674531Y-15344005D02*
X11665008Y-15324958D01*
X11665008Y-15324958D02*
X11655484Y-15296386D01*
X11655484Y-15296386D02*
X11645960Y-15248767D01*
X11645960Y-15248767D02*
X11645960Y-15210672D01*
X11645960Y-15210672D02*
X11655484Y-15163053D01*
X11655484Y-15163053D02*
X11665008Y-15134481D01*
X11665008Y-15134481D02*
X11674531Y-15115434D01*
X11674531Y-15115434D02*
X11693579Y-15086862D01*
X11693579Y-15086862D02*
X11703103Y-15077338D01*
X11788817Y-15305910D02*
X11826912Y-15305910D01*
X11826912Y-15305910D02*
X11845960Y-15296386D01*
X11845960Y-15296386D02*
X11855484Y-15286862D01*
X11855484Y-15286862D02*
X11874531Y-15258291D01*
X11874531Y-15258291D02*
X11884055Y-15220196D01*
X11884055Y-15220196D02*
X11884055Y-15144005D01*
X11884055Y-15144005D02*
X11874531Y-15124958D01*
X11874531Y-15124958D02*
X11865008Y-15115434D01*
X11865008Y-15115434D02*
X11845960Y-15105910D01*
X11845960Y-15105910D02*
X11807865Y-15105910D01*
X11807865Y-15105910D02*
X11788817Y-15115434D01*
X11788817Y-15115434D02*
X11779293Y-15124958D01*
X11779293Y-15124958D02*
X11769769Y-15144005D01*
X11769769Y-15144005D02*
X11769769Y-15191624D01*
X11769769Y-15191624D02*
X11779293Y-15210672D01*
X11779293Y-15210672D02*
X11788817Y-15220196D01*
X11788817Y-15220196D02*
X11807865Y-15229719D01*
X11807865Y-15229719D02*
X11845960Y-15229719D01*
X11845960Y-15229719D02*
X11865008Y-15220196D01*
X11865008Y-15220196D02*
X11874531Y-15210672D01*
X11874531Y-15210672D02*
X11884055Y-15191624D01*
X12122150Y-15305910D02*
X12122150Y-15105910D01*
X12207865Y-15305910D02*
X12207865Y-15201148D01*
X12207865Y-15201148D02*
X12198341Y-15182100D01*
X12198341Y-15182100D02*
X12179293Y-15172577D01*
X12179293Y-15172577D02*
X12150722Y-15172577D01*
X12150722Y-15172577D02*
X12131674Y-15182100D01*
X12131674Y-15182100D02*
X12122150Y-15191624D01*
X12331674Y-15305910D02*
X12312627Y-15296386D01*
X12312627Y-15296386D02*
X12303103Y-15286862D01*
X12303103Y-15286862D02*
X12293579Y-15267815D01*
X12293579Y-15267815D02*
X12293579Y-15210672D01*
X12293579Y-15210672D02*
X12303103Y-15191624D01*
X12303103Y-15191624D02*
X12312627Y-15182100D01*
X12312627Y-15182100D02*
X12331674Y-15172577D01*
X12331674Y-15172577D02*
X12360246Y-15172577D01*
X12360246Y-15172577D02*
X12379293Y-15182100D01*
X12379293Y-15182100D02*
X12388817Y-15191624D01*
X12388817Y-15191624D02*
X12398341Y-15210672D01*
X12398341Y-15210672D02*
X12398341Y-15267815D01*
X12398341Y-15267815D02*
X12388817Y-15286862D01*
X12388817Y-15286862D02*
X12379293Y-15296386D01*
X12379293Y-15296386D02*
X12360246Y-15305910D01*
X12360246Y-15305910D02*
X12331674Y-15305910D01*
X12512627Y-15305910D02*
X12493579Y-15296386D01*
X12493579Y-15296386D02*
X12484055Y-15277338D01*
X12484055Y-15277338D02*
X12484055Y-15105910D01*
X12665008Y-15296386D02*
X12645960Y-15305910D01*
X12645960Y-15305910D02*
X12607865Y-15305910D01*
X12607865Y-15305910D02*
X12588817Y-15296386D01*
X12588817Y-15296386D02*
X12579293Y-15277338D01*
X12579293Y-15277338D02*
X12579293Y-15201148D01*
X12579293Y-15201148D02*
X12588817Y-15182100D01*
X12588817Y-15182100D02*
X12607865Y-15172577D01*
X12607865Y-15172577D02*
X12645960Y-15172577D01*
X12645960Y-15172577D02*
X12665008Y-15182100D01*
X12665008Y-15182100D02*
X12674531Y-15201148D01*
X12674531Y-15201148D02*
X12674531Y-15220196D01*
X12674531Y-15220196D02*
X12579293Y-15239243D01*
X12750722Y-15296386D02*
X12769770Y-15305910D01*
X12769770Y-15305910D02*
X12807865Y-15305910D01*
X12807865Y-15305910D02*
X12826912Y-15296386D01*
X12826912Y-15296386D02*
X12836436Y-15277338D01*
X12836436Y-15277338D02*
X12836436Y-15267815D01*
X12836436Y-15267815D02*
X12826912Y-15248767D01*
X12826912Y-15248767D02*
X12807865Y-15239243D01*
X12807865Y-15239243D02*
X12779293Y-15239243D01*
X12779293Y-15239243D02*
X12760246Y-15229719D01*
X12760246Y-15229719D02*
X12750722Y-15210672D01*
X12750722Y-15210672D02*
X12750722Y-15201148D01*
X12750722Y-15201148D02*
X12760246Y-15182100D01*
X12760246Y-15182100D02*
X12779293Y-15172577D01*
X12779293Y-15172577D02*
X12807865Y-15172577D01*
X12807865Y-15172577D02*
X12826912Y-15182100D01*
X12903103Y-15382100D02*
X12912627Y-15372577D01*
X12912627Y-15372577D02*
X12931674Y-15344005D01*
X12931674Y-15344005D02*
X12941198Y-15324958D01*
X12941198Y-15324958D02*
X12950722Y-15296386D01*
X12950722Y-15296386D02*
X12960246Y-15248767D01*
X12960246Y-15248767D02*
X12960246Y-15210672D01*
X12960246Y-15210672D02*
X12950722Y-15163053D01*
X12950722Y-15163053D02*
X12941198Y-15134481D01*
X12941198Y-15134481D02*
X12931674Y-15115434D01*
X12931674Y-15115434D02*
X12912627Y-15086862D01*
X12912627Y-15086862D02*
X12903103Y-15077338D01*
D12*
X8128040Y-15478426D02*
G75*
G02*
X8048040Y-15478426I-40000J0D01*
G01*
X8048040Y-15478426D02*
G75*
G02*
X8128040Y-15478426I40000J0D01*
G01*
D11*
X8426912Y-15369910D02*
X8445960Y-15369910D01*
X8445960Y-15369910D02*
X8465007Y-15379434D01*
X8465007Y-15379434D02*
X8474531Y-15388958D01*
X8474531Y-15388958D02*
X8484055Y-15408005D01*
X8484055Y-15408005D02*
X8493579Y-15446100D01*
X8493579Y-15446100D02*
X8493579Y-15493719D01*
X8493579Y-15493719D02*
X8484055Y-15531815D01*
X8484055Y-15531815D02*
X8474531Y-15550862D01*
X8474531Y-15550862D02*
X8465007Y-15560386D01*
X8465007Y-15560386D02*
X8445960Y-15569910D01*
X8445960Y-15569910D02*
X8426912Y-15569910D01*
X8426912Y-15569910D02*
X8407864Y-15560386D01*
X8407864Y-15560386D02*
X8398341Y-15550862D01*
X8398341Y-15550862D02*
X8388817Y-15531815D01*
X8388817Y-15531815D02*
X8379293Y-15493719D01*
X8379293Y-15493719D02*
X8379293Y-15446100D01*
X8379293Y-15446100D02*
X8388817Y-15408005D01*
X8388817Y-15408005D02*
X8398341Y-15388958D01*
X8398341Y-15388958D02*
X8407864Y-15379434D01*
X8407864Y-15379434D02*
X8426912Y-15369910D01*
X8579293Y-15550862D02*
X8588817Y-15560386D01*
X8588817Y-15560386D02*
X8579293Y-15569910D01*
X8579293Y-15569910D02*
X8569769Y-15560386D01*
X8569769Y-15560386D02*
X8579293Y-15550862D01*
X8579293Y-15550862D02*
X8579293Y-15569910D01*
X8703103Y-15455624D02*
X8684055Y-15446100D01*
X8684055Y-15446100D02*
X8674531Y-15436577D01*
X8674531Y-15436577D02*
X8665007Y-15417529D01*
X8665007Y-15417529D02*
X8665007Y-15408005D01*
X8665007Y-15408005D02*
X8674531Y-15388958D01*
X8674531Y-15388958D02*
X8684055Y-15379434D01*
X8684055Y-15379434D02*
X8703103Y-15369910D01*
X8703103Y-15369910D02*
X8741198Y-15369910D01*
X8741198Y-15369910D02*
X8760245Y-15379434D01*
X8760245Y-15379434D02*
X8769769Y-15388958D01*
X8769769Y-15388958D02*
X8779293Y-15408005D01*
X8779293Y-15408005D02*
X8779293Y-15417529D01*
X8779293Y-15417529D02*
X8769769Y-15436577D01*
X8769769Y-15436577D02*
X8760245Y-15446100D01*
X8760245Y-15446100D02*
X8741198Y-15455624D01*
X8741198Y-15455624D02*
X8703103Y-15455624D01*
X8703103Y-15455624D02*
X8684055Y-15465148D01*
X8684055Y-15465148D02*
X8674531Y-15474672D01*
X8674531Y-15474672D02*
X8665007Y-15493719D01*
X8665007Y-15493719D02*
X8665007Y-15531815D01*
X8665007Y-15531815D02*
X8674531Y-15550862D01*
X8674531Y-15550862D02*
X8684055Y-15560386D01*
X8684055Y-15560386D02*
X8703103Y-15569910D01*
X8703103Y-15569910D02*
X8741198Y-15569910D01*
X8741198Y-15569910D02*
X8760245Y-15560386D01*
X8760245Y-15560386D02*
X8769769Y-15550862D01*
X8769769Y-15550862D02*
X8779293Y-15531815D01*
X8779293Y-15531815D02*
X8779293Y-15493719D01*
X8779293Y-15493719D02*
X8769769Y-15474672D01*
X8769769Y-15474672D02*
X8760245Y-15465148D01*
X8760245Y-15465148D02*
X8741198Y-15455624D01*
X8903103Y-15369910D02*
X8922150Y-15369910D01*
X8922150Y-15369910D02*
X8941198Y-15379434D01*
X8941198Y-15379434D02*
X8950722Y-15388958D01*
X8950722Y-15388958D02*
X8960245Y-15408005D01*
X8960245Y-15408005D02*
X8969769Y-15446100D01*
X8969769Y-15446100D02*
X8969769Y-15493719D01*
X8969769Y-15493719D02*
X8960245Y-15531815D01*
X8960245Y-15531815D02*
X8950722Y-15550862D01*
X8950722Y-15550862D02*
X8941198Y-15560386D01*
X8941198Y-15560386D02*
X8922150Y-15569910D01*
X8922150Y-15569910D02*
X8903103Y-15569910D01*
X8903103Y-15569910D02*
X8884055Y-15560386D01*
X8884055Y-15560386D02*
X8874531Y-15550862D01*
X8874531Y-15550862D02*
X8865007Y-15531815D01*
X8865007Y-15531815D02*
X8855484Y-15493719D01*
X8855484Y-15493719D02*
X8855484Y-15446100D01*
X8855484Y-15446100D02*
X8865007Y-15408005D01*
X8865007Y-15408005D02*
X8874531Y-15388958D01*
X8874531Y-15388958D02*
X8884055Y-15379434D01*
X8884055Y-15379434D02*
X8903103Y-15369910D01*
X9093579Y-15369910D02*
X9112626Y-15369910D01*
X9112626Y-15369910D02*
X9131674Y-15379434D01*
X9131674Y-15379434D02*
X9141198Y-15388958D01*
X9141198Y-15388958D02*
X9150722Y-15408005D01*
X9150722Y-15408005D02*
X9160245Y-15446100D01*
X9160245Y-15446100D02*
X9160245Y-15493719D01*
X9160245Y-15493719D02*
X9150722Y-15531815D01*
X9150722Y-15531815D02*
X9141198Y-15550862D01*
X9141198Y-15550862D02*
X9131674Y-15560386D01*
X9131674Y-15560386D02*
X9112626Y-15569910D01*
X9112626Y-15569910D02*
X9093579Y-15569910D01*
X9093579Y-15569910D02*
X9074531Y-15560386D01*
X9074531Y-15560386D02*
X9065007Y-15550862D01*
X9065007Y-15550862D02*
X9055484Y-15531815D01*
X9055484Y-15531815D02*
X9045960Y-15493719D01*
X9045960Y-15493719D02*
X9045960Y-15446100D01*
X9045960Y-15446100D02*
X9055484Y-15408005D01*
X9055484Y-15408005D02*
X9065007Y-15388958D01*
X9065007Y-15388958D02*
X9074531Y-15379434D01*
X9074531Y-15379434D02*
X9093579Y-15369910D01*
X9245960Y-15569910D02*
X9245960Y-15436577D01*
X9245960Y-15455624D02*
X9255484Y-15446100D01*
X9255484Y-15446100D02*
X9274531Y-15436577D01*
X9274531Y-15436577D02*
X9303103Y-15436577D01*
X9303103Y-15436577D02*
X9322150Y-15446100D01*
X9322150Y-15446100D02*
X9331674Y-15465148D01*
X9331674Y-15465148D02*
X9331674Y-15569910D01*
X9331674Y-15465148D02*
X9341198Y-15446100D01*
X9341198Y-15446100D02*
X9360245Y-15436577D01*
X9360245Y-15436577D02*
X9388817Y-15436577D01*
X9388817Y-15436577D02*
X9407865Y-15446100D01*
X9407865Y-15446100D02*
X9417388Y-15465148D01*
X9417388Y-15465148D02*
X9417388Y-15569910D01*
X9512626Y-15569910D02*
X9512626Y-15436577D01*
X9512626Y-15455624D02*
X9522150Y-15446100D01*
X9522150Y-15446100D02*
X9541198Y-15436577D01*
X9541198Y-15436577D02*
X9569769Y-15436577D01*
X9569769Y-15436577D02*
X9588817Y-15446100D01*
X9588817Y-15446100D02*
X9598341Y-15465148D01*
X9598341Y-15465148D02*
X9598341Y-15569910D01*
X9598341Y-15465148D02*
X9607865Y-15446100D01*
X9607865Y-15446100D02*
X9626912Y-15436577D01*
X9626912Y-15436577D02*
X9655484Y-15436577D01*
X9655484Y-15436577D02*
X9674531Y-15446100D01*
X9674531Y-15446100D02*
X9684055Y-15465148D01*
X9684055Y-15465148D02*
X9684055Y-15569910D01*
X10074531Y-15360386D02*
X9903103Y-15617529D01*
X10331674Y-15369910D02*
X10350722Y-15369910D01*
X10350722Y-15369910D02*
X10369769Y-15379434D01*
X10369769Y-15379434D02*
X10379293Y-15388958D01*
X10379293Y-15388958D02*
X10388817Y-15408005D01*
X10388817Y-15408005D02*
X10398341Y-15446100D01*
X10398341Y-15446100D02*
X10398341Y-15493719D01*
X10398341Y-15493719D02*
X10388817Y-15531815D01*
X10388817Y-15531815D02*
X10379293Y-15550862D01*
X10379293Y-15550862D02*
X10369769Y-15560386D01*
X10369769Y-15560386D02*
X10350722Y-15569910D01*
X10350722Y-15569910D02*
X10331674Y-15569910D01*
X10331674Y-15569910D02*
X10312627Y-15560386D01*
X10312627Y-15560386D02*
X10303103Y-15550862D01*
X10303103Y-15550862D02*
X10293579Y-15531815D01*
X10293579Y-15531815D02*
X10284055Y-15493719D01*
X10284055Y-15493719D02*
X10284055Y-15446100D01*
X10284055Y-15446100D02*
X10293579Y-15408005D01*
X10293579Y-15408005D02*
X10303103Y-15388958D01*
X10303103Y-15388958D02*
X10312627Y-15379434D01*
X10312627Y-15379434D02*
X10331674Y-15369910D01*
X10484055Y-15550862D02*
X10493579Y-15560386D01*
X10493579Y-15560386D02*
X10484055Y-15569910D01*
X10484055Y-15569910D02*
X10474531Y-15560386D01*
X10474531Y-15560386D02*
X10484055Y-15550862D01*
X10484055Y-15550862D02*
X10484055Y-15569910D01*
X10617388Y-15369910D02*
X10636436Y-15369910D01*
X10636436Y-15369910D02*
X10655484Y-15379434D01*
X10655484Y-15379434D02*
X10665008Y-15388958D01*
X10665008Y-15388958D02*
X10674531Y-15408005D01*
X10674531Y-15408005D02*
X10684055Y-15446100D01*
X10684055Y-15446100D02*
X10684055Y-15493719D01*
X10684055Y-15493719D02*
X10674531Y-15531815D01*
X10674531Y-15531815D02*
X10665008Y-15550862D01*
X10665008Y-15550862D02*
X10655484Y-15560386D01*
X10655484Y-15560386D02*
X10636436Y-15569910D01*
X10636436Y-15569910D02*
X10617388Y-15569910D01*
X10617388Y-15569910D02*
X10598341Y-15560386D01*
X10598341Y-15560386D02*
X10588817Y-15550862D01*
X10588817Y-15550862D02*
X10579293Y-15531815D01*
X10579293Y-15531815D02*
X10569769Y-15493719D01*
X10569769Y-15493719D02*
X10569769Y-15446100D01*
X10569769Y-15446100D02*
X10579293Y-15408005D01*
X10579293Y-15408005D02*
X10588817Y-15388958D01*
X10588817Y-15388958D02*
X10598341Y-15379434D01*
X10598341Y-15379434D02*
X10617388Y-15369910D01*
X10750722Y-15369910D02*
X10874531Y-15369910D01*
X10874531Y-15369910D02*
X10807865Y-15446100D01*
X10807865Y-15446100D02*
X10836436Y-15446100D01*
X10836436Y-15446100D02*
X10855484Y-15455624D01*
X10855484Y-15455624D02*
X10865008Y-15465148D01*
X10865008Y-15465148D02*
X10874531Y-15484196D01*
X10874531Y-15484196D02*
X10874531Y-15531815D01*
X10874531Y-15531815D02*
X10865008Y-15550862D01*
X10865008Y-15550862D02*
X10855484Y-15560386D01*
X10855484Y-15560386D02*
X10836436Y-15569910D01*
X10836436Y-15569910D02*
X10779293Y-15569910D01*
X10779293Y-15569910D02*
X10760246Y-15560386D01*
X10760246Y-15560386D02*
X10750722Y-15550862D01*
X11065008Y-15569910D02*
X10950722Y-15569910D01*
X11007865Y-15569910D02*
X11007865Y-15369910D01*
X11007865Y-15369910D02*
X10988817Y-15398481D01*
X10988817Y-15398481D02*
X10969769Y-15417529D01*
X10969769Y-15417529D02*
X10950722Y-15427053D01*
X11245960Y-15369910D02*
X11150722Y-15369910D01*
X11150722Y-15369910D02*
X11141198Y-15465148D01*
X11141198Y-15465148D02*
X11150722Y-15455624D01*
X11150722Y-15455624D02*
X11169769Y-15446100D01*
X11169769Y-15446100D02*
X11217388Y-15446100D01*
X11217388Y-15446100D02*
X11236436Y-15455624D01*
X11236436Y-15455624D02*
X11245960Y-15465148D01*
X11245960Y-15465148D02*
X11255484Y-15484196D01*
X11255484Y-15484196D02*
X11255484Y-15531815D01*
X11255484Y-15531815D02*
X11245960Y-15550862D01*
X11245960Y-15550862D02*
X11236436Y-15560386D01*
X11236436Y-15560386D02*
X11217388Y-15569910D01*
X11217388Y-15569910D02*
X11169769Y-15569910D01*
X11169769Y-15569910D02*
X11150722Y-15560386D01*
X11150722Y-15560386D02*
X11141198Y-15550862D01*
X11331674Y-15369910D02*
X11331674Y-15408005D01*
X11407865Y-15369910D02*
X11407865Y-15408005D01*
X11703103Y-15646100D02*
X11693579Y-15636577D01*
X11693579Y-15636577D02*
X11674531Y-15608005D01*
X11674531Y-15608005D02*
X11665008Y-15588958D01*
X11665008Y-15588958D02*
X11655484Y-15560386D01*
X11655484Y-15560386D02*
X11645960Y-15512767D01*
X11645960Y-15512767D02*
X11645960Y-15474672D01*
X11645960Y-15474672D02*
X11655484Y-15427053D01*
X11655484Y-15427053D02*
X11665008Y-15398481D01*
X11665008Y-15398481D02*
X11674531Y-15379434D01*
X11674531Y-15379434D02*
X11693579Y-15350862D01*
X11693579Y-15350862D02*
X11703103Y-15341338D01*
X11884055Y-15569910D02*
X11769769Y-15569910D01*
X11826912Y-15569910D02*
X11826912Y-15369910D01*
X11826912Y-15369910D02*
X11807865Y-15398481D01*
X11807865Y-15398481D02*
X11788817Y-15417529D01*
X11788817Y-15417529D02*
X11769769Y-15427053D01*
X11998341Y-15455624D02*
X11979293Y-15446100D01*
X11979293Y-15446100D02*
X11969769Y-15436577D01*
X11969769Y-15436577D02*
X11960246Y-15417529D01*
X11960246Y-15417529D02*
X11960246Y-15408005D01*
X11960246Y-15408005D02*
X11969769Y-15388958D01*
X11969769Y-15388958D02*
X11979293Y-15379434D01*
X11979293Y-15379434D02*
X11998341Y-15369910D01*
X11998341Y-15369910D02*
X12036436Y-15369910D01*
X12036436Y-15369910D02*
X12055484Y-15379434D01*
X12055484Y-15379434D02*
X12065008Y-15388958D01*
X12065008Y-15388958D02*
X12074531Y-15408005D01*
X12074531Y-15408005D02*
X12074531Y-15417529D01*
X12074531Y-15417529D02*
X12065008Y-15436577D01*
X12065008Y-15436577D02*
X12055484Y-15446100D01*
X12055484Y-15446100D02*
X12036436Y-15455624D01*
X12036436Y-15455624D02*
X11998341Y-15455624D01*
X11998341Y-15455624D02*
X11979293Y-15465148D01*
X11979293Y-15465148D02*
X11969769Y-15474672D01*
X11969769Y-15474672D02*
X11960246Y-15493719D01*
X11960246Y-15493719D02*
X11960246Y-15531815D01*
X11960246Y-15531815D02*
X11969769Y-15550862D01*
X11969769Y-15550862D02*
X11979293Y-15560386D01*
X11979293Y-15560386D02*
X11998341Y-15569910D01*
X11998341Y-15569910D02*
X12036436Y-15569910D01*
X12036436Y-15569910D02*
X12055484Y-15560386D01*
X12055484Y-15560386D02*
X12065008Y-15550862D01*
X12065008Y-15550862D02*
X12074531Y-15531815D01*
X12074531Y-15531815D02*
X12074531Y-15493719D01*
X12074531Y-15493719D02*
X12065008Y-15474672D01*
X12065008Y-15474672D02*
X12055484Y-15465148D01*
X12055484Y-15465148D02*
X12036436Y-15455624D01*
X12312627Y-15569910D02*
X12312627Y-15369910D01*
X12398341Y-15569910D02*
X12398341Y-15465148D01*
X12398341Y-15465148D02*
X12388817Y-15446100D01*
X12388817Y-15446100D02*
X12369770Y-15436577D01*
X12369770Y-15436577D02*
X12341198Y-15436577D01*
X12341198Y-15436577D02*
X12322150Y-15446100D01*
X12322150Y-15446100D02*
X12312627Y-15455624D01*
X12522150Y-15569910D02*
X12503103Y-15560386D01*
X12503103Y-15560386D02*
X12493579Y-15550862D01*
X12493579Y-15550862D02*
X12484055Y-15531815D01*
X12484055Y-15531815D02*
X12484055Y-15474672D01*
X12484055Y-15474672D02*
X12493579Y-15455624D01*
X12493579Y-15455624D02*
X12503103Y-15446100D01*
X12503103Y-15446100D02*
X12522150Y-15436577D01*
X12522150Y-15436577D02*
X12550722Y-15436577D01*
X12550722Y-15436577D02*
X12569770Y-15446100D01*
X12569770Y-15446100D02*
X12579293Y-15455624D01*
X12579293Y-15455624D02*
X12588817Y-15474672D01*
X12588817Y-15474672D02*
X12588817Y-15531815D01*
X12588817Y-15531815D02*
X12579293Y-15550862D01*
X12579293Y-15550862D02*
X12569770Y-15560386D01*
X12569770Y-15560386D02*
X12550722Y-15569910D01*
X12550722Y-15569910D02*
X12522150Y-15569910D01*
X12703103Y-15569910D02*
X12684055Y-15560386D01*
X12684055Y-15560386D02*
X12674531Y-15541338D01*
X12674531Y-15541338D02*
X12674531Y-15369910D01*
X12855484Y-15560386D02*
X12836436Y-15569910D01*
X12836436Y-15569910D02*
X12798341Y-15569910D01*
X12798341Y-15569910D02*
X12779293Y-15560386D01*
X12779293Y-15560386D02*
X12769770Y-15541338D01*
X12769770Y-15541338D02*
X12769770Y-15465148D01*
X12769770Y-15465148D02*
X12779293Y-15446100D01*
X12779293Y-15446100D02*
X12798341Y-15436577D01*
X12798341Y-15436577D02*
X12836436Y-15436577D01*
X12836436Y-15436577D02*
X12855484Y-15446100D01*
X12855484Y-15446100D02*
X12865008Y-15465148D01*
X12865008Y-15465148D02*
X12865008Y-15484196D01*
X12865008Y-15484196D02*
X12769770Y-15503243D01*
X12941198Y-15560386D02*
X12960246Y-15569910D01*
X12960246Y-15569910D02*
X12998341Y-15569910D01*
X12998341Y-15569910D02*
X13017389Y-15560386D01*
X13017389Y-15560386D02*
X13026912Y-15541338D01*
X13026912Y-15541338D02*
X13026912Y-15531815D01*
X13026912Y-15531815D02*
X13017389Y-15512767D01*
X13017389Y-15512767D02*
X12998341Y-15503243D01*
X12998341Y-15503243D02*
X12969770Y-15503243D01*
X12969770Y-15503243D02*
X12950722Y-15493719D01*
X12950722Y-15493719D02*
X12941198Y-15474672D01*
X12941198Y-15474672D02*
X12941198Y-15465148D01*
X12941198Y-15465148D02*
X12950722Y-15446100D01*
X12950722Y-15446100D02*
X12969770Y-15436577D01*
X12969770Y-15436577D02*
X12998341Y-15436577D01*
X12998341Y-15436577D02*
X13017389Y-15446100D01*
X13093579Y-15646100D02*
X13103103Y-15636577D01*
X13103103Y-15636577D02*
X13122151Y-15608005D01*
X13122151Y-15608005D02*
X13131674Y-15588958D01*
X13131674Y-15588958D02*
X13141198Y-15560386D01*
X13141198Y-15560386D02*
X13150722Y-15512767D01*
X13150722Y-15512767D02*
X13150722Y-15474672D01*
X13150722Y-15474672D02*
X13141198Y-15427053D01*
X13141198Y-15427053D02*
X13131674Y-15398481D01*
X13131674Y-15398481D02*
X13122151Y-15379434D01*
X13122151Y-15379434D02*
X13103103Y-15350862D01*
X13103103Y-15350862D02*
X13093579Y-15341338D01*
D12*
X8078040Y-15692426D02*
X8078040Y-15792426D01*
X8028040Y-15742426D02*
X8128040Y-15742426D01*
D11*
X8493579Y-15833910D02*
X8379293Y-15833910D01*
X8436436Y-15833910D02*
X8436436Y-15633910D01*
X8436436Y-15633910D02*
X8417388Y-15662481D01*
X8417388Y-15662481D02*
X8398341Y-15681529D01*
X8398341Y-15681529D02*
X8379293Y-15691053D01*
X8579293Y-15814862D02*
X8588817Y-15824386D01*
X8588817Y-15824386D02*
X8579293Y-15833910D01*
X8579293Y-15833910D02*
X8569769Y-15824386D01*
X8569769Y-15824386D02*
X8579293Y-15814862D01*
X8579293Y-15814862D02*
X8579293Y-15833910D01*
X8712626Y-15633910D02*
X8731674Y-15633910D01*
X8731674Y-15633910D02*
X8750722Y-15643434D01*
X8750722Y-15643434D02*
X8760245Y-15652958D01*
X8760245Y-15652958D02*
X8769769Y-15672005D01*
X8769769Y-15672005D02*
X8779293Y-15710100D01*
X8779293Y-15710100D02*
X8779293Y-15757719D01*
X8779293Y-15757719D02*
X8769769Y-15795815D01*
X8769769Y-15795815D02*
X8760245Y-15814862D01*
X8760245Y-15814862D02*
X8750722Y-15824386D01*
X8750722Y-15824386D02*
X8731674Y-15833910D01*
X8731674Y-15833910D02*
X8712626Y-15833910D01*
X8712626Y-15833910D02*
X8693579Y-15824386D01*
X8693579Y-15824386D02*
X8684055Y-15814862D01*
X8684055Y-15814862D02*
X8674531Y-15795815D01*
X8674531Y-15795815D02*
X8665007Y-15757719D01*
X8665007Y-15757719D02*
X8665007Y-15710100D01*
X8665007Y-15710100D02*
X8674531Y-15672005D01*
X8674531Y-15672005D02*
X8684055Y-15652958D01*
X8684055Y-15652958D02*
X8693579Y-15643434D01*
X8693579Y-15643434D02*
X8712626Y-15633910D01*
X8903103Y-15633910D02*
X8922150Y-15633910D01*
X8922150Y-15633910D02*
X8941198Y-15643434D01*
X8941198Y-15643434D02*
X8950722Y-15652958D01*
X8950722Y-15652958D02*
X8960245Y-15672005D01*
X8960245Y-15672005D02*
X8969769Y-15710100D01*
X8969769Y-15710100D02*
X8969769Y-15757719D01*
X8969769Y-15757719D02*
X8960245Y-15795815D01*
X8960245Y-15795815D02*
X8950722Y-15814862D01*
X8950722Y-15814862D02*
X8941198Y-15824386D01*
X8941198Y-15824386D02*
X8922150Y-15833910D01*
X8922150Y-15833910D02*
X8903103Y-15833910D01*
X8903103Y-15833910D02*
X8884055Y-15824386D01*
X8884055Y-15824386D02*
X8874531Y-15814862D01*
X8874531Y-15814862D02*
X8865007Y-15795815D01*
X8865007Y-15795815D02*
X8855484Y-15757719D01*
X8855484Y-15757719D02*
X8855484Y-15710100D01*
X8855484Y-15710100D02*
X8865007Y-15672005D01*
X8865007Y-15672005D02*
X8874531Y-15652958D01*
X8874531Y-15652958D02*
X8884055Y-15643434D01*
X8884055Y-15643434D02*
X8903103Y-15633910D01*
X9093579Y-15633910D02*
X9112626Y-15633910D01*
X9112626Y-15633910D02*
X9131674Y-15643434D01*
X9131674Y-15643434D02*
X9141198Y-15652958D01*
X9141198Y-15652958D02*
X9150722Y-15672005D01*
X9150722Y-15672005D02*
X9160245Y-15710100D01*
X9160245Y-15710100D02*
X9160245Y-15757719D01*
X9160245Y-15757719D02*
X9150722Y-15795815D01*
X9150722Y-15795815D02*
X9141198Y-15814862D01*
X9141198Y-15814862D02*
X9131674Y-15824386D01*
X9131674Y-15824386D02*
X9112626Y-15833910D01*
X9112626Y-15833910D02*
X9093579Y-15833910D01*
X9093579Y-15833910D02*
X9074531Y-15824386D01*
X9074531Y-15824386D02*
X9065007Y-15814862D01*
X9065007Y-15814862D02*
X9055484Y-15795815D01*
X9055484Y-15795815D02*
X9045960Y-15757719D01*
X9045960Y-15757719D02*
X9045960Y-15710100D01*
X9045960Y-15710100D02*
X9055484Y-15672005D01*
X9055484Y-15672005D02*
X9065007Y-15652958D01*
X9065007Y-15652958D02*
X9074531Y-15643434D01*
X9074531Y-15643434D02*
X9093579Y-15633910D01*
X9245960Y-15833910D02*
X9245960Y-15700577D01*
X9245960Y-15719624D02*
X9255484Y-15710100D01*
X9255484Y-15710100D02*
X9274531Y-15700577D01*
X9274531Y-15700577D02*
X9303103Y-15700577D01*
X9303103Y-15700577D02*
X9322150Y-15710100D01*
X9322150Y-15710100D02*
X9331674Y-15729148D01*
X9331674Y-15729148D02*
X9331674Y-15833910D01*
X9331674Y-15729148D02*
X9341198Y-15710100D01*
X9341198Y-15710100D02*
X9360245Y-15700577D01*
X9360245Y-15700577D02*
X9388817Y-15700577D01*
X9388817Y-15700577D02*
X9407865Y-15710100D01*
X9407865Y-15710100D02*
X9417388Y-15729148D01*
X9417388Y-15729148D02*
X9417388Y-15833910D01*
X9512626Y-15833910D02*
X9512626Y-15700577D01*
X9512626Y-15719624D02*
X9522150Y-15710100D01*
X9522150Y-15710100D02*
X9541198Y-15700577D01*
X9541198Y-15700577D02*
X9569769Y-15700577D01*
X9569769Y-15700577D02*
X9588817Y-15710100D01*
X9588817Y-15710100D02*
X9598341Y-15729148D01*
X9598341Y-15729148D02*
X9598341Y-15833910D01*
X9598341Y-15729148D02*
X9607865Y-15710100D01*
X9607865Y-15710100D02*
X9626912Y-15700577D01*
X9626912Y-15700577D02*
X9655484Y-15700577D01*
X9655484Y-15700577D02*
X9674531Y-15710100D01*
X9674531Y-15710100D02*
X9684055Y-15729148D01*
X9684055Y-15729148D02*
X9684055Y-15833910D01*
X10074531Y-15624386D02*
X9903103Y-15881529D01*
X10331674Y-15633910D02*
X10350722Y-15633910D01*
X10350722Y-15633910D02*
X10369769Y-15643434D01*
X10369769Y-15643434D02*
X10379293Y-15652958D01*
X10379293Y-15652958D02*
X10388817Y-15672005D01*
X10388817Y-15672005D02*
X10398341Y-15710100D01*
X10398341Y-15710100D02*
X10398341Y-15757719D01*
X10398341Y-15757719D02*
X10388817Y-15795815D01*
X10388817Y-15795815D02*
X10379293Y-15814862D01*
X10379293Y-15814862D02*
X10369769Y-15824386D01*
X10369769Y-15824386D02*
X10350722Y-15833910D01*
X10350722Y-15833910D02*
X10331674Y-15833910D01*
X10331674Y-15833910D02*
X10312627Y-15824386D01*
X10312627Y-15824386D02*
X10303103Y-15814862D01*
X10303103Y-15814862D02*
X10293579Y-15795815D01*
X10293579Y-15795815D02*
X10284055Y-15757719D01*
X10284055Y-15757719D02*
X10284055Y-15710100D01*
X10284055Y-15710100D02*
X10293579Y-15672005D01*
X10293579Y-15672005D02*
X10303103Y-15652958D01*
X10303103Y-15652958D02*
X10312627Y-15643434D01*
X10312627Y-15643434D02*
X10331674Y-15633910D01*
X10484055Y-15814862D02*
X10493579Y-15824386D01*
X10493579Y-15824386D02*
X10484055Y-15833910D01*
X10484055Y-15833910D02*
X10474531Y-15824386D01*
X10474531Y-15824386D02*
X10484055Y-15814862D01*
X10484055Y-15814862D02*
X10484055Y-15833910D01*
X10617388Y-15633910D02*
X10636436Y-15633910D01*
X10636436Y-15633910D02*
X10655484Y-15643434D01*
X10655484Y-15643434D02*
X10665008Y-15652958D01*
X10665008Y-15652958D02*
X10674531Y-15672005D01*
X10674531Y-15672005D02*
X10684055Y-15710100D01*
X10684055Y-15710100D02*
X10684055Y-15757719D01*
X10684055Y-15757719D02*
X10674531Y-15795815D01*
X10674531Y-15795815D02*
X10665008Y-15814862D01*
X10665008Y-15814862D02*
X10655484Y-15824386D01*
X10655484Y-15824386D02*
X10636436Y-15833910D01*
X10636436Y-15833910D02*
X10617388Y-15833910D01*
X10617388Y-15833910D02*
X10598341Y-15824386D01*
X10598341Y-15824386D02*
X10588817Y-15814862D01*
X10588817Y-15814862D02*
X10579293Y-15795815D01*
X10579293Y-15795815D02*
X10569769Y-15757719D01*
X10569769Y-15757719D02*
X10569769Y-15710100D01*
X10569769Y-15710100D02*
X10579293Y-15672005D01*
X10579293Y-15672005D02*
X10588817Y-15652958D01*
X10588817Y-15652958D02*
X10598341Y-15643434D01*
X10598341Y-15643434D02*
X10617388Y-15633910D01*
X10750722Y-15633910D02*
X10874531Y-15633910D01*
X10874531Y-15633910D02*
X10807865Y-15710100D01*
X10807865Y-15710100D02*
X10836436Y-15710100D01*
X10836436Y-15710100D02*
X10855484Y-15719624D01*
X10855484Y-15719624D02*
X10865008Y-15729148D01*
X10865008Y-15729148D02*
X10874531Y-15748196D01*
X10874531Y-15748196D02*
X10874531Y-15795815D01*
X10874531Y-15795815D02*
X10865008Y-15814862D01*
X10865008Y-15814862D02*
X10855484Y-15824386D01*
X10855484Y-15824386D02*
X10836436Y-15833910D01*
X10836436Y-15833910D02*
X10779293Y-15833910D01*
X10779293Y-15833910D02*
X10760246Y-15824386D01*
X10760246Y-15824386D02*
X10750722Y-15814862D01*
X10969769Y-15833910D02*
X11007865Y-15833910D01*
X11007865Y-15833910D02*
X11026912Y-15824386D01*
X11026912Y-15824386D02*
X11036436Y-15814862D01*
X11036436Y-15814862D02*
X11055484Y-15786291D01*
X11055484Y-15786291D02*
X11065008Y-15748196D01*
X11065008Y-15748196D02*
X11065008Y-15672005D01*
X11065008Y-15672005D02*
X11055484Y-15652958D01*
X11055484Y-15652958D02*
X11045960Y-15643434D01*
X11045960Y-15643434D02*
X11026912Y-15633910D01*
X11026912Y-15633910D02*
X10988817Y-15633910D01*
X10988817Y-15633910D02*
X10969769Y-15643434D01*
X10969769Y-15643434D02*
X10960246Y-15652958D01*
X10960246Y-15652958D02*
X10950722Y-15672005D01*
X10950722Y-15672005D02*
X10950722Y-15719624D01*
X10950722Y-15719624D02*
X10960246Y-15738672D01*
X10960246Y-15738672D02*
X10969769Y-15748196D01*
X10969769Y-15748196D02*
X10988817Y-15757719D01*
X10988817Y-15757719D02*
X11026912Y-15757719D01*
X11026912Y-15757719D02*
X11045960Y-15748196D01*
X11045960Y-15748196D02*
X11055484Y-15738672D01*
X11055484Y-15738672D02*
X11065008Y-15719624D01*
X11236436Y-15700577D02*
X11236436Y-15833910D01*
X11188817Y-15624386D02*
X11141198Y-15767243D01*
X11141198Y-15767243D02*
X11265007Y-15767243D01*
X11331674Y-15633910D02*
X11331674Y-15672005D01*
X11407865Y-15633910D02*
X11407865Y-15672005D01*
X11703103Y-15910100D02*
X11693579Y-15900577D01*
X11693579Y-15900577D02*
X11674531Y-15872005D01*
X11674531Y-15872005D02*
X11665008Y-15852958D01*
X11665008Y-15852958D02*
X11655484Y-15824386D01*
X11655484Y-15824386D02*
X11645960Y-15776767D01*
X11645960Y-15776767D02*
X11645960Y-15738672D01*
X11645960Y-15738672D02*
X11655484Y-15691053D01*
X11655484Y-15691053D02*
X11665008Y-15662481D01*
X11665008Y-15662481D02*
X11674531Y-15643434D01*
X11674531Y-15643434D02*
X11693579Y-15614862D01*
X11693579Y-15614862D02*
X11703103Y-15605338D01*
X11760246Y-15633910D02*
X11884055Y-15633910D01*
X11884055Y-15633910D02*
X11817388Y-15710100D01*
X11817388Y-15710100D02*
X11845960Y-15710100D01*
X11845960Y-15710100D02*
X11865008Y-15719624D01*
X11865008Y-15719624D02*
X11874531Y-15729148D01*
X11874531Y-15729148D02*
X11884055Y-15748196D01*
X11884055Y-15748196D02*
X11884055Y-15795815D01*
X11884055Y-15795815D02*
X11874531Y-15814862D01*
X11874531Y-15814862D02*
X11865008Y-15824386D01*
X11865008Y-15824386D02*
X11845960Y-15833910D01*
X11845960Y-15833910D02*
X11788817Y-15833910D01*
X11788817Y-15833910D02*
X11769769Y-15824386D01*
X11769769Y-15824386D02*
X11760246Y-15814862D01*
X11960246Y-15652958D02*
X11969769Y-15643434D01*
X11969769Y-15643434D02*
X11988817Y-15633910D01*
X11988817Y-15633910D02*
X12036436Y-15633910D01*
X12036436Y-15633910D02*
X12055484Y-15643434D01*
X12055484Y-15643434D02*
X12065008Y-15652958D01*
X12065008Y-15652958D02*
X12074531Y-15672005D01*
X12074531Y-15672005D02*
X12074531Y-15691053D01*
X12074531Y-15691053D02*
X12065008Y-15719624D01*
X12065008Y-15719624D02*
X11950722Y-15833910D01*
X11950722Y-15833910D02*
X12074531Y-15833910D01*
X12312627Y-15833910D02*
X12312627Y-15633910D01*
X12398341Y-15833910D02*
X12398341Y-15729148D01*
X12398341Y-15729148D02*
X12388817Y-15710100D01*
X12388817Y-15710100D02*
X12369770Y-15700577D01*
X12369770Y-15700577D02*
X12341198Y-15700577D01*
X12341198Y-15700577D02*
X12322150Y-15710100D01*
X12322150Y-15710100D02*
X12312627Y-15719624D01*
X12522150Y-15833910D02*
X12503103Y-15824386D01*
X12503103Y-15824386D02*
X12493579Y-15814862D01*
X12493579Y-15814862D02*
X12484055Y-15795815D01*
X12484055Y-15795815D02*
X12484055Y-15738672D01*
X12484055Y-15738672D02*
X12493579Y-15719624D01*
X12493579Y-15719624D02*
X12503103Y-15710100D01*
X12503103Y-15710100D02*
X12522150Y-15700577D01*
X12522150Y-15700577D02*
X12550722Y-15700577D01*
X12550722Y-15700577D02*
X12569770Y-15710100D01*
X12569770Y-15710100D02*
X12579293Y-15719624D01*
X12579293Y-15719624D02*
X12588817Y-15738672D01*
X12588817Y-15738672D02*
X12588817Y-15795815D01*
X12588817Y-15795815D02*
X12579293Y-15814862D01*
X12579293Y-15814862D02*
X12569770Y-15824386D01*
X12569770Y-15824386D02*
X12550722Y-15833910D01*
X12550722Y-15833910D02*
X12522150Y-15833910D01*
X12703103Y-15833910D02*
X12684055Y-15824386D01*
X12684055Y-15824386D02*
X12674531Y-15805338D01*
X12674531Y-15805338D02*
X12674531Y-15633910D01*
X12855484Y-15824386D02*
X12836436Y-15833910D01*
X12836436Y-15833910D02*
X12798341Y-15833910D01*
X12798341Y-15833910D02*
X12779293Y-15824386D01*
X12779293Y-15824386D02*
X12769770Y-15805338D01*
X12769770Y-15805338D02*
X12769770Y-15729148D01*
X12769770Y-15729148D02*
X12779293Y-15710100D01*
X12779293Y-15710100D02*
X12798341Y-15700577D01*
X12798341Y-15700577D02*
X12836436Y-15700577D01*
X12836436Y-15700577D02*
X12855484Y-15710100D01*
X12855484Y-15710100D02*
X12865008Y-15729148D01*
X12865008Y-15729148D02*
X12865008Y-15748196D01*
X12865008Y-15748196D02*
X12769770Y-15767243D01*
X12941198Y-15824386D02*
X12960246Y-15833910D01*
X12960246Y-15833910D02*
X12998341Y-15833910D01*
X12998341Y-15833910D02*
X13017389Y-15824386D01*
X13017389Y-15824386D02*
X13026912Y-15805338D01*
X13026912Y-15805338D02*
X13026912Y-15795815D01*
X13026912Y-15795815D02*
X13017389Y-15776767D01*
X13017389Y-15776767D02*
X12998341Y-15767243D01*
X12998341Y-15767243D02*
X12969770Y-15767243D01*
X12969770Y-15767243D02*
X12950722Y-15757719D01*
X12950722Y-15757719D02*
X12941198Y-15738672D01*
X12941198Y-15738672D02*
X12941198Y-15729148D01*
X12941198Y-15729148D02*
X12950722Y-15710100D01*
X12950722Y-15710100D02*
X12969770Y-15700577D01*
X12969770Y-15700577D02*
X12998341Y-15700577D01*
X12998341Y-15700577D02*
X13017389Y-15710100D01*
X13093579Y-15910100D02*
X13103103Y-15900577D01*
X13103103Y-15900577D02*
X13122151Y-15872005D01*
X13122151Y-15872005D02*
X13131674Y-15852958D01*
X13131674Y-15852958D02*
X13141198Y-15824386D01*
X13141198Y-15824386D02*
X13150722Y-15776767D01*
X13150722Y-15776767D02*
X13150722Y-15738672D01*
X13150722Y-15738672D02*
X13141198Y-15691053D01*
X13141198Y-15691053D02*
X13131674Y-15662481D01*
X13131674Y-15662481D02*
X13122151Y-15643434D01*
X13122151Y-15643434D02*
X13103103Y-15614862D01*
X13103103Y-15614862D02*
X13093579Y-15605338D01*
D13*
X8106073Y-16059460D02*
X8106073Y-15953393D01*
X8000006Y-15953393D01*
X8000006Y-16059460D01*
X8106073Y-16059460D01*
D11*
X8493579Y-16097910D02*
X8379293Y-16097910D01*
X8436436Y-16097910D02*
X8436436Y-15897910D01*
X8436436Y-15897910D02*
X8417388Y-15926481D01*
X8417388Y-15926481D02*
X8398341Y-15945529D01*
X8398341Y-15945529D02*
X8379293Y-15955053D01*
X8579293Y-16078862D02*
X8588817Y-16088386D01*
X8588817Y-16088386D02*
X8579293Y-16097910D01*
X8579293Y-16097910D02*
X8569769Y-16088386D01*
X8569769Y-16088386D02*
X8579293Y-16078862D01*
X8579293Y-16078862D02*
X8579293Y-16097910D01*
X8769769Y-15897910D02*
X8674531Y-15897910D01*
X8674531Y-15897910D02*
X8665007Y-15993148D01*
X8665007Y-15993148D02*
X8674531Y-15983624D01*
X8674531Y-15983624D02*
X8693579Y-15974100D01*
X8693579Y-15974100D02*
X8741198Y-15974100D01*
X8741198Y-15974100D02*
X8760245Y-15983624D01*
X8760245Y-15983624D02*
X8769769Y-15993148D01*
X8769769Y-15993148D02*
X8779293Y-16012196D01*
X8779293Y-16012196D02*
X8779293Y-16059815D01*
X8779293Y-16059815D02*
X8769769Y-16078862D01*
X8769769Y-16078862D02*
X8760245Y-16088386D01*
X8760245Y-16088386D02*
X8741198Y-16097910D01*
X8741198Y-16097910D02*
X8693579Y-16097910D01*
X8693579Y-16097910D02*
X8674531Y-16088386D01*
X8674531Y-16088386D02*
X8665007Y-16078862D01*
X8903103Y-15897910D02*
X8922150Y-15897910D01*
X8922150Y-15897910D02*
X8941198Y-15907434D01*
X8941198Y-15907434D02*
X8950722Y-15916958D01*
X8950722Y-15916958D02*
X8960245Y-15936005D01*
X8960245Y-15936005D02*
X8969769Y-15974100D01*
X8969769Y-15974100D02*
X8969769Y-16021719D01*
X8969769Y-16021719D02*
X8960245Y-16059815D01*
X8960245Y-16059815D02*
X8950722Y-16078862D01*
X8950722Y-16078862D02*
X8941198Y-16088386D01*
X8941198Y-16088386D02*
X8922150Y-16097910D01*
X8922150Y-16097910D02*
X8903103Y-16097910D01*
X8903103Y-16097910D02*
X8884055Y-16088386D01*
X8884055Y-16088386D02*
X8874531Y-16078862D01*
X8874531Y-16078862D02*
X8865007Y-16059815D01*
X8865007Y-16059815D02*
X8855484Y-16021719D01*
X8855484Y-16021719D02*
X8855484Y-15974100D01*
X8855484Y-15974100D02*
X8865007Y-15936005D01*
X8865007Y-15936005D02*
X8874531Y-15916958D01*
X8874531Y-15916958D02*
X8884055Y-15907434D01*
X8884055Y-15907434D02*
X8903103Y-15897910D01*
X9093579Y-15897910D02*
X9112626Y-15897910D01*
X9112626Y-15897910D02*
X9131674Y-15907434D01*
X9131674Y-15907434D02*
X9141198Y-15916958D01*
X9141198Y-15916958D02*
X9150722Y-15936005D01*
X9150722Y-15936005D02*
X9160245Y-15974100D01*
X9160245Y-15974100D02*
X9160245Y-16021719D01*
X9160245Y-16021719D02*
X9150722Y-16059815D01*
X9150722Y-16059815D02*
X9141198Y-16078862D01*
X9141198Y-16078862D02*
X9131674Y-16088386D01*
X9131674Y-16088386D02*
X9112626Y-16097910D01*
X9112626Y-16097910D02*
X9093579Y-16097910D01*
X9093579Y-16097910D02*
X9074531Y-16088386D01*
X9074531Y-16088386D02*
X9065007Y-16078862D01*
X9065007Y-16078862D02*
X9055484Y-16059815D01*
X9055484Y-16059815D02*
X9045960Y-16021719D01*
X9045960Y-16021719D02*
X9045960Y-15974100D01*
X9045960Y-15974100D02*
X9055484Y-15936005D01*
X9055484Y-15936005D02*
X9065007Y-15916958D01*
X9065007Y-15916958D02*
X9074531Y-15907434D01*
X9074531Y-15907434D02*
X9093579Y-15897910D01*
X9245960Y-16097910D02*
X9245960Y-15964577D01*
X9245960Y-15983624D02*
X9255484Y-15974100D01*
X9255484Y-15974100D02*
X9274531Y-15964577D01*
X9274531Y-15964577D02*
X9303103Y-15964577D01*
X9303103Y-15964577D02*
X9322150Y-15974100D01*
X9322150Y-15974100D02*
X9331674Y-15993148D01*
X9331674Y-15993148D02*
X9331674Y-16097910D01*
X9331674Y-15993148D02*
X9341198Y-15974100D01*
X9341198Y-15974100D02*
X9360245Y-15964577D01*
X9360245Y-15964577D02*
X9388817Y-15964577D01*
X9388817Y-15964577D02*
X9407865Y-15974100D01*
X9407865Y-15974100D02*
X9417388Y-15993148D01*
X9417388Y-15993148D02*
X9417388Y-16097910D01*
X9512626Y-16097910D02*
X9512626Y-15964577D01*
X9512626Y-15983624D02*
X9522150Y-15974100D01*
X9522150Y-15974100D02*
X9541198Y-15964577D01*
X9541198Y-15964577D02*
X9569769Y-15964577D01*
X9569769Y-15964577D02*
X9588817Y-15974100D01*
X9588817Y-15974100D02*
X9598341Y-15993148D01*
X9598341Y-15993148D02*
X9598341Y-16097910D01*
X9598341Y-15993148D02*
X9607865Y-15974100D01*
X9607865Y-15974100D02*
X9626912Y-15964577D01*
X9626912Y-15964577D02*
X9655484Y-15964577D01*
X9655484Y-15964577D02*
X9674531Y-15974100D01*
X9674531Y-15974100D02*
X9684055Y-15993148D01*
X9684055Y-15993148D02*
X9684055Y-16097910D01*
X10074531Y-15888386D02*
X9903103Y-16145529D01*
X10331674Y-15897910D02*
X10350722Y-15897910D01*
X10350722Y-15897910D02*
X10369769Y-15907434D01*
X10369769Y-15907434D02*
X10379293Y-15916958D01*
X10379293Y-15916958D02*
X10388817Y-15936005D01*
X10388817Y-15936005D02*
X10398341Y-15974100D01*
X10398341Y-15974100D02*
X10398341Y-16021719D01*
X10398341Y-16021719D02*
X10388817Y-16059815D01*
X10388817Y-16059815D02*
X10379293Y-16078862D01*
X10379293Y-16078862D02*
X10369769Y-16088386D01*
X10369769Y-16088386D02*
X10350722Y-16097910D01*
X10350722Y-16097910D02*
X10331674Y-16097910D01*
X10331674Y-16097910D02*
X10312627Y-16088386D01*
X10312627Y-16088386D02*
X10303103Y-16078862D01*
X10303103Y-16078862D02*
X10293579Y-16059815D01*
X10293579Y-16059815D02*
X10284055Y-16021719D01*
X10284055Y-16021719D02*
X10284055Y-15974100D01*
X10284055Y-15974100D02*
X10293579Y-15936005D01*
X10293579Y-15936005D02*
X10303103Y-15916958D01*
X10303103Y-15916958D02*
X10312627Y-15907434D01*
X10312627Y-15907434D02*
X10331674Y-15897910D01*
X10484055Y-16078862D02*
X10493579Y-16088386D01*
X10493579Y-16088386D02*
X10484055Y-16097910D01*
X10484055Y-16097910D02*
X10474531Y-16088386D01*
X10474531Y-16088386D02*
X10484055Y-16078862D01*
X10484055Y-16078862D02*
X10484055Y-16097910D01*
X10617388Y-15897910D02*
X10636436Y-15897910D01*
X10636436Y-15897910D02*
X10655484Y-15907434D01*
X10655484Y-15907434D02*
X10665008Y-15916958D01*
X10665008Y-15916958D02*
X10674531Y-15936005D01*
X10674531Y-15936005D02*
X10684055Y-15974100D01*
X10684055Y-15974100D02*
X10684055Y-16021719D01*
X10684055Y-16021719D02*
X10674531Y-16059815D01*
X10674531Y-16059815D02*
X10665008Y-16078862D01*
X10665008Y-16078862D02*
X10655484Y-16088386D01*
X10655484Y-16088386D02*
X10636436Y-16097910D01*
X10636436Y-16097910D02*
X10617388Y-16097910D01*
X10617388Y-16097910D02*
X10598341Y-16088386D01*
X10598341Y-16088386D02*
X10588817Y-16078862D01*
X10588817Y-16078862D02*
X10579293Y-16059815D01*
X10579293Y-16059815D02*
X10569769Y-16021719D01*
X10569769Y-16021719D02*
X10569769Y-15974100D01*
X10569769Y-15974100D02*
X10579293Y-15936005D01*
X10579293Y-15936005D02*
X10588817Y-15916958D01*
X10588817Y-15916958D02*
X10598341Y-15907434D01*
X10598341Y-15907434D02*
X10617388Y-15897910D01*
X10865008Y-15897910D02*
X10769769Y-15897910D01*
X10769769Y-15897910D02*
X10760246Y-15993148D01*
X10760246Y-15993148D02*
X10769769Y-15983624D01*
X10769769Y-15983624D02*
X10788817Y-15974100D01*
X10788817Y-15974100D02*
X10836436Y-15974100D01*
X10836436Y-15974100D02*
X10855484Y-15983624D01*
X10855484Y-15983624D02*
X10865008Y-15993148D01*
X10865008Y-15993148D02*
X10874531Y-16012196D01*
X10874531Y-16012196D02*
X10874531Y-16059815D01*
X10874531Y-16059815D02*
X10865008Y-16078862D01*
X10865008Y-16078862D02*
X10855484Y-16088386D01*
X10855484Y-16088386D02*
X10836436Y-16097910D01*
X10836436Y-16097910D02*
X10788817Y-16097910D01*
X10788817Y-16097910D02*
X10769769Y-16088386D01*
X10769769Y-16088386D02*
X10760246Y-16078862D01*
X10969769Y-16097910D02*
X11007865Y-16097910D01*
X11007865Y-16097910D02*
X11026912Y-16088386D01*
X11026912Y-16088386D02*
X11036436Y-16078862D01*
X11036436Y-16078862D02*
X11055484Y-16050291D01*
X11055484Y-16050291D02*
X11065008Y-16012196D01*
X11065008Y-16012196D02*
X11065008Y-15936005D01*
X11065008Y-15936005D02*
X11055484Y-15916958D01*
X11055484Y-15916958D02*
X11045960Y-15907434D01*
X11045960Y-15907434D02*
X11026912Y-15897910D01*
X11026912Y-15897910D02*
X10988817Y-15897910D01*
X10988817Y-15897910D02*
X10969769Y-15907434D01*
X10969769Y-15907434D02*
X10960246Y-15916958D01*
X10960246Y-15916958D02*
X10950722Y-15936005D01*
X10950722Y-15936005D02*
X10950722Y-15983624D01*
X10950722Y-15983624D02*
X10960246Y-16002672D01*
X10960246Y-16002672D02*
X10969769Y-16012196D01*
X10969769Y-16012196D02*
X10988817Y-16021719D01*
X10988817Y-16021719D02*
X11026912Y-16021719D01*
X11026912Y-16021719D02*
X11045960Y-16012196D01*
X11045960Y-16012196D02*
X11055484Y-16002672D01*
X11055484Y-16002672D02*
X11065008Y-15983624D01*
X11255484Y-16097910D02*
X11141198Y-16097910D01*
X11198341Y-16097910D02*
X11198341Y-15897910D01*
X11198341Y-15897910D02*
X11179293Y-15926481D01*
X11179293Y-15926481D02*
X11160246Y-15945529D01*
X11160246Y-15945529D02*
X11141198Y-15955053D01*
X11331674Y-15897910D02*
X11331674Y-15936005D01*
X11407865Y-15897910D02*
X11407865Y-15936005D01*
X11703103Y-16174100D02*
X11693579Y-16164577D01*
X11693579Y-16164577D02*
X11674531Y-16136005D01*
X11674531Y-16136005D02*
X11665008Y-16116958D01*
X11665008Y-16116958D02*
X11655484Y-16088386D01*
X11655484Y-16088386D02*
X11645960Y-16040767D01*
X11645960Y-16040767D02*
X11645960Y-16002672D01*
X11645960Y-16002672D02*
X11655484Y-15955053D01*
X11655484Y-15955053D02*
X11665008Y-15926481D01*
X11665008Y-15926481D02*
X11674531Y-15907434D01*
X11674531Y-15907434D02*
X11693579Y-15878862D01*
X11693579Y-15878862D02*
X11703103Y-15869338D01*
X11817388Y-15897910D02*
X11836436Y-15897910D01*
X11836436Y-15897910D02*
X11855484Y-15907434D01*
X11855484Y-15907434D02*
X11865008Y-15916958D01*
X11865008Y-15916958D02*
X11874531Y-15936005D01*
X11874531Y-15936005D02*
X11884055Y-15974100D01*
X11884055Y-15974100D02*
X11884055Y-16021719D01*
X11884055Y-16021719D02*
X11874531Y-16059815D01*
X11874531Y-16059815D02*
X11865008Y-16078862D01*
X11865008Y-16078862D02*
X11855484Y-16088386D01*
X11855484Y-16088386D02*
X11836436Y-16097910D01*
X11836436Y-16097910D02*
X11817388Y-16097910D01*
X11817388Y-16097910D02*
X11798341Y-16088386D01*
X11798341Y-16088386D02*
X11788817Y-16078862D01*
X11788817Y-16078862D02*
X11779293Y-16059815D01*
X11779293Y-16059815D02*
X11769769Y-16021719D01*
X11769769Y-16021719D02*
X11769769Y-15974100D01*
X11769769Y-15974100D02*
X11779293Y-15936005D01*
X11779293Y-15936005D02*
X11788817Y-15916958D01*
X11788817Y-15916958D02*
X11798341Y-15907434D01*
X11798341Y-15907434D02*
X11817388Y-15897910D01*
X12122150Y-16097910D02*
X12122150Y-15897910D01*
X12207865Y-16097910D02*
X12207865Y-15993148D01*
X12207865Y-15993148D02*
X12198341Y-15974100D01*
X12198341Y-15974100D02*
X12179293Y-15964577D01*
X12179293Y-15964577D02*
X12150722Y-15964577D01*
X12150722Y-15964577D02*
X12131674Y-15974100D01*
X12131674Y-15974100D02*
X12122150Y-15983624D01*
X12331674Y-16097910D02*
X12312627Y-16088386D01*
X12312627Y-16088386D02*
X12303103Y-16078862D01*
X12303103Y-16078862D02*
X12293579Y-16059815D01*
X12293579Y-16059815D02*
X12293579Y-16002672D01*
X12293579Y-16002672D02*
X12303103Y-15983624D01*
X12303103Y-15983624D02*
X12312627Y-15974100D01*
X12312627Y-15974100D02*
X12331674Y-15964577D01*
X12331674Y-15964577D02*
X12360246Y-15964577D01*
X12360246Y-15964577D02*
X12379293Y-15974100D01*
X12379293Y-15974100D02*
X12388817Y-15983624D01*
X12388817Y-15983624D02*
X12398341Y-16002672D01*
X12398341Y-16002672D02*
X12398341Y-16059815D01*
X12398341Y-16059815D02*
X12388817Y-16078862D01*
X12388817Y-16078862D02*
X12379293Y-16088386D01*
X12379293Y-16088386D02*
X12360246Y-16097910D01*
X12360246Y-16097910D02*
X12331674Y-16097910D01*
X12512627Y-16097910D02*
X12493579Y-16088386D01*
X12493579Y-16088386D02*
X12484055Y-16069338D01*
X12484055Y-16069338D02*
X12484055Y-15897910D01*
X12665008Y-16088386D02*
X12645960Y-16097910D01*
X12645960Y-16097910D02*
X12607865Y-16097910D01*
X12607865Y-16097910D02*
X12588817Y-16088386D01*
X12588817Y-16088386D02*
X12579293Y-16069338D01*
X12579293Y-16069338D02*
X12579293Y-15993148D01*
X12579293Y-15993148D02*
X12588817Y-15974100D01*
X12588817Y-15974100D02*
X12607865Y-15964577D01*
X12607865Y-15964577D02*
X12645960Y-15964577D01*
X12645960Y-15964577D02*
X12665008Y-15974100D01*
X12665008Y-15974100D02*
X12674531Y-15993148D01*
X12674531Y-15993148D02*
X12674531Y-16012196D01*
X12674531Y-16012196D02*
X12579293Y-16031243D01*
X12750722Y-16088386D02*
X12769770Y-16097910D01*
X12769770Y-16097910D02*
X12807865Y-16097910D01*
X12807865Y-16097910D02*
X12826912Y-16088386D01*
X12826912Y-16088386D02*
X12836436Y-16069338D01*
X12836436Y-16069338D02*
X12836436Y-16059815D01*
X12836436Y-16059815D02*
X12826912Y-16040767D01*
X12826912Y-16040767D02*
X12807865Y-16031243D01*
X12807865Y-16031243D02*
X12779293Y-16031243D01*
X12779293Y-16031243D02*
X12760246Y-16021719D01*
X12760246Y-16021719D02*
X12750722Y-16002672D01*
X12750722Y-16002672D02*
X12750722Y-15993148D01*
X12750722Y-15993148D02*
X12760246Y-15974100D01*
X12760246Y-15974100D02*
X12779293Y-15964577D01*
X12779293Y-15964577D02*
X12807865Y-15964577D01*
X12807865Y-15964577D02*
X12826912Y-15974100D01*
X13074532Y-16021719D02*
X13226913Y-16021719D01*
X13150722Y-16097910D02*
X13150722Y-15945529D01*
X13465008Y-15916958D02*
X13474532Y-15907434D01*
X13474532Y-15907434D02*
X13493579Y-15897910D01*
X13493579Y-15897910D02*
X13541198Y-15897910D01*
X13541198Y-15897910D02*
X13560246Y-15907434D01*
X13560246Y-15907434D02*
X13569770Y-15916958D01*
X13569770Y-15916958D02*
X13579293Y-15936005D01*
X13579293Y-15936005D02*
X13579293Y-15955053D01*
X13579293Y-15955053D02*
X13569770Y-15983624D01*
X13569770Y-15983624D02*
X13455484Y-16097910D01*
X13455484Y-16097910D02*
X13579293Y-16097910D01*
X13807865Y-16088386D02*
X13826913Y-16097910D01*
X13826913Y-16097910D02*
X13865008Y-16097910D01*
X13865008Y-16097910D02*
X13884055Y-16088386D01*
X13884055Y-16088386D02*
X13893579Y-16069338D01*
X13893579Y-16069338D02*
X13893579Y-16059815D01*
X13893579Y-16059815D02*
X13884055Y-16040767D01*
X13884055Y-16040767D02*
X13865008Y-16031243D01*
X13865008Y-16031243D02*
X13836436Y-16031243D01*
X13836436Y-16031243D02*
X13817389Y-16021719D01*
X13817389Y-16021719D02*
X13807865Y-16002672D01*
X13807865Y-16002672D02*
X13807865Y-15993148D01*
X13807865Y-15993148D02*
X13817389Y-15974100D01*
X13817389Y-15974100D02*
X13836436Y-15964577D01*
X13836436Y-15964577D02*
X13865008Y-15964577D01*
X13865008Y-15964577D02*
X13884055Y-15974100D01*
X14007865Y-16097910D02*
X13988817Y-16088386D01*
X13988817Y-16088386D02*
X13979294Y-16069338D01*
X13979294Y-16069338D02*
X13979294Y-15897910D01*
X14112627Y-16097910D02*
X14093579Y-16088386D01*
X14093579Y-16088386D02*
X14084055Y-16078862D01*
X14084055Y-16078862D02*
X14074532Y-16059815D01*
X14074532Y-16059815D02*
X14074532Y-16002672D01*
X14074532Y-16002672D02*
X14084055Y-15983624D01*
X14084055Y-15983624D02*
X14093579Y-15974100D01*
X14093579Y-15974100D02*
X14112627Y-15964577D01*
X14112627Y-15964577D02*
X14141198Y-15964577D01*
X14141198Y-15964577D02*
X14160246Y-15974100D01*
X14160246Y-15974100D02*
X14169770Y-15983624D01*
X14169770Y-15983624D02*
X14179294Y-16002672D01*
X14179294Y-16002672D02*
X14179294Y-16059815D01*
X14179294Y-16059815D02*
X14169770Y-16078862D01*
X14169770Y-16078862D02*
X14160246Y-16088386D01*
X14160246Y-16088386D02*
X14141198Y-16097910D01*
X14141198Y-16097910D02*
X14112627Y-16097910D01*
X14236436Y-15964577D02*
X14312627Y-15964577D01*
X14265008Y-15897910D02*
X14265008Y-16069338D01*
X14265008Y-16069338D02*
X14274532Y-16088386D01*
X14274532Y-16088386D02*
X14293579Y-16097910D01*
X14293579Y-16097910D02*
X14312627Y-16097910D01*
X14369770Y-16088386D02*
X14388817Y-16097910D01*
X14388817Y-16097910D02*
X14426913Y-16097910D01*
X14426913Y-16097910D02*
X14445960Y-16088386D01*
X14445960Y-16088386D02*
X14455484Y-16069338D01*
X14455484Y-16069338D02*
X14455484Y-16059815D01*
X14455484Y-16059815D02*
X14445960Y-16040767D01*
X14445960Y-16040767D02*
X14426913Y-16031243D01*
X14426913Y-16031243D02*
X14398341Y-16031243D01*
X14398341Y-16031243D02*
X14379294Y-16021719D01*
X14379294Y-16021719D02*
X14369770Y-16002672D01*
X14369770Y-16002672D02*
X14369770Y-15993148D01*
X14369770Y-15993148D02*
X14379294Y-15974100D01*
X14379294Y-15974100D02*
X14398341Y-15964577D01*
X14398341Y-15964577D02*
X14426913Y-15964577D01*
X14426913Y-15964577D02*
X14445960Y-15974100D01*
X14522151Y-16174100D02*
X14531675Y-16164577D01*
X14531675Y-16164577D02*
X14550722Y-16136005D01*
X14550722Y-16136005D02*
X14560246Y-16116958D01*
X14560246Y-16116958D02*
X14569770Y-16088386D01*
X14569770Y-16088386D02*
X14579294Y-16040767D01*
X14579294Y-16040767D02*
X14579294Y-16002672D01*
X14579294Y-16002672D02*
X14569770Y-15955053D01*
X14569770Y-15955053D02*
X14560246Y-15926481D01*
X14560246Y-15926481D02*
X14550722Y-15907434D01*
X14550722Y-15907434D02*
X14531675Y-15878862D01*
X14531675Y-15878862D02*
X14522151Y-15869338D01*
X8028040Y-16376426D02*
X8128040Y-16276426D01*
X8028040Y-16176426D01*
X7928040Y-16276426D01*
X8028040Y-16376426D01*
X8369769Y-16167910D02*
X8493579Y-16167910D01*
X8493579Y-16167910D02*
X8426912Y-16244100D01*
X8426912Y-16244100D02*
X8455484Y-16244100D01*
X8455484Y-16244100D02*
X8474531Y-16253624D01*
X8474531Y-16253624D02*
X8484055Y-16263148D01*
X8484055Y-16263148D02*
X8493579Y-16282196D01*
X8493579Y-16282196D02*
X8493579Y-16329815D01*
X8493579Y-16329815D02*
X8484055Y-16348862D01*
X8484055Y-16348862D02*
X8474531Y-16358386D01*
X8474531Y-16358386D02*
X8455484Y-16367910D01*
X8455484Y-16367910D02*
X8398341Y-16367910D01*
X8398341Y-16367910D02*
X8379293Y-16358386D01*
X8379293Y-16358386D02*
X8369769Y-16348862D01*
X8579293Y-16348862D02*
X8588817Y-16358386D01*
X8588817Y-16358386D02*
X8579293Y-16367910D01*
X8579293Y-16367910D02*
X8569769Y-16358386D01*
X8569769Y-16358386D02*
X8579293Y-16348862D01*
X8579293Y-16348862D02*
X8579293Y-16367910D01*
X8712626Y-16167910D02*
X8731674Y-16167910D01*
X8731674Y-16167910D02*
X8750722Y-16177434D01*
X8750722Y-16177434D02*
X8760245Y-16186958D01*
X8760245Y-16186958D02*
X8769769Y-16206005D01*
X8769769Y-16206005D02*
X8779293Y-16244100D01*
X8779293Y-16244100D02*
X8779293Y-16291719D01*
X8779293Y-16291719D02*
X8769769Y-16329815D01*
X8769769Y-16329815D02*
X8760245Y-16348862D01*
X8760245Y-16348862D02*
X8750722Y-16358386D01*
X8750722Y-16358386D02*
X8731674Y-16367910D01*
X8731674Y-16367910D02*
X8712626Y-16367910D01*
X8712626Y-16367910D02*
X8693579Y-16358386D01*
X8693579Y-16358386D02*
X8684055Y-16348862D01*
X8684055Y-16348862D02*
X8674531Y-16329815D01*
X8674531Y-16329815D02*
X8665007Y-16291719D01*
X8665007Y-16291719D02*
X8665007Y-16244100D01*
X8665007Y-16244100D02*
X8674531Y-16206005D01*
X8674531Y-16206005D02*
X8684055Y-16186958D01*
X8684055Y-16186958D02*
X8693579Y-16177434D01*
X8693579Y-16177434D02*
X8712626Y-16167910D01*
X8960245Y-16167910D02*
X8865007Y-16167910D01*
X8865007Y-16167910D02*
X8855484Y-16263148D01*
X8855484Y-16263148D02*
X8865007Y-16253624D01*
X8865007Y-16253624D02*
X8884055Y-16244100D01*
X8884055Y-16244100D02*
X8931674Y-16244100D01*
X8931674Y-16244100D02*
X8950722Y-16253624D01*
X8950722Y-16253624D02*
X8960245Y-16263148D01*
X8960245Y-16263148D02*
X8969769Y-16282196D01*
X8969769Y-16282196D02*
X8969769Y-16329815D01*
X8969769Y-16329815D02*
X8960245Y-16348862D01*
X8960245Y-16348862D02*
X8950722Y-16358386D01*
X8950722Y-16358386D02*
X8931674Y-16367910D01*
X8931674Y-16367910D02*
X8884055Y-16367910D01*
X8884055Y-16367910D02*
X8865007Y-16358386D01*
X8865007Y-16358386D02*
X8855484Y-16348862D01*
X9093579Y-16167910D02*
X9112626Y-16167910D01*
X9112626Y-16167910D02*
X9131674Y-16177434D01*
X9131674Y-16177434D02*
X9141198Y-16186958D01*
X9141198Y-16186958D02*
X9150722Y-16206005D01*
X9150722Y-16206005D02*
X9160245Y-16244100D01*
X9160245Y-16244100D02*
X9160245Y-16291719D01*
X9160245Y-16291719D02*
X9150722Y-16329815D01*
X9150722Y-16329815D02*
X9141198Y-16348862D01*
X9141198Y-16348862D02*
X9131674Y-16358386D01*
X9131674Y-16358386D02*
X9112626Y-16367910D01*
X9112626Y-16367910D02*
X9093579Y-16367910D01*
X9093579Y-16367910D02*
X9074531Y-16358386D01*
X9074531Y-16358386D02*
X9065007Y-16348862D01*
X9065007Y-16348862D02*
X9055484Y-16329815D01*
X9055484Y-16329815D02*
X9045960Y-16291719D01*
X9045960Y-16291719D02*
X9045960Y-16244100D01*
X9045960Y-16244100D02*
X9055484Y-16206005D01*
X9055484Y-16206005D02*
X9065007Y-16186958D01*
X9065007Y-16186958D02*
X9074531Y-16177434D01*
X9074531Y-16177434D02*
X9093579Y-16167910D01*
X9245960Y-16367910D02*
X9245960Y-16234577D01*
X9245960Y-16253624D02*
X9255484Y-16244100D01*
X9255484Y-16244100D02*
X9274531Y-16234577D01*
X9274531Y-16234577D02*
X9303103Y-16234577D01*
X9303103Y-16234577D02*
X9322150Y-16244100D01*
X9322150Y-16244100D02*
X9331674Y-16263148D01*
X9331674Y-16263148D02*
X9331674Y-16367910D01*
X9331674Y-16263148D02*
X9341198Y-16244100D01*
X9341198Y-16244100D02*
X9360245Y-16234577D01*
X9360245Y-16234577D02*
X9388817Y-16234577D01*
X9388817Y-16234577D02*
X9407865Y-16244100D01*
X9407865Y-16244100D02*
X9417388Y-16263148D01*
X9417388Y-16263148D02*
X9417388Y-16367910D01*
X9512626Y-16367910D02*
X9512626Y-16234577D01*
X9512626Y-16253624D02*
X9522150Y-16244100D01*
X9522150Y-16244100D02*
X9541198Y-16234577D01*
X9541198Y-16234577D02*
X9569769Y-16234577D01*
X9569769Y-16234577D02*
X9588817Y-16244100D01*
X9588817Y-16244100D02*
X9598341Y-16263148D01*
X9598341Y-16263148D02*
X9598341Y-16367910D01*
X9598341Y-16263148D02*
X9607865Y-16244100D01*
X9607865Y-16244100D02*
X9626912Y-16234577D01*
X9626912Y-16234577D02*
X9655484Y-16234577D01*
X9655484Y-16234577D02*
X9674531Y-16244100D01*
X9674531Y-16244100D02*
X9684055Y-16263148D01*
X9684055Y-16263148D02*
X9684055Y-16367910D01*
X10074531Y-16158386D02*
X9903103Y-16415529D01*
X10331674Y-16167910D02*
X10350722Y-16167910D01*
X10350722Y-16167910D02*
X10369769Y-16177434D01*
X10369769Y-16177434D02*
X10379293Y-16186958D01*
X10379293Y-16186958D02*
X10388817Y-16206005D01*
X10388817Y-16206005D02*
X10398341Y-16244100D01*
X10398341Y-16244100D02*
X10398341Y-16291719D01*
X10398341Y-16291719D02*
X10388817Y-16329815D01*
X10388817Y-16329815D02*
X10379293Y-16348862D01*
X10379293Y-16348862D02*
X10369769Y-16358386D01*
X10369769Y-16358386D02*
X10350722Y-16367910D01*
X10350722Y-16367910D02*
X10331674Y-16367910D01*
X10331674Y-16367910D02*
X10312627Y-16358386D01*
X10312627Y-16358386D02*
X10303103Y-16348862D01*
X10303103Y-16348862D02*
X10293579Y-16329815D01*
X10293579Y-16329815D02*
X10284055Y-16291719D01*
X10284055Y-16291719D02*
X10284055Y-16244100D01*
X10284055Y-16244100D02*
X10293579Y-16206005D01*
X10293579Y-16206005D02*
X10303103Y-16186958D01*
X10303103Y-16186958D02*
X10312627Y-16177434D01*
X10312627Y-16177434D02*
X10331674Y-16167910D01*
X10484055Y-16348862D02*
X10493579Y-16358386D01*
X10493579Y-16358386D02*
X10484055Y-16367910D01*
X10484055Y-16367910D02*
X10474531Y-16358386D01*
X10474531Y-16358386D02*
X10484055Y-16348862D01*
X10484055Y-16348862D02*
X10484055Y-16367910D01*
X10684055Y-16367910D02*
X10569769Y-16367910D01*
X10626912Y-16367910D02*
X10626912Y-16167910D01*
X10626912Y-16167910D02*
X10607865Y-16196481D01*
X10607865Y-16196481D02*
X10588817Y-16215529D01*
X10588817Y-16215529D02*
X10569769Y-16225053D01*
X10760246Y-16186958D02*
X10769769Y-16177434D01*
X10769769Y-16177434D02*
X10788817Y-16167910D01*
X10788817Y-16167910D02*
X10836436Y-16167910D01*
X10836436Y-16167910D02*
X10855484Y-16177434D01*
X10855484Y-16177434D02*
X10865008Y-16186958D01*
X10865008Y-16186958D02*
X10874531Y-16206005D01*
X10874531Y-16206005D02*
X10874531Y-16225053D01*
X10874531Y-16225053D02*
X10865008Y-16253624D01*
X10865008Y-16253624D02*
X10750722Y-16367910D01*
X10750722Y-16367910D02*
X10874531Y-16367910D01*
X10998341Y-16167910D02*
X11017389Y-16167910D01*
X11017389Y-16167910D02*
X11036436Y-16177434D01*
X11036436Y-16177434D02*
X11045960Y-16186958D01*
X11045960Y-16186958D02*
X11055484Y-16206005D01*
X11055484Y-16206005D02*
X11065008Y-16244100D01*
X11065008Y-16244100D02*
X11065008Y-16291719D01*
X11065008Y-16291719D02*
X11055484Y-16329815D01*
X11055484Y-16329815D02*
X11045960Y-16348862D01*
X11045960Y-16348862D02*
X11036436Y-16358386D01*
X11036436Y-16358386D02*
X11017389Y-16367910D01*
X11017389Y-16367910D02*
X10998341Y-16367910D01*
X10998341Y-16367910D02*
X10979293Y-16358386D01*
X10979293Y-16358386D02*
X10969769Y-16348862D01*
X10969769Y-16348862D02*
X10960246Y-16329815D01*
X10960246Y-16329815D02*
X10950722Y-16291719D01*
X10950722Y-16291719D02*
X10950722Y-16244100D01*
X10950722Y-16244100D02*
X10960246Y-16206005D01*
X10960246Y-16206005D02*
X10969769Y-16186958D01*
X10969769Y-16186958D02*
X10979293Y-16177434D01*
X10979293Y-16177434D02*
X10998341Y-16167910D01*
X11255484Y-16367910D02*
X11141198Y-16367910D01*
X11198341Y-16367910D02*
X11198341Y-16167910D01*
X11198341Y-16167910D02*
X11179293Y-16196481D01*
X11179293Y-16196481D02*
X11160246Y-16215529D01*
X11160246Y-16215529D02*
X11141198Y-16225053D01*
X11331674Y-16167910D02*
X11331674Y-16206005D01*
X11407865Y-16167910D02*
X11407865Y-16206005D01*
X11703103Y-16444100D02*
X11693579Y-16434577D01*
X11693579Y-16434577D02*
X11674531Y-16406005D01*
X11674531Y-16406005D02*
X11665008Y-16386958D01*
X11665008Y-16386958D02*
X11655484Y-16358386D01*
X11655484Y-16358386D02*
X11645960Y-16310767D01*
X11645960Y-16310767D02*
X11645960Y-16272672D01*
X11645960Y-16272672D02*
X11655484Y-16225053D01*
X11655484Y-16225053D02*
X11665008Y-16196481D01*
X11665008Y-16196481D02*
X11674531Y-16177434D01*
X11674531Y-16177434D02*
X11693579Y-16148862D01*
X11693579Y-16148862D02*
X11703103Y-16139338D01*
X11884055Y-16367910D02*
X11769769Y-16367910D01*
X11826912Y-16367910D02*
X11826912Y-16167910D01*
X11826912Y-16167910D02*
X11807865Y-16196481D01*
X11807865Y-16196481D02*
X11788817Y-16215529D01*
X11788817Y-16215529D02*
X11769769Y-16225053D01*
X11998341Y-16253624D02*
X11979293Y-16244100D01*
X11979293Y-16244100D02*
X11969769Y-16234577D01*
X11969769Y-16234577D02*
X11960246Y-16215529D01*
X11960246Y-16215529D02*
X11960246Y-16206005D01*
X11960246Y-16206005D02*
X11969769Y-16186958D01*
X11969769Y-16186958D02*
X11979293Y-16177434D01*
X11979293Y-16177434D02*
X11998341Y-16167910D01*
X11998341Y-16167910D02*
X12036436Y-16167910D01*
X12036436Y-16167910D02*
X12055484Y-16177434D01*
X12055484Y-16177434D02*
X12065008Y-16186958D01*
X12065008Y-16186958D02*
X12074531Y-16206005D01*
X12074531Y-16206005D02*
X12074531Y-16215529D01*
X12074531Y-16215529D02*
X12065008Y-16234577D01*
X12065008Y-16234577D02*
X12055484Y-16244100D01*
X12055484Y-16244100D02*
X12036436Y-16253624D01*
X12036436Y-16253624D02*
X11998341Y-16253624D01*
X11998341Y-16253624D02*
X11979293Y-16263148D01*
X11979293Y-16263148D02*
X11969769Y-16272672D01*
X11969769Y-16272672D02*
X11960246Y-16291719D01*
X11960246Y-16291719D02*
X11960246Y-16329815D01*
X11960246Y-16329815D02*
X11969769Y-16348862D01*
X11969769Y-16348862D02*
X11979293Y-16358386D01*
X11979293Y-16358386D02*
X11998341Y-16367910D01*
X11998341Y-16367910D02*
X12036436Y-16367910D01*
X12036436Y-16367910D02*
X12055484Y-16358386D01*
X12055484Y-16358386D02*
X12065008Y-16348862D01*
X12065008Y-16348862D02*
X12074531Y-16329815D01*
X12074531Y-16329815D02*
X12074531Y-16291719D01*
X12074531Y-16291719D02*
X12065008Y-16272672D01*
X12065008Y-16272672D02*
X12055484Y-16263148D01*
X12055484Y-16263148D02*
X12036436Y-16253624D01*
X12312627Y-16367910D02*
X12312627Y-16167910D01*
X12398341Y-16367910D02*
X12398341Y-16263148D01*
X12398341Y-16263148D02*
X12388817Y-16244100D01*
X12388817Y-16244100D02*
X12369770Y-16234577D01*
X12369770Y-16234577D02*
X12341198Y-16234577D01*
X12341198Y-16234577D02*
X12322150Y-16244100D01*
X12322150Y-16244100D02*
X12312627Y-16253624D01*
X12522150Y-16367910D02*
X12503103Y-16358386D01*
X12503103Y-16358386D02*
X12493579Y-16348862D01*
X12493579Y-16348862D02*
X12484055Y-16329815D01*
X12484055Y-16329815D02*
X12484055Y-16272672D01*
X12484055Y-16272672D02*
X12493579Y-16253624D01*
X12493579Y-16253624D02*
X12503103Y-16244100D01*
X12503103Y-16244100D02*
X12522150Y-16234577D01*
X12522150Y-16234577D02*
X12550722Y-16234577D01*
X12550722Y-16234577D02*
X12569770Y-16244100D01*
X12569770Y-16244100D02*
X12579293Y-16253624D01*
X12579293Y-16253624D02*
X12588817Y-16272672D01*
X12588817Y-16272672D02*
X12588817Y-16329815D01*
X12588817Y-16329815D02*
X12579293Y-16348862D01*
X12579293Y-16348862D02*
X12569770Y-16358386D01*
X12569770Y-16358386D02*
X12550722Y-16367910D01*
X12550722Y-16367910D02*
X12522150Y-16367910D01*
X12703103Y-16367910D02*
X12684055Y-16358386D01*
X12684055Y-16358386D02*
X12674531Y-16339338D01*
X12674531Y-16339338D02*
X12674531Y-16167910D01*
X12855484Y-16358386D02*
X12836436Y-16367910D01*
X12836436Y-16367910D02*
X12798341Y-16367910D01*
X12798341Y-16367910D02*
X12779293Y-16358386D01*
X12779293Y-16358386D02*
X12769770Y-16339338D01*
X12769770Y-16339338D02*
X12769770Y-16263148D01*
X12769770Y-16263148D02*
X12779293Y-16244100D01*
X12779293Y-16244100D02*
X12798341Y-16234577D01*
X12798341Y-16234577D02*
X12836436Y-16234577D01*
X12836436Y-16234577D02*
X12855484Y-16244100D01*
X12855484Y-16244100D02*
X12865008Y-16263148D01*
X12865008Y-16263148D02*
X12865008Y-16282196D01*
X12865008Y-16282196D02*
X12769770Y-16301243D01*
X12941198Y-16358386D02*
X12960246Y-16367910D01*
X12960246Y-16367910D02*
X12998341Y-16367910D01*
X12998341Y-16367910D02*
X13017389Y-16358386D01*
X13017389Y-16358386D02*
X13026912Y-16339338D01*
X13026912Y-16339338D02*
X13026912Y-16329815D01*
X13026912Y-16329815D02*
X13017389Y-16310767D01*
X13017389Y-16310767D02*
X12998341Y-16301243D01*
X12998341Y-16301243D02*
X12969770Y-16301243D01*
X12969770Y-16301243D02*
X12950722Y-16291719D01*
X12950722Y-16291719D02*
X12941198Y-16272672D01*
X12941198Y-16272672D02*
X12941198Y-16263148D01*
X12941198Y-16263148D02*
X12950722Y-16244100D01*
X12950722Y-16244100D02*
X12969770Y-16234577D01*
X12969770Y-16234577D02*
X12998341Y-16234577D01*
X12998341Y-16234577D02*
X13017389Y-16244100D01*
X13093579Y-16444100D02*
X13103103Y-16434577D01*
X13103103Y-16434577D02*
X13122151Y-16406005D01*
X13122151Y-16406005D02*
X13131674Y-16386958D01*
X13131674Y-16386958D02*
X13141198Y-16358386D01*
X13141198Y-16358386D02*
X13150722Y-16310767D01*
X13150722Y-16310767D02*
X13150722Y-16272672D01*
X13150722Y-16272672D02*
X13141198Y-16225053D01*
X13141198Y-16225053D02*
X13131674Y-16196481D01*
X13131674Y-16196481D02*
X13122151Y-16177434D01*
X13122151Y-16177434D02*
X13103103Y-16148862D01*
X13103103Y-16148862D02*
X13093579Y-16139338D01*
M02*
