G04 #@! TF.GenerationSoftware,KiCad,Pcbnew,8.0.3*
G04 #@! TF.CreationDate,2024-06-11T21:06:24+05:30*
G04 #@! TF.ProjectId,CoryDora,436f7279-446f-4726-912e-6b696361645f,rev?*
G04 #@! TF.SameCoordinates,Original*
G04 #@! TF.FileFunction,Legend,Top*
G04 #@! TF.FilePolarity,Positive*
%FSLAX46Y46*%
G04 Gerber Fmt 4.6, Leading zero omitted, Abs format (unit mm)*
G04 Created by KiCad (PCBNEW 8.0.3) date 2024-06-11 21:06:24*
%MOMM*%
%LPD*%
G01*
G04 APERTURE LIST*
%ADD10C,0.150000*%
%ADD11C,0.500000*%
%ADD12C,0.000000*%
%ADD13C,0.120000*%
G04 APERTURE END LIST*
D10*
X114782695Y-142519662D02*
X114925552Y-142567281D01*
X114925552Y-142567281D02*
X115163647Y-142567281D01*
X115163647Y-142567281D02*
X115258885Y-142519662D01*
X115258885Y-142519662D02*
X115306504Y-142472042D01*
X115306504Y-142472042D02*
X115354123Y-142376804D01*
X115354123Y-142376804D02*
X115354123Y-142281566D01*
X115354123Y-142281566D02*
X115306504Y-142186328D01*
X115306504Y-142186328D02*
X115258885Y-142138709D01*
X115258885Y-142138709D02*
X115163647Y-142091090D01*
X115163647Y-142091090D02*
X114973171Y-142043471D01*
X114973171Y-142043471D02*
X114877933Y-141995852D01*
X114877933Y-141995852D02*
X114830314Y-141948233D01*
X114830314Y-141948233D02*
X114782695Y-141852995D01*
X114782695Y-141852995D02*
X114782695Y-141757757D01*
X114782695Y-141757757D02*
X114830314Y-141662519D01*
X114830314Y-141662519D02*
X114877933Y-141614900D01*
X114877933Y-141614900D02*
X114973171Y-141567281D01*
X114973171Y-141567281D02*
X115211266Y-141567281D01*
X115211266Y-141567281D02*
X115354123Y-141614900D01*
X115925552Y-141995852D02*
X115830314Y-141948233D01*
X115830314Y-141948233D02*
X115782695Y-141900614D01*
X115782695Y-141900614D02*
X115735076Y-141805376D01*
X115735076Y-141805376D02*
X115735076Y-141757757D01*
X115735076Y-141757757D02*
X115782695Y-141662519D01*
X115782695Y-141662519D02*
X115830314Y-141614900D01*
X115830314Y-141614900D02*
X115925552Y-141567281D01*
X115925552Y-141567281D02*
X116116028Y-141567281D01*
X116116028Y-141567281D02*
X116211266Y-141614900D01*
X116211266Y-141614900D02*
X116258885Y-141662519D01*
X116258885Y-141662519D02*
X116306504Y-141757757D01*
X116306504Y-141757757D02*
X116306504Y-141805376D01*
X116306504Y-141805376D02*
X116258885Y-141900614D01*
X116258885Y-141900614D02*
X116211266Y-141948233D01*
X116211266Y-141948233D02*
X116116028Y-141995852D01*
X116116028Y-141995852D02*
X115925552Y-141995852D01*
X115925552Y-141995852D02*
X115830314Y-142043471D01*
X115830314Y-142043471D02*
X115782695Y-142091090D01*
X115782695Y-142091090D02*
X115735076Y-142186328D01*
X115735076Y-142186328D02*
X115735076Y-142376804D01*
X115735076Y-142376804D02*
X115782695Y-142472042D01*
X115782695Y-142472042D02*
X115830314Y-142519662D01*
X115830314Y-142519662D02*
X115925552Y-142567281D01*
X115925552Y-142567281D02*
X116116028Y-142567281D01*
X116116028Y-142567281D02*
X116211266Y-142519662D01*
X116211266Y-142519662D02*
X116258885Y-142472042D01*
X116258885Y-142472042D02*
X116306504Y-142376804D01*
X116306504Y-142376804D02*
X116306504Y-142186328D01*
X116306504Y-142186328D02*
X116258885Y-142091090D01*
X116258885Y-142091090D02*
X116211266Y-142043471D01*
X116211266Y-142043471D02*
X116116028Y-141995852D01*
D11*
X83138238Y-105427056D02*
X83043000Y-105331818D01*
X83043000Y-105331818D02*
X82947761Y-105046104D01*
X82947761Y-105046104D02*
X82947761Y-104855628D01*
X82947761Y-104855628D02*
X83043000Y-104569913D01*
X83043000Y-104569913D02*
X83233476Y-104379437D01*
X83233476Y-104379437D02*
X83423952Y-104284199D01*
X83423952Y-104284199D02*
X83804904Y-104188961D01*
X83804904Y-104188961D02*
X84090619Y-104188961D01*
X84090619Y-104188961D02*
X84471571Y-104284199D01*
X84471571Y-104284199D02*
X84662047Y-104379437D01*
X84662047Y-104379437D02*
X84852523Y-104569913D01*
X84852523Y-104569913D02*
X84947761Y-104855628D01*
X84947761Y-104855628D02*
X84947761Y-105046104D01*
X84947761Y-105046104D02*
X84852523Y-105331818D01*
X84852523Y-105331818D02*
X84757285Y-105427056D01*
X82947761Y-106569913D02*
X83043000Y-106379437D01*
X83043000Y-106379437D02*
X83138238Y-106284199D01*
X83138238Y-106284199D02*
X83328714Y-106188961D01*
X83328714Y-106188961D02*
X83900142Y-106188961D01*
X83900142Y-106188961D02*
X84090619Y-106284199D01*
X84090619Y-106284199D02*
X84185857Y-106379437D01*
X84185857Y-106379437D02*
X84281095Y-106569913D01*
X84281095Y-106569913D02*
X84281095Y-106855628D01*
X84281095Y-106855628D02*
X84185857Y-107046104D01*
X84185857Y-107046104D02*
X84090619Y-107141342D01*
X84090619Y-107141342D02*
X83900142Y-107236580D01*
X83900142Y-107236580D02*
X83328714Y-107236580D01*
X83328714Y-107236580D02*
X83138238Y-107141342D01*
X83138238Y-107141342D02*
X83043000Y-107046104D01*
X83043000Y-107046104D02*
X82947761Y-106855628D01*
X82947761Y-106855628D02*
X82947761Y-106569913D01*
X82947761Y-108093723D02*
X84281095Y-108093723D01*
X83900142Y-108093723D02*
X84090619Y-108188961D01*
X84090619Y-108188961D02*
X84185857Y-108284199D01*
X84185857Y-108284199D02*
X84281095Y-108474675D01*
X84281095Y-108474675D02*
X84281095Y-108665152D01*
X84281095Y-109141342D02*
X82947761Y-109617532D01*
X84281095Y-110093723D02*
X82947761Y-109617532D01*
X82947761Y-109617532D02*
X82471571Y-109427056D01*
X82471571Y-109427056D02*
X82376333Y-109331818D01*
X82376333Y-109331818D02*
X82281095Y-109141342D01*
X82947761Y-110855628D02*
X84947761Y-110855628D01*
X84947761Y-110855628D02*
X84947761Y-111331818D01*
X84947761Y-111331818D02*
X84852523Y-111617533D01*
X84852523Y-111617533D02*
X84662047Y-111808009D01*
X84662047Y-111808009D02*
X84471571Y-111903247D01*
X84471571Y-111903247D02*
X84090619Y-111998485D01*
X84090619Y-111998485D02*
X83804904Y-111998485D01*
X83804904Y-111998485D02*
X83423952Y-111903247D01*
X83423952Y-111903247D02*
X83233476Y-111808009D01*
X83233476Y-111808009D02*
X83043000Y-111617533D01*
X83043000Y-111617533D02*
X82947761Y-111331818D01*
X82947761Y-111331818D02*
X82947761Y-110855628D01*
X82947761Y-113141342D02*
X83043000Y-112950866D01*
X83043000Y-112950866D02*
X83138238Y-112855628D01*
X83138238Y-112855628D02*
X83328714Y-112760390D01*
X83328714Y-112760390D02*
X83900142Y-112760390D01*
X83900142Y-112760390D02*
X84090619Y-112855628D01*
X84090619Y-112855628D02*
X84185857Y-112950866D01*
X84185857Y-112950866D02*
X84281095Y-113141342D01*
X84281095Y-113141342D02*
X84281095Y-113427057D01*
X84281095Y-113427057D02*
X84185857Y-113617533D01*
X84185857Y-113617533D02*
X84090619Y-113712771D01*
X84090619Y-113712771D02*
X83900142Y-113808009D01*
X83900142Y-113808009D02*
X83328714Y-113808009D01*
X83328714Y-113808009D02*
X83138238Y-113712771D01*
X83138238Y-113712771D02*
X83043000Y-113617533D01*
X83043000Y-113617533D02*
X82947761Y-113427057D01*
X82947761Y-113427057D02*
X82947761Y-113141342D01*
X82947761Y-114665152D02*
X84281095Y-114665152D01*
X83900142Y-114665152D02*
X84090619Y-114760390D01*
X84090619Y-114760390D02*
X84185857Y-114855628D01*
X84185857Y-114855628D02*
X84281095Y-115046104D01*
X84281095Y-115046104D02*
X84281095Y-115236581D01*
X82947761Y-116760390D02*
X83995380Y-116760390D01*
X83995380Y-116760390D02*
X84185857Y-116665152D01*
X84185857Y-116665152D02*
X84281095Y-116474676D01*
X84281095Y-116474676D02*
X84281095Y-116093723D01*
X84281095Y-116093723D02*
X84185857Y-115903247D01*
X83043000Y-116760390D02*
X82947761Y-116569914D01*
X82947761Y-116569914D02*
X82947761Y-116093723D01*
X82947761Y-116093723D02*
X83043000Y-115903247D01*
X83043000Y-115903247D02*
X83233476Y-115808009D01*
X83233476Y-115808009D02*
X83423952Y-115808009D01*
X83423952Y-115808009D02*
X83614428Y-115903247D01*
X83614428Y-115903247D02*
X83709666Y-116093723D01*
X83709666Y-116093723D02*
X83709666Y-116569914D01*
X83709666Y-116569914D02*
X83804904Y-116760390D01*
X84281095Y-119046105D02*
X82947761Y-119522295D01*
X82947761Y-119522295D02*
X84281095Y-119998486D01*
X82947761Y-121808010D02*
X82947761Y-120665153D01*
X82947761Y-121236581D02*
X84947761Y-121236581D01*
X84947761Y-121236581D02*
X84662047Y-121046105D01*
X84662047Y-121046105D02*
X84471571Y-120855629D01*
X84471571Y-120855629D02*
X84376333Y-120665153D01*
X83138238Y-122665153D02*
X83043000Y-122760391D01*
X83043000Y-122760391D02*
X82947761Y-122665153D01*
X82947761Y-122665153D02*
X83043000Y-122569915D01*
X83043000Y-122569915D02*
X83138238Y-122665153D01*
X83138238Y-122665153D02*
X82947761Y-122665153D01*
X82947761Y-124665153D02*
X82947761Y-123522296D01*
X82947761Y-124093724D02*
X84947761Y-124093724D01*
X84947761Y-124093724D02*
X84662047Y-123903248D01*
X84662047Y-123903248D02*
X84471571Y-123712772D01*
X84471571Y-123712772D02*
X84376333Y-123522296D01*
D12*
G36*
X165781758Y-111173988D02*
G01*
X166182195Y-111207277D01*
X166583286Y-111272550D01*
X166677095Y-111292489D01*
X166807058Y-111324830D01*
X166957429Y-111367960D01*
X167118805Y-111418742D01*
X167281785Y-111474039D01*
X167436967Y-111530713D01*
X167574948Y-111585628D01*
X167638947Y-111613424D01*
X167995118Y-111792096D01*
X168334867Y-111998623D01*
X168656671Y-112231525D01*
X168959009Y-112489323D01*
X169240358Y-112770536D01*
X169499197Y-113073687D01*
X169734004Y-113397294D01*
X169943257Y-113739879D01*
X170064524Y-113971378D01*
X170177649Y-114214384D01*
X170272384Y-114447423D01*
X170351380Y-114679062D01*
X170417289Y-114917866D01*
X170472761Y-115172403D01*
X170518432Y-115438053D01*
X170534765Y-115568609D01*
X170547898Y-115722176D01*
X170557592Y-115890299D01*
X170563607Y-116064523D01*
X170565706Y-116236391D01*
X170563651Y-116397449D01*
X170557201Y-116539241D01*
X170551451Y-116608369D01*
X170500149Y-116977915D01*
X170422419Y-117345528D01*
X170319831Y-117706815D01*
X170193957Y-118057385D01*
X170046368Y-118392846D01*
X169878635Y-118708806D01*
X169698925Y-118991421D01*
X169548655Y-119193404D01*
X169376890Y-119399998D01*
X169191071Y-119603229D01*
X168998638Y-119795120D01*
X168807031Y-119967697D01*
X168724698Y-120035622D01*
X168428135Y-120255178D01*
X168112547Y-120455694D01*
X167783282Y-120634463D01*
X167445690Y-120788780D01*
X167105117Y-120915939D01*
X166816932Y-121000741D01*
X166693208Y-121031949D01*
X166585173Y-121057538D01*
X166487460Y-121078100D01*
X166394699Y-121094223D01*
X166301519Y-121106496D01*
X166202552Y-121115510D01*
X166092427Y-121121853D01*
X165965775Y-121126116D01*
X165817227Y-121128888D01*
X165641412Y-121130757D01*
X165631952Y-121130836D01*
X165490832Y-121131607D01*
X165355305Y-121131594D01*
X165230105Y-121130853D01*
X165119963Y-121129441D01*
X165029613Y-121127415D01*
X164963785Y-121124831D01*
X164932794Y-121122497D01*
X164754103Y-121095637D01*
X164554152Y-121054353D01*
X164340174Y-121000680D01*
X164119399Y-120936651D01*
X163899058Y-120864300D01*
X163686381Y-120785661D01*
X163576398Y-120740932D01*
X163230406Y-120577463D01*
X162898540Y-120385299D01*
X162582311Y-120166134D01*
X162283232Y-119921660D01*
X162002816Y-119653571D01*
X161742573Y-119363559D01*
X161504018Y-119053318D01*
X161288663Y-118724542D01*
X161098019Y-118378922D01*
X160933600Y-118018153D01*
X160901382Y-117929942D01*
X161922581Y-117929942D01*
X161930134Y-117984087D01*
X161961256Y-118033575D01*
X161968187Y-118041389D01*
X162003393Y-118070850D01*
X162040549Y-118080448D01*
X162083807Y-118068742D01*
X162137324Y-118034288D01*
X162205251Y-117975646D01*
X162232764Y-117949559D01*
X162320334Y-117867614D01*
X162390470Y-117808561D01*
X162447193Y-117770348D01*
X162494523Y-117750926D01*
X162536483Y-117748243D01*
X162577092Y-117760247D01*
X162590693Y-117766981D01*
X162623041Y-117795326D01*
X162665544Y-117848745D01*
X162715369Y-117922082D01*
X162769684Y-118010183D01*
X162825657Y-118107892D01*
X162880454Y-118210052D01*
X162931243Y-118311510D01*
X162975192Y-118407108D01*
X163009467Y-118491693D01*
X163031237Y-118560107D01*
X163034539Y-118574808D01*
X163050140Y-118636191D01*
X163070016Y-118691721D01*
X163082038Y-118715956D01*
X163118823Y-118756246D01*
X163171505Y-118791979D01*
X163226112Y-118814741D01*
X163252613Y-118818688D01*
X163300156Y-118810403D01*
X163367093Y-118787778D01*
X163445075Y-118754158D01*
X163525753Y-118712889D01*
X163547401Y-118700585D01*
X163606651Y-118669384D01*
X163658241Y-118648116D01*
X163692806Y-118640566D01*
X163695458Y-118640775D01*
X163715093Y-118650097D01*
X163737929Y-118675421D01*
X163766780Y-118720878D01*
X163804457Y-118790595D01*
X163825198Y-118831294D01*
X163867553Y-118919704D01*
X163909540Y-119014689D01*
X163945679Y-119103472D01*
X163966321Y-119160310D01*
X163991756Y-119232385D01*
X164014030Y-119281547D01*
X164038446Y-119316677D01*
X164070306Y-119346655D01*
X164084037Y-119357451D01*
X164147014Y-119396893D01*
X164203530Y-119409773D01*
X164261313Y-119395749D01*
X164328092Y-119354480D01*
X164339047Y-119346163D01*
X164375786Y-119314174D01*
X164429658Y-119262513D01*
X164495855Y-119196026D01*
X164569570Y-119119559D01*
X164645996Y-119037958D01*
X164661356Y-119021260D01*
X164777831Y-118894361D01*
X164874606Y-118789511D01*
X164954167Y-118704462D01*
X165018998Y-118636966D01*
X165071583Y-118584775D01*
X165114408Y-118545639D01*
X165149957Y-118517310D01*
X165180715Y-118497541D01*
X165209166Y-118484082D01*
X165237795Y-118474685D01*
X165269087Y-118467102D01*
X165275232Y-118465748D01*
X165304213Y-118453901D01*
X165327604Y-118429759D01*
X165346840Y-118389225D01*
X165363356Y-118328200D01*
X165378586Y-118242587D01*
X165393966Y-118128288D01*
X165394267Y-118125823D01*
X165407884Y-118028002D01*
X165424783Y-117926715D01*
X165442762Y-117834244D01*
X165458810Y-117765846D01*
X165480770Y-117683110D01*
X165503751Y-117594688D01*
X165519358Y-117533246D01*
X166394730Y-117533246D01*
X166403440Y-117560939D01*
X166420044Y-117594153D01*
X166422267Y-117598376D01*
X166456673Y-117653107D01*
X166503356Y-117714325D01*
X166539054Y-117754700D01*
X166595109Y-117805280D01*
X166642851Y-117829212D01*
X166684658Y-117825313D01*
X166722904Y-117792402D01*
X166759965Y-117729293D01*
X166798216Y-117634804D01*
X166802181Y-117623634D01*
X166821653Y-117561422D01*
X166843262Y-117481882D01*
X166862991Y-117400004D01*
X166866910Y-117382091D01*
X166888875Y-117290545D01*
X166914364Y-117202198D01*
X166941285Y-117122670D01*
X166967547Y-117057577D01*
X166991055Y-117012539D01*
X167009720Y-116993173D01*
X167011876Y-116992830D01*
X167037863Y-116997279D01*
X167068850Y-117012401D01*
X167106985Y-117040292D01*
X167154416Y-117083045D01*
X167213293Y-117142756D01*
X167285765Y-117221519D01*
X167373979Y-117321429D01*
X167480085Y-117444580D01*
X167503750Y-117472310D01*
X167654305Y-117638994D01*
X167796484Y-117775345D01*
X167931908Y-117882376D01*
X168062199Y-117961099D01*
X168188978Y-118012526D01*
X168313868Y-118037670D01*
X168412133Y-118039624D01*
X168484154Y-118032151D01*
X168553415Y-118019545D01*
X168603925Y-118004877D01*
X168664339Y-117967889D01*
X168695338Y-117919413D01*
X168697085Y-117862369D01*
X168669744Y-117799675D01*
X168613479Y-117734250D01*
X168587451Y-117711627D01*
X168508270Y-117650282D01*
X168441250Y-117607508D01*
X168375656Y-117578246D01*
X168300756Y-117557439D01*
X168232756Y-117544464D01*
X168059449Y-117503881D01*
X167900718Y-117442257D01*
X167753056Y-117357223D01*
X167612958Y-117246409D01*
X167476920Y-117107447D01*
X167418391Y-117034516D01*
X167865148Y-117034516D01*
X167876607Y-117042004D01*
X167893049Y-117035560D01*
X167931202Y-117018611D01*
X167983043Y-116994726D01*
X167986750Y-116992992D01*
X168055876Y-116964371D01*
X168128611Y-116940005D01*
X168178224Y-116927531D01*
X168274004Y-116901887D01*
X168340424Y-116865771D01*
X168379942Y-116817096D01*
X168395014Y-116753775D01*
X168395317Y-116743059D01*
X168390783Y-116701162D01*
X168371990Y-116667092D01*
X168332061Y-116628454D01*
X168331415Y-116627904D01*
X168269056Y-116579496D01*
X168200548Y-116533796D01*
X168134322Y-116495757D01*
X168078810Y-116470335D01*
X168050216Y-116462627D01*
X168030229Y-116461766D01*
X168017539Y-116468856D01*
X168009826Y-116490173D01*
X168004769Y-116531992D01*
X168000222Y-116597833D01*
X167993682Y-116672273D01*
X167982515Y-116731457D01*
X167962931Y-116788947D01*
X167931135Y-116858309D01*
X167922534Y-116875688D01*
X167886037Y-116953450D01*
X167867091Y-117005728D01*
X167865148Y-117034516D01*
X167418391Y-117034516D01*
X167347437Y-116946104D01*
X167289608Y-116869248D01*
X167245194Y-116814281D01*
X167208980Y-116775976D01*
X167175750Y-116749104D01*
X167140289Y-116728438D01*
X167121137Y-116719276D01*
X167069149Y-116697919D01*
X167025469Y-116688066D01*
X166986516Y-116692300D01*
X166948712Y-116713201D01*
X166908478Y-116753352D01*
X166862235Y-116815335D01*
X166806403Y-116901730D01*
X166757684Y-116981450D01*
X166703029Y-117067354D01*
X166637643Y-117163306D01*
X166571985Y-117254183D01*
X166541521Y-117294015D01*
X166479933Y-117372781D01*
X166436515Y-117430842D01*
X166409213Y-117473443D01*
X166395969Y-117505829D01*
X166394730Y-117533246D01*
X165519358Y-117533246D01*
X165523167Y-117518249D01*
X165525007Y-117510851D01*
X165545125Y-117436646D01*
X165568500Y-117360374D01*
X165586466Y-117308458D01*
X165619369Y-117221220D01*
X165582669Y-117069922D01*
X165569516Y-117009620D01*
X165559012Y-116945702D01*
X165550604Y-116872304D01*
X165543740Y-116783565D01*
X165537868Y-116673623D01*
X165532459Y-116537302D01*
X165525549Y-116372749D01*
X165524798Y-116360772D01*
X167510896Y-116360772D01*
X167512390Y-116376717D01*
X167512706Y-116377832D01*
X167519047Y-116403910D01*
X167530522Y-116454679D01*
X167545509Y-116522630D01*
X167562386Y-116600253D01*
X167579529Y-116680039D01*
X167595315Y-116754478D01*
X167608122Y-116816063D01*
X167616327Y-116857282D01*
X167616384Y-116857581D01*
X167622649Y-116881717D01*
X167635086Y-116886035D01*
X167663578Y-116871943D01*
X167674198Y-116865807D01*
X167715514Y-116834851D01*
X167760993Y-116790818D01*
X167778668Y-116770566D01*
X167832768Y-116695168D01*
X167873907Y-116619674D01*
X167897832Y-116552715D01*
X167902159Y-116519710D01*
X167897522Y-116490988D01*
X167879411Y-116465773D01*
X167841528Y-116437091D01*
X167809237Y-116416862D01*
X167741524Y-116380915D01*
X167678608Y-116361720D01*
X167610076Y-116353780D01*
X167553100Y-116350943D01*
X167522253Y-116352727D01*
X167510896Y-116360772D01*
X165524798Y-116360772D01*
X165516774Y-116232829D01*
X165504976Y-116109279D01*
X165488996Y-115993837D01*
X165476917Y-115928356D01*
X165895165Y-115928356D01*
X165909017Y-115985980D01*
X165945583Y-116047762D01*
X165997373Y-116106064D01*
X166056897Y-116153248D01*
X166116667Y-116181678D01*
X166148348Y-116186564D01*
X166199468Y-116171370D01*
X166256598Y-116128148D01*
X166316467Y-116060433D01*
X166375803Y-115971759D01*
X166416275Y-115897086D01*
X166465811Y-115786916D01*
X166494269Y-115695846D01*
X166502437Y-115618393D01*
X166491108Y-115549075D01*
X166472900Y-115504249D01*
X166451522Y-115448593D01*
X166451204Y-115401016D01*
X166474124Y-115353297D01*
X166522463Y-115297219D01*
X166529733Y-115289879D01*
X166582426Y-115240987D01*
X166640315Y-115193300D01*
X166697415Y-115151011D01*
X166747739Y-115118308D01*
X166785300Y-115099384D01*
X166803773Y-115098048D01*
X166813446Y-115123387D01*
X166822256Y-115174999D01*
X166829873Y-115246259D01*
X166835967Y-115330542D01*
X166840208Y-115421223D01*
X166842268Y-115511678D01*
X166841817Y-115595281D01*
X166838524Y-115665408D01*
X166833980Y-115705248D01*
X166825659Y-115765520D01*
X166822046Y-115813445D01*
X166823816Y-115839539D01*
X166824349Y-115840638D01*
X166831554Y-115863337D01*
X166842190Y-115910034D01*
X166854396Y-115972253D01*
X166859356Y-115999905D01*
X166880118Y-116102067D01*
X166903247Y-116175569D01*
X166931744Y-116224647D01*
X166968609Y-116253534D01*
X167016845Y-116266468D01*
X167049569Y-116268317D01*
X167117033Y-116254458D01*
X167160315Y-116226478D01*
X167199530Y-116182775D01*
X167225160Y-116127337D01*
X167236936Y-116057763D01*
X167234589Y-115971650D01*
X167217849Y-115866596D01*
X167186447Y-115740200D01*
X167140114Y-115590059D01*
X167078579Y-115413772D01*
X167065003Y-115376732D01*
X167039578Y-115291815D01*
X167017927Y-115190508D01*
X167002986Y-115088864D01*
X166997692Y-115008825D01*
X166999723Y-114980453D01*
X167011090Y-114961734D01*
X167039034Y-114946775D01*
X167090793Y-114929683D01*
X167097362Y-114927688D01*
X167154926Y-114911888D01*
X167189019Y-114907508D01*
X167206802Y-114913966D01*
X167210382Y-114918487D01*
X167216205Y-114942256D01*
X167222655Y-114991851D01*
X167228982Y-115060225D01*
X167234432Y-115140331D01*
X167234843Y-115147681D01*
X167245142Y-115289433D01*
X167260261Y-115409367D01*
X167282305Y-115518453D01*
X167313378Y-115627661D01*
X167343928Y-115716397D01*
X167390764Y-115826646D01*
X167442987Y-115909902D01*
X167505390Y-115972069D01*
X167582766Y-116019051D01*
X167593845Y-116024202D01*
X167628534Y-116038814D01*
X167661943Y-116049252D01*
X167700438Y-116056211D01*
X167750382Y-116060384D01*
X167818140Y-116062464D01*
X167910076Y-116063146D01*
X167951512Y-116063183D01*
X168079542Y-116061575D01*
X168179932Y-116055916D01*
X168257827Y-116044951D01*
X168318370Y-116027426D01*
X168366703Y-116002085D01*
X168407971Y-115967676D01*
X168427125Y-115947175D01*
X168455002Y-115911650D01*
X168476227Y-115873537D01*
X168491515Y-115828107D01*
X168501578Y-115770630D01*
X168507130Y-115696378D01*
X168508885Y-115600622D01*
X168507555Y-115478633D01*
X168506333Y-115422024D01*
X168503064Y-115302943D01*
X168499213Y-115210941D01*
X168494208Y-115140197D01*
X168487474Y-115084887D01*
X168478440Y-115039191D01*
X168466532Y-114997285D01*
X168463653Y-114988545D01*
X168434848Y-114910599D01*
X168409789Y-114858498D01*
X168389687Y-114834223D01*
X168375752Y-114839758D01*
X168374557Y-114842505D01*
X168367915Y-114870528D01*
X168359850Y-114919240D01*
X168354056Y-114962514D01*
X168345517Y-115019331D01*
X168335680Y-115064935D01*
X168328980Y-115084361D01*
X168314719Y-115099206D01*
X168305140Y-115085870D01*
X168300717Y-115048804D01*
X168301927Y-114992460D01*
X168309245Y-114921287D01*
X168310553Y-114911981D01*
X168323001Y-114818296D01*
X168329030Y-114755458D01*
X168328950Y-114723767D01*
X168323072Y-114723527D01*
X168311705Y-114755041D01*
X168295159Y-114818611D01*
X168280576Y-114882736D01*
X168264737Y-114966405D01*
X168249310Y-115066851D01*
X168236642Y-115168010D01*
X168231959Y-115215193D01*
X168222487Y-115300981D01*
X168209859Y-115385201D01*
X168195993Y-115456108D01*
X168187064Y-115490009D01*
X168171533Y-115541768D01*
X168166482Y-115571655D01*
X168171986Y-115589014D01*
X168187988Y-115603089D01*
X168208572Y-115634263D01*
X168200657Y-115672116D01*
X168166267Y-115711040D01*
X168143339Y-115727015D01*
X168106123Y-115747860D01*
X168081288Y-115758451D01*
X168079005Y-115758782D01*
X168067051Y-115747436D01*
X168070935Y-115722043D01*
X168088164Y-115695880D01*
X168091343Y-115693040D01*
X168112177Y-115656048D01*
X168112957Y-115603001D01*
X168094522Y-115543260D01*
X168074787Y-115508393D01*
X168002506Y-115429797D01*
X167906560Y-115367569D01*
X167793184Y-115324347D01*
X167668615Y-115302772D01*
X167586071Y-115301534D01*
X167482665Y-115306447D01*
X167483459Y-115380765D01*
X167493517Y-115450722D01*
X167518842Y-115523943D01*
X167554227Y-115588980D01*
X167594467Y-115634385D01*
X167600901Y-115638994D01*
X167640104Y-115656540D01*
X167696613Y-115672710D01*
X167733958Y-115680019D01*
X167798585Y-115694203D01*
X167844306Y-115711843D01*
X167868518Y-115730014D01*
X167868622Y-115745791D01*
X167842013Y-115756249D01*
X167804072Y-115758843D01*
X167713240Y-115745075D01*
X167616222Y-115707414D01*
X167521686Y-115651324D01*
X167438299Y-115582271D01*
X167374729Y-115505718D01*
X167358712Y-115478060D01*
X167332239Y-115414947D01*
X167327900Y-115367164D01*
X167348191Y-115331185D01*
X167395608Y-115303480D01*
X167472648Y-115280523D01*
X167503296Y-115273743D01*
X167633967Y-115245645D01*
X167735718Y-115221620D01*
X167812050Y-115200135D01*
X167866463Y-115179655D01*
X167902459Y-115158648D01*
X167923537Y-115135578D01*
X167933199Y-115108913D01*
X167935061Y-115084566D01*
X167927007Y-115048522D01*
X167899509Y-115009797D01*
X167858716Y-114970604D01*
X167816433Y-114935257D01*
X167783246Y-114910915D01*
X167768237Y-114903403D01*
X167751520Y-114897380D01*
X167762255Y-114880936D01*
X167797609Y-114856507D01*
X167854750Y-114826529D01*
X167861128Y-114823519D01*
X167930683Y-114785798D01*
X167973475Y-114747116D01*
X167995027Y-114700179D01*
X168000864Y-114638977D01*
X167993238Y-114603436D01*
X167967902Y-114560433D01*
X167921167Y-114503981D01*
X167910385Y-114492133D01*
X167860856Y-114435348D01*
X167832582Y-114392233D01*
X167822625Y-114354156D01*
X167828050Y-114312486D01*
X167838227Y-114279978D01*
X167846189Y-114244136D01*
X167839648Y-114213603D01*
X167814755Y-114183989D01*
X167767660Y-114150908D01*
X167694515Y-114109968D01*
X167684467Y-114104667D01*
X167624472Y-114074134D01*
X167580497Y-114056690D01*
X167539707Y-114049615D01*
X167489267Y-114050190D01*
X167443164Y-114053542D01*
X167381004Y-114058045D01*
X167346775Y-114058581D01*
X167335656Y-114054318D01*
X167342826Y-114044426D01*
X167351058Y-114037661D01*
X167402917Y-114005747D01*
X167474961Y-113972762D01*
X167555070Y-113943859D01*
X167603899Y-113930146D01*
X167684114Y-113906568D01*
X167736797Y-113880272D01*
X167767307Y-113847784D01*
X167779011Y-113816591D01*
X167781146Y-113771139D01*
X167759651Y-113733306D01*
X167753743Y-113726790D01*
X167721688Y-113702111D01*
X167672829Y-113674616D01*
X167616150Y-113648141D01*
X167560632Y-113626522D01*
X167515258Y-113613597D01*
X167489011Y-113613203D01*
X167488503Y-113613492D01*
X167471609Y-113631967D01*
X167443862Y-113670115D01*
X167413217Y-113716649D01*
X167370148Y-113784539D01*
X167339484Y-113827330D01*
X167315440Y-113847340D01*
X167292231Y-113846886D01*
X167264073Y-113828285D01*
X167225180Y-113793855D01*
X167223732Y-113792552D01*
X167177831Y-113754848D01*
X167137944Y-113728304D01*
X167113964Y-113718947D01*
X167085460Y-113727395D01*
X167041055Y-113749204D01*
X167004700Y-113770723D01*
X166870070Y-113847129D01*
X166712247Y-113920936D01*
X166540892Y-113987759D01*
X166481897Y-114007901D01*
X166407286Y-114033615D01*
X166343008Y-114057925D01*
X166296289Y-114077959D01*
X166275054Y-114090121D01*
X166264234Y-114121272D01*
X166273276Y-114169263D01*
X166299197Y-114227259D01*
X166339015Y-114288420D01*
X166384284Y-114340539D01*
X166433971Y-114384035D01*
X166477840Y-114403909D01*
X166524427Y-114400564D01*
X166582266Y-114374398D01*
X166620078Y-114351621D01*
X166660370Y-114327957D01*
X166687637Y-114315261D01*
X166693776Y-114314665D01*
X166698446Y-114332043D01*
X166707544Y-114376243D01*
X166719989Y-114441647D01*
X166734700Y-114522639D01*
X166744452Y-114578024D01*
X166761240Y-114676808D01*
X166772154Y-114748398D01*
X166777579Y-114797904D01*
X166777900Y-114830433D01*
X166773500Y-114851093D01*
X166765958Y-114863599D01*
X166732685Y-114895489D01*
X166682757Y-114934084D01*
X166624291Y-114974158D01*
X166565408Y-115010484D01*
X166514227Y-115037837D01*
X166478868Y-115050991D01*
X166474102Y-115051460D01*
X166433070Y-115051460D01*
X166443811Y-114891065D01*
X166449691Y-114812271D01*
X166456327Y-114737307D01*
X166462629Y-114678025D01*
X166465055Y-114659693D01*
X166469176Y-114624650D01*
X166466383Y-114597975D01*
X166452505Y-114571927D01*
X166423372Y-114538764D01*
X166374813Y-114490745D01*
X166373176Y-114489152D01*
X166318805Y-114439633D01*
X166279032Y-114410484D01*
X166256954Y-114403921D01*
X166255393Y-114404988D01*
X166246270Y-114427108D01*
X166234488Y-114473780D01*
X166221932Y-114536969D01*
X166215428Y-114575529D01*
X166186024Y-114729887D01*
X166147444Y-114870472D01*
X166095345Y-115011192D01*
X166041570Y-115132028D01*
X166009716Y-115200214D01*
X165983803Y-115256800D01*
X165966634Y-115295593D01*
X165960968Y-115310256D01*
X165972432Y-115305283D01*
X166001727Y-115284680D01*
X166024343Y-115267243D01*
X166071330Y-115233979D01*
X166128376Y-115199127D01*
X166186437Y-115167568D01*
X166236470Y-115144181D01*
X166269433Y-115133845D01*
X166271809Y-115133714D01*
X166285758Y-115147704D01*
X166289983Y-115172491D01*
X166279235Y-115199738D01*
X166251589Y-115240398D01*
X166213943Y-115286619D01*
X166173193Y-115330550D01*
X166136238Y-115364341D01*
X166109975Y-115380141D01*
X166107253Y-115380475D01*
X166089904Y-115393277D01*
X166075292Y-115414929D01*
X166066385Y-115444397D01*
X166079414Y-115472343D01*
X166092789Y-115487635D01*
X166135016Y-115522501D01*
X166175271Y-115545167D01*
X166217146Y-115570650D01*
X166232018Y-115605127D01*
X166222002Y-115655332D01*
X166215282Y-115672511D01*
X166162159Y-115768610D01*
X166095267Y-115838250D01*
X166017130Y-115879396D01*
X165945045Y-115890450D01*
X165909302Y-115894983D01*
X165896214Y-115913432D01*
X165895165Y-115928356D01*
X165476917Y-115928356D01*
X165467673Y-115878243D01*
X165439849Y-115754234D01*
X165404364Y-115613548D01*
X165401083Y-115601033D01*
X165366691Y-115461329D01*
X165344804Y-115346301D01*
X165335932Y-115249988D01*
X165340586Y-115166430D01*
X165359273Y-115089665D01*
X165392504Y-115013734D01*
X165440788Y-114932676D01*
X165460762Y-114902833D01*
X165540593Y-114785997D01*
X165493238Y-114698456D01*
X165460003Y-114623567D01*
X165449838Y-114556955D01*
X165462549Y-114487056D01*
X165488608Y-114421972D01*
X165522006Y-114358349D01*
X165572387Y-114273641D01*
X165636411Y-114172636D01*
X165710736Y-114060122D01*
X165792023Y-113940887D01*
X165876932Y-113819721D01*
X165962120Y-113701411D01*
X166044250Y-113590746D01*
X166119979Y-113492514D01*
X166185967Y-113411504D01*
X166222752Y-113369589D01*
X166270066Y-113323414D01*
X166331922Y-113270459D01*
X166400642Y-113216511D01*
X166468549Y-113167353D01*
X166527966Y-113128772D01*
X166571214Y-113106551D01*
X166572421Y-113106112D01*
X166591746Y-113095403D01*
X166585405Y-113088728D01*
X166560523Y-113087413D01*
X166524224Y-113092785D01*
X166514333Y-113095292D01*
X166458710Y-113108035D01*
X166429190Y-113106201D01*
X166424441Y-113086944D01*
X166443133Y-113047419D01*
X166471349Y-113003338D01*
X166507315Y-112943627D01*
X166527333Y-112896887D01*
X166529854Y-112873416D01*
X166532244Y-112840123D01*
X166547498Y-112793889D01*
X166555598Y-112776545D01*
X166577148Y-112721697D01*
X166576291Y-112682691D01*
X166574563Y-112678333D01*
X166565291Y-112664215D01*
X166552012Y-112664243D01*
X166529580Y-112681589D01*
X166492849Y-112719424D01*
X166473184Y-112740804D01*
X166436381Y-112783487D01*
X166384608Y-112846866D01*
X166322440Y-112925168D01*
X166254453Y-113012621D01*
X166185221Y-113103453D01*
X166174612Y-113117544D01*
X166091149Y-113225022D01*
X165993584Y-113344938D01*
X165890720Y-113466815D01*
X165791363Y-113580176D01*
X165724078Y-113653693D01*
X165647095Y-113737524D01*
X165573137Y-113821368D01*
X165507031Y-113899504D01*
X165453604Y-113966209D01*
X165417683Y-114015763D01*
X165414664Y-114020467D01*
X165351180Y-114120960D01*
X165301931Y-114197219D01*
X165263996Y-114253082D01*
X165234450Y-114292389D01*
X165210370Y-114318976D01*
X165188833Y-114336684D01*
X165166915Y-114349349D01*
X165162586Y-114351445D01*
X165106009Y-114394871D01*
X165071603Y-114449507D01*
X165038520Y-114506831D01*
X164999291Y-114555834D01*
X164960203Y-114590216D01*
X164927544Y-114603676D01*
X164919037Y-114602374D01*
X164900338Y-114582428D01*
X164879245Y-114541772D01*
X164868662Y-114513870D01*
X164829114Y-114417217D01*
X164783939Y-114350112D01*
X164730896Y-114309377D01*
X164721239Y-114304973D01*
X164675958Y-114276204D01*
X164648622Y-114229909D01*
X164644563Y-114218175D01*
X164621453Y-114158447D01*
X164597480Y-114125657D01*
X164568052Y-114114051D01*
X164561210Y-114113766D01*
X164530881Y-114103405D01*
X164490490Y-114077355D01*
X164474686Y-114064413D01*
X164436196Y-114034498D01*
X164405098Y-114016968D01*
X164397032Y-114015061D01*
X164370747Y-114004580D01*
X164337600Y-113979373D01*
X164337514Y-113979292D01*
X164299439Y-113943523D01*
X164299439Y-113979292D01*
X164286777Y-114006076D01*
X164254456Y-114015739D01*
X164210980Y-114008179D01*
X164164850Y-113983293D01*
X164161826Y-113980965D01*
X164118481Y-113946870D01*
X164118481Y-114004319D01*
X164116172Y-114038739D01*
X164103925Y-114059856D01*
X164073761Y-114075927D01*
X164036716Y-114088927D01*
X163965200Y-114122364D01*
X163894582Y-114171772D01*
X163833103Y-114229766D01*
X163789003Y-114288963D01*
X163773511Y-114324772D01*
X163752607Y-114382277D01*
X163725233Y-114436819D01*
X163724732Y-114437638D01*
X163692497Y-114490073D01*
X163728643Y-114495216D01*
X163760396Y-114512507D01*
X163768766Y-114550008D01*
X163753669Y-114604698D01*
X163732937Y-114645141D01*
X163690736Y-114717152D01*
X163731005Y-114735500D01*
X163770297Y-114763284D01*
X163798712Y-114795724D01*
X163833746Y-114829010D01*
X163878789Y-114837600D01*
X163917216Y-114843058D01*
X163942564Y-114865402D01*
X163958724Y-114894840D01*
X163969746Y-114917647D01*
X163981092Y-114933864D01*
X163998088Y-114944669D01*
X164026059Y-114951238D01*
X164070331Y-114954748D01*
X164136230Y-114956377D01*
X164229080Y-114957301D01*
X164241861Y-114957416D01*
X164310016Y-114960101D01*
X164351687Y-114969076D01*
X164373191Y-114988025D01*
X164380842Y-115020631D01*
X164381441Y-115038808D01*
X164373508Y-115075415D01*
X164343568Y-115093255D01*
X164339919Y-115094219D01*
X164299807Y-115116828D01*
X164257846Y-115159270D01*
X164223688Y-115210551D01*
X164210890Y-115241197D01*
X164189965Y-115273164D01*
X164155233Y-115301556D01*
X164117136Y-115327669D01*
X164068085Y-115365917D01*
X164035943Y-115393049D01*
X163970905Y-115446625D01*
X163922708Y-115477539D01*
X163886772Y-115488104D01*
X163860298Y-115481668D01*
X163846605Y-115469539D01*
X163851359Y-115452881D01*
X163877611Y-115424516D01*
X163889305Y-115413428D01*
X163945747Y-115360542D01*
X163863494Y-115371886D01*
X163800022Y-115385934D01*
X163720685Y-115411300D01*
X163632602Y-115444821D01*
X163542895Y-115483329D01*
X163458684Y-115523660D01*
X163387091Y-115562648D01*
X163335236Y-115597128D01*
X163315636Y-115615439D01*
X163304016Y-115639377D01*
X163285329Y-115688901D01*
X163261499Y-115757949D01*
X163234449Y-115840456D01*
X163206103Y-115930362D01*
X163178384Y-116021601D01*
X163153216Y-116108111D01*
X163132522Y-116183830D01*
X163122227Y-116225045D01*
X163106946Y-116299387D01*
X163102956Y-116346283D01*
X163109753Y-116368872D01*
X163126594Y-116373697D01*
X163159111Y-116367919D01*
X163209704Y-116350566D01*
X163280772Y-116320666D01*
X163374715Y-116277249D01*
X163493932Y-116219342D01*
X163559019Y-116187024D01*
X163781240Y-116076095D01*
X163863494Y-116105378D01*
X163942447Y-116128684D01*
X164005703Y-116134249D01*
X164065029Y-116122443D01*
X164091267Y-116112535D01*
X164141520Y-116095994D01*
X164186767Y-116087995D01*
X164191408Y-116087859D01*
X164237590Y-116101850D01*
X164289376Y-116139322D01*
X164339387Y-116193528D01*
X164380246Y-116257717D01*
X164382827Y-116262935D01*
X164402372Y-116309509D01*
X164411813Y-116353797D01*
X164412963Y-116408822D01*
X164410003Y-116458121D01*
X164402300Y-116532805D01*
X164389267Y-116589265D01*
X164366071Y-116639918D01*
X164327876Y-116697184D01*
X164305061Y-116727692D01*
X164274374Y-116772165D01*
X164254419Y-116808998D01*
X164250087Y-116824029D01*
X164259739Y-116850232D01*
X164284296Y-116889909D01*
X164301279Y-116912721D01*
X164352471Y-116977356D01*
X164268249Y-117066408D01*
X164194639Y-117160271D01*
X164122215Y-117285241D01*
X164102540Y-117324930D01*
X164020968Y-117473239D01*
X163928525Y-117604414D01*
X163915127Y-117620729D01*
X163857475Y-117693572D01*
X163820778Y-117750726D01*
X163801337Y-117798290D01*
X163797864Y-117814166D01*
X163779733Y-117869385D01*
X163743675Y-117940718D01*
X163694568Y-118020561D01*
X163637291Y-118101315D01*
X163576722Y-118175377D01*
X163542970Y-118211309D01*
X163486903Y-118261590D01*
X163440041Y-118287519D01*
X163398349Y-118287772D01*
X163357790Y-118261025D01*
X163314326Y-118205956D01*
X163263922Y-118121241D01*
X163262978Y-118119530D01*
X163224376Y-118060896D01*
X163165656Y-117989511D01*
X163084663Y-117902919D01*
X162995213Y-117814083D01*
X162918221Y-117738905D01*
X162861972Y-117682110D01*
X162823161Y-117639626D01*
X162798481Y-117607383D01*
X162784626Y-117581312D01*
X162778288Y-117557342D01*
X162776946Y-117545380D01*
X162762699Y-117475232D01*
X162733373Y-117400703D01*
X162693442Y-117328474D01*
X162647381Y-117265227D01*
X162599666Y-117217643D01*
X162554770Y-117192405D01*
X162538979Y-117190061D01*
X162492225Y-117203330D01*
X162432055Y-117240247D01*
X162362361Y-117296483D01*
X162287035Y-117367705D01*
X162209968Y-117449582D01*
X162135054Y-117537781D01*
X162066183Y-117627972D01*
X162007249Y-117715823D01*
X161962143Y-117797001D01*
X161936720Y-117860336D01*
X161922581Y-117929942D01*
X160901382Y-117929942D01*
X160796917Y-117643928D01*
X160789654Y-117621154D01*
X160720688Y-117379084D01*
X160667403Y-117135959D01*
X160628869Y-116885099D01*
X160604155Y-116619821D01*
X160592330Y-116333444D01*
X160590964Y-116194789D01*
X160591594Y-116031882D01*
X160594443Y-115892738D01*
X160600325Y-115769166D01*
X160610056Y-115652973D01*
X160624453Y-115535967D01*
X160644331Y-115409954D01*
X160670507Y-115266744D01*
X160696645Y-115133714D01*
X160790607Y-114741626D01*
X160912084Y-114366920D01*
X161061428Y-114009022D01*
X161238991Y-113667362D01*
X161445128Y-113341366D01*
X161680189Y-113030461D01*
X161944530Y-112734077D01*
X162238502Y-112451641D01*
X162473403Y-112252824D01*
X162795367Y-112014848D01*
X163132503Y-111805537D01*
X163483198Y-111625262D01*
X163845838Y-111474391D01*
X164218810Y-111353292D01*
X164600501Y-111262333D01*
X164989298Y-111201884D01*
X165383588Y-111172313D01*
X165781758Y-111173988D01*
G37*
G36*
X167063823Y-113924985D02*
G01*
X167074330Y-113945301D01*
X167083997Y-113985919D01*
X167086572Y-114003106D01*
X167107886Y-114164075D01*
X167127281Y-114295502D01*
X167145475Y-114400642D01*
X167163182Y-114482748D01*
X167181121Y-114545076D01*
X167200008Y-114590878D01*
X167220558Y-114623410D01*
X167224080Y-114627637D01*
X167250358Y-114649391D01*
X167296358Y-114679905D01*
X167352541Y-114712888D01*
X167357526Y-114715629D01*
X167430229Y-114756787D01*
X167478228Y-114788857D01*
X167506499Y-114816945D01*
X167520018Y-114846159D01*
X167523763Y-114881608D01*
X167523791Y-114886281D01*
X167514520Y-114938445D01*
X167485609Y-115003572D01*
X167435412Y-115084737D01*
X167367729Y-115177905D01*
X167334865Y-115217664D01*
X167315002Y-115232172D01*
X167304053Y-115224290D01*
X167303482Y-115222888D01*
X167293513Y-115160969D01*
X167301878Y-115087604D01*
X167326382Y-115018558D01*
X167353658Y-114948922D01*
X167355750Y-114888487D01*
X167331470Y-114827855D01*
X167295867Y-114777387D01*
X167256220Y-114729534D01*
X167219721Y-114688679D01*
X167200150Y-114669133D01*
X167177748Y-114652360D01*
X167157756Y-114652077D01*
X167128165Y-114669908D01*
X167113054Y-114680925D01*
X167075871Y-114704203D01*
X167049044Y-114713601D01*
X167044264Y-114712702D01*
X167037596Y-114693239D01*
X167032635Y-114649563D01*
X167030284Y-114590351D01*
X167030207Y-114577529D01*
X167025104Y-114485996D01*
X167006721Y-114417603D01*
X166970295Y-114363711D01*
X166911059Y-114315679D01*
X166872704Y-114291923D01*
X166807290Y-114251280D01*
X166769463Y-114219272D01*
X166756990Y-114190629D01*
X166767639Y-114160082D01*
X166799178Y-114122361D01*
X166800357Y-114121133D01*
X166845210Y-114078209D01*
X166898182Y-114032990D01*
X166952861Y-113990248D01*
X167002835Y-113954758D01*
X167041693Y-113931292D01*
X167063023Y-113924624D01*
X167063823Y-113924985D01*
G37*
G36*
X164377464Y-118348354D02*
G01*
X164378134Y-118367411D01*
X164372558Y-118411086D01*
X164362242Y-118472022D01*
X164348696Y-118542863D01*
X164333427Y-118616253D01*
X164317943Y-118684833D01*
X164303753Y-118741249D01*
X164292362Y-118778143D01*
X164287350Y-118788005D01*
X164271260Y-118782308D01*
X164237281Y-118756812D01*
X164190238Y-118715523D01*
X164134955Y-118662446D01*
X164129301Y-118656787D01*
X163985003Y-118511817D01*
X164176309Y-118425162D01*
X164248976Y-118393302D01*
X164310549Y-118368298D01*
X164355080Y-118352419D01*
X164376619Y-118347939D01*
X164377464Y-118348354D01*
G37*
D13*
X122745000Y-103083262D02*
X122745000Y-88883262D01*
X122745000Y-88883262D02*
X108545000Y-88883262D01*
X108545000Y-103083262D02*
X122745000Y-103083262D01*
X108545000Y-88883262D02*
X108545000Y-103083262D01*
X141745000Y-103083262D02*
X141745000Y-88883262D01*
X141745000Y-88883262D02*
X127545000Y-88883262D01*
X127545000Y-103083262D02*
X141745000Y-103083262D01*
X127545000Y-88883262D02*
X127545000Y-103083262D01*
X103745000Y-103083262D02*
X103745000Y-88883262D01*
X103745000Y-88883262D02*
X89545000Y-88883262D01*
X89545000Y-103083262D02*
X103745000Y-103083262D01*
X89545000Y-88883262D02*
X89545000Y-103083262D01*
X122745000Y-141133262D02*
X122745000Y-126933262D01*
X122745000Y-126933262D02*
X108545000Y-126933262D01*
X108545000Y-141133262D02*
X122745000Y-141133262D01*
X108545000Y-126933262D02*
X108545000Y-141133262D01*
X103745000Y-122083262D02*
X103745000Y-107883262D01*
X103745000Y-107883262D02*
X89545000Y-107883262D01*
X89545000Y-122083262D02*
X103745000Y-122083262D01*
X89545000Y-107883262D02*
X89545000Y-122083262D01*
X103745000Y-141133262D02*
X103745000Y-126933262D01*
X103745000Y-126933262D02*
X89545000Y-126933262D01*
X89545000Y-141133262D02*
X103745000Y-141133262D01*
X89545000Y-126933262D02*
X89545000Y-141133262D01*
X141745000Y-122083262D02*
X141745000Y-107883262D01*
X141745000Y-107883262D02*
X127545000Y-107883262D01*
X127545000Y-122083262D02*
X141745000Y-122083262D01*
X127545000Y-107883262D02*
X127545000Y-122083262D01*
X127545000Y-126933262D02*
X127545000Y-141133262D01*
X127545000Y-141133262D02*
X141745000Y-141133262D01*
X141745000Y-126933262D02*
X127545000Y-126933262D01*
X141745000Y-141133262D02*
X141745000Y-126933262D01*
X122745000Y-122083262D02*
X122745000Y-107883262D01*
X122745000Y-107883262D02*
X108545000Y-107883262D01*
X108545000Y-122083262D02*
X122745000Y-122083262D01*
X108545000Y-107883262D02*
X108545000Y-122083262D01*
X146993400Y-131483462D02*
X147593400Y-131483462D01*
X147293400Y-131783462D02*
X146993400Y-131483462D01*
X147593400Y-131483462D02*
X147293400Y-131783462D01*
X148693400Y-129683462D02*
X148693400Y-141483462D01*
X152793400Y-129683462D02*
X148693400Y-129683462D01*
X152793400Y-141483462D02*
X148693400Y-141483462D01*
X154293400Y-135583462D02*
X155293400Y-135583462D01*
X154793400Y-135083462D02*
X154793400Y-136083462D01*
X156793400Y-129683462D02*
X160893400Y-129683462D01*
X160893400Y-129683462D02*
X160893400Y-132083462D01*
X160893400Y-134283462D02*
X160893400Y-136883462D01*
X160893400Y-139083462D02*
X160893400Y-141483462D01*
X160893400Y-141483462D02*
X156793400Y-141483462D01*
X157793400Y-135583462D02*
G75*
G02*
X151793400Y-135583462I-3000000J0D01*
G01*
X151793400Y-135583462D02*
G75*
G02*
X157793400Y-135583462I3000000J0D01*
G01*
M02*
