M48
; DRILL file {KiCad 8.0.3} date 2024-06-11T21:06:22+0530
; FORMAT={-:-/ absolute / metric / decimal}
; #@! TF.CreationDate,2024-06-11T21:06:22+05:30
; #@! TF.GenerationSoftware,Kicad,Pcbnew,8.0.3
; #@! TF.FileFunction,NonPlated,1,2,NPTH
FMAT,2
METRIC
; #@! TA.AperFunction,NonPlated,NPTH,ComponentDrill
T1C1.750
; #@! TA.AperFunction,NonPlated,NPTH,ComponentDrill
T2C2.200
; #@! TA.AperFunction,NonPlated,NPTH,ComponentDrill
T3C4.000
%
G90
G05
T1
X91.565Y-95.983
X91.565Y-114.983
X91.565Y-134.033
X101.725Y-95.983
X101.725Y-114.983
X101.725Y-134.033
X110.565Y-95.983
X110.565Y-114.983
X110.565Y-134.033
X120.725Y-95.983
X120.725Y-114.983
X120.725Y-134.033
X129.565Y-95.983
X129.565Y-114.983
X129.565Y-134.033
X139.725Y-95.983
X139.725Y-114.983
X139.725Y-134.033
T2
X84.15Y-142.849
X84.277Y-88.874
X166.395Y-142.417
X168.148Y-88.391
T3
X96.645Y-95.983
X96.645Y-114.983
X96.645Y-134.033
X115.645Y-95.983
X115.645Y-114.983
X115.645Y-134.033
X134.645Y-95.983
X134.645Y-114.983
X134.645Y-134.033
M30
