G04 #@! TF.GenerationSoftware,KiCad,Pcbnew,8.0.0*
G04 #@! TF.CreationDate,2024-03-13T16:50:10+05:30*
G04 #@! TF.ProjectId,CoryDora,436f7279-446f-4726-912e-6b696361645f,rev?*
G04 #@! TF.SameCoordinates,Original*
G04 #@! TF.FileFunction,Profile,NP*
%FSLAX46Y46*%
G04 Gerber Fmt 4.6, Leading zero omitted, Abs format (unit mm)*
G04 Created by KiCad (PCBNEW 8.0.0) date 2024-03-13 16:50:10*
%MOMM*%
%LPD*%
G01*
G04 APERTURE LIST*
G04 #@! TA.AperFunction,Profile*
%ADD10C,0.050000*%
G04 #@! TD*
%ADD11C,0.500000*%
G04 APERTURE END LIST*
D10*
X81305400Y-85622862D02*
X170916600Y-85622862D01*
X170916600Y-145719262D01*
X81305400Y-145719262D01*
X81305400Y-85622862D01*
D11*
X83138238Y-105427056D02*
X83043000Y-105331818D01*
X83043000Y-105331818D02*
X82947761Y-105046104D01*
X82947761Y-105046104D02*
X82947761Y-104855628D01*
X82947761Y-104855628D02*
X83043000Y-104569913D01*
X83043000Y-104569913D02*
X83233476Y-104379437D01*
X83233476Y-104379437D02*
X83423952Y-104284199D01*
X83423952Y-104284199D02*
X83804904Y-104188961D01*
X83804904Y-104188961D02*
X84090619Y-104188961D01*
X84090619Y-104188961D02*
X84471571Y-104284199D01*
X84471571Y-104284199D02*
X84662047Y-104379437D01*
X84662047Y-104379437D02*
X84852523Y-104569913D01*
X84852523Y-104569913D02*
X84947761Y-104855628D01*
X84947761Y-104855628D02*
X84947761Y-105046104D01*
X84947761Y-105046104D02*
X84852523Y-105331818D01*
X84852523Y-105331818D02*
X84757285Y-105427056D01*
X82947761Y-106569913D02*
X83043000Y-106379437D01*
X83043000Y-106379437D02*
X83138238Y-106284199D01*
X83138238Y-106284199D02*
X83328714Y-106188961D01*
X83328714Y-106188961D02*
X83900142Y-106188961D01*
X83900142Y-106188961D02*
X84090619Y-106284199D01*
X84090619Y-106284199D02*
X84185857Y-106379437D01*
X84185857Y-106379437D02*
X84281095Y-106569913D01*
X84281095Y-106569913D02*
X84281095Y-106855628D01*
X84281095Y-106855628D02*
X84185857Y-107046104D01*
X84185857Y-107046104D02*
X84090619Y-107141342D01*
X84090619Y-107141342D02*
X83900142Y-107236580D01*
X83900142Y-107236580D02*
X83328714Y-107236580D01*
X83328714Y-107236580D02*
X83138238Y-107141342D01*
X83138238Y-107141342D02*
X83043000Y-107046104D01*
X83043000Y-107046104D02*
X82947761Y-106855628D01*
X82947761Y-106855628D02*
X82947761Y-106569913D01*
X82947761Y-108093723D02*
X84281095Y-108093723D01*
X83900142Y-108093723D02*
X84090619Y-108188961D01*
X84090619Y-108188961D02*
X84185857Y-108284199D01*
X84185857Y-108284199D02*
X84281095Y-108474675D01*
X84281095Y-108474675D02*
X84281095Y-108665152D01*
X84281095Y-109141342D02*
X82947761Y-109617532D01*
X84281095Y-110093723D02*
X82947761Y-109617532D01*
X82947761Y-109617532D02*
X82471571Y-109427056D01*
X82471571Y-109427056D02*
X82376333Y-109331818D01*
X82376333Y-109331818D02*
X82281095Y-109141342D01*
X82947761Y-110855628D02*
X84947761Y-110855628D01*
X84947761Y-110855628D02*
X84947761Y-111331818D01*
X84947761Y-111331818D02*
X84852523Y-111617533D01*
X84852523Y-111617533D02*
X84662047Y-111808009D01*
X84662047Y-111808009D02*
X84471571Y-111903247D01*
X84471571Y-111903247D02*
X84090619Y-111998485D01*
X84090619Y-111998485D02*
X83804904Y-111998485D01*
X83804904Y-111998485D02*
X83423952Y-111903247D01*
X83423952Y-111903247D02*
X83233476Y-111808009D01*
X83233476Y-111808009D02*
X83043000Y-111617533D01*
X83043000Y-111617533D02*
X82947761Y-111331818D01*
X82947761Y-111331818D02*
X82947761Y-110855628D01*
X82947761Y-113141342D02*
X83043000Y-112950866D01*
X83043000Y-112950866D02*
X83138238Y-112855628D01*
X83138238Y-112855628D02*
X83328714Y-112760390D01*
X83328714Y-112760390D02*
X83900142Y-112760390D01*
X83900142Y-112760390D02*
X84090619Y-112855628D01*
X84090619Y-112855628D02*
X84185857Y-112950866D01*
X84185857Y-112950866D02*
X84281095Y-113141342D01*
X84281095Y-113141342D02*
X84281095Y-113427057D01*
X84281095Y-113427057D02*
X84185857Y-113617533D01*
X84185857Y-113617533D02*
X84090619Y-113712771D01*
X84090619Y-113712771D02*
X83900142Y-113808009D01*
X83900142Y-113808009D02*
X83328714Y-113808009D01*
X83328714Y-113808009D02*
X83138238Y-113712771D01*
X83138238Y-113712771D02*
X83043000Y-113617533D01*
X83043000Y-113617533D02*
X82947761Y-113427057D01*
X82947761Y-113427057D02*
X82947761Y-113141342D01*
X82947761Y-114665152D02*
X84281095Y-114665152D01*
X83900142Y-114665152D02*
X84090619Y-114760390D01*
X84090619Y-114760390D02*
X84185857Y-114855628D01*
X84185857Y-114855628D02*
X84281095Y-115046104D01*
X84281095Y-115046104D02*
X84281095Y-115236581D01*
X82947761Y-116760390D02*
X83995380Y-116760390D01*
X83995380Y-116760390D02*
X84185857Y-116665152D01*
X84185857Y-116665152D02*
X84281095Y-116474676D01*
X84281095Y-116474676D02*
X84281095Y-116093723D01*
X84281095Y-116093723D02*
X84185857Y-115903247D01*
X83043000Y-116760390D02*
X82947761Y-116569914D01*
X82947761Y-116569914D02*
X82947761Y-116093723D01*
X82947761Y-116093723D02*
X83043000Y-115903247D01*
X83043000Y-115903247D02*
X83233476Y-115808009D01*
X83233476Y-115808009D02*
X83423952Y-115808009D01*
X83423952Y-115808009D02*
X83614428Y-115903247D01*
X83614428Y-115903247D02*
X83709666Y-116093723D01*
X83709666Y-116093723D02*
X83709666Y-116569914D01*
X83709666Y-116569914D02*
X83804904Y-116760390D01*
X84281095Y-119046105D02*
X82947761Y-119522295D01*
X82947761Y-119522295D02*
X84281095Y-119998486D01*
X82947761Y-121808010D02*
X82947761Y-120665153D01*
X82947761Y-121236581D02*
X84947761Y-121236581D01*
X84947761Y-121236581D02*
X84662047Y-121046105D01*
X84662047Y-121046105D02*
X84471571Y-120855629D01*
X84471571Y-120855629D02*
X84376333Y-120665153D01*
M02*
