M48
; DRILL file {KiCad 8.0.4} date 2024-08-26T00:37:24+0530
; FORMAT={-:-/ absolute / inch / decimal}
; #@! TF.CreationDate,2024-08-26T00:37:24+05:30
; #@! TF.GenerationSoftware,Kicad,Pcbnew,8.0.4
; #@! TF.FileFunction,MixedPlating,1,2
FMAT,2
INCH
; #@! TA.AperFunction,Plated,PTH,ViaDrill
T1C0.0118
; #@! TA.AperFunction,Plated,PTH,ComponentDrill
T2C0.0315
; #@! TA.AperFunction,Plated,PTH,ComponentDrill
T3C0.0394
; #@! TA.AperFunction,Plated,PTH,ComponentDrill
T4C0.0591
; #@! TA.AperFunction,Plated,PTH,ComponentDrill
T5C0.1201
; #@! TA.AperFunction,NonPlated,NPTH,ComponentDrill
T6C0.0689
; #@! TA.AperFunction,NonPlated,NPTH,ComponentDrill
T7C0.0866
; #@! TA.AperFunction,NonPlated,NPTH,ComponentDrill
T8C0.1575
%
G90
G05
T1
X5.632Y-4.096
X5.664Y-3.937
X5.693Y-4.725
X5.814Y-4.371
X5.915Y-4.181
X5.996Y-3.726
X6.159Y-3.665
X6.25Y-4.012
X6.323Y-3.949
T2
X4.1986Y-3.4714
X4.1986Y-3.7714
X4.1986Y-4.2194
X4.1986Y-4.5194
X4.1986Y-4.9675
X4.1986Y-5.2675
X4.9467Y-3.4714
X4.9467Y-3.7714
X4.9467Y-4.2194
X4.9467Y-4.5194
X4.9467Y-4.9675
X4.9467Y-5.2675
X5.6349Y-3.4375
X5.6349Y-3.7375
X5.6349Y-4.1855
X5.6349Y-4.4855
X5.6349Y-4.8867
X5.6349Y-5.1867
T3
X5.799Y-5.2395
X5.799Y-5.3379
X5.799Y-5.4364
X5.8278Y-3.4601
X5.8278Y-3.5601
X5.8278Y-3.6601
X5.8278Y-3.7601
X5.8278Y-3.8601
X5.8278Y-3.9601
X5.8278Y-4.0601
X5.8278Y-4.1601
X5.8278Y-4.2601
X5.9278Y-4.2601
X5.9774Y-4.8576
X6.0278Y-4.2601
X6.0774Y-4.8576
X6.1278Y-4.2601
X6.1774Y-4.8576
X6.2278Y-4.2601
X6.2774Y-4.8576
X6.3278Y-4.2601
X6.3698Y-5.2395
X6.3698Y-5.4364
X6.4278Y-3.4601
X6.4278Y-3.5601
X6.4278Y-3.6601
X6.4278Y-3.7601
X6.4278Y-3.8601
X6.4278Y-3.9601
X6.4278Y-4.0601
X6.4278Y-4.1601
X6.4278Y-4.2601
T5
X3.7049Y-3.9789
X3.7049Y-4.7269
X3.7049Y-5.4769
X3.9549Y-3.8789
X3.9549Y-4.6269
X3.9549Y-5.3769
X4.453Y-3.9789
X4.453Y-4.7269
X4.453Y-5.4769
X4.703Y-3.8789
X4.703Y-4.6269
X4.703Y-5.3769
X5.201Y-3.9789
X5.201Y-4.7269
X5.201Y-5.4769
X5.451Y-3.8789
X5.451Y-4.6269
X5.451Y-5.3769
T6
X3.6049Y-3.7789
X3.6049Y-4.5269
X3.6049Y-5.2769
X4.0049Y-3.7789
X4.0049Y-4.5269
X4.0049Y-5.2769
X4.353Y-3.7789
X4.353Y-4.5269
X4.353Y-5.2769
X4.753Y-3.7789
X4.753Y-4.5269
X4.753Y-5.2769
X5.101Y-3.7789
X5.101Y-4.5269
X5.101Y-5.2769
X5.501Y-3.7789
X5.501Y-4.5269
X5.501Y-5.2769
T7
X3.313Y-5.624
X3.318Y-3.499
X6.551Y-5.607
X6.62Y-3.48
T8
X3.8049Y-3.7789
X3.8049Y-4.5269
X3.8049Y-5.2769
X4.553Y-3.7789
X4.553Y-4.5269
X4.553Y-5.2769
X5.301Y-3.7789
X5.301Y-4.5269
X5.301Y-5.2769
T4
G00X6.0686Y-5.1175
M15
G01X6.1198Y-5.1175
M16
G05
G00X6.0686Y-5.5584
M15
G01X6.1198Y-5.5584
M16
G05
M30
